<svg xmlns="http://www.w3.org/2000/svg" xmlns:xlink="http://www.w3.org/1999/xlink" width="81.55" height="50" viewBox="0 0 81.55 50"><defs><style>.cls-1{fill:none;}.cls-2{isolation:isolate;}.cls-3,.cls-6{fill:#fff;}.cls-4{fill:url(#Íîâûé_îáðàçåö_ãðàäèåíòà_7);}.cls-5{opacity:0.6;}.cls-5,.cls-53,.cls-55,.cls-58,.cls-63{mix-blend-mode:multiply;}.cls-6{opacity:0;}.cls-7{fill:#f9f9f9;opacity:0.02;}.cls-8{fill:#f4f4f4;opacity:0.05;}.cls-9{fill:#eee;opacity:0.07;}.cls-10{fill:#e9e9e9;opacity:0.1;}.cls-11{fill:#e3e3e3;opacity:0.12;}.cls-12{fill:#dedede;opacity:0.15;}.cls-13{fill:#d8d8d8;opacity:0.17;}.cls-14{fill:#d3d3d3;opacity:0.2;}.cls-15{fill:#cdcdcd;opacity:0.22;}.cls-16{fill:#c8c8c7;opacity:0.24;}.cls-17{fill:#c2c2c2;opacity:0.27;}.cls-18{fill:#bdbdbc;opacity:0.29;}.cls-19{fill:#b7b7b7;opacity:0.32;}.cls-20{fill:#b2b2b1;opacity:0.34;}.cls-21{fill:#acacac;opacity:0.37;}.cls-22{fill:#a7a7a6;opacity:0.39;}.cls-23{fill:#a1a1a0;opacity:0.41;}.cls-24{fill:#9c9c9b;opacity:0.44;}.cls-25{fill:#969695;opacity:0.46;}.cls-26{fill:#919190;opacity:0.49;}.cls-27{fill:#8b8b8a;opacity:0.51;}.cls-28{fill:#868685;opacity:0.54;}.cls-29{fill:#80807f;opacity:0.56;}.cls-30{fill:#7b7b7a;opacity:0.59;}.cls-31{fill:#757574;opacity:0.61;}.cls-32{fill:#70706e;opacity:0.63;}.cls-33{fill:#6a6a69;opacity:0.66;}.cls-34{fill:#656563;opacity:0.68;}.cls-35{fill:#5f5f5e;opacity:0.71;}.cls-36{fill:#5a5a58;opacity:0.73;}.cls-37{fill:#545453;opacity:0.76;}.cls-38{fill:#4f4f4d;opacity:0.78;}.cls-39{fill:#494947;opacity:0.8;}.cls-40{fill:#444442;opacity:0.83;}.cls-41{fill:#3e3e3c;opacity:0.85;}.cls-42{fill:#393937;opacity:0.88;}.cls-43{fill:#333331;opacity:0.9;}.cls-44{fill:#2e2e2c;opacity:0.93;}.cls-45{fill:#282826;opacity:0.95;}.cls-46{fill:#232321;opacity:0.98;}.cls-47{fill:#1d1d1b;}.cls-48{fill:#f5f1eb;}.cls-49{fill:url(#Íîâûé_îáðàçåö_ãðàäèåíòà_3);}.cls-50{clip-path:url(#clip-path);}.cls-51{fill:#fdfcfa;}.cls-52{fill:url(#Áåçûìÿííûé_ãðàäèåíò_708);}.cls-53{opacity:0.45;}.cls-54{fill:url(#Áåçûìÿííûé_ãðàäèåíò_703);}.cls-55{opacity:0.4;}.cls-56{fill:#f7f9f9;}.cls-57{fill:url(#Áåçûìÿííûé_ãðàäèåíò_620);}.cls-58{opacity:0.55;}.cls-59{fill:#ebf4f4;}.cls-60{fill:url(#Íîâûé_îáðàçåö_ãðàäèåíòà_6);}.cls-61{fill:#e1edee;}.cls-62{fill:url(#Íîâûé_îáðàçåö_ãðàäèåíòà_5);}.cls-63{opacity:0.65;}.cls-64{fill:#b9cdd1;}.cls-65{fill:url(#Íîâûé_îáðàçåö_ãðàäèåíòà_4);}</style><linearGradient id="Íîâûé_îáðàçåö_ãðàäèåíòà_7" x1="17.65" y1="66.4" x2="59.3" y2="-5.74" gradientUnits="userSpaceOnUse"><stop offset="0" stop-color="#d8c5ad"/><stop offset="0.02" stop-color="#d0bba2"/><stop offset="0.06" stop-color="#c6af95"/><stop offset="0.12" stop-color="#c1a88e"/><stop offset="0.24" stop-color="#bfa68c"/></linearGradient><linearGradient id="Íîâûé_îáðàçåö_ãðàäèåíòà_3" x1="26.76" y1="50.62" x2="59.96" y2="-6.89" gradientUnits="userSpaceOnUse"><stop offset="0" stop-color="#d8c5ad"/><stop offset="0.15" stop-color="#d8c0a2"/><stop offset="0.38" stop-color="#d8bd9b"/><stop offset="1" stop-color="#d8bc99"/></linearGradient><clipPath id="clip-path"><rect class="cls-1" x="1.55" width="80" height="50" transform="translate(83.1 50) rotate(180)"/></clipPath><linearGradient id="Áåçûìÿííûé_ãðàäèåíò_708" x1="28.67" y1="42.02" x2="55.95" y2="7.89" gradientUnits="userSpaceOnUse"><stop offset="0" stop-color="#f5efe4"/><stop offset="0.17" stop-color="#f2e9da"/><stop offset="0.45" stop-color="#f0e5d2"/><stop offset="1" stop-color="#efe4d0"/></linearGradient><linearGradient id="Áåçûìÿííûé_ãðàäèåíò_703" x1="34.33" y1="40.13" x2="47.31" y2="20.48" gradientUnits="userSpaceOnUse"><stop offset="0" stop-color="#fff"/><stop offset="0.15" stop-color="#f8fafa"/><stop offset="0.48" stop-color="#f0f4f4"/><stop offset="1" stop-color="#edf2f2"/></linearGradient><linearGradient id="Áåçûìÿííûé_ãðàäèåíò_620" x1="43.33" y1="37.12" x2="57.98" y2="11.74" gradientUnits="userSpaceOnUse"><stop offset="0.05" stop-color="#e6edee"/><stop offset="0.19" stop-color="#d7e9ea"/><stop offset="0.4" stop-color="#c8e4e5"/><stop offset="0.64" stop-color="#bfe2e3"/><stop offset="1" stop-color="#bce1e2"/></linearGradient><linearGradient id="Íîâûé_îáðàçåö_ãðàäèåíòà_6" x1="48.46" y1="31.78" x2="71.72" y2="-1.11" gradientUnits="userSpaceOnUse"><stop offset="0" stop-color="#cbe3e5"/><stop offset="0.01" stop-color="#c8e2e4"/><stop offset="0.1" stop-color="#b2dcde"/><stop offset="0.2" stop-color="#a1d7d9"/><stop offset="0.33" stop-color="#96d4d6"/><stop offset="0.5" stop-color="#8fd2d4"/><stop offset="1" stop-color="#8dd1d3"/></linearGradient><linearGradient id="Íîâûé_îáðàçåö_ãðàäèåíòà_5" x1="51.63" y1="22.41" x2="66.28" y2="-2.96" gradientUnits="userSpaceOnUse"><stop offset="0" stop-color="#9cc2c5"/><stop offset="0.02" stop-color="#97c1c4"/><stop offset="0.13" stop-color="#7db9be"/><stop offset="0.25" stop-color="#6bb4ba"/><stop offset="0.37" stop-color="#60b1b8"/><stop offset="0.5" stop-color="#5cb0b7"/></linearGradient><linearGradient id="Íîâûé_îáðàçåö_ãðàäèåíòà_4" x1="58.35" y1="18.99" x2="71.67" y2="-5.07" gradientUnits="userSpaceOnUse"><stop offset="0" stop-color="#5a99a3"/><stop offset="0.19" stop-color="#4a8d98"/><stop offset="0.42" stop-color="#3d838f"/><stop offset="0.63" stop-color="#38808c"/></linearGradient></defs><title>reseller1</title><g class="cls-2"><g id="Layer_2" data-name="Layer 2"><g id="Ñëîé_11" data-name="Ñëîé 11"><g id="Background"><g id="Background-2" data-name="Background"><rect class="cls-3" x="1.55" width="80" height="50" transform="translate(83.1 50) rotate(180)"/><rect class="cls-4" x="1.55" width="80" height="50"/><g class="cls-5"><path class="cls-6" d="M7.27,37.41c4.49,1.95,8.05,2.33,12.45,4.16A36.94,36.94,0,0,1,31.35,50h50.2V0h-80V33.14C3.22,35.41,4.58,36.24,7.27,37.41Z"/><path class="cls-7" d="M7.3,37.35c4.49,1.95,8.07,2.3,12.47,4.11A34.68,34.68,0,0,1,31.44,50H81.55V0h-80V33.06A11.8,11.8,0,0,0,7.3,37.35Z"/><path class="cls-8" d="M7.33,37.29c4.49,1.95,8.08,2.28,12.5,4.06A33,33,0,0,1,31.52,50h50V0h-80V33A11.93,11.93,0,0,0,7.33,37.29Z"/><path class="cls-9" d="M7.36,37.23c4.49,1.95,8.1,2.26,12.52,4A31.33,31.33,0,0,1,31.61,50H81.55V0h-80V32.89A12.06,12.06,0,0,0,7.36,37.23Z"/><path class="cls-10" d="M7.39,37.17c4.49,1.95,8.11,2.23,12.54,4A29.88,29.88,0,0,1,31.69,50H81.55V0h-80V32.8A12.18,12.18,0,0,0,7.39,37.17Z"/><path class="cls-11" d="M7.42,37.11C11.91,39.06,15.55,39.32,20,41a28.59,28.59,0,0,1,11.79,9H81.55V0h-80V32.72A12.31,12.31,0,0,0,7.42,37.11Z"/><path class="cls-12" d="M7.45,37C11.94,39,15.6,39.23,20,40.91A27.43,27.43,0,0,1,31.87,50H81.55V0h-80V32.63A12.44,12.44,0,0,0,7.45,37Z"/><path class="cls-13" d="M7.48,37C12,38.93,15.64,39.14,20.1,40.8A26.39,26.39,0,0,1,32,50h49.6V0h-80V32.55A12.57,12.57,0,0,0,7.48,37Z"/><path class="cls-14" d="M7.51,36.93c4.49,1.95,8.18,2.12,12.64,3.76A25.44,25.44,0,0,1,32,50H81.55V0h-80V32.46A12.69,12.69,0,0,0,7.51,36.93Z"/><path class="cls-15" d="M7.54,36.87C12,38.81,15.74,39,20.2,40.58A24.58,24.58,0,0,1,32.12,50H81.55V0h-80V32.37A12.82,12.82,0,0,0,7.54,36.87Z"/><path class="cls-16" d="M7.57,36.81c4.49,1.95,8.21,2.07,12.68,3.66A23.8,23.8,0,0,1,32.21,50H81.55V0h-80V32.29A13,13,0,0,0,7.57,36.81Z"/><path class="cls-17" d="M7.6,36.75c4.49,1.95,8.23,2,12.71,3.61,6,2.1,10.37,6.62,12,9.64H81.55V0h-80V32.2A13.09,13.09,0,0,0,7.6,36.75Z"/><path class="cls-18" d="M7.63,36.68c4.49,1.95,8.24,2,12.73,3.57,6.09,2.11,10.44,6.66,12,9.75H81.55V0h-80V32.12A13.22,13.22,0,0,0,7.63,36.68Z"/><path class="cls-19" d="M7.66,36.62c4.49,1.95,8.26,2,12.75,3.52,6.2,2.12,10.51,6.71,12,9.86H81.55V0h-80V32A13.35,13.35,0,0,0,7.66,36.62Z"/><path class="cls-20" d="M7.69,36.56C12.18,38.51,16,38.51,20.47,40c6.31,2.13,10.59,6.75,12.08,10h49V0h-80V31.95A13.48,13.48,0,0,0,7.69,36.56Z"/><path class="cls-21" d="M7.72,36.5c4.49,1.95,8.3,1.92,12.8,3.42,6.42,2.14,10.66,6.8,12.11,10.08H81.55V0h-80V31.86A13.62,13.62,0,0,0,7.72,36.5Z"/><path class="cls-22" d="M7.75,36.44c4.49,1.95,8.31,1.89,12.82,3.37C27.11,42,31.31,46.65,32.72,50H81.55V0h-80V31.78A13.75,13.75,0,0,0,7.75,36.44Z"/><path class="cls-23" d="M7.78,36.38c4.49,1.95,8.33,1.85,12.85,3.32,6.64,2.15,10.8,6.89,12.17,10.3H81.55V0h-80V31.69A13.89,13.89,0,0,0,7.78,36.38Z"/><path class="cls-24" d="M7.81,36.32c4.49,1.95,8.35,1.82,12.87,3.27,6.75,2.16,10.87,6.93,12.2,10.41H81.55V0h-80V31.61A14,14,0,0,0,7.81,36.32Z"/><path class="cls-25" d="M7.84,36.26c4.49,1.95,8.37,1.79,12.89,3.22C27.6,41.65,31.68,46.45,33,50H81.55V0h-80V31.52A14.16,14.16,0,0,0,7.84,36.26Z"/><path class="cls-26" d="M7.87,36.2c4.49,1.95,8.39,1.76,12.92,3.17,7,2.17,11,7,12.27,10.63H81.55V0h-80V31.44A14.3,14.3,0,0,0,7.87,36.2Z"/><path class="cls-27" d="M7.9,36.14c4.49,1.95,8.4,1.73,12.94,3.12,7.08,2.18,11.09,7.06,12.3,10.74H81.55V0h-80V31.35A14.44,14.44,0,0,0,7.9,36.14Z"/><path class="cls-28" d="M7.93,36.08c4.49,1.95,8.42,1.69,13,3.07C28.09,41.33,32.06,46.26,33.23,50H81.55V0h-80V31.26A14.58,14.58,0,0,0,7.93,36.08Z"/><path class="cls-29" d="M8,36c4.49,1.95,8.44,1.66,13,3,7.31,2.19,11.23,7.15,12.36,11H81.55V0h-80V31.18A14.72,14.72,0,0,0,8,36Z"/><path class="cls-30" d="M8,36c4.49,1.95,8.46,1.63,13,3,7.42,2.19,11.31,7.2,12.4,11.07H81.55V0h-80V31.09A14.86,14.86,0,0,0,8,36Z"/><path class="cls-31" d="M8,35.9c4.49,1.95,8.48,1.6,13,2.92C28.59,41,32.44,46.06,33.49,50H81.55V0h-80V31A15,15,0,0,0,8,35.9Z"/><path class="cls-32" d="M8.06,35.84c4.49,1.95,8.49,1.56,13.06,2.87C28.75,40.91,32.56,46,33.57,50h48V0h-80V30.92A15.14,15.14,0,0,0,8.06,35.84Z"/><path class="cls-33" d="M8.09,35.78c4.49,1.95,8.51,1.53,13.08,2.83,7.75,2.2,11.52,7.33,12.49,11.4H81.55V0h-80V30.84A15.28,15.28,0,0,0,8.09,35.78Z"/><path class="cls-34" d="M8.12,35.72c4.49,1.95,8.53,1.5,13.1,2.78,7.87,2.2,11.59,7.37,12.52,11.51H81.55V0h-80V30.75A15.42,15.42,0,0,0,8.12,35.72Z"/><path class="cls-35" d="M8.15,35.65c4.49,1.95,8.55,1.46,13.13,2.73,8,2.21,11.67,7.42,12.56,11.62H81.55V0h-80V30.67A15.57,15.57,0,0,0,8.15,35.65Z"/><path class="cls-36" d="M8.18,35.59c4.49,1.95,8.57,1.43,13.15,2.68C29.42,40.48,33.06,45.73,33.91,50H81.55V0h-80V30.58A15.71,15.71,0,0,0,8.18,35.59Z"/><path class="cls-37" d="M8.21,35.53c4.49,1.95,8.59,1.39,13.17,2.63C29.58,40.37,33.19,45.67,34,50H81.55V0h-80V30.5A15.85,15.85,0,0,0,8.21,35.53Z"/><path class="cls-38" d="M8.24,35.47c4.49,1.95,8.61,1.36,13.2,2.58C29.75,40.26,33.31,45.6,34.08,50H81.55V0h-80V30.41A16,16,0,0,0,8.24,35.47Z"/><path class="cls-39" d="M8.27,35.41c4.49,1.95,8.62,1.32,13.22,2.53,8.43,2.21,12,7.6,12.68,12.06H81.55V0h-80V30.33A16.15,16.15,0,0,0,8.27,35.41Z"/><path class="cls-40" d="M8.3,35.35c4.49,1.95,8.64,1.29,13.24,2.48C30.08,40,33.56,45.47,34.26,50h47.3V0h-80V30.24A16.29,16.29,0,0,0,8.3,35.35Z"/><path class="cls-41" d="M8.33,35.29c4.49,1.95,8.66,1.25,13.27,2.43,8.65,2.21,12.1,7.68,12.75,12.28H81.55V0h-80V30.16A16.44,16.44,0,0,0,8.33,35.29Z"/><path class="cls-42" d="M8.36,35.23c4.49,1.95,8.68,1.22,13.29,2.38C30.41,39.82,33.82,45.34,34.43,50H81.55V0h-80V30.07A16.59,16.59,0,0,0,8.36,35.23Z"/><path class="cls-43" d="M8.39,35.17c4.49,1.95,8.7,1.18,13.31,2.33,8.88,2.21,12.24,7.77,12.81,12.5h47V0h-80V30A16.74,16.74,0,0,0,8.39,35.17Z"/><path class="cls-44" d="M8.42,35.11c4.49,1.95,8.72,1.15,13.34,2.28,9,2.21,12.31,7.82,12.84,12.61h47V0h-80V29.9A16.89,16.89,0,0,0,8.42,35.11Z"/><path class="cls-45" d="M8.45,35c4.49,1.95,8.74,1.11,13.36,2.23C30.91,39.47,34.19,45.14,34.68,50H81.55V0h-80V29.81A17,17,0,0,0,8.45,35Z"/><path class="cls-46" d="M8.48,35c4.49,1.95,8.75,1.07,13.38,2.18C31.08,39.36,34.32,45.08,34.77,50H81.55V0h-80V29.73A17.19,17.19,0,0,0,8.48,35Z"/><path class="cls-47" d="M8.51,34.93c4.49,1.95,8.77,1,13.41,2.13,9.33,2.2,12.53,8,12.94,12.94h46.7V0h-80V29.64A17.34,17.34,0,0,0,8.51,34.93Z"/></g><path class="cls-48" d="M1.55,29.89a15.75,15.75,0,0,0,6.4,5.17,23.44,23.44,0,0,0,8.19,1.47,33.34,33.34,0,0,1,5.74.67C29.33,39,33.39,43.27,34,50h47.6V0h-80Z"/><path class="cls-49" d="M8,34.93c4.49,1.95,9.27,1,13.91,2.13C31.24,39.26,33.69,45,34.1,50H81.55V0h-80V29.64A15.8,15.8,0,0,0,8,34.93Z"/><g class="cls-50"><g class="cls-5"><path class="cls-6" d="M6.2,12.63c1.33,8.24,3.5,14.19,7.88,18.81,3.44,3.63,6.17,4.84,11.37,6.74C31.1,40.25,34.8,43.75,35.7,50H81.55V0H0A25.5,25.5,0,0,1,6.2,12.63Z"/><path class="cls-7" d="M6.34,12.55c1.35,8.19,3.42,14.18,7.76,18.82,3.42,3.67,6.21,4.82,11.41,6.73,5.65,2.08,9.36,5.67,10.22,11.9H81.55V0H.09A25.26,25.26,0,0,1,6.34,12.55Z"/><path class="cls-8" d="M6.48,12.46C7.84,20.6,9.82,26.63,14.13,31.3,17.54,35,20.39,36.09,25.59,38c5.65,2.09,9.36,5.77,10.2,12H81.55V0H.17A25,25,0,0,1,6.48,12.46Z"/><path class="cls-9" d="M6.62,12.38C8,20.46,9.88,26.53,14.16,31.22c3.39,3.75,6.3,4.77,11.49,6.7C31.3,40,35,43.79,35.83,50H81.55V0H.26A24.78,24.78,0,0,1,6.62,12.38Z"/><path class="cls-10" d="M6.76,12.3c1.42,8,3.2,14.12,7.43,18.85,3.39,3.78,6.35,4.75,11.54,6.68,5.64,2.1,9.36,6,10.14,12.17H81.55V0H.34A24.46,24.46,0,0,1,6.76,12.3Z"/><path class="cls-11" d="M6.9,12.22c1.44,8,3.12,14.11,7.32,18.86,3.37,3.82,6.39,4.73,11.58,6.67,5.64,2.11,9.36,6.07,10.12,12.25H81.55V0H.43A24.21,24.21,0,0,1,6.9,12.22Z"/><path class="cls-12" d="M7,12.14c1.46,7.9,3,14.09,7.21,18.87,3.36,3.86,6.44,4.7,11.62,6.65C31.5,39.78,35.22,43.83,36,50h45.6V0H.51A24,24,0,0,1,7,12.14Z"/><path class="cls-13" d="M7.18,12.05c1.48,7.85,3,14.07,7.1,18.88,3.35,3.9,6.49,4.68,11.66,6.64C31.57,39.7,35.29,43.85,36,50H81.55V0H.6A23.71,23.71,0,0,1,7.18,12.05Z"/><path class="cls-14" d="M7.32,12c1.5,7.79,2.89,14.06,7,18.89,3.33,3.94,6.53,4.66,11.71,6.62,5.63,2.14,9.36,6.38,10,12.52H81.55V0H.68A23.47,23.47,0,0,1,7.32,12Z"/><path class="cls-15" d="M7.45,11.89c1.52,7.73,2.82,14,6.87,18.9,3.32,4,6.58,4.63,11.75,6.61,5.63,2.15,9.36,6.48,10,12.6H81.55V0H.77A23.23,23.23,0,0,1,7.45,11.89Z"/><path class="cls-16" d="M7.59,11.81c1.54,7.68,2.74,14,6.76,18.91,3.31,4,6.62,4.61,11.79,6.59,5.63,2.16,9.36,6.58,10,12.69H81.55V0H.85A23,23,0,0,1,7.59,11.81Z"/><path class="cls-17" d="M7.73,11.73c1.55,7.62,2.66,14,6.65,18.92,3.29,4.05,6.67,4.59,11.83,6.58A14.9,14.9,0,0,1,36.17,50H81.55V0H.94A22.76,22.76,0,0,1,7.73,11.73Z"/><path class="cls-18" d="M7.87,11.64c1.57,7.56,2.59,14,6.54,18.93,3.28,4.09,6.71,4.56,11.87,6.56A15,15,0,0,1,36.21,50H81.55V0H1A22.53,22.53,0,0,1,7.87,11.64Z"/><path class="cls-19" d="M8,11.56c1.59,7.5,2.51,14,6.43,18.94C17.7,34.63,21.2,35,26.35,37a15.06,15.06,0,0,1,9.9,13h45.3V0H1.11A22.3,22.3,0,0,1,8,11.56Z"/><path class="cls-20" d="M8.15,11.48c1.61,7.45,2.43,14,6.31,18.94,3.25,4.17,6.8,4.52,12,6.53a15.14,15.14,0,0,1,9.87,13H81.55V0H1.2A22.08,22.08,0,0,1,8.15,11.48Z"/><path class="cls-21" d="M8.29,11.4c1.63,7.39,2.36,13.95,6.2,19,3.24,4.21,6.85,4.49,12,6.52A15.22,15.22,0,0,1,36.34,50H81.55V0H1.28A21.86,21.86,0,0,1,8.29,11.4Z"/><path class="cls-22" d="M8.43,11.32c1.65,7.33,2.28,13.93,6.09,19,3.22,4.25,6.89,4.47,12,6.5A15.3,15.3,0,0,1,36.38,50H81.55V0H1.37A21.64,21.64,0,0,1,8.43,11.32Z"/><path class="cls-23" d="M8.57,11.23c1.66,7.28,2.2,13.92,6,19,3.21,4.29,6.94,4.45,12.08,6.49A15.38,15.38,0,0,1,36.42,50H81.55V0H1.45A21.43,21.43,0,0,1,8.57,11.23Z"/><path class="cls-24" d="M8.71,11.15c1.68,7.22,2.13,13.9,5.87,19,3.19,4.34,7,4.42,12.13,6.47A15.47,15.47,0,0,1,36.47,50H81.55V0h-80A21.22,21.22,0,0,1,8.71,11.15Z"/><path class="cls-25" d="M8.85,11.07c1.7,7.16,2,13.89,5.76,19,3.18,4.38,7,4.4,12.17,6.46A15.55,15.55,0,0,1,36.51,50h45V0H1.62A21,21,0,0,1,8.85,11.07Z"/><path class="cls-26" d="M9,11c1.71,7.11,2,13.87,5.65,19,3.17,4.42,7.08,4.38,12.21,6.44A15.63,15.63,0,0,1,36.55,50h45V0H1.71A20.81,20.81,0,0,1,9,11Z"/><path class="cls-27" d="M9.12,10.91c1.73,7.05,1.89,13.86,5.53,19,3.15,4.46,7.12,4.35,12.25,6.43A15.71,15.71,0,0,1,36.59,50h45V0H1.79A20.61,20.61,0,0,1,9.12,10.91Z"/><path class="cls-28" d="M9.26,10.82c1.75,7,1.81,13.84,5.42,19,3.14,4.5,7.17,4.33,12.29,6.41A15.8,15.8,0,0,1,36.64,50H81.55V0H1.88A20.41,20.41,0,0,1,9.26,10.82Z"/><path class="cls-29" d="M9.4,10.74c1.76,6.94,1.74,13.83,5.31,19,3.12,4.54,7.21,4.31,12.34,6.4A15.88,15.88,0,0,1,36.68,50H81.55V0H2A20.22,20.22,0,0,1,9.4,10.74Z"/><path class="cls-30" d="M9.54,10.66c1.78,6.88,1.66,13.82,5.2,19C17.85,34.28,22,34,27.12,36.08A16,16,0,0,1,36.72,50H81.55V0H2A20,20,0,0,1,9.54,10.66Z"/><path class="cls-31" d="M9.68,10.58c1.79,6.83,1.58,13.8,5.09,19,3.09,4.62,7.3,4.26,12.42,6.37a16,16,0,0,1,9.57,14H81.55V0H2.13A19.84,19.84,0,0,1,9.68,10.58Z"/><path class="cls-32" d="M9.82,10.5c1.81,6.77,1.5,13.79,5,19.06,3.07,4.66,7.35,4.24,12.46,6.35A16.13,16.13,0,0,1,36.81,50H81.55V0H2.22A19.65,19.65,0,0,1,9.82,10.5Z"/><path class="cls-33" d="M10,10.41c1.82,6.72,1.42,13.77,4.86,19.07,3.06,4.7,7.39,4.21,12.51,6.34A16.22,16.22,0,0,1,36.85,50h44.7V0H2.3A19.47,19.47,0,0,1,10,10.41Z"/><path class="cls-34" d="M10.1,10.33c1.84,6.66,1.34,13.76,4.75,19.08,3,4.74,7.44,4.19,12.55,6.32A16.3,16.3,0,0,1,36.89,50H81.55V0H2.39A19.3,19.3,0,0,1,10.1,10.33Z"/><path class="cls-35" d="M10.24,10.25c1.85,6.6,1.26,13.75,4.64,19.09,3,4.79,7.49,4.17,12.59,6.31C33.05,38,36.82,44.15,36.94,50H81.55V0H2.48A19.12,19.12,0,0,1,10.24,10.25Z"/><path class="cls-36" d="M10.38,10.17c1.87,6.55,1.18,13.73,4.53,19.09,3,4.83,7.53,4.14,12.63,6.29C33.12,37.91,36.89,44.16,37,50H81.55V0h-79A19,19,0,0,1,10.38,10.17Z"/><path class="cls-37" d="M10.52,10.09c1.88,6.49,1.1,13.72,4.42,19.1,3,4.87,7.58,4.12,12.67,6.28C33.18,37.83,37,44.18,37,50H81.55V0H2.65A18.79,18.79,0,0,1,10.52,10.09Z"/><path class="cls-38" d="M10.66,10c1.89,6.44,1,13.7,4.31,19.11,3,4.91,7.62,4.1,12.72,6.26C33.25,37.76,37,44.19,37.06,50H81.55V0H2.73A18.62,18.62,0,0,1,10.66,10Z"/><path class="cls-39" d="M10.79,9.92C12.7,16.3,11.74,23.61,15,29c3,5,7.67,4.07,12.76,6.25,5.57,2.38,9.36,8.91,9.36,14.71H81.55V0H2.82A18.46,18.46,0,0,1,10.79,9.92Z"/><path class="cls-40" d="M10.93,9.84C12.85,16.17,11.8,23.52,15,29,18,34,22.73,33,27.82,35.21c5.57,2.39,9.36,9,9.33,14.79h44.4V0H2.9A18.3,18.3,0,0,1,10.93,9.84Z"/><path class="cls-41" d="M11.07,9.76C13,16,11.86,23.42,15,28.9c2.93,5,7.76,4,12.84,6.22,5.57,2.4,9.36,9.11,9.3,14.88H81.55V0H3A18.15,18.15,0,0,1,11.07,9.76Z"/><path class="cls-42" d="M11.21,9.68c1.95,6.22.71,13.65,3.86,19.15C18,33.9,22.88,32.83,28,35c5.56,2.41,9.36,9.22,9.28,15H81.55V0H3.07A18,18,0,0,1,11.21,9.68Z"/><path class="cls-43" d="M11.35,9.59c2,6.16.61,13.64,3.75,19.16C18,33.88,23,32.73,28,34.94c5.56,2.42,9.36,9.32,9.25,15.06H81.55V0H3.16A17.85,17.85,0,0,1,11.35,9.59Z"/><path class="cls-44" d="M11.49,9.51c2,6.11.54,13.63,3.64,19.17,2.87,5.16,7.9,4,13,6.18,5.56,2.43,9.36,9.42,9.22,15.14H81.55V0H3.24A17.71,17.71,0,0,1,11.49,9.51Z"/><path class="cls-45" d="M11.63,9.43c2,6.05.46,13.61,3.53,19.18,2.86,5.21,7.94,3.93,13,6.16,5.56,2.44,9.36,9.52,9.2,15.23H81.55V0H3.33A17.6,17.6,0,0,1,11.63,9.43Z"/><path class="cls-46" d="M11.77,9.35c2,6,.38,13.6,3.41,19.19,2.84,5.25,8,3.91,13.05,6.15C33.79,37.13,37.59,44.3,37.4,50H81.55V0H3.41C7.29,2.19,10.43,5.35,11.77,9.35Z"/><path class="cls-47" d="M11.91,9.27c2,5.94.3,13.58,3.3,19.2,2.83,5.29,8,3.89,13.09,6.13,5.55,2.46,9.36,9.72,9.14,15.41h44.1V0H3.5C7.39,2.16,10.55,5.26,11.91,9.27Z"/></g></g><path class="cls-51" d="M36.8,50H81.55V0H2.69l.24.13C6.15,1.92,10.3,5,11.77,9.31a28.29,28.29,0,0,1,1,8.42c.07,3.52.15,7.16,1.8,10.3,2.05,3.89,5.28,4.56,8.69,5.28a24.24,24.24,0,0,1,5,1.42C33.86,37.22,37,44.45,36.8,50Z"/><path class="cls-52" d="M11.91,9.27c2,5.94-.17,13.07,2.8,18.7s8.53,4.39,13.59,6.63c5.55,2.46,8.86,9.72,8.64,15.41h44.6V0H3C6.89,2.16,10.55,5.26,11.91,9.27Z"/><g class="cls-53"><path class="cls-6" d="M17.18,14.33c3,4.92,11.06,13.21,12.53,15.18s3.38,5.49,5,7.65c2.39,3.15,4,6.08,5.35,7.4.94.94,3.5,4,4.59,5.45H81.55V0H3.85A61.34,61.34,0,0,1,17.18,14.33Z"/><path class="cls-7" d="M17.21,14.27c3,4.93,11,13.07,12.51,15.13s3.38,5.51,5,7.64c2.44,3.15,4,6.07,5.36,7.45,1,1,3.55,4.05,4.78,5.52H81.55V0H3.93A60.48,60.48,0,0,1,17.21,14.27Z"/><path class="cls-8" d="M17.24,14.21c3,4.94,11,12.92,12.49,15.07,1.39,2,3.37,5.53,5,7.62,2.5,3.16,4,6.06,5.37,7.5,1,1.08,3.59,4.1,5,5.6H81.55V0H4A59.62,59.62,0,0,1,17.24,14.21Z"/><path class="cls-9" d="M17.27,14.15c3,4.95,10.93,12.78,12.47,15,1.39,2,3.37,5.55,5,7.61,2.55,3.16,4,6,5.37,7.55,1,1.14,3.64,4.15,5.16,5.67H81.55V0H4.09A58.78,58.78,0,0,1,17.27,14.15Z"/><path class="cls-10" d="M17.3,14.09c3,5,10.89,12.64,12.44,15,1.38,2.07,3.36,5.57,5,7.6,2.61,3.17,4,6,5.38,7.6,1.07,1.21,3.69,4.2,5.35,5.74h36V0H4.17A58,58,0,0,1,17.3,14.09Z"/><path class="cls-11" d="M17.33,14c3,5,10.85,12.5,12.42,14.91a86.68,86.68,0,0,0,5,7.58c2.66,3.17,4,6,5.39,7.65A68.19,68.19,0,0,0,45.71,50H81.55V0H4.25A57.12,57.12,0,0,1,17.33,14Z"/><path class="cls-12" d="M17.36,14c3.05,5,10.82,12.36,12.4,14.86a74.33,74.33,0,0,0,5,7.57c2.72,3.18,4,6,5.4,7.71A53.56,53.56,0,0,0,45.92,50H81.55V0H4.33A56.31,56.31,0,0,1,17.36,14Z"/><path class="cls-13" d="M17.39,13.91c3.06,5,10.78,12.21,12.38,14.81a65.12,65.12,0,0,0,5,7.56c2.78,3.18,4,6,5.41,7.76a44.86,44.86,0,0,0,5.91,6H81.55V0H4.41A55.51,55.51,0,0,1,17.39,13.91Z"/><path class="cls-14" d="M17.42,13.85c3.06,5,10.74,12.07,12.36,14.75a58,58,0,0,0,5,7.55c2.84,3.19,4,6,5.41,7.81a39.11,39.11,0,0,0,6.1,6H81.55V0H4.48A54.71,54.71,0,0,1,17.42,13.85Z"/><path class="cls-15" d="M17.45,13.79c3.07,5,10.7,11.93,12.34,14.7a52.38,52.38,0,0,0,5,7.53c2.9,3.19,4,6,5.42,7.86A35.05,35.05,0,0,0,46.54,50h35V0h-77A53.94,53.94,0,0,1,17.45,13.79Z"/><path class="cls-16" d="M17.48,13.74c3.07,5,10.66,11.79,12.32,14.65a47.78,47.78,0,0,0,5,7.52c3,3.19,4,6,5.43,7.91A32.05,32.05,0,0,0,46.75,50h34.8V0H4.64A53.16,53.16,0,0,1,17.48,13.74Z"/><path class="cls-17" d="M17.51,13.68c3.08,5,10.62,11.64,12.29,14.6a44,44,0,0,0,5.05,7.51c3,3.2,3.95,6,5.44,8A29.75,29.75,0,0,0,47,50h34.6V0H4.72A52.4,52.4,0,0,1,17.51,13.68Z"/><path class="cls-18" d="M17.54,13.62c3.08,5,10.59,11.5,12.27,14.54a40.71,40.71,0,0,0,5.05,7.49c3.08,3.2,3.94,6,5.44,8A28,28,0,0,0,47.16,50H81.55V0H4.8A51.65,51.65,0,0,1,17.54,13.62Z"/><path class="cls-19" d="M17.56,13.56c3.09,5,10.55,11.36,12.25,14.49a37.94,37.94,0,0,0,5.06,7.48c3.14,3.2,3.93,6,5.45,8.07a26.5,26.5,0,0,0,7,6.4H81.55V0H4.88A50.9,50.9,0,0,1,17.56,13.56Z"/><path class="cls-20" d="M17.59,13.5c3.09,5,10.51,11.21,12.23,14.44a35.54,35.54,0,0,0,5.06,7.47c3.2,3.2,3.92,6,5.46,8.12A25.32,25.32,0,0,0,47.58,50h34V0H5A50.17,50.17,0,0,1,17.59,13.5Z"/><path class="cls-21" d="M17.62,13.44c3.1,5,10.48,11.07,12.21,14.38a33.44,33.44,0,0,0,5.06,7.45c3.26,3.2,3.91,5.95,5.47,8.17A24.35,24.35,0,0,0,47.78,50H81.55V0H5A49.44,49.44,0,0,1,17.62,13.44Z"/><path class="cls-22" d="M17.65,13.38c3.1,5.05,10.44,10.92,12.19,14.33a31.59,31.59,0,0,0,5.06,7.44c3.32,3.21,3.9,5.94,5.48,8.22A23.54,23.54,0,0,0,48,50H81.55V0H5.12A48.72,48.72,0,0,1,17.65,13.38Z"/><path class="cls-23" d="M17.68,13.32c3.11,5.06,10.4,10.78,12.17,14.28A29.93,29.93,0,0,0,34.92,35C38.3,38.24,38.8,41,40.4,43.3A22.86,22.86,0,0,0,48.2,50H81.55V0H5.2A48,48,0,0,1,17.68,13.32Z"/><path class="cls-24" d="M17.71,13.26c3.11,5.07,10.37,10.63,12.14,14.22a28.45,28.45,0,0,0,5.07,7.42c3.45,3.21,3.88,5.93,5.49,8.33a22.28,22.28,0,0,0,8,6.77H81.55V0H5.28A47.31,47.31,0,0,1,17.71,13.26Z"/><path class="cls-25" d="M17.74,13.21c3.12,5.08,10.33,10.49,12.12,14.17a27.12,27.12,0,0,0,5.07,7.4c3.51,3.21,3.87,5.92,5.5,8.38A21.79,21.79,0,0,0,48.61,50H81.55V0H5.36A46.62,46.62,0,0,1,17.74,13.21Z"/><path class="cls-26" d="M17.77,13.15c3.12,5.08,10.3,10.35,12.1,14.12a25.9,25.9,0,0,0,5.07,7.39c3.58,3.21,3.86,5.91,5.51,8.43A21.38,21.38,0,0,0,48.82,50H81.55V0H5.44A45.93,45.93,0,0,1,17.77,13.15Z"/><path class="cls-27" d="M17.8,13.09c3.13,5.09,10.26,10.2,12.08,14.06A24.8,24.8,0,0,0,35,34.53c3.64,3.2,3.84,5.91,5.52,8.48A21,21,0,0,0,49,50H81.55V0h-76A45.25,45.25,0,0,1,17.8,13.09Z"/><path class="cls-28" d="M17.83,13C21,18.13,28.06,23.09,29.89,27A23.79,23.79,0,0,0,35,34.4c3.71,3.2,3.83,5.9,5.52,8.53A20.72,20.72,0,0,0,49.24,50H81.55V0h-76A44.59,44.59,0,0,1,17.83,13Z"/><path class="cls-29" d="M17.86,13c3.14,5.11,10.19,9.91,12,14A22.86,22.86,0,0,0,35,34.28c3.77,3.2,3.82,5.89,5.53,8.58A20.46,20.46,0,0,0,49.44,50H81.55V0H5.67A43.93,43.93,0,0,1,17.86,13Z"/><path class="cls-30" d="M17.89,12.91C21,18,28,22.68,29.91,26.82A22,22,0,0,0,35,34.15c3.84,3.2,3.81,5.89,5.54,8.64S45.16,48,49.65,50h31.9V0H5.75A43.27,43.27,0,0,1,17.89,12.91Z"/><path class="cls-31" d="M17.92,12.85C21.07,18,28,22.47,29.92,26.7A21.2,21.2,0,0,0,35,34c3.91,3.19,3.8,5.88,5.55,8.69S45.23,48,49.86,50H81.55V0H5.83A42.62,42.62,0,0,1,17.92,12.85Z"/><path class="cls-32" d="M18,12.79c3.15,5.13,10.09,9.48,12,13.8A20.46,20.46,0,0,0,35,33.9c4,3.19,3.79,5.87,5.55,8.74s4.73,5.31,9.5,7.36H81.55V0H5.91A42,42,0,0,1,18,12.79Z"/><path class="cls-33" d="M18,12.73c3.15,5.14,10.05,9.33,12,13.75A19.77,19.77,0,0,0,35,33.78c4,3.18,3.78,5.87,5.56,8.79s4.77,5.36,9.69,7.43H81.55V0H6A41.35,41.35,0,0,1,18,12.73Z"/><path class="cls-34" d="M18,12.67c3.16,5.15,10,9.19,11.93,13.69A19.13,19.13,0,0,0,35,33.65c4.11,3.18,3.77,5.86,5.57,8.84s4.82,5.41,9.87,7.5H81.55V0H6.07A40.73,40.73,0,0,1,18,12.67Z"/><path class="cls-35" d="M18,12.62c3.16,5.16,10,9,11.91,13.64A18.52,18.52,0,0,0,35,33.53c4.18,3.17,3.76,5.85,5.58,8.89S45.49,47.88,50.69,50H81.55V0H6.15A40.11,40.11,0,0,1,18,12.62Z"/><path class="cls-36" d="M18.07,12.56C21.24,17.72,28,21.45,30,26.14a18,18,0,0,0,5.1,7.26c4.25,3.16,3.74,5.85,5.59,8.95S45.56,47.86,50.89,50H81.55V0H6.23A39.49,39.49,0,0,1,18.07,12.56Z"/><path class="cls-37" d="M18.1,12.5C21.28,17.67,28,21.25,30,26a17.42,17.42,0,0,0,5.1,7.25c4.32,3.15,3.73,5.84,5.59,9s5,5.56,10.44,7.72H81.55V0H6.31A38.89,38.89,0,0,1,18.1,12.5Z"/><path class="cls-38" d="M18.13,12.44C21.31,17.62,28,21,30,25.92a16.92,16.92,0,0,0,5.1,7.23c4.39,3.14,3.72,5.83,5.6,9s5,5.61,10.63,7.8H81.55V0H6.39C11.38,3.11,15.37,7.94,18.13,12.44Z"/><path class="cls-39" d="M18.16,12.38C21.35,17.57,28,20.84,30,25.81A16.44,16.44,0,0,0,35.09,33c4.46,3.13,3.71,5.83,5.61,9.1S45.75,47.79,51.52,50h30V0H6.47C11.42,3.05,15.37,7.83,18.16,12.38Z"/><path class="cls-40" d="M18.19,12.32C21.38,17.52,28,20.64,30,25.7A16,16,0,0,0,35.1,32.9c4.53,3.12,3.7,5.82,5.62,9.15s5.1,5.71,11,7.94H81.55V0h-75C11.45,3,15.37,7.71,18.19,12.32Z"/><path class="cls-41" d="M18.22,12.26C21.42,17.47,28,20.43,30,25.58a15.56,15.56,0,0,0,5.11,7.19c4.6,3.11,3.69,5.81,5.62,9.2s5.15,5.76,11.19,8H81.55V0H6.62C11.48,2.94,15.36,7.6,18.22,12.26Z"/><path class="cls-42" d="M18.25,12.2c3.2,5.21,9.75,8,11.76,13.27a15.16,15.16,0,0,0,5.11,7.18c4.67,3.1,3.67,5.81,5.63,9.26S46,47.72,52.14,50H81.55V0H6.7C11.52,2.88,15.36,7.49,18.25,12.2Z"/><path class="cls-43" d="M18.28,12.14C21.48,17.36,28,20,30,25.36a14.77,14.77,0,0,0,5.12,7.17c4.75,3.08,3.66,5.8,5.64,9.31S46,47.69,52.35,50H81.55V0H6.78C11.55,2.83,15.36,7.38,18.28,12.14Z"/><path class="cls-44" d="M18.31,12.08C21.52,17.31,28,19.82,30,25.25c1.39,3.7,3.4,6.06,5.12,7.15,4.82,3.07,3.65,5.8,5.65,9.36S46.08,47.67,52.55,50h29V0H6.86C11.58,2.77,15.35,7.26,18.31,12.08Z"/><path class="cls-45" d="M18.34,12C21.55,17.26,28,19.62,30,25.14c1.39,3.75,3.41,6.07,5.12,7.14,4.89,3,3.64,5.79,5.66,9.41s5.34,6,11.95,8.31H81.55V0H6.94C11.62,2.71,15.35,7.15,18.34,12Z"/><path class="cls-46" d="M18.37,12C21.59,17.21,28,19.41,30,25c1.39,3.8,3.41,6.08,5.12,7.13,5,3,3.63,5.78,5.66,9.46S46.22,47.62,53,50H81.55V0H7C11.65,2.66,15.35,7,18.37,12Z"/><path class="cls-47" d="M18.4,11.91c3.22,5.25,9.58,7.3,11.65,13C31.44,28.76,33.46,31,35.18,32c5,3,3.61,5.77,5.67,9.51S46.28,47.6,53.17,50H81.55V0H7.1C11.69,2.6,15.34,6.93,18.4,11.91Z"/></g><path class="cls-3" d="M81.55,0H6.8L7,.13c4.89,2.77,8.05,7.22,10.75,11.61a26.69,26.69,0,0,0,5.63,6c2.39,2.08,4.65,4,6,7,.27.58.5,1.1.72,1.61,1.1,2.49,1.82,4.14,4.49,6,3,2.14,3.37,3.19,4.3,6,.15.44.31.94.5,1.48a12.93,12.93,0,0,0,5.41,6.54A32.44,32.44,0,0,0,52.69,50H81.55Z"/><path class="cls-54" d="M17.9,11.66c3.22,5.25,9.09,7.51,11.65,13,1.6,3.42,2,5.33,5.16,7.58,3.54,2.51,3.45,3.53,4.85,7.56,1.91,5.51,7.82,8.32,13.61,10.2H81.55V0H7.1C11.69,2.6,14.84,6.68,17.9,11.66Z"/><g class="cls-55"><path class="cls-6" d="M24,16.15c2.32,2.48,5.07,4.07,6.25,6.15s2.49,5.85,5.24,8.6c2,2,6,2.94,8.37,5.1a53.61,53.61,0,0,0,7.22,6c3,1.85,5.77,2.67,8.57,4.51s4.2,2.37,5.92,3.52h16V0H13.86C16.86,5.69,19.92,11.79,24,16.15Z"/><path class="cls-7" d="M24.11,16.14c2.33,2.46,5.07,4,6.25,6.13s2.46,5.86,5.21,8.59c2,2,6,2.88,8.36,5a53.22,53.22,0,0,0,7.17,6c3,1.85,5.8,2.63,8.6,4.45s4.25,2.41,6,3.64h15.9V0H14C17,5.69,20,11.8,24.11,16.14Z"/><path class="cls-8" d="M24.21,16.13c2.34,2.45,5.06,4,6.25,6.11s2.42,5.87,5.18,8.59c2,2,6,2.83,8.35,5,2.14,1.93,4.43,4.35,7.11,6,3,1.85,5.83,2.6,8.64,4.39,2.66,1.71,4.31,2.44,6,3.77H81.55V0H14.12C17.12,5.69,20.07,11.81,24.21,16.13Z"/><path class="cls-9" d="M24.31,16.12c2.36,2.44,5.06,3.91,6.25,6.09s2.38,5.88,5.15,8.58c2,2,6,2.77,8.35,4.93,2.14,1.93,4.38,4.38,7.06,6,3,1.85,5.86,2.56,8.68,4.34a54.28,54.28,0,0,1,6,3.89H81.55V0H14.25C17.25,5.69,20.15,11.82,24.31,16.12Z"/><path class="cls-10" d="M24.41,16.11c2.37,2.43,5.06,3.85,6.25,6.07s2.35,5.89,5.11,8.58c2,2,5.94,2.72,8.34,4.87,2.14,1.93,4.33,4.41,7,6.07,3,1.85,5.89,2.52,8.71,4.28,2.65,1.64,4.42,2.5,6.08,4H81.55V0H14.37C17.38,5.69,20.22,11.83,24.41,16.11Z"/><path class="cls-11" d="M24.5,16.1c2.38,2.41,5.06,3.8,6.25,6.05s2.3,5.91,5.08,8.57c2.05,2,5.94,2.66,8.33,4.82,2.14,1.93,4.28,4.43,7,6.1,3,1.85,5.91,2.48,8.75,4.22C62.52,47.48,64.35,48.4,66,50H81.55V0h-67C17.5,5.69,20.3,11.83,24.5,16.1Z"/><path class="cls-12" d="M24.6,16.09c2.39,2.4,5.06,3.75,6.25,6s2.27,5.92,5,8.57c2.07,2,5.93,2.6,8.33,4.76,2.14,1.93,4.23,4.46,6.91,6.13,3,1.85,5.94,2.45,8.79,4.16,2.63,1.58,4.53,2.57,6.15,4.26H81.55V0H14.63C17.63,5.69,20.37,11.84,24.6,16.09Z"/><path class="cls-13" d="M24.7,16.08c2.4,2.39,5.06,3.69,6.25,6,1.12,2.16,2.23,5.93,5,8.56,2.08,2,5.92,2.55,8.32,4.71,2.14,1.93,4.17,4.49,6.85,6.16,3,1.85,6,2.41,8.83,4.1,2.62,1.55,4.58,2.6,6.19,4.38H81.55V0H14.76C17.76,5.69,20.45,11.85,24.7,16.08Z"/><path class="cls-14" d="M24.8,16.07c2.41,2.38,5.06,3.64,6.25,6,1.12,2.19,2.19,5.94,5,8.56,2.1,2,5.92,2.49,8.31,4.65,2.14,1.93,4.12,4.52,6.8,6.18,3,1.85,6,2.37,8.86,4,2.62,1.52,4.64,2.64,6.23,4.5h15.3V0H14.89C17.89,5.69,20.52,11.86,24.8,16.07Z"/><path class="cls-15" d="M24.9,16.06c2.42,2.36,5.05,3.58,6.25,6,1.12,2.21,2.16,5.95,5,8.55,2.12,2,5.91,2.43,8.31,4.59,2.14,1.93,4.07,4.54,6.75,6.21,3,1.85,6,2.33,8.9,4C62.67,46.87,64.76,48,66.34,50H81.55V0H15C18,5.69,20.6,11.87,24.9,16.06Z"/><path class="cls-16" d="M25,16.05c2.43,2.35,5,3.53,6.25,6,1.12,2.24,2.12,6,4.92,8.55,2.13,2,5.91,2.38,8.3,4.54,2.14,1.93,4,4.57,6.7,6.24,3,1.85,6.05,2.3,8.94,3.93,2.6,1.47,4.75,2.7,6.31,4.75H81.55V0H15.14C18.14,5.69,20.68,11.88,25,16.05Z"/><path class="cls-17" d="M25.1,16c2.44,2.34,5,3.48,6.25,5.94,1.11,2.27,2.08,6,4.89,8.54,2.15,2,5.9,2.32,8.29,4.48,2.14,1.93,4,4.6,6.64,6.27,3,1.85,6.08,2.26,9,3.87,2.59,1.44,4.8,2.74,6.35,4.87h15V0H15.27C18.27,5.69,20.75,11.89,25.1,16Z"/><path class="cls-18" d="M25.2,16c2.45,2.33,5,3.42,6.26,5.92,1.11,2.29,2,6,4.86,8.53,2.17,2,5.89,2.26,8.29,4.42,2.14,1.93,3.91,4.63,6.59,6.29,3,1.85,6.11,2.23,9,3.81,2.58,1.41,4.86,2.77,6.39,5h15V0H15.4C18.4,5.69,20.83,11.9,25.2,16Z"/><path class="cls-19" d="M25.3,16c2.46,2.31,5,3.37,6.26,5.9,1.11,2.31,2,6,4.82,8.53,2.18,2,5.89,2.21,8.28,4.37,2.14,1.93,3.86,4.65,6.54,6.32,3,1.85,6.13,2.19,9.05,3.75,2.58,1.38,4.91,2.8,6.43,5.11H81.55V0h-66C18.53,5.69,20.9,11.9,25.3,16Z"/><path class="cls-20" d="M25.4,16c2.47,2.3,5,3.32,6.26,5.88,1.11,2.34,2,6,4.79,8.52,2.2,2,5.88,2.15,8.27,4.31,2.14,1.93,3.81,4.68,6.49,6.35,3,1.85,6.16,2.15,9.09,3.69,2.57,1.35,5,2.84,6.47,5.23H81.55V0H15.65C18.66,5.69,21,11.91,25.4,16Z"/><path class="cls-21" d="M25.5,16c2.49,2.29,5,3.26,6.26,5.86,1.11,2.36,1.93,6,4.76,8.52,2.22,2,5.87,2.1,8.27,4.26,2.14,1.93,3.76,4.71,6.44,6.38,3,1.85,6.19,2.12,9.12,3.63,2.56,1.32,5,2.87,6.51,5.36h14.7V0H15.78C18.78,5.69,21.05,11.92,25.5,16Z"/><path class="cls-22" d="M25.6,16c2.5,2.28,5,3.21,6.26,5.84,1.11,2.39,1.9,6,4.73,8.51,2.23,2,5.87,2,8.26,4.2,2.14,1.93,3.7,4.74,6.38,6.4,3,1.85,6.21,2.08,9.16,3.57,2.55,1.29,5.08,2.9,6.55,5.48H81.55V0H15.91C18.91,5.69,21.13,11.93,25.6,16Z"/><path class="cls-23" d="M25.7,16c2.51,2.26,5,3.15,6.26,5.82,1.11,2.41,1.86,6,4.7,8.51,2.25,2,5.86,2,8.25,4.14,2.14,1.93,3.65,4.76,6.33,6.43,3,1.85,6.24,2,9.2,3.51C63,45.66,65.57,47.33,67,50H81.55V0H16C19,5.69,21.21,11.94,25.7,16Z"/><path class="cls-24" d="M25.8,16c2.52,2.25,5,3.1,6.26,5.8,1.1,2.44,1.82,6,4.66,8.5,2.27,2,5.85,1.93,8.25,4.09,2.14,1.93,3.6,4.79,6.28,6.46,3,1.85,6.27,2,9.24,3.46,2.53,1.23,5.19,3,6.63,5.72H81.55V0H16.17C19.17,5.69,21.28,11.95,25.8,16Z"/><path class="cls-25" d="M25.9,16c2.53,2.24,5,3,6.26,5.78,1.1,2.46,1.79,6.05,4.63,8.5,2.28,2,5.85,1.87,8.24,4,2.14,1.93,3.55,4.82,6.23,6.49,3,1.85,6.29,2,9.27,3.4,2.52,1.21,5.24,3,6.67,5.85H81.55V0H16.29C19.3,5.69,21.36,12,25.9,16Z"/><path class="cls-26" d="M26,16c2.54,2.23,5,3,6.26,5.76,1.1,2.49,1.75,6.06,4.6,8.49,2.3,2,5.84,1.81,8.23,4,2.14,1.93,3.49,4.85,6.17,6.51,3,1.85,6.32,1.94,9.31,3.34,2.52,1.18,5.3,3,6.7,6H81.55V0H16.42C19.42,5.69,21.43,12,26,16Z"/><path class="cls-27" d="M26.1,15.94c2.55,2.21,5,2.94,6.26,5.75,1.1,2.51,1.72,6.07,4.57,8.49,2.32,2,5.83,1.76,8.23,3.92C47.29,36,48.59,39,51.27,40.63c3,1.85,6.35,1.9,9.35,3.28C63.13,45.06,66,47,67.36,50H81.55V0h-65C19.55,5.69,21.51,12,26.1,15.94Z"/><path class="cls-28" d="M26.19,15.93c2.56,2.2,5,2.88,6.26,5.73,1.1,2.54,1.68,6.08,4.53,8.48,2.34,2,5.83,1.7,8.22,3.86,2.14,1.93,3.39,4.9,6.07,6.57,3,1.85,6.37,1.87,9.39,3.22,2.5,1.12,5.41,3.1,6.78,6.21h14.1V0H16.68C19.68,5.69,21.59,12,26.19,15.93Z"/><path class="cls-29" d="M26.29,15.92c2.57,2.19,5,2.83,6.26,5.71,1.1,2.56,1.64,6.09,4.5,8.47,2.35,2,5.82,1.65,8.21,3.81,2.14,1.93,3.34,4.93,6,6.59,3,1.85,6.4,1.83,9.42,3.16A12.89,12.89,0,0,1,67.53,50h14V0H16.81C19.81,5.69,21.66,12,26.29,15.92Z"/><path class="cls-30" d="M26.39,15.91c2.58,2.18,5,2.77,6.26,5.69,1.1,2.59,1.61,6.1,4.47,8.47,2.37,2,5.81,1.59,8.21,3.75,2.14,1.93,3.29,5,6,6.62,3,1.85,6.42,1.8,9.46,3.1A12.75,12.75,0,0,1,67.62,50H81.55V0H16.93C19.94,5.69,21.74,12,26.39,15.91Z"/><path class="cls-31" d="M26.49,15.9c2.59,2.16,5,2.72,6.26,5.67,1.1,2.61,1.57,6.11,4.44,8.46,2.39,2,5.81,1.53,8.2,3.69,2.14,1.93,3.23,5,5.91,6.65,3,1.85,6.45,1.77,9.5,3A12.62,12.62,0,0,1,67.7,50H81.55V0H17.06C20.06,5.69,21.81,12,26.49,15.9Z"/><path class="cls-32" d="M26.59,15.89c2.6,2.15,5,2.66,6.26,5.65,1.1,2.64,1.53,6.12,4.41,8.46,2.4,2,5.8,1.48,8.19,3.64,2.14,1.93,3.18,5,5.86,6.68,3,1.85,6.48,1.73,9.53,3A12.51,12.51,0,0,1,67.79,50H81.55V0H17.19C20.19,5.69,21.89,12,26.59,15.89Z"/><path class="cls-33" d="M26.69,15.88c2.62,2.14,5,2.61,6.26,5.63,1.1,2.66,1.5,6.13,4.37,8.45,2.42,2,5.79,1.42,8.19,3.58,2.14,1.93,3.13,5,5.81,6.7,3,1.85,6.5,1.7,9.57,2.93a12.42,12.42,0,0,1,7,6.82H81.55V0H17.32C20.32,5.69,22,12,26.69,15.88Z"/><path class="cls-34" d="M26.79,15.87c2.63,2.13,5,2.55,6.26,5.61,1.1,2.68,1.46,6.14,4.34,8.45,2.44,2,5.79,1.36,8.18,3.52,2.14,1.93,3.08,5.06,5.76,6.73,3,1.85,6.53,1.66,9.61,2.87A12.34,12.34,0,0,1,68,50H81.55V0H17.45C20.45,5.69,22,12,26.79,15.87Z"/><path class="cls-35" d="M26.89,15.86c2.64,2.11,5,2.5,6.26,5.59,1.1,2.71,1.43,6.15,4.31,8.44,2.46,2,5.78,1.31,8.18,3.47,2.14,1.93,3,5.09,5.71,6.76,3,1.85,6.55,1.63,9.65,2.81A12.27,12.27,0,0,1,68,50H81.55V0h-64C20.58,5.69,22.12,12,26.89,15.86Z"/><path class="cls-36" d="M27,15.85c2.65,2.1,5,2.45,6.26,5.57,1.09,2.73,1.39,6.16,4.28,8.44,2.47,2,5.77,1.25,8.17,3.41,2.14,1.93,3,5.12,5.65,6.79,3,1.85,6.58,1.6,9.68,2.75A12.22,12.22,0,0,1,68.13,50H81.55V0H17.7C20.71,5.69,22.19,12.05,27,15.85Z"/><path class="cls-37" d="M27.09,15.84c2.66,2.09,5,2.39,6.26,5.55,1.09,2.76,1.35,6.17,4.24,8.43,2.49,1.95,5.77,1.19,8.16,3.35,2.14,1.93,2.92,5.15,5.6,6.81,3,1.85,6.61,1.56,9.72,2.69A12.17,12.17,0,0,1,68.22,50H81.55V0H17.83C20.83,5.69,22.27,12.06,27.09,15.84Z"/><path class="cls-38" d="M27.19,15.83c2.67,2.08,5,2.34,6.26,5.53,1.09,2.78,1.32,6.18,4.21,8.43,2.51,1.95,5.76,1.14,8.16,3.3C48,35,48.69,38.26,51.37,39.93c3,1.85,6.63,1.53,9.76,2.63A12.14,12.14,0,0,1,68.3,50H81.55V0H18C21,5.69,22.34,12.07,27.19,15.83Z"/><path class="cls-39" d="M27.29,15.82c2.68,2.06,5,2.28,6.26,5.51,1.09,2.81,1.28,6.19,4.18,8.42,2.53,1.95,5.75,1.08,8.15,3.24,2.14,1.93,2.82,5.2,5.5,6.87,3,1.85,6.66,1.5,9.8,2.58A12.11,12.11,0,0,1,68.39,50H81.55V0H18.09C21.09,5.69,22.42,12.08,27.29,15.82Z"/><path class="cls-40" d="M27.39,15.81c2.69,2.05,5,2.23,6.26,5.49,1.09,2.83,1.25,6.2,4.15,8.41,2.54,1.94,5.75,1,8.14,3.19,2.14,1.93,2.76,5.23,5.44,6.9,3,1.85,6.68,1.47,9.83,2.52A12.09,12.09,0,0,1,68.47,50H81.55V0H18.22C21.22,5.69,22.5,12.09,27.39,15.81Z"/><path class="cls-41" d="M27.49,15.8c2.7,2,5,2.18,6.26,5.48,1.09,2.86,1.21,6.21,4.12,8.41,2.56,1.94,5.74,1,8.14,3.13,2.14,1.93,2.71,5.26,5.39,6.92,3,1.85,6.71,1.43,9.87,2.46A12.07,12.07,0,0,1,68.56,50h13V0H18.34C21.35,5.69,22.57,12.1,27.49,15.8Z"/><path class="cls-42" d="M27.59,15.79c2.71,2,5,2.12,6.26,5.46,1.09,2.88,1.18,6.21,4.08,8.4,2.58,1.94,5.73.91,8.13,3.07,2.14,1.93,2.66,5.28,5.34,7,3,1.85,6.73,1.4,9.91,2.4A12.07,12.07,0,0,1,68.64,50H81.55V0H18.47C21.47,5.69,22.65,12.11,27.59,15.79Z"/><path class="cls-43" d="M27.69,15.78c2.72,2,5,2.07,6.26,5.44,1.08,2.91,1.14,6.22,4.05,8.4,2.6,1.93,5.73.86,8.12,3,2.14,1.93,2.61,5.31,5.29,7,3,1.85,6.76,1.37,9.95,2.34a12.07,12.07,0,0,1,7.37,8H81.55V0h-63C21.6,5.69,22.72,12.11,27.69,15.78Z"/><path class="cls-44" d="M27.79,15.77c2.74,2,5,2,6.26,5.42,1.08,2.93,1.11,6.23,4,8.39,2.62,1.93,5.72.8,8.12,3,2.14,1.93,2.56,5.34,5.24,7,3,1.85,6.78,1.34,10,2.28A12.07,12.07,0,0,1,68.81,50H81.55V0H18.73C21.73,5.69,22.8,12.12,27.79,15.77Z"/><path class="cls-45" d="M27.89,15.76c2.75,2,5,2,6.26,5.4,1.08,3,1.07,6.24,4,8.39,2.63,1.93,5.71.74,8.11,2.9,2.14,1.93,2.5,5.37,5.18,7,3,1.85,6.81,1.31,10,2.22A12.08,12.08,0,0,1,68.9,50H81.55V0H18.86C21.86,5.69,22.87,12.13,27.89,15.76Z"/><path class="cls-46" d="M28,15.75c2.76,2,5,1.9,6.27,5.38,1.08,3,1,6.25,4,8.38,2.65,1.93,5.71.69,8.1,2.85,2.14,1.93,2.45,5.39,5.13,7.06,3,1.85,6.83,1.28,10.06,2.17A12.1,12.1,0,0,1,69,50H81.55V0H19C22,5.69,23,12.14,28,15.75Z"/><path class="cls-47" d="M28.08,15.74c2.77,2,5,1.85,6.27,5.36,1.08,3,1,6.26,3.92,8.38,2.67,1.93,5.7.63,8.1,2.79,2.14,1.93,2.4,5.42,5.08,7.09,3,1.85,6.86,1.25,10.09,2.11,2.32.62,6.45,3.73,7.53,8.54H81.55V0H19.11C22.11,5.69,23,12.15,28.08,15.74Z"/></g><path class="cls-56" d="M81.55,0H18.94l0,.07A47.3,47.3,0,0,1,21.33,5.7,40.62,40.62,0,0,0,24.06,12a10.25,10.25,0,0,0,4.46,4.38c.57.27,1.1.49,1.56.68,2,.84,3.13,1.3,4.13,4.1A17.59,17.59,0,0,1,34.89,24c.38,2.12.74,4.12,2.79,5.6A8.75,8.75,0,0,0,42,30.91c1.58.19,3.08.38,4.29,1.47a8.15,8.15,0,0,1,1.89,3.2,7.35,7.35,0,0,0,2.71,3.9c1.88,1.17,4.3,1.37,6.64,1.57a23.55,23.55,0,0,1,4,.56,8.43,8.43,0,0,1,3.78,2.65A13.13,13.13,0,0,1,68.17,50H81.55Z"/><path class="cls-57" d="M28.58,16.24c3.08,1.44,4.51,1.35,5.77,4.86,1.08,3,.5,6.26,3.42,8.38,2.67,1.93,6.2.63,8.6,2.79,2.14,1.93,1.9,5.42,4.58,7.09,3,1.85,7.36,1.25,10.59,2.11,2.32.62,5.7,3.73,6.78,8.54H81.55V0H19.11C22.11,5.69,23,13.64,28.58,16.24Z"/><g class="cls-58"><path class="cls-6" d="M33.4,15.75c3,2.17,5.78,5.46,8.9,7.55,3.75,2.51,7.75,3.8,11.3,6.11,3,2,4.75,4.69,6.6,7.54,2.4,3.69,7.09,6.9,13.91,13h7.44V0H21.45a32.41,32.41,0,0,0,4,8.43A35.08,35.08,0,0,0,33.4,15.75Z"/><path class="cls-7" d="M33.51,15.7c3,2.19,5.74,5.46,8.86,7.56,3.74,2.52,7.76,3.74,11.31,6.05,3,2,4.71,4.75,6.56,7.6,2.44,3.75,7.24,7,14,13.09h7.29V0h-60a32.21,32.21,0,0,0,4,8.42C27.13,10.63,29.8,13,33.51,15.7Z"/><path class="cls-8" d="M33.61,15.66c3,2.2,5.71,5.45,8.82,7.56,3.73,2.53,7.76,3.68,11.31,6,3,2,4.67,4.81,6.52,7.66,2.48,3.82,7.38,7,14.15,13.13h7.14V0H21.62a32,32,0,0,0,4,8.41C27.22,10.65,29.92,12.91,33.61,15.66Z"/><path class="cls-9" d="M33.71,15.61c2.94,2.22,5.67,5.44,8.78,7.57,3.72,2.54,7.77,3.63,11.32,5.93,3,2,4.63,4.87,6.48,7.72C62.82,40.72,67.83,43.9,74.57,50h7V0H21.71a31.83,31.83,0,0,0,4,8.4C27.32,10.67,30,12.85,33.71,15.61Z"/><path class="cls-10" d="M33.82,15.57c2.93,2.23,5.63,5.44,8.74,7.57,3.72,2.55,7.78,3.57,11.33,5.87,3,2,4.59,4.93,6.44,7.78C62.89,40.74,68,43.92,74.72,50h6.83V0H21.79a31.65,31.65,0,0,0,4,8.39C27.41,10.69,30.17,12.78,33.82,15.57Z"/><path class="cls-11" d="M33.92,15.52c2.91,2.25,5.6,5.43,8.7,7.58,3.71,2.56,7.79,3.51,11.34,5.82,3,2,4.55,5,6.4,7.84,2.6,4,7.82,7.18,14.5,13.24h6.68V0H21.88a31.46,31.46,0,0,0,3.94,8.38C27.5,10.71,30.29,12.72,33.92,15.52Z"/><path class="cls-12" d="M34,15.48c2.89,2.26,5.56,5.43,8.66,7.59,3.7,2.57,7.8,3.45,11.35,5.76,3,2,4.51,5,6.36,7.9C63,40.79,68.36,44,75,50h6.53V0H22a31.27,31.27,0,0,0,3.92,8.37C27.6,10.73,30.41,12.65,34,15.48Z"/><path class="cls-13" d="M34.13,15.43C37,17.71,39.65,20.85,42.75,23c3.69,2.58,7.81,3.39,11.36,5.7,3,2,4.47,5.1,6.32,8C63.11,40.81,68.54,44,75.18,50h6.37V0H22A31.09,31.09,0,0,0,26,8.36C27.69,10.75,30.54,12.59,34.13,15.43Z"/><path class="cls-14" d="M34.23,15.39c2.86,2.29,5.49,5.41,8.58,7.6,3.68,2.59,7.82,3.33,11.37,5.64,3,2,4.43,5.16,6.28,8C63.19,40.84,68.72,44,75.33,50h6.22V0H22.13A30.9,30.9,0,0,0,26,8.35C27.78,10.77,30.66,12.52,34.23,15.39Z"/><path class="cls-15" d="M34.34,15.34c2.85,2.31,5.45,5.41,8.54,7.61,3.68,2.6,7.83,3.27,11.38,5.58,3,2,4.39,5.22,6.24,8.07,2.76,4.26,8.39,7.4,15,13.4h6.07V0H22.22a30.72,30.72,0,0,0,3.87,8.34C27.88,10.79,30.78,12.46,34.34,15.34Z"/><path class="cls-16" d="M34.44,15.3c2.83,2.32,5.41,5.4,8.5,7.61,3.67,2.61,7.84,3.21,11.39,5.52,3,2,4.35,5.28,6.2,8.13C63.33,40.89,69.07,44,75.63,50h5.92V0H22.3a30.54,30.54,0,0,0,3.85,8.33C28,10.81,30.91,12.39,34.44,15.3Z"/><path class="cls-17" d="M34.55,15.25c2.81,2.34,5.37,5.39,8.47,7.62,3.66,2.63,7.85,3.15,11.4,5.46,3,2,4.31,5.34,6.16,8.19C63.41,40.91,69.25,44,75.79,50h5.77V0H22.39a30.19,30.19,0,0,0,3.83,8.32C28.06,10.83,31,12.33,34.55,15.25Z"/><path class="cls-18" d="M34.65,15.21c2.8,2.35,5.34,5.39,8.43,7.62,3.65,2.64,7.86,3.1,11.41,5.4,3,2,4.27,5.4,6.12,8.25,2.87,4.45,8.82,7.56,15.33,13.51h5.61V0H22.48a30,30,0,0,0,3.81,8.31C28.15,10.85,31.15,12.26,34.65,15.21Z"/><path class="cls-19" d="M34.76,15.16c2.78,2.37,5.3,5.38,8.39,7.63,3.64,2.65,7.87,3,11.42,5.35,3,2,4.23,5.46,6.08,8.31,2.91,4.51,9,7.62,15.45,13.55h5.46V0h-59a29.83,29.83,0,0,0,3.8,8.3C28.24,10.87,31.28,12.19,34.76,15.16Z"/><path class="cls-20" d="M34.86,15.12c2.76,2.38,5.26,5.38,8.35,7.64,3.63,2.66,7.88,3,11.43,5.29,3,2,4.19,5.52,6,8.37,3,4.58,9.11,7.67,15.57,13.59h5.31V0H22.65a29.65,29.65,0,0,0,3.78,8.29C28.34,10.89,31.4,12.13,34.86,15.12Z"/><path class="cls-21" d="M35,15.07c2.75,2.4,5.23,5.37,8.31,7.64,3.63,2.67,7.89,2.92,11.44,5.23,3,2,4.15,5.58,6,8.43C63.7,41,70,44.1,76.4,50h5.16V0H22.73a29.47,29.47,0,0,0,3.76,8.28C28.43,10.91,31.52,12.06,35,15.07Z"/><path class="cls-22" d="M35.07,15c2.73,2.41,5.19,5.36,8.27,7.65,3.62,2.68,7.9,2.86,11.45,5.17,3,2,4.12,5.63,6,8.49,3,4.7,9.4,7.78,15.81,13.67h5V0H22.82a29.3,29.3,0,0,0,3.74,8.27C28.52,10.93,31.65,12,35.07,15Z"/><path class="cls-23" d="M35.17,15c2.71,2.43,5.15,5.36,8.23,7.65,3.61,2.69,7.91,2.8,11.46,5.11,3,2,4.08,5.69,5.92,8.55C63.85,41.06,70.32,44.13,76.7,50h4.85V0H22.9a29.13,29.13,0,0,0,3.72,8.26C28.62,10.95,31.77,11.93,35.17,15Z"/><path class="cls-24" d="M35.28,14.94c2.7,2.44,5.12,5.35,8.19,7.66,3.6,2.7,7.92,2.74,11.47,5.05,3,2,4,5.75,5.88,8.61,3.11,4.83,9.69,7.9,16,13.74h4.7V0H23a29,29,0,0,0,3.7,8.25C28.71,11,31.89,11.87,35.28,14.94Z"/><path class="cls-25" d="M35.38,14.89c2.68,2.46,5.08,5.34,8.15,7.67,3.59,2.71,7.93,2.68,11.48,5,3,2,4,5.81,5.84,8.66C64,41.11,70.68,44.17,77,50h4.55V0H23.07a28.79,28.79,0,0,0,3.69,8.24C28.8,11,32,11.8,35.38,14.89Z"/><path class="cls-26" d="M35.48,14.85c2.67,2.47,5,5.34,8.11,7.67,3.59,2.72,7.93,2.63,11.49,4.93,3,2,4,5.87,5.8,8.72,3.19,5,10,8,16.28,13.82h4.39V0H23.16a28.62,28.62,0,0,0,3.67,8.23C28.9,11,32.14,11.74,35.48,14.85Z"/><path class="cls-27" d="M35.59,14.8c2.65,2.49,5,5.33,8.07,7.68,3.58,2.73,7.94,2.57,11.49,4.88,3,2,3.92,5.93,5.76,8.78C64.14,41.16,71,44.2,77.31,50h4.24V0H23.24a28.46,28.46,0,0,0,3.65,8.22C29,11,32.26,11.67,35.59,14.8Z"/><path class="cls-28" d="M35.69,14.76c2.63,2.5,5,5.33,8,7.69,3.57,2.74,8,2.51,11.5,4.82,3,2,3.88,6,5.72,8.84,3.27,5.08,10.27,8.12,16.52,13.9h4.09V0H23.33A28.3,28.3,0,0,0,27,8.21C29.08,11,32.39,11.61,35.69,14.76Z"/><path class="cls-29" d="M35.8,14.71c2.62,2.52,4.93,5.32,8,7.69,3.56,2.75,8,2.45,11.51,4.76,3,2,3.84,6,5.68,8.9C64.29,41.21,71.39,44.24,77.62,50h3.94V0H23.41A28.14,28.14,0,0,0,27,8.2C29.18,11.06,32.51,11.54,35.8,14.71Z"/><path class="cls-30" d="M35.9,14.67c2.6,2.53,4.9,5.31,8,7.7,3.55,2.76,8,2.39,11.52,4.7,3,2,3.8,6.1,5.64,9,3.35,5.21,10.55,8.23,16.76,14h3.78V0H23.5a28,28,0,0,0,3.59,8.19C29.27,11.08,32.63,11.47,35.9,14.67Z"/><path class="cls-31" d="M36,14.62c2.58,2.55,4.86,5.31,7.91,7.7,3.55,2.77,8,2.33,11.53,4.64,3,2,3.76,6.16,5.6,9,3.39,5.27,10.7,8.28,16.88,14h3.63V0h-58a27.82,27.82,0,0,0,3.58,8.18C29.36,11.1,32.75,11.41,36,14.62Z"/><path class="cls-32" d="M36.11,14.58c2.57,2.57,4.82,5.3,7.87,7.71,3.54,2.79,8,2.27,11.54,4.58,3,2,3.72,6.22,5.56,9.08,3.43,5.33,10.84,8.34,17,14.05h3.48V0H23.67c.81,2.75,2,6.11,3.56,8.17C29.46,11.12,32.88,11.34,36.11,14.58Z"/><path class="cls-33" d="M36.21,14.53C38.77,17.11,41,19.83,44,22.25c3.53,2.8,8,2.21,11.55,4.52,3,2,3.68,6.28,5.52,9.14,3.47,5.4,11,8.39,17.11,14.09h3.33V0H23.76c.81,2.75,2,6.09,3.54,8.16C29.55,11.14,33,11.28,36.21,14.53Z"/><path class="cls-34" d="M36.32,14.49a85,85,0,0,0,7.79,7.72c3.52,2.81,8,2.16,11.56,4.46,3,2,3.64,6.34,5.48,9.2C64.65,41.33,72.28,44.32,78.38,50h3.17V0H23.84c.81,2.75,2,6.09,3.52,8.15C29.65,11.16,33.12,11.21,36.32,14.49Z"/><path class="cls-35" d="M36.42,14.44a82.51,82.51,0,0,0,7.75,7.73c3.51,2.82,8,2.1,11.57,4.41,3,2,3.6,6.4,5.44,9.26,3.55,5.52,11.27,8.5,17.35,14.17h3V0H23.93c.81,2.75,1.94,6.08,3.5,8.14C29.74,11.18,33.25,11.15,36.42,14.44Z"/><path class="cls-36" d="M36.53,14.4a80.13,80.13,0,0,0,7.71,7.74c3.5,2.83,8,2,11.58,4.35,3,2,3.56,6.46,5.39,9.32C64.8,41.38,72.63,44.35,78.68,50h2.87V0H24c.81,2.75,1.92,6.07,3.49,8.13C29.83,11.2,33.37,11.08,36.53,14.4Z"/><path class="cls-37" d="M36.63,14.35a77.85,77.85,0,0,0,7.67,7.74c3.5,2.84,8,2,11.59,4.29,3,2,3.52,6.52,5.35,9.37C64.87,41.4,72.81,44.37,78.84,50h2.72V0H24.1c.81,2.75,1.9,6.06,3.47,8.12C29.93,11.21,33.49,11,36.63,14.35Z"/><path class="cls-38" d="M36.73,14.31a75.7,75.7,0,0,0,7.63,7.75c3.49,2.85,8,1.92,11.6,4.23,3,2,3.48,6.58,5.31,9.43C64.95,41.43,73,44.39,79,50h2.56V0H24.18c.81,2.75,1.88,6.05,3.45,8.11C30,11.23,33.62,11,36.73,14.31Z"/><path class="cls-39" d="M36.84,14.26A73.61,73.61,0,0,0,44.43,22c3.48,2.86,8.06,1.86,11.61,4.17,3,2,3.44,6.63,5.27,9.49C65,41.45,73.17,44.4,79.14,50h2.41V0H24.27c.81,2.75,1.86,6,3.43,8.1C30.11,11.25,33.74,10.89,36.84,14.26Z"/><path class="cls-40" d="M36.94,14.22A71.62,71.62,0,0,0,44.5,22c3.47,2.87,8.07,1.8,11.62,4.11,3,2,3.4,6.69,5.23,9.55,3.75,5.84,12,8.78,17.94,14.36h2.26V0H24.35c.81,2.75,1.84,6,3.41,8.09C30.21,11.27,33.86,10.82,36.94,14.22Z"/><path class="cls-41" d="M37,14.17a69.73,69.73,0,0,0,7.52,7.77C48,24.82,52.64,23.68,56.19,26c3,2,3.36,6.75,5.19,9.61,3.79,5.9,12.14,8.84,18.06,14.4h2.11V0H24.44c.81,2.75,1.82,6,3.39,8.08C30.3,11.29,34,10.75,37,14.17Z"/><path class="cls-42" d="M37.15,14.13a67.92,67.92,0,0,0,7.48,7.77c3.46,2.89,8.09,1.69,11.64,4,3,2,3.32,6.81,5.15,9.67,3.82,6,12.28,8.89,18.18,14.44h2V0h-57c.81,2.75,1.8,6,3.38,8.07C30.39,11.31,34.11,10.69,37.15,14.13Z"/><path class="cls-43" d="M37.25,14.08a66.17,66.17,0,0,0,7.44,7.78c3.45,2.9,8.1,1.63,11.65,3.94,3,2,3.28,6.87,5.11,9.73,3.86,6,12.43,8.95,18.3,14.48h1.8V0H24.61c.81,2.75,1.78,6,3.36,8.06C30.49,11.33,34.23,10.62,37.25,14.08Z"/><path class="cls-44" d="M37.36,14a64.49,64.49,0,0,0,7.4,7.78c3.44,2.91,8.1,1.57,11.66,3.88,3,2,3.24,6.93,5.07,9.79,3.9,6.09,12.57,9,18.42,14.52h1.65V0H24.69C25.5,2.75,26.45,6,28,8.05,30.58,11.35,34.36,10.56,37.36,14Z"/><path class="cls-45" d="M37.46,14a62.88,62.88,0,0,0,7.36,7.79c3.43,2.92,8.11,1.51,11.66,3.82,3,2,3.2,7,5,9.85C65.46,41.6,74.23,44.5,80.05,50h1.5V0H24.78c.81,2.75,1.74,6,3.32,8C30.67,11.37,34.48,10.49,37.46,14Z"/><path class="cls-46" d="M37.57,13.95a61.34,61.34,0,0,0,7.32,7.8c3.42,2.93,8.12,1.45,11.67,3.76,3,2,3.16,7,5,9.91,4,6.22,12.86,9.11,18.66,14.59h1.34V0H24.87c.81,2.75,1.72,6,3.3,8C30.77,11.39,34.6,10.43,37.57,13.95Z"/><path class="cls-47" d="M37.67,13.9a59.86,59.86,0,0,0,7.28,7.8c3.42,2.95,8.13,1.39,11.68,3.7,3,2,3.12,7.11,5,10,4,6.28,13,9.17,18.77,14.63h1.19V0H25c.81,2.75,1.7,6,3.28,8C30.86,11.41,34.73,10.36,37.67,13.9Z"/></g><path class="cls-59" d="M81.55,0H24.79V0c.21.73.4,1.5.58,2.25.51,2.11,1,4.29,2.23,5.82C29,9.84,30.76,10.45,32.51,11a10.12,10.12,0,0,1,5,3c.7.85,1.35,1.74,2,2.61a20.68,20.68,0,0,0,5.09,5.47,13.76,13.76,0,0,0,6.25,1.84,12.93,12.93,0,0,1,5.69,1.61c1.77,1.15,2.34,3.39,2.9,5.56A14.41,14.41,0,0,0,61,35.2c2.37,3.7,6.7,6.37,10.88,8.94A52.62,52.62,0,0,1,80.14,50h1.41Z"/><path class="cls-60" d="M37.67,13.9c2.32,2.79,3.91,6,7,8.05,3.75,2.51,8.38,1.14,11.93,3.45,3,2,2.62,6.86,4.45,9.72,4,6.28,13.5,9.42,19.27,14.88h1.19V0H25c.81,2.75,1.2,6,2.78,8C30.36,11.41,34.73,10.36,37.67,13.9Z"/><g class="cls-5"><path class="cls-6" d="M33.56,5.61a13.64,13.64,0,0,1,6.64,5.44,65.54,65.54,0,0,0,7.14,8.1C49.85,21.5,57,23.1,59.6,25c2.3,1.65,5,4.5,8,6.15S77,30.9,80.88,32.82a5.63,5.63,0,0,1,.67.4V0H28.39A9,9,0,0,0,33.56,5.61Z"/><path class="cls-7" d="M33.65,5.6a13.66,13.66,0,0,1,6.68,5.5,61.58,61.58,0,0,0,7.11,8.07C50,21.51,57,23,59.68,24.95c2.31,1.66,4.95,4.54,7.94,6.17s9.41-.3,13.26,1.61a5.62,5.62,0,0,1,.67.39V0H28.45A9,9,0,0,0,33.65,5.6Z"/><path class="cls-8" d="M33.75,5.58a13.69,13.69,0,0,1,6.72,5.57,58,58,0,0,0,7.08,8c2.56,2.34,9.52,3.77,12.2,5.71,2.32,1.68,4.91,4.57,7.92,6.19s9.36-.35,13.21,1.56a5.61,5.61,0,0,1,.67.39V0h-53A9,9,0,0,0,33.75,5.58Z"/><path class="cls-9" d="M33.85,5.56a13.71,13.71,0,0,1,6.77,5.63,55.32,55.32,0,0,0,7.06,8c2.59,2.32,9.47,3.69,12.16,5.64,2.34,1.69,4.87,4.61,7.89,6.21s9.32-.41,13.16,1.5a5.62,5.62,0,0,1,.67.39V0h-53A8.93,8.93,0,0,0,33.85,5.56Z"/><path class="cls-10" d="M33.94,5.55a13.7,13.7,0,0,1,6.81,5.7,52.5,52.5,0,0,0,7,8c2.61,2.31,9.42,3.6,12.13,5.57,2.35,1.71,4.84,4.64,7.87,6.23s9.28-.46,13.11,1.44a5.59,5.59,0,0,1,.67.39V0H28.62A8.94,8.94,0,0,0,33.94,5.55Z"/><path class="cls-11" d="M34,5.53a13.72,13.72,0,0,1,6.85,5.76,49.9,49.9,0,0,0,7,7.93c2.64,2.3,9.37,3.51,12.1,5.5,2.36,1.72,4.8,4.67,7.84,6.25s9.23-.51,13.06,1.38a5.58,5.58,0,0,1,.66.39V0H28.67A8.94,8.94,0,0,0,34,5.53Z"/><path class="cls-12" d="M34.14,5.52A13.79,13.79,0,0,1,41,11.34a47,47,0,0,0,7,7.9c2.67,2.29,9.32,3.42,12.07,5.43,2.37,1.74,4.76,4.71,7.82,6.27s9.19-.57,13,1.32a5.55,5.55,0,0,1,.66.39V0H28.73A8.94,8.94,0,0,0,34.14,5.52Z"/><path class="cls-13" d="M34.23,5.5c3.28,1.35,4.92,2.94,6.93,5.89a44.82,44.82,0,0,0,6.95,7.87c2.69,2.29,9.27,3.33,12,5.36,2.39,1.75,4.73,4.73,7.79,6.29,2.91,1.47,9.15-.62,13,1.26a5.57,5.57,0,0,1,.66.39V0H28.78A8.93,8.93,0,0,0,34.23,5.5Z"/><path class="cls-14" d="M34.33,5.48c3.28,1.33,5,3,7,6a42.76,42.76,0,0,0,6.92,7.83c2.72,2.28,9.22,3.24,12,5.29,2.4,1.77,4.69,4.77,7.77,6.31,2.91,1.46,9.1-.67,12.9,1.2a5.55,5.55,0,0,1,.66.39V0H28.84A8.93,8.93,0,0,0,34.33,5.48Z"/><path class="cls-15" d="M34.43,5.47c3.28,1.32,5,3,7,6a40.86,40.86,0,0,0,6.89,7.8c2.74,2.27,9.17,3.15,12,5.22C62.7,26.29,65,29.31,68,30.83,71,32.27,77.1,30.11,80.89,32a5.54,5.54,0,0,1,.66.39V0H28.89A8.93,8.93,0,0,0,34.43,5.47Z"/><path class="cls-16" d="M34.52,5.45c3.28,1.3,5,3.06,7,6.09a39.1,39.1,0,0,0,6.86,7.77c2.77,2.26,9.13,3.06,11.94,5.15,2.42,1.8,4.62,4.83,7.72,6.35,2.92,1.42,9-.78,12.8,1.08a5.55,5.55,0,0,1,.66.38V0H28.95A8.93,8.93,0,0,0,34.52,5.45Z"/><path class="cls-17" d="M34.62,5.44c3.27,1.28,5.07,3.1,7.09,6.15a37.46,37.46,0,0,0,6.84,7.73c2.79,2.25,9.08,3,11.9,5.08,2.44,1.81,4.58,4.87,7.7,6.37,2.92,1.4,9-.83,12.75,1a5.52,5.52,0,0,1,.66.38V0H29A8.93,8.93,0,0,0,34.62,5.44Z"/><path class="cls-18" d="M34.72,5.42c3.27,1.27,5.11,3.14,7.13,6.21a35.92,35.92,0,0,0,6.81,7.7c2.82,2.24,9,2.88,11.87,5,2.45,1.83,4.55,4.9,7.67,6.39,2.92,1.39,8.93-.89,12.7,1a5.51,5.51,0,0,1,.65.38V0H29.06A8.93,8.93,0,0,0,34.72,5.42Z"/><path class="cls-19" d="M34.81,5.4C38.08,6.65,40,8.59,42,11.68a34.49,34.49,0,0,0,6.78,7.67c2.84,2.24,9,2.8,11.84,4.94,2.46,1.84,4.51,4.93,7.65,6.41,2.92,1.37,8.88-.94,12.65.91a5.51,5.51,0,0,1,.65.38V0H29.12A8.93,8.93,0,0,0,34.81,5.4Z"/><path class="cls-20" d="M34.91,5.39c3.27,1.23,5.19,3.22,7.21,6.34a33.15,33.15,0,0,0,6.76,7.63c2.87,2.23,8.93,2.71,11.81,4.87,2.47,1.86,4.47,5,7.63,6.42,2.92,1.35,8.84-1,12.6.85a5.49,5.49,0,0,1,.65.38V0H29.17A8.93,8.93,0,0,0,34.91,5.39Z"/><path class="cls-21" d="M35,5.37c3.27,1.22,5.23,3.26,7.25,6.41A31.89,31.89,0,0,0,49,19.38c2.89,2.22,8.88,2.62,11.77,4.8,2.49,1.87,4.44,5,7.6,6.44,2.92,1.33,8.8-1,12.54.79a5.46,5.46,0,0,1,.65.38V0H29.23A8.93,8.93,0,0,0,35,5.37Z"/><path class="cls-22" d="M35.1,5.36c3.26,1.2,5.27,3.3,7.29,6.47a30.71,30.71,0,0,0,6.7,7.57c2.92,2.21,8.83,2.53,11.74,4.73,2.5,1.89,4.4,5,7.58,6.46,2.92,1.32,8.75-1.1,12.49.73a5.48,5.48,0,0,1,.65.38V0H29.28C30.19,2.29,31.74,4.12,35.1,5.36Z"/><path class="cls-23" d="M35.2,5.34c3.26,1.19,5.31,3.35,7.33,6.54a29.59,29.59,0,0,0,6.67,7.53c2.94,2.2,8.78,2.44,11.71,4.66,2.51,1.9,4.36,5.07,7.55,6.48,2.93,1.3,8.71-1.15,12.44.67a5.46,5.46,0,0,1,.65.38V0H29.34C30.24,2.28,31.82,4.11,35.2,5.34Z"/><path class="cls-24" d="M35.3,5.32c3.26,1.17,5.35,3.39,7.37,6.6a28.53,28.53,0,0,0,6.65,7.5C52.27,21.62,58,21.78,61,24c2.52,1.92,4.33,5.1,7.53,6.5,2.93,1.28,8.66-1.21,12.39.61a5.47,5.47,0,0,1,.65.38V0H29.39C30.3,2.27,31.89,4.1,35.3,5.32Z"/><path class="cls-25" d="M35.39,5.31C38.65,6.46,40.78,8.73,42.8,12a27.54,27.54,0,0,0,6.62,7.47c3,2.19,8.68,2.26,11.64,4.52,2.53,1.93,4.29,5.13,7.51,6.52,2.93,1.26,8.62-1.26,12.34.55a5.46,5.46,0,0,1,.64.37V0H29.45C30.35,2.27,32,4.09,35.39,5.31Z"/><path class="cls-26" d="M35.49,5.29c3.25,1.14,5.43,3.47,7.45,6.73a26.6,26.6,0,0,0,6.59,7.43c3,2.18,8.63,2.17,11.61,4.45,2.55,1.95,4.25,5.17,7.48,6.54,2.93,1.25,8.58-1.32,12.29.49a5.43,5.43,0,0,1,.64.37V0h-52C30.4,2.26,32,4.08,35.49,5.29Z"/><path class="cls-27" d="M35.59,5.28c3.25,1.12,5.47,3.51,7.49,6.8a25.7,25.7,0,0,0,6.56,7.4c3,2.18,8.59,2.08,11.58,4.38,2.56,2,4.22,5.2,7.46,6.56,2.93,1.23,8.53-1.37,12.24.44a5.43,5.43,0,0,1,.64.37V0h-52C30.46,2.25,32.12,4.08,35.59,5.28Z"/><path class="cls-28" d="M35.68,5.26c3.25,1.11,5.51,3.55,7.53,6.86a24.85,24.85,0,0,0,6.54,7.37c3.06,2.17,8.54,2,11.54,4.31,2.57,2,4.18,5.24,7.43,6.58,2.93,1.21,8.49-1.42,12.18.38a5.4,5.4,0,0,1,.64.37V0H29.62C30.51,2.25,32.2,4.07,35.68,5.26Z"/><path class="cls-29" d="M35.78,5.24c3.25,1.09,5.54,3.59,7.57,6.93a24,24,0,0,0,6.51,7.33c3.08,2.16,8.49,1.91,11.51,4.24,2.58,2,4.14,5.27,7.41,6.6,2.93,1.2,8.45-1.48,12.13.32a5.39,5.39,0,0,1,.64.37V0H29.67C30.57,2.24,32.27,4.06,35.78,5.24Z"/><path class="cls-30" d="M35.88,5.23c3.24,1.08,5.58,3.63,7.61,7A23.28,23.28,0,0,0,50,19.52c3.11,2.15,8.44,1.82,11.48,4.17,2.6,2,4.11,5.3,7.39,6.62,2.93,1.18,8.4-1.53,12.08.26a5.39,5.39,0,0,1,.64.37V0H29.73C30.62,2.23,32.35,4.05,35.88,5.23Z"/><path class="cls-31" d="M36,5.21c3.24,1.06,5.62,3.67,7.65,7.06a22.56,22.56,0,0,0,6.45,7.27c3.13,2.15,8.39,1.73,11.45,4.1,2.61,2,4.07,5.34,7.36,6.64,2.94,1.16,8.36-1.58,12,.2a5.38,5.38,0,0,1,.64.37V0H29.78C30.67,2.23,32.43,4,36,5.21Z"/><path class="cls-32" d="M36.07,5.19c3.24,1,5.66,3.71,7.69,7.12a21.86,21.86,0,0,0,6.43,7.23c3.16,2.14,8.34,1.64,11.41,4,2.62,2,4,5.37,7.34,6.66,2.94,1.15,8.32-1.64,12,.14a5.39,5.39,0,0,1,.64.37V0H29.84C30.73,2.22,32.5,4,36.07,5.19Z"/><path class="cls-33" d="M36.17,5.18c3.24,1,5.7,3.75,7.73,7.19a21.19,21.19,0,0,0,6.4,7.2c3.18,2.13,8.29,1.55,11.38,4,2.63,2.05,4,5.41,7.31,6.68,2.94,1.13,8.27-1.69,11.93.08a5.37,5.37,0,0,1,.63.37V0H29.89C30.78,2.21,32.58,4,36.17,5.18Z"/><path class="cls-34" d="M36.26,5.16C39.5,6.18,42,9,44,12.41a20.56,20.56,0,0,0,6.37,7.17c3.2,2.13,8.24,1.46,11.35,3.89,2.65,2.07,4,5.44,7.29,6.7,2.94,1.11,8.23-1.74,11.88,0a5.35,5.35,0,0,1,.63.36V0H29.95C30.83,2.21,32.65,4,36.26,5.16Z"/><path class="cls-35" d="M36.36,5.15c3.23,1,5.78,3.83,7.81,7.32a20,20,0,0,0,6.34,7.13c3.23,2.12,8.19,1.37,11.32,3.82,2.66,2.08,3.92,5.47,7.26,6.72,2.94,1.1,8.18-1.8,11.83,0a5.34,5.34,0,0,1,.63.36V0H30C30.89,2.2,32.73,4,36.36,5.15Z"/><path class="cls-36" d="M36.46,5.13c3.23,1,5.82,3.87,7.85,7.38a19.37,19.37,0,0,0,6.32,7.1c3.25,2.11,8.14,1.28,11.28,3.75,2.67,2.1,3.88,5.51,7.24,6.74,2.94,1.08,8.14-1.85,11.77-.09a5.34,5.34,0,0,1,.63.36V0H30.06C30.94,2.19,32.81,4,36.46,5.13Z"/><path class="cls-37" d="M36.55,5.11c3.23,1,5.86,3.91,7.89,7.44a18.82,18.82,0,0,0,6.29,7.07C54,21.74,58.83,20.82,62,23.31c2.68,2.11,3.85,5.54,7.22,6.76,2.94,1.06,8.1-1.9,11.72-.15a5.31,5.31,0,0,1,.63.36V0H30.12C31,2.18,32.88,4,36.55,5.11Z"/><path class="cls-38" d="M36.65,5.1c3.22,1,5.91,4,7.93,7.51a18.29,18.29,0,0,0,6.26,7c3.3,2.1,8,1.11,11.22,3.61,2.7,2.13,3.81,5.58,7.19,6.78,2.94,1,8.05-2,11.67-.21a5.32,5.32,0,0,1,.63.36V0H30.17C31,2.18,33,4,36.65,5.1Z"/><path class="cls-39" d="M36.75,5.08c3.22.95,5.95,4,8,7.57a17.78,17.78,0,0,0,6.24,7c3.32,2.1,8,1,11.19,3.54,2.71,2.14,3.77,5.61,7.17,6.8,2.95,1,8-2,11.62-.27a5.31,5.31,0,0,1,.63.36V0H30.23C31.1,2.17,33,4,36.75,5.08Z"/><path class="cls-40" d="M36.84,5.07c3.22.93,6,4,8,7.64a17.29,17.29,0,0,0,6.21,7c3.35,2.09,7.95.93,11.15,3.47C64.93,25.3,66,28.79,69.36,30c2.95,1,8-2.06,11.57-.33a5.29,5.29,0,0,1,.62.36V0H30.28C31.16,2.16,33.11,4,36.84,5.07Z"/><path class="cls-41" d="M36.94,5.05c3.21.92,6,4.07,8.05,7.7,1.69,3,3.21,5.1,6.18,6.93,3.37,2.08,7.9.84,11.12,3.4,2.73,2.17,3.7,5.69,7.12,6.84,2.95,1,7.92-2.12,11.52-.39a5.3,5.3,0,0,1,.62.36V0H30.34C31.21,2.16,33.19,4,36.94,5.05Z"/><path class="cls-42" d="M37,5c3.21.9,6.07,4.11,8.09,7.77,1.68,3,3.15,5.06,6.15,6.9,3.39,2.08,7.85.75,11.09,3.33,2.74,2.18,3.66,5.72,7.1,6.86,2.95,1,7.88-2.17,11.47-.45a5.28,5.28,0,0,1,.62.36V0H30.39C31.26,2.15,33.26,4,37,5Z"/><path class="cls-43" d="M37.13,5c3.21.89,6.11,4.15,8.13,7.83,1.67,3,3.09,5,6.13,6.87,3.42,2.07,7.8.66,11.06,3.26,2.76,2.2,3.62,5.75,7.07,6.88,2.95,1,7.83-2.22,11.41-.51a5.27,5.27,0,0,1,.62.35V0H30.45C31.32,2.14,33.34,4,37.13,5Z"/><path class="cls-44" d="M37.23,5c3.2.88,6.15,4.19,8.17,7.9,1.65,3,3,5,6.1,6.83,3.44,2.07,7.75.57,11,3.19,2.77,2.21,3.59,5.79,7,6.9,2.95,1,7.79-2.28,11.36-.57a5.24,5.24,0,0,1,.62.35V0h-51C31.37,2.14,33.41,4,37.23,5Z"/><path class="cls-45" d="M37.33,5c3.2.86,6.19,4.23,8.21,8,1.64,3,3,5,6.07,6.8,3.46,2.06,7.7.48,11,3.12,2.78,2.23,3.55,5.82,7,6.92,3,.93,7.75-2.33,11.31-.63a5.25,5.25,0,0,1,.62.35V0h-51C31.42,2.13,33.49,4,37.33,5Z"/><path class="cls-46" d="M37.42,5c3.2.85,6.23,4.27,8.25,8,1.63,3,2.9,4.92,6,6.77,3.48,2.06,7.65.39,11,3,2.79,2.24,3.51,5.86,7,6.93,3,.92,7.7-2.38,11.26-.68a5.24,5.24,0,0,1,.62.35V0H30.62C31.48,2.12,33.57,4,37.42,5Z"/><path class="cls-47" d="M37.52,5c3.2.83,6.27,4.31,8.29,8.09,1.62,3,2.84,4.88,6,6.73,3.51,2,7.6.31,10.93,3,2.81,2.26,3.48,5.89,7,7,3,.9,7.66-2.44,11.21-.74a5.23,5.23,0,0,1,.62.35V0H30.67C31.53,2.12,33.64,3.94,37.52,5Z"/></g><path class="cls-61" d="M30.53.06c1.06,2.6,3,4.16,6.45,5,3,.79,6.59,4.08,8.7,8l.62,1.18C47.5,16.63,48.23,18,51,19.66A13.34,13.34,0,0,0,56.47,21c2.18.22,4.43.45,6.19,1.87A9.28,9.28,0,0,1,64.95,26c.9,1.69,1.75,3.3,4.25,3.86a6.21,6.21,0,0,0,1.38.15,17,17,0,0,0,4.06-.7,16.69,16.69,0,0,1,3.95-.68,5.18,5.18,0,0,1,2.28.48,5.13,5.13,0,0,1,.6.34l.08.05V0h-51Z"/><path class="cls-62" d="M37,5c3.2.83,6.77,4.31,8.79,8.09,1.62,3,2.09,4.63,5.27,6.48,3.51,2,8.35.56,11.68,3.23,2.81,2.26,2.41,6,6.48,7,3.75.85,8.16-2.44,11.71-.74a5.23,5.23,0,0,1,.62.35V0H30.67C31.53,2.12,33.14,3.94,37,5Z"/><g class="cls-63"><path class="cls-6" d="M57.79,18.36c6.38,2,9.89,4.27,14.79,5.76,2.09.63,6.91,1.63,9,.87V0H38.33C42.7,7.36,52.2,16.64,57.79,18.36Z"/><path class="cls-7" d="M57.77,18.3c6.37,2,10,4.23,14.88,5.71,2.1.64,6.85,1.63,8.9.92V0H38.46C42.78,7.36,52.13,16.56,57.77,18.3Z"/><path class="cls-8" d="M57.76,18.24c6.36,2,10.07,4.18,15,5.67,2.1.64,6.79,1.63,8.83,1V0h-43C42.86,7.35,52.06,16.48,57.76,18.24Z"/><path class="cls-9" d="M57.74,18.18c6.35,2,10.15,4.13,15.06,5.62,2.11.64,6.72,1.64,8.76,1V0H38.72C42.94,7.34,52,16.4,57.74,18.18Z"/><path class="cls-10" d="M57.72,18.12c6.34,2,10.24,4.08,15.14,5.57,2.12.64,6.66,1.64,8.69,1.07V0H38.84C43,7.33,51.92,16.32,57.72,18.12Z"/><path class="cls-11" d="M57.7,18.06c6.33,2,10.33,4,15.23,5.52,2.12.65,6.6,1.64,8.62,1.12V0H39C43.1,7.32,51.85,16.24,57.7,18.06Z"/><path class="cls-12" d="M57.68,18C64,20,68.1,22,73,23.48c2.13.65,6.54,1.65,8.55,1.17V0H39.1C43.18,7.31,51.77,16.16,57.68,18Z"/><path class="cls-13" d="M57.66,17.95c6.31,2,10.51,3.93,15.41,5.43C75.2,24,79.55,25,81.55,24.6V0H39.23C43.26,7.31,51.7,16.08,57.66,17.95Z"/><path class="cls-14" d="M57.64,17.89c6.3,2,10.59,3.88,15.49,5.38,2.14.66,6.42,1.65,8.41,1.28V0H39.36C43.34,7.3,51.63,16,57.64,17.89Z"/><path class="cls-15" d="M57.62,17.83c6.29,2,10.68,3.83,15.58,5.34,2.15.66,6.35,1.66,8.35,1.33V0H39.48C43.42,7.29,51.56,15.92,57.62,17.83Z"/><path class="cls-16" d="M57.61,17.77c6.28,2,10.77,3.79,15.67,5.29,2.15.66,6.29,1.66,8.28,1.38V0H39.61C43.5,7.28,51.49,15.84,57.61,17.77Z"/><path class="cls-17" d="M57.59,17.71c6.27,2,10.86,3.74,15.76,5.24,2.16.66,6.23,1.66,8.21,1.43V0H39.74C43.58,7.27,51.42,15.76,57.59,17.71Z"/><path class="cls-18" d="M57.57,17.65c6.27,2,10.95,3.69,15.84,5.19,2.17.67,6.17,1.67,8.14,1.48V0H39.87C43.66,7.26,51.34,15.68,57.57,17.65Z"/><path class="cls-19" d="M57.55,17.59c6.26,2,11,3.64,15.93,5.15,2.17.67,6.11,1.67,8.07,1.53V0H40C43.74,7.26,51.27,15.6,57.55,17.59Z"/><path class="cls-20" d="M57.53,17.53c6.25,2,11.12,3.59,16,5.1,2.18.67,6,1.67,8,1.58V0H40.12C43.82,7.25,51.2,15.52,57.53,17.53Z"/><path class="cls-21" d="M57.51,17.48c6.24,2,11.21,3.54,16.11,5.05,2.18.67,6,1.68,7.93,1.63V0H40.25C43.9,7.24,51.13,15.44,57.51,17.48Z"/><path class="cls-22" d="M57.49,17.42c6.23,2,11.3,3.49,16.19,5a35.51,35.51,0,0,0,7.86,1.68V0H40.38C44,7.23,51.06,15.36,57.49,17.42Z"/><path class="cls-23" d="M57.47,17.36c6.22,2,11.39,3.44,16.28,5a38.1,38.1,0,0,0,7.8,1.73V0h-41C44.06,7.22,51,15.28,57.47,17.36Z"/><path class="cls-24" d="M57.46,17.3c6.21,2,11.48,3.4,16.37,4.91A41.21,41.21,0,0,0,81.55,24V0H40.64C44.14,7.22,50.92,15.2,57.46,17.3Z"/><path class="cls-25" d="M57.44,17.24c6.2,2,11.56,3.35,16.46,4.86a45,45,0,0,0,7.66,1.84V0H40.77C44.23,7.21,50.84,15.12,57.44,17.24Z"/><path class="cls-26" d="M57.42,17.18c6.19,2,11.65,3.3,16.55,4.82a49.81,49.81,0,0,0,7.59,1.89V0H40.89C44.31,7.2,50.77,15,57.42,17.18Z"/><path class="cls-27" d="M57.4,17.12c6.18,2,11.74,3.25,16.63,4.77a56,56,0,0,0,7.52,1.94V0H41C44.39,7.19,50.7,15,57.4,17.12Z"/><path class="cls-28" d="M57.38,17.06c6.17,2,11.83,3.2,16.72,4.72a64.14,64.14,0,0,0,7.45,2V0H41.15C44.47,7.18,50.63,14.88,57.38,17.06Z"/><path class="cls-29" d="M57.36,17c6.16,2,11.92,3.15,16.81,4.68a75.56,75.56,0,0,0,7.38,2V0H41.28C44.55,7.17,50.56,14.79,57.36,17Z"/><path class="cls-30" d="M57.34,16.95c6.16,2,12,3.1,16.9,4.63,2.24.7,5.43,1.71,7.31,2.09V0H41.41C44.63,7.17,50.49,14.71,57.34,16.95Z"/><path class="cls-31" d="M57.32,16.89c6.15,2,12.09,3.05,17,4.58,2.24.7,5.37,1.71,7.25,2.14V0h-40C44.71,7.16,50.41,14.63,57.32,16.89Z"/><path class="cls-32" d="M57.3,16.83c6.14,2,12.18,3,17.07,4.53,2.25.71,5.3,1.72,7.18,2.19V0H41.66C44.79,7.15,50.34,14.55,57.3,16.83Z"/><path class="cls-33" d="M57.29,16.77c6.13,2,12.27,3,17.16,4.49C76.7,22,79.69,23,81.55,23.5V0H41.79C44.87,7.14,50.27,14.47,57.29,16.77Z"/><path class="cls-34" d="M57.27,16.71c6.12,2,12.36,2.91,17.25,4.44,2.26.71,5.18,1.72,7,2.29V0H41.92C44.95,7.13,50.2,14.39,57.27,16.71Z"/><path class="cls-35" d="M57.25,16.65c6.11,2,12.45,2.86,17.33,4.39,2.27.71,5.12,1.73,7,2.35V0H42C45,7.12,50.13,14.31,57.25,16.65Z"/><path class="cls-36" d="M57.23,16.6c6.1,2,12.53,2.81,17.42,4.35,2.28.72,5.06,1.73,6.9,2.4V0H42.17C45.11,7.12,50.06,14.23,57.23,16.6Z"/><path class="cls-37" d="M57.21,16.54c6.09,2,12.62,2.76,17.51,4.3,2.28.72,5,1.73,6.83,2.45V0H42.3C45.19,7.11,50,14.15,57.21,16.54Z"/><path class="cls-38" d="M57.19,16.48c6.08,2,12.71,2.71,17.6,4.25,2.29.72,4.93,1.74,6.76,2.5V0H42.43C45.27,7.1,49.91,14.07,57.19,16.48Z"/><path class="cls-39" d="M57.17,16.42c6.07,2,12.8,2.66,17.68,4.2a69.11,69.11,0,0,1,6.69,2.55V0h-39C45.35,7.09,49.84,14,57.17,16.42Z"/><path class="cls-40" d="M57.15,16.36c6.06,2,12.89,2.61,17.77,4.16a56.67,56.67,0,0,1,6.63,2.6V0H42.69C45.43,7.08,49.77,13.91,57.15,16.36Z"/><path class="cls-41" d="M57.14,16.3c6.06,2,13,2.57,17.86,4.11a47.85,47.85,0,0,1,6.56,2.65V0H42.81C45.51,7.07,49.7,13.83,57.14,16.3Z"/><path class="cls-42" d="M57.12,16.24c6,2,13.06,2.52,17.95,4.06A41.3,41.3,0,0,1,81.55,23V0H42.94C45.59,7.07,49.63,13.75,57.12,16.24Z"/><path class="cls-43" d="M57.1,16.18c6,2,13.15,2.47,18,4A36.24,36.24,0,0,1,81.55,23V0H43.07C45.67,7.06,49.56,13.67,57.1,16.18Z"/><path class="cls-44" d="M57.08,16.13c6,2,13.24,2.42,18.12,4a32.22,32.22,0,0,1,6.35,2.8V0H43.2C45.75,7,49.48,13.59,57.08,16.13Z"/><path class="cls-45" d="M57.06,16.07c6,2,13.33,2.37,18.21,3.92a28.94,28.94,0,0,1,6.28,2.85V0H43.33C45.83,7,49.41,13.51,57.06,16.07Z"/><path class="cls-46" d="M57,16c6,2,13.42,2.32,18.3,3.88a26.24,26.24,0,0,1,6.21,2.91V0H43.45C45.91,7,49.34,13.43,57,16Z"/><path class="cls-47" d="M57,15.95c6,2,13.5,2.27,18.39,3.83a24,24,0,0,1,6.14,3V0h-38C46,7,49.27,13.35,57,15.95Z"/></g><path class="cls-64" d="M43.44,0C45.76,6.8,49,13.42,57,16.09A65,65,0,0,0,67.34,18.3a57.51,57.51,0,0,1,8,1.62,23.92,23.92,0,0,1,6.11,2.94l.08.06V0H43.42Z"/><path class="cls-65" d="M57,15.95c6,2,13.5,2.27,18.39,3.83a24,24,0,0,1,6.14,3V0h-38C46,7,49.27,13.35,57,15.95Z"/></g></g></g></g></g></svg>