<?xml version="1.0" standalone="no"?>
<!DOCTYPE svg PUBLIC "-//W3C//DTD SVG 1.1//EN" "http://www.w3.org/Graphics/SVG/1.1/DTD/svg11.dtd" >
<svg xmlns="http://www.w3.org/2000/svg">
<metadata>Generated by IcoMoon</metadata>
<defs>
<font id="icomoon" horiz-adv-x="1024">
<font-face units-per-em="1024" ascent="960" descent="-64" />
<missing-glyph horiz-adv-x="1024" />
<glyph unicode="&#x20;" horiz-adv-x="512" d="" />
<glyph unicode="&#x2d;" glyph-name="pencil2" d="M992 836.565l-90.539 90.539c-40.235 40.277-110.592 40.277-150.869 0 0 0-633.941-634.069-654.677-654.805-0.043-0.043-0.128-0.043-0.171-0.128s-0.085-0.128-0.128-0.171l-10.581-10.581c-2.816-2.816-4.779-6.357-5.675-10.197l-64.725-275.84c-3.627-15.403 10.197-29.227 25.643-25.643l275.883 64.725c3.84 0.896 7.381 2.859 10.197 5.675l10.581 10.539c0.043 0.043 0.128 0.043 0.171 0.128 0.043 0.043 0.085 0.128 0.128 0.171 679.723 679.723 529.024 529.024 654.763 654.763 41.515 41.6 41.515 109.269 0 150.827zM885.888 639.957l-180.608 181.504 30.208 30.251 181.077-181.035-30.677-30.72zM321.963 76.075l-180.992 180.992 534.144 534.229 180.608-181.504-533.76-533.717zM116.139 221.525l170.283-170.24-222.421-52.181 52.139 222.421zM961.792 715.904l-15.104-15.104-181.077 181.077 15.104 15.104c24.149 24.149 66.347 24.192 90.539 0l90.539-90.581c24.917-24.917 24.917-65.536 0-90.496z" />
<glyph unicode="&#x2e;" glyph-name="pencil" d="M831.957 491.648c-11.776 0-21.333-9.557-21.333-21.333v-490.667h-768v853.333h576c11.776 0 21.333 9.557 21.333 21.333s-9.557 21.333-21.333 21.333h-597.333c-11.776 0-21.333-9.557-21.333-21.333v-896c0-11.776 9.557-21.333 21.333-21.333h810.667c11.776 0 21.333 9.557 21.333 21.333v512c0 11.776-9.557 21.333-21.333 21.333zM1017.771 832.128l-120.661 120.661c-8.32 8.32-21.845 8.32-30.165 0l-455.552-455.552c-2.688-2.688-3.243-4.181-4.693-7.083l-90.325-210.816c-7.68-17.877 10.581-35.499 27.989-27.989 1.408 0.597 211.157 90.496 211.157 90.496 2.517 1.067 4.779 2.603 6.699 4.523l455.552 455.595c8.363 8.32 8.363 21.845 0 30.165zM547.115 391.595l-90.496 90.539 347.093 347.093 90.496-90.496-347.093-347.136zM433.664 444.757l76.117-76.16-133.205-57.088 57.088 133.248zM924.416 768.896l-90.496 90.496 48.171 48.128 90.496-90.496-48.171-48.128z" />
<glyph unicode="&#x60;" glyph-name="announcement" d="M938.667 618.667v234.667c0 15.232-15.701 25.856-30.165 19.413-189.867-86.955-345.6-168.747-716.501-168.747h-42.667c-82.347 0-149.333-66.987-149.333-149.333v-85.333c0-82.347 66.987-149.333 149.333-149.333h42.667c37.888 0 73.131-0.981 106.752-2.645 0.597-125.227 70.272-237.696 182.357-293.803 10.453-5.205 23.296-1.067 28.629 9.557 5.248 10.539 0.981 23.339-9.557 28.629-96.768 48.427-157.099 145.109-158.592 253.013 266.539-19.072 402.731-88.277 566.869-163.499 14.080-6.4 30.208 3.84 30.208 19.413v234.667c47.061 0 85.333 38.272 85.333 85.333v42.667c0 47.104-38.272 85.333-85.333 85.333zM149.333 362.667c-58.837 0-106.667 47.872-106.667 106.667v85.333c0 58.795 47.829 106.667 106.667 106.667h42.667c37.803 0 72.96 0.981 106.667 2.603v-303.829c-33.707 1.579-68.864 2.56-106.667 2.56h-42.667zM896 203.904c-148.949 68.309-289.451 135.339-554.667 153.685v308.821c264.064 18.261 404.693 84.821 554.667 153.728v-616.235zM981.333 490.667c0-23.509-19.115-42.667-42.667-42.667v128c23.552 0 42.667-19.157 42.667-42.667v-42.667z" />
<glyph unicode="&#xe003;" glyph-name="search" d="M1017.771-27.563l-384.384 384.384c57.003 64.085 91.947 148.181 91.947 240.512 0 199.979-162.688 362.667-362.667 362.667s-362.667-162.688-362.667-362.667 162.688-362.667 362.667-362.667c92.331 0 176.427 34.944 240.512 91.989l384.384-384.384c8.32-8.32 21.845-8.32 30.165 0 8.363 8.32 8.363 21.803 0.043 30.165zM42.667 597.333c0 176.469 143.531 320 320 320s320-143.531 320-320-143.531-320-320-320-320 143.531-320 320z" />
<glyph unicode="&#xe005;" glyph-name="vat" d="M1024 448c0-282.77-229.23-512-512-512s-512 229.23-512 512 229.23 512 512 512 512-229.23 512-512zM512 896c-247.424 0-448-200.576-448-448s200.576-448 448-448 448 200.576 448 448-200.576 448-448 448zM279.68 601.656h-38.868v-29.688c-36.59-1.562-65.462-13.934-86.622-37.11-21.162-23.178-31.738-52.148-31.738-86.914 0-34.116 10.772-62.468 32.324-85.058 21.548-22.592 50.226-34.734 86.036-36.426v-29.688h38.868v29.688c36.456 1.562 65.298 14.062 86.524 37.5 21.222 23.438 31.836 52.54 31.836 87.304 0 34.112-10.776 62.334-32.324 84.668-21.552 22.33-50.228 34.342-86.036 36.036v29.688zM182.414 383.786c-13.934 16.862-20.898 38.508-20.898 64.942 0 27.604 6.9 49.708 20.704 66.308 13.8 16.602 33.462 25.488 58.984 26.66v-184.96c-25.264 1.17-44.858 10.186-58.79 27.050zM279.29 541.696c25.26-1.172 44.824-10.058 58.692-26.66s20.8-38.12 20.8-64.55c0-27.734-6.902-50-20.704-66.796s-33.398-25.782-58.79-26.954v184.96zM637.688 589.938h-195.508v-285.938h39.062v250.782h117.188v-250.782h39.258v285.938zM901.946 304l-108.008 290.040h-10.352l-116.016-290.040h43.554l21.29 60.352h106.446l19.53-60.352h43.556zM827.532 393.258h-84.766l44.336 125.976 40.43-125.976z" />
<glyph unicode="&#xe006;" glyph-name="vat_english" d="M1024 448c0-282.77-229.23-512-512-512s-512 229.23-512 512 229.23 512 512 512 512-229.23 512-512zM512 896c-247.424 0-448-200.576-448-448s200.576-448 448-448 448 200.576 448 448-200.576 448-448 448zM428.422 590.132h-41.992l-70.898-210.742-73.632 210.742h-43.36l106.64-290.040h19.726l103.516 290.040zM625.296 304l-107.812 290.040h-10.352l-116.21-290.040h43.75l21.094 60.352h106.446l19.726-60.352h43.358zM551.078 393.062h-84.96l44.336 125.976 40.624-125.976zM815.922 554.976v35.156h-225.196v-35.156h91.016v-250.976h39.062v250.976h95.118z" />
<glyph unicode="&#xe007;" glyph-name="novat" d="M1024 448c0-282.77-229.23-512-512-512s-512 229.23-512 512 229.23 512 512 512 512-229.23 512-512zM512 896c-247.424 0-448-200.576-448-448s200.576-448 448-448 448 200.576 448 448-200.576 448-448 448zM279.68 601.656h-38.868v-29.688c-36.59-1.562-65.462-13.934-86.622-37.11-21.162-23.178-31.738-52.148-31.738-86.914 0-34.116 10.772-62.468 32.324-85.058 21.548-22.592 50.226-34.734 86.036-36.426v-29.688h38.868v29.688c36.456 1.562 65.298 14.062 86.524 37.5 21.222 23.438 31.836 52.54 31.836 87.304 0 34.112-10.776 62.334-32.324 84.668-21.552 22.33-50.228 34.342-86.036 36.036v29.688zM182.414 383.786c-13.934 16.862-20.898 38.508-20.898 64.942 0 27.604 6.9 49.708 20.704 66.308 13.8 16.602 33.462 25.488 58.984 26.66v-184.96c-25.264 1.17-44.858 10.186-58.79 27.050zM279.29 541.696c25.26-1.172 44.824-10.058 58.692-26.66s20.8-38.12 20.8-64.55c0-27.734-6.902-50-20.704-66.796s-33.398-25.782-58.79-26.954v184.96zM637.688 589.938h-195.508v-285.938h39.062v250.782h117.188v-250.782h39.258v285.938zM901.946 304l-108.008 290.040h-10.352l-116.016-290.040h43.554l21.29 60.352h106.446l19.53-60.352h43.556zM827.532 393.258h-84.766l44.336 125.976 40.43-125.976zM899.516 215.394l-722.202 535.026-49.706-67.094 722.204-535.028 49.704 67.096z" />
<glyph unicode="&#xe008;" glyph-name="novat_english" d="M1024 448c0-282.77-229.23-512-512-512s-512 229.23-512 512 229.23 512 512 512 512-229.23 512-512zM512 896c-247.424 0-448-200.576-448-448s200.576-448 448-448 448 200.576 448 448-200.576 448-448 448zM428.422 590.132h-41.992l-70.898-210.742-73.632 210.742h-43.36l106.64-290.040h19.726l103.516 290.040zM625.296 304l-107.812 290.040h-10.352l-116.21-290.040h43.75l21.094 60.352h106.446l19.726-60.352h43.358zM551.078 393.062h-84.96l44.336 125.976 40.624-125.976zM815.922 554.976v35.156h-225.196v-35.156h91.016v-250.976h39.062v250.976h95.118zM897.954 215.054l-722.202 535.028-49.706-67.094 722.204-535.028 49.704 67.094z" />
<glyph unicode="&#xe00c;" glyph-name="newspaper" d="M618.667 832h-469.333c-11.776 0-21.333-9.557-21.333-21.333s9.557-21.333 21.333-21.333h469.333c11.776 0 21.333 9.557 21.333 21.333s-9.557 21.333-21.333 21.333zM149.333 405.333h213.333c11.776 0 21.333 9.557 21.333 21.333v256c0 11.776-9.557 21.333-21.333 21.333h-213.333c-11.776 0-21.333-9.557-21.333-21.333v-256c0-11.776 9.557-21.333 21.333-21.333zM170.667 661.333h170.667v-213.333h-170.667v213.333zM618.667 618.667h-128c-11.776 0-21.333-9.557-21.333-21.333s9.557-21.333 21.333-21.333h128c11.776 0 21.333 9.557 21.333 21.333s-9.557 21.333-21.333 21.333zM618.667 533.333h-170.667c-11.776 0-21.333-9.557-21.333-21.333s9.557-21.333 21.333-21.333h170.667c11.776 0 21.333 9.557 21.333 21.333s-9.557 21.333-21.333 21.333zM618.667 448h-170.667c-11.776 0-21.333-9.557-21.333-21.333s9.557-21.333 21.333-21.333h170.667c11.776 0 21.333 9.557 21.333 21.333s-9.557 21.333-21.333 21.333zM618.667 362.667h-469.333c-11.776 0-21.333-9.557-21.333-21.333s9.557-21.333 21.333-21.333h469.333c11.776 0 21.333 9.557 21.333 21.333s-9.557 21.333-21.333 21.333zM618.667 277.333h-469.333c-11.776 0-21.333-9.557-21.333-21.333s9.557-21.333 21.333-21.333h469.333c11.776 0 21.333 9.557 21.333 21.333s-9.557 21.333-21.333 21.333zM618.667 192h-469.333c-11.776 0-21.333-9.557-21.333-21.333s9.557-21.333 21.333-21.333h469.333c11.776 0 21.333 9.557 21.333 21.333s-9.557 21.333-21.333 21.333zM1002.667 832h-149.333v42.667c0 11.776-9.557 21.333-21.333 21.333h-64v42.667c0 11.776-9.557 21.333-21.333 21.333h-725.333c-11.776 0-21.333-9.557-21.333-21.333v-853.333c0-82.347 66.987-149.333 149.333-149.333h725.333c82.347 0 149.333 66.987 149.333 149.333v725.333c0 11.776-9.557 21.333-21.333 21.333zM853.333 704h42.667v-618.667c0-11.776-9.6-21.333-21.333-21.333s-21.333 9.557-21.333 21.333v618.667zM149.333-21.333c-58.837 0-106.667 47.872-106.667 106.667v832h682.667v-832c0-41.771 17.195-79.573 44.928-106.667h-620.928zM981.333 85.333c0-58.795-47.829-106.667-106.667-106.667s-106.667 47.872-106.667 106.667v768h42.667v-768c0-35.285 28.715-64 64-64s64 28.715 64 64v640c0 11.776-9.557 21.333-21.333 21.333h-64v42.667h128v-704z" />
<glyph unicode="&#xe061;" glyph-name="new" d="M298.88 512v-106.667l-89.6 119.467c-5.547 7.381-15.147 10.368-23.851 7.424-8.704-2.859-14.592-11.051-14.592-20.224v-170.667c0-11.776 9.557-21.333 21.333-21.333s21.333 9.557 21.333 21.333v106.667l89.6-119.467c4.139-5.461 10.496-8.533 17.067-8.533 2.261 0 4.523 0.341 6.741 1.109 8.704 2.859 14.592 11.051 14.592 20.224v170.667c0 11.776-9.557 21.333-21.333 21.333s-21.291-9.557-21.291-21.333zM508.373 490.667c11.776 0 21.333 9.557 21.333 21.333s-9.557 21.333-21.333 21.333h-102.827c-11.776 0-21.333-9.557-21.333-21.333v-170.667c0-11.776 9.557-21.333 21.333-21.333h106.667c11.776 0 21.333 9.557 21.333 21.333s-9.557 21.333-21.333 21.333h-85.333v42.667h64c11.776 0 21.333 9.557 21.333 21.333s-9.557 21.333-21.333 21.333h-64v42.667h81.493zM812.245 519.509l-44.032-117.419-44.032 117.419c-6.229 16.64-33.664 16.64-39.936 0l-44.032-117.419-44.032 117.419c-4.181 11.008-16.469 16.597-27.477 12.459-11.051-4.139-16.64-16.427-12.459-27.52l64-170.667c6.229-16.64 33.664-16.64 39.936 0l44.032 117.419 44.032-117.419c3.115-8.277 11.093-13.781 19.968-13.781s16.853 5.504 19.968 13.824l64 170.667c4.181 11.051-1.408 23.339-12.459 27.52-10.923 4.053-23.339-1.451-27.477-12.501zM21.547 661.333h981.333c11.776 0 21.333 9.557 21.333 21.333s-9.557 21.333-21.333 21.333h-981.333c-11.776 0-21.333-9.557-21.333-21.333s9.557-21.333 21.333-21.333zM1002.88 234.667h-981.333c-11.776 0-21.333-9.557-21.333-21.333s9.557-21.333 21.333-21.333h981.333c11.776 0 21.333 9.557 21.333 21.333s-9.557 21.333-21.333 21.333z" />
<glyph unicode="&#xe069;" glyph-name="podcast" d="M917.333 661.333h-661.333v149.333c0 11.776-9.557 21.333-21.333 21.333s-21.333-9.557-21.333-21.333v-149.333h-106.667c-58.795 0-106.667-47.829-106.667-106.667v-426.667c0-58.837 47.872-106.667 106.667-106.667h21.333v-64c0-11.776 9.557-21.333 21.333-21.333s21.333 9.557 21.333 21.333v64h682.667v-64c0-11.776 9.557-21.333 21.333-21.333s21.333 9.557 21.333 21.333v64h21.333c58.795 0 106.667 47.829 106.667 106.667v426.667c0 58.837-47.872 106.667-106.667 106.667zM106.667 618.667h810.667c35.285 0 64-28.715 64-64v-234.667h-938.667v234.667c0 35.285 28.715 64 64 64zM917.333 64h-810.667c-35.285 0-64 28.715-64 64v149.333h938.667v-149.333c0-35.285-28.715-64-64-64zM170.667 405.333h682.667c11.776 0 21.333 9.557 21.333 21.333s-9.557 21.333-21.333 21.333h-682.667c-11.776 0-21.333-9.557-21.333-21.333s9.557-21.333 21.333-21.333zM170.667 490.667h682.667c11.776 0 21.333 9.557 21.333 21.333s-9.557 21.333-21.333 21.333h-682.667c-11.776 0-21.333-9.557-21.333-21.333s9.557-21.333 21.333-21.333zM789.333 192h-554.667c-11.776 0-21.333-9.557-21.333-21.333s9.557-21.333 21.333-21.333h554.667c11.776 0 21.333 9.557 21.333 21.333s-9.557 21.333-21.333 21.333zM170.667 170.667c0-23.564-19.103-42.667-42.667-42.667s-42.667 19.103-42.667 42.667c0 23.564 19.103 42.667 42.667 42.667s42.667-19.103 42.667-42.667zM938.667 170.667c0-23.564-19.103-42.667-42.667-42.667s-42.667 19.103-42.667 42.667c0 23.564 19.103 42.667 42.667 42.667s42.667-19.103 42.667-42.667zM234.667 874.667c11.776 0 21.333 9.557 21.333 21.333v42.667c0 11.776-9.557 21.333-21.333 21.333s-21.333-9.557-21.333-21.333v-42.667c0-11.776 9.557-21.333 21.333-21.333zM320 789.333h42.667c11.776 0 21.333 9.557 21.333 21.333s-9.557 21.333-21.333 21.333h-42.667c-11.776 0-21.333-9.557-21.333-21.333s9.557-21.333 21.333-21.333zM106.667 789.333h42.667c11.776 0 21.333 9.557 21.333 21.333s-9.557 21.333-21.333 21.333h-42.667c-11.776 0-21.333-9.557-21.333-21.333s9.557-21.333 21.333-21.333z" />
<glyph unicode="&#xe072;" glyph-name="books" d="M277.333 960c-11.776 0-21.333-9.557-21.333-21.333v-213.333c0-35.285-28.715-64-64-64h-85.333c-35.285 0-64 28.715-64 64v213.333c0 11.776-9.557 21.333-21.333 21.333s-21.333-9.557-21.333-21.333v-917.333c0-53.419 39.893-85.333 106.667-85.333h85.333c66.773 0 106.667 31.915 106.667 85.333v917.333c0 11.776-9.557 21.333-21.333 21.333zM106.667 618.667h85.333c24.107 0 46.123 8.32 64 21.888v-149.888h-213.333v149.888c17.877-13.568 39.893-21.888 64-21.888zM42.667 192h213.333v-42.667h-213.333v42.667zM42.667 234.667v128h213.333v-128h-213.333zM42.667 405.333v42.667h213.333v-42.667h-213.333zM192-21.333h-85.333c-64 0-64 32.085-64 42.667v85.333h213.333v-85.333c0-10.581 0-42.667-64-42.667zM618.667 960c-11.776 0-21.333-9.557-21.333-21.333v-213.333c0-35.285-28.715-64-64-64h-85.333c-35.285 0-64 28.715-64 64v213.333c0 11.776-9.557 21.333-21.333 21.333s-21.333-9.557-21.333-21.333v-917.333c0-53.419 39.893-85.333 106.667-85.333h85.333c66.773 0 106.667 31.915 106.667 85.333v917.333c0 11.776-9.557 21.333-21.333 21.333zM448 618.667h85.333c24.107 0 46.123 8.32 64 21.888v-149.888h-213.333v149.888c17.877-13.568 39.893-21.888 64-21.888zM384 192h213.333v-42.667h-213.333v42.667zM384 234.667v128h213.333v-128h-213.333zM384 405.333v42.667h213.333v-42.667h-213.333zM533.333-21.333h-85.333c-64 0-64 32.085-64 42.667v85.333h213.333v-85.333c0-10.581 0-42.667-64-42.667zM960 960c-11.776 0-21.333-9.557-21.333-21.333v-213.333c0-35.285-28.715-64-64-64h-85.333c-35.285 0-64 28.715-64 64v213.333c0 11.776-9.557 21.333-21.333 21.333s-21.333-9.557-21.333-21.333v-917.333c0-53.419 39.893-85.333 106.667-85.333h85.333c66.773 0 106.667 31.915 106.667 85.333v917.333c0 11.776-9.557 21.333-21.333 21.333zM789.333 618.667h85.333c24.107 0 46.123 8.32 64 21.888v-149.888h-213.333v149.888c17.877-13.568 39.893-21.888 64-21.888zM725.333 192h213.333v-42.667h-213.333v42.667zM725.333 234.667v128h213.333v-128h-213.333zM725.333 405.333v42.667h213.333v-42.667h-213.333zM874.667-21.333h-85.333c-64 0-64 32.085-64 42.667v85.333h213.333v-85.333c0-10.581 0-42.667-64-42.667zM106.667 704c11.776 0 21.333 9.557 21.333 21.333v170.667c0 11.776-9.557 21.333-21.333 21.333s-21.333-9.557-21.333-21.333v-170.667c0-11.776 9.557-21.333 21.333-21.333zM192 704c11.776 0 21.333 9.557 21.333 21.333v170.667c0 11.776-9.557 21.333-21.333 21.333s-21.333-9.557-21.333-21.333v-170.667c0-11.776 9.557-21.333 21.333-21.333zM448 704c11.776 0 21.333 9.557 21.333 21.333v170.667c0 11.776-9.557 21.333-21.333 21.333s-21.333-9.557-21.333-21.333v-170.667c0-11.776 9.557-21.333 21.333-21.333zM533.333 704c11.776 0 21.333 9.557 21.333 21.333v170.667c0 11.776-9.557 21.333-21.333 21.333s-21.333-9.557-21.333-21.333v-170.667c0-11.776 9.557-21.333 21.333-21.333zM789.333 704c11.776 0 21.333 9.557 21.333 21.333v170.667c0 11.776-9.557 21.333-21.333 21.333s-21.333-9.557-21.333-21.333v-170.667c0-11.776 9.557-21.333 21.333-21.333zM874.667 704c11.776 0 21.333 9.557 21.333 21.333v170.667c0 11.776-9.557 21.333-21.333 21.333s-21.333-9.557-21.333-21.333v-170.667c0-11.776 9.557-21.333 21.333-21.333z" />
<glyph unicode="&#xe075;" glyph-name="library" d="M832 960h-640c-105.856 0-192-86.144-192-192 0-105.899 86.144-192 192-192 40.533 0 77.269 16.341 104.149 42.667h2.517v-661.333c0-11.776 9.557-21.333 21.333-21.333s21.333 9.557 21.333 21.333v661.333h85.333v-661.333c0-11.776 9.557-21.333 21.333-21.333s21.333 9.557 21.333 21.333v661.333h85.333v-661.333c0-11.776 9.557-21.333 21.333-21.333s21.333 9.557 21.333 21.333v661.333h85.333v-661.333c0-11.776 9.557-21.333 21.333-21.333s21.333 9.557 21.333 21.333v661.333h2.517c26.923-26.325 63.616-42.667 104.149-42.667 105.856 0 192 86.101 192 192 0 105.856-86.144 192-192 192zM684.843 704c2.176-15.104 6.443-29.355 12.8-42.667h-371.285c6.357 13.312 10.667 27.563 12.8 42.667h345.685zM832 618.667c-58.795 0-106.667 47.872-106.667 106.667 0 35.285 28.715 64 64 64 11.776 0 21.333-9.557 21.333-21.333s9.557-21.333 21.333-21.333 21.333 9.557 21.333 21.333c0 35.285-28.715 64-64 64-51.499 0-94.592-36.693-104.491-85.333h-345.685c-9.899 48.64-52.992 85.333-104.491 85.333-35.285 0-64-28.715-64-64 0-11.776 9.557-21.333 21.333-21.333s21.333 9.557 21.333 21.333c0 11.776 9.557 21.333 21.333 21.333 35.285 0 64-28.715 64-64 0-58.795-47.872-106.667-106.667-106.667-82.347 0-149.333 66.987-149.333 149.333s66.987 149.333 149.333 149.333h640c82.347 0 149.333-66.987 149.333-149.333s-66.987-149.333-149.333-149.333z" />
<glyph unicode="&#xe096;" glyph-name="stack" d="M12.843 492.459l490.667-213.333c2.688-1.195 5.589-1.792 8.491-1.792s5.803 0.597 8.491 1.792l490.667 213.333c10.795 4.651 15.744 17.28 11.093 28.075-4.693 10.752-17.323 15.787-28.075 11.051l-482.176-209.664-482.176 209.621c-10.709 4.693-23.381-0.299-28.075-11.051-4.651-10.795 0.299-23.381 11.093-28.032zM994.176 403.541l-482.176-209.621-482.176 209.621c-10.709 4.693-23.381-0.256-28.075-11.051-4.651-10.795 0.299-23.381 11.093-28.075l490.667-213.333c2.688-1.152 5.589-1.749 8.491-1.749s5.803 0.597 8.491 1.792l490.667 213.333c10.795 4.651 15.744 17.28 11.093 28.075-4.693 10.795-17.323 15.744-28.075 11.008zM994.176 275.541l-482.176-209.621-482.176 209.621c-10.709 4.736-23.381-0.213-28.075-11.051-4.651-10.795 0.299-23.381 11.093-28.075l490.667-213.333c2.688-1.152 5.589-1.749 8.491-1.749s5.803 0.597 8.491 1.792l490.667 213.333c10.795 4.651 15.744 17.28 11.093 28.075-4.693 10.795-17.323 15.744-28.075 11.008zM12.843 620.459l490.667-213.333c2.688-1.195 5.589-1.792 8.491-1.792s5.803 0.597 8.491 1.792l490.667 213.333c7.808 3.371 12.843 11.051 12.843 19.541s-5.035 16.171-12.843 19.541l-490.667 213.333c-5.419 2.389-11.563 2.389-16.981 0l-490.667-213.333c-7.808-3.371-12.843-11.051-12.843-19.541s5.035-16.171 12.843-19.541zM512 830.037l437.163-190.037-437.163-190.080-437.163 190.080 437.163 190.037z" />
<glyph unicode="&#xe0a2;" glyph-name="cog" d="M1002.667 533.333h-121.813c-8.491 33.707-19.371 71.125-33.152 99.499l86.699 86.699c4.011 4.011 6.229 9.429 6.229 15.104s-2.261 11.093-6.229 15.104l-120.747 120.619c-8.32 8.363-21.845 8.363-30.165 0l-86.741-86.699c-28.331 13.781-65.749 24.661-99.413 33.152v121.856c0 11.776-9.557 21.333-21.333 21.333h-128c-11.776 0-21.333-9.557-21.333-21.333v-121.856c-33.707-8.491-71.125-19.371-99.456-33.152l-86.741 86.699c-8.32 8.363-21.845 8.363-30.165 0l-120.704-120.661c-4.011-4.011-6.272-9.429-6.272-15.104s2.261-11.051 6.272-15.061l86.741-86.784c-13.739-28.245-24.661-65.707-33.237-99.413h-121.771c-11.776 0-21.333-9.557-21.333-21.333v-128c0-11.776 9.557-21.333 21.333-21.333h121.771c8.576-33.749 19.456-71.168 33.195-99.499l-86.699-86.741c-4.011-3.968-6.229-9.387-6.229-15.061s2.261-11.093 6.229-15.104l120.704-120.661c8.021-8.021 22.187-8.021 30.165 0l86.699 86.784c28.331-13.824 65.749-24.704 99.499-33.28v-121.771c0-11.776 9.557-21.333 21.333-21.333h128c11.776 0 21.333 9.557 21.333 21.333v121.771c33.749 8.576 71.168 19.456 99.413 33.195l86.784-86.699c8.32-8.32 21.845-8.32 30.165 0l120.661 120.661c8.32 8.32 8.32 21.845 0 30.165l-86.699 86.741c13.739 28.288 24.661 65.749 33.195 99.499h121.813c11.776 0 21.333 9.557 21.333 21.333v128c0 11.776-9.557 21.333-21.333 21.333zM981.333 405.333h-117.163c-9.856 0-18.432-6.784-20.736-16.299-5.76-23.808-21.077-87.083-40.32-118.528-5.12-8.405-3.84-19.243 3.115-26.197l82.859-82.901-90.496-90.496-82.944 82.859c-7.040 7.040-17.877 8.277-26.197 3.115-31.445-19.243-94.677-34.56-118.485-40.32-9.557-2.347-16.299-10.88-16.299-20.736v-117.163h-85.333v117.163c0 9.856-6.741 18.389-16.299 20.736-23.808 5.76-87.040 21.077-118.528 40.32-8.448 5.205-19.243 3.883-26.24-3.072l-82.859-82.944-90.581 90.496 82.901 82.901c6.997 6.955 8.235 17.792 3.115 26.197-19.243 31.445-34.56 94.72-40.32 118.528-2.261 9.557-10.837 16.341-20.693 16.341h-117.163v85.333h117.163c9.856 0 18.432 6.741 20.736 16.299 5.76 23.808 21.077 87.040 40.32 118.485 5.12 8.448 3.84 19.243-3.115 26.24l-82.944 82.901 90.539 90.539 82.901-82.859c7.040-6.997 17.792-8.277 26.197-3.157 31.659 19.328 94.763 34.517 118.528 40.235 9.6 2.304 16.341 10.88 16.341 20.736v117.248h85.333v-117.248c0-9.856 6.741-18.432 16.341-20.736 37.291-8.96 90.069-22.912 118.485-40.235 8.363-5.12 19.157-3.84 26.197 3.115l82.901 82.859 90.539-90.539-82.859-82.859c-6.955-6.955-8.235-17.792-3.115-26.155 19.328-31.701 34.56-94.805 40.277-118.571 2.261-9.557 10.837-16.299 20.693-16.299h117.205v-85.333zM512 661.333c-117.632 0-213.333-95.701-213.333-213.333s95.701-213.333 213.333-213.333 213.333 95.701 213.333 213.333-95.701 213.333-213.333 213.333zM512 277.333c-94.123 0-170.667 76.544-170.667 170.667s76.544 170.667 170.667 170.667 170.667-76.544 170.667-170.667-76.544-170.667-170.667-170.667z" />
<glyph unicode="&#xe0b1;" glyph-name="certificate" d="M1002.667 917.333h-490.667v21.333c0 11.776-9.557 21.333-21.333 21.333h-341.333c-11.776 0-21.333-9.557-21.333-21.333v-21.333h-106.667c-11.776 0-21.333-9.557-21.333-21.333v-938.667c0-11.776 9.557-21.333 21.333-21.333h981.333c11.776 0 21.333 9.557 21.333 21.333v938.667c0 11.776-9.557 21.333-21.333 21.333zM170.667 917.333h298.667v-481.835l-134.229 134.272c-8.32 8.32-21.845 8.32-30.165 0l-134.272-134.272v481.835zM981.333-21.333h-938.667v896h85.333v-490.667c0-19.029 23.125-28.501 36.437-15.104l155.563 155.605 155.563-155.563c13.355-13.355 36.437-4.053 36.437 15.061v490.667h469.333v-896zM618.667 618.667h256c11.776 0 21.333 9.557 21.333 21.333s-9.557 21.333-21.333 21.333h-256c-11.776 0-21.333-9.557-21.333-21.333s9.557-21.333 21.333-21.333zM618.667 490.667h256c11.776 0 21.333 9.557 21.333 21.333s-9.557 21.333-21.333 21.333h-256c-11.776 0-21.333-9.557-21.333-21.333s9.557-21.333 21.333-21.333zM874.667 405.333h-256c-11.776 0-21.333-9.557-21.333-21.333s9.557-21.333 21.333-21.333h256c11.776 0 21.333 9.557 21.333 21.333s-9.557 21.333-21.333 21.333zM874.667 277.333h-725.333c-11.776 0-21.333-9.557-21.333-21.333s9.557-21.333 21.333-21.333h725.333c11.776 0 21.333 9.557 21.333 21.333s-9.557 21.333-21.333 21.333zM704 149.333h-554.667c-11.776 0-21.333-9.557-21.333-21.333s9.557-21.333 21.333-21.333h554.667c11.776 0 21.333 9.557 21.333 21.333s-9.557 21.333-21.333 21.333z" />
<glyph unicode="&#xe0d1;" glyph-name="bag2" d="M832 618.667h-810.667c-11.776 0-21.333-9.557-21.333-21.333v-640c0-11.776 9.557-21.333 21.333-21.333h810.667c11.776 0 21.333 9.557 21.333 21.333v640c0 11.776-9.557 21.333-21.333 21.333zM810.667-21.333h-768v597.333h768v-597.333zM234.667 661.333c11.776 0 21.333 9.557 21.333 21.333v64c0 94.123 76.544 170.667 170.667 170.667s170.667-76.544 170.667-170.667v-64c0-11.776 9.557-21.333 21.333-21.333s21.333 9.557 21.333 21.333v64c0 117.632-95.701 213.333-213.333 213.333s-213.333-95.701-213.333-213.333v-64c0-11.776 9.557-21.333 21.333-21.333zM960.512 848.555l-90.496 90.581c-4.011 4.011-9.429 6.229-15.104 6.229s-11.093-2.261-15.104-6.229l-150.912-150.912c-3.968-3.968-6.229-9.387-6.229-15.061v-90.496c0-11.776 9.557-21.333 21.333-21.333h90.581c5.675 0 11.093 2.261 15.104 6.229l150.827 150.827c8.32 8.32 8.32 21.845 0 30.165zM785.749 704h-60.416v60.331l129.579 129.536 60.331-60.416-129.493-129.451z" />
<glyph unicode="&#xe0d7;" glyph-name="calculate" d="M832 960h-597.333c-35.285 0-64-28.715-64-64v-896c0-35.285 28.715-64 64-64h597.333c35.285 0 64 28.715 64 64v896c0 35.285-28.715 64-64 64zM853.333 0c0-11.776-9.6-21.333-21.333-21.333h-597.333c-11.733 0-21.333 9.557-21.333 21.333v896c0 11.776 9.6 21.333 21.333 21.333h597.333c11.733 0 21.333-9.557 21.333-21.333v-896zM789.333 874.667h-512c-11.776 0-21.333-9.557-21.333-21.333v-213.333c0-11.776 9.557-21.333 21.333-21.333h512c11.776 0 21.333 9.557 21.333 21.333v213.333c0 11.776-9.557 21.333-21.333 21.333zM768 661.333h-469.333v170.667h469.333v-170.667zM704 704c11.776 0 21.333 9.557 21.333 21.333v42.667c0 11.776-9.557 21.333-21.333 21.333s-21.333-9.557-21.333-21.333v-42.667c0-11.776 9.557-21.333 21.333-21.333zM362.667 490.667h-42.667c-11.776 0-21.333-9.557-21.333-21.333s9.557-21.333 21.333-21.333h42.667c11.776 0 21.333 9.557 21.333 21.333s-9.557 21.333-21.333 21.333zM490.667 490.667h-42.667c-11.776 0-21.333-9.557-21.333-21.333s9.557-21.333 21.333-21.333h42.667c11.776 0 21.333 9.557 21.333 21.333s-9.557 21.333-21.333 21.333zM576 448h42.667c11.776 0 21.333 9.557 21.333 21.333s-9.557 21.333-21.333 21.333h-42.667c-11.776 0-21.333-9.557-21.333-21.333s9.557-21.333 21.333-21.333zM746.667 490.667h-42.667c-11.776 0-21.333-9.557-21.333-21.333s9.557-21.333 21.333-21.333h42.667c11.776 0 21.333 9.557 21.333 21.333s-9.557 21.333-21.333 21.333zM362.667 362.667h-42.667c-11.776 0-21.333-9.557-21.333-21.333s9.557-21.333 21.333-21.333h42.667c11.776 0 21.333 9.557 21.333 21.333s-9.557 21.333-21.333 21.333zM490.667 362.667h-42.667c-11.776 0-21.333-9.557-21.333-21.333s9.557-21.333 21.333-21.333h42.667c11.776 0 21.333 9.557 21.333 21.333s-9.557 21.333-21.333 21.333zM576 320h42.667c11.776 0 21.333 9.557 21.333 21.333s-9.557 21.333-21.333 21.333h-42.667c-11.776 0-21.333-9.557-21.333-21.333s9.557-21.333 21.333-21.333zM746.667 362.667h-42.667c-11.776 0-21.333-9.557-21.333-21.333s9.557-21.333 21.333-21.333h42.667c11.776 0 21.333 9.557 21.333 21.333s-9.557 21.333-21.333 21.333zM362.667 234.667h-42.667c-11.776 0-21.333-9.557-21.333-21.333s9.557-21.333 21.333-21.333h42.667c11.776 0 21.333 9.557 21.333 21.333s-9.557 21.333-21.333 21.333zM490.667 234.667h-42.667c-11.776 0-21.333-9.557-21.333-21.333s9.557-21.333 21.333-21.333h42.667c11.776 0 21.333 9.557 21.333 21.333s-9.557 21.333-21.333 21.333zM576 192h42.667c11.776 0 21.333 9.557 21.333 21.333s-9.557 21.333-21.333 21.333h-42.667c-11.776 0-21.333-9.557-21.333-21.333s9.557-21.333 21.333-21.333zM746.667 234.667h-42.667c-11.776 0-21.333-9.557-21.333-21.333s9.557-21.333 21.333-21.333h42.667c11.776 0 21.333 9.557 21.333 21.333s-9.557 21.333-21.333 21.333zM362.667 106.667h-42.667c-11.776 0-21.333-9.557-21.333-21.333s9.557-21.333 21.333-21.333h42.667c11.776 0 21.333 9.557 21.333 21.333s-9.557 21.333-21.333 21.333zM490.667 106.667h-42.667c-11.776 0-21.333-9.557-21.333-21.333s9.557-21.333 21.333-21.333h42.667c11.776 0 21.333 9.557 21.333 21.333s-9.557 21.333-21.333 21.333zM746.667 106.667h-170.667c-11.776 0-21.333-9.557-21.333-21.333s9.557-21.333 21.333-21.333h170.667c11.776 0 21.333 9.557 21.333 21.333s-9.557 21.333-21.333 21.333z" />
<glyph unicode="&#xe0f9;" glyph-name="compass" d="M512 960c-282.325 0-512-229.675-512-512s229.675-512 512-512 512 229.675 512 512-229.675 512-512 512zM512-21.333c-258.773 0-469.333 210.517-469.333 469.333 0 258.773 210.56 469.333 469.333 469.333s469.333-210.56 469.333-469.333c0-258.816-210.56-469.333-469.333-469.333zM759.893 723.712l-362.667-149.333c-1.024-0.427-1.664-1.365-2.603-1.877-1.493-0.939-2.859-1.792-4.096-3.029s-2.133-2.603-3.029-4.053c-0.555-0.981-1.493-1.621-1.877-2.645l-149.333-362.667c-3.285-7.979-1.451-17.109 4.651-23.211 4.053-4.053 9.515-6.229 15.061-6.229 2.731 0 5.504 0.512 8.107 1.621l362.667 149.333c1.024 0.384 1.664 1.323 2.603 1.877 1.493 0.896 2.859 1.792 4.096 3.029s2.133 2.603 3.029 4.096c0.555 0.939 1.493 1.579 1.877 2.603l149.333 362.667c3.285 7.979 1.451 17.109-4.651 23.211-6.059 6.059-15.189 7.851-23.168 4.608zM295.211 231.211l117.632 285.739 168.064-168.064-285.696-117.675zM611.115 379.051l-168.064 168.064 285.739 117.632-117.675-285.696z" />
<glyph unicode="&#xe0fe;" glyph-name="direction" d="M874.667 576c5.675 0 11.093 2.261 15.104 6.229l128 128c8.32 8.32 8.32 21.845 0 30.165l-128 128c-4.011 4.011-9.429 6.272-15.104 6.272h-362.667v64c0 11.776-9.557 21.333-21.333 21.333s-21.333-9.557-21.333-21.333v-64h-320c-11.776 0-21.333-9.557-21.333-21.333v-256c0-11.776 9.557-21.333 21.333-21.333h320v-42.667h-320c-5.675 0-11.093-2.261-15.104-6.229l-128-128c-8.32-8.32-8.32-21.845 0-30.165l128-128c4.011-4.011 9.429-6.272 15.104-6.272h320v-277.333c0-11.776 9.557-21.333 21.333-21.333s21.333 9.557 21.333 21.333v277.333h362.667c11.776 0 21.333 9.557 21.333 21.333v256c0 11.776-9.557 21.333-21.333 21.333h-362.667v42.667h362.667zM853.333 277.333h-695.168l-106.667 106.667 106.667 106.667h695.168v-213.333zM170.667 832h695.168l106.667-106.667-106.667-106.667h-695.168v213.333z" />
<glyph unicode="&#xe137;" glyph-name="storage" d="M1022.507 313.344c1.28 3.797 1.877 7.893 0.811 12.032l-106.453 408.064c-14.421 55.253-70.443 98.56-127.531 98.56h-554.667c-57.088 0-113.067-43.307-127.488-98.56l-106.496-408.064c-1.109-4.181-0.512-8.235 0.811-12.032-0.683-4.864-1.493-9.685-1.493-14.677v-170.667c0-58.837 47.872-106.667 106.667-106.667h810.667c58.795 0 106.667 47.829 106.667 106.667v170.667c0 4.992-0.811 9.813-1.493 14.677zM148.48 722.688c9.429 36.139 48.853 66.645 86.187 66.645h554.667c37.333 0 76.8-30.507 86.229-66.645l85.291-326.869c-13.312 6.016-27.989 9.515-43.52 9.515h-810.667c-15.531 0-30.165-3.499-43.52-9.515l85.333 326.869zM981.333 128c0-35.285-28.715-64-64-64h-810.667c-35.285 0-64 28.715-64 64v170.667c0 35.285 28.715 64 64 64h810.667c35.285 0 64-28.715 64-64v-170.667zM874.667 192h-725.333c-11.776 0-21.333-9.557-21.333-21.333s9.557-21.333 21.333-21.333h725.333c11.776 0 21.333 9.557 21.333 21.333s-9.557 21.333-21.333 21.333zM896 256c0-11.782-9.551-21.333-21.333-21.333s-21.333 9.551-21.333 21.333c0 11.782 9.551 21.333 21.333 21.333s21.333-9.551 21.333-21.333zM810.667 256c0-11.782-9.551-21.333-21.333-21.333s-21.333 9.551-21.333 21.333c0 11.782 9.551 21.333 21.333 21.333s21.333-9.551 21.333-21.333z" />
<glyph unicode="&#xe139;" glyph-name="database2" d="M938.683 725.34c0 107.648-187.435 192-426.667 192-238.933 0-426.069-84.096-426.624-191.531 0-0.171-0.085-0.299-0.085-0.469v-554.667c0-107.648 187.435-192 426.667-192s426.667 84.352 426.667 192v554.283c0 0.128 0.043 0.256 0.043 0.384zM895.974 362.673c0-70.613-157.696-149.333-384-149.333s-384 78.72-384 149.333v107.435c68.395-64.085 212.693-107.435 384-107.435 171.349 0 315.605 43.349 384 107.435v-107.435zM895.974 554.673c0-70.613-157.696-149.333-384-149.333s-384 78.72-384 149.333v86.187c68.395-64.128 212.693-107.52 384.043-107.52 171.307 0 315.563 43.349 383.957 107.435v-86.101zM895.974 725.041c-0.469-70.528-157.995-149.035-383.957-149.035-226.304 0-384 78.72-384 149.333s157.696 149.333 384 149.333c226.176 0 383.787-79.061 383.957-149.632zM511.974 21.34c-226.304 0-384 78.72-384 149.333v107.435c68.395-64.085 212.693-107.435 384-107.435 171.349 0 315.605 43.349 384 107.435v-107.435c0-70.613-157.696-149.333-384-149.333z" />
<glyph unicode="&#xe13f;" glyph-name="eye" d="M1019.392 461.269c-9.216 11.605-229.248 285.397-507.392 285.397s-498.176-273.792-507.392-285.397c-6.144-7.765-6.144-18.731 0-26.496 9.216-11.648 229.248-285.44 507.392-285.44s498.176 273.792 507.392 285.397c6.144 7.808 6.144 18.731 0 26.539zM512 192c-223.872 0-415.317 201.771-462.72 256 47.403 54.229 238.848 256 462.72 256s415.317-201.771 462.72-256c-47.403-54.229-238.848-256-462.72-256zM512 640c-105.856 0-192-86.144-192-192s86.144-192 192-192 192 86.144 192 192-86.144 192-192 192zM512 298.667c-82.347 0-149.333 66.987-149.333 149.333s66.987 149.333 149.333 149.333 149.333-66.987 149.333-149.333-66.987-149.333-149.333-149.333z" />
<glyph unicode="&#xe166;" glyph-name="bubble" d="M512 917.333c-282.325 0-512-189.184-512-421.675 0-109.824 50.219-212.736 141.867-291.456l-102.827-205.312c-4.053-8.064-2.56-17.92 3.797-24.405 4.096-4.224 9.643-6.443 15.275-6.443 3.029 0 6.144 0.683 9.003 2.005l274.645 127.829c54.613-15.829 111.872-23.893 170.24-23.893 282.325 0 512 189.184 512 421.675s-229.675 421.675-512 421.675zM512 116.651c-57.003 0-112.725 8.192-165.675 24.363-5.035 1.536-10.496 1.152-15.232-1.067l-226.475-105.387 83.029 165.717c4.48 9.003 2.091 19.925-5.76 26.197-89.771 71.765-139.221 167.339-139.221 269.184 0 209.024 210.56 379.008 469.333 379.008s469.333-169.984 469.333-379.008-210.56-379.008-469.333-379.008zM256 576c-47.061 0-85.333-38.272-85.333-85.333s38.272-85.333 85.333-85.333 85.333 38.272 85.333 85.333-38.272 85.333-85.333 85.333zM256 448c-23.509 0-42.667 19.115-42.667 42.667s19.157 42.667 42.667 42.667 42.667-19.115 42.667-42.667-19.157-42.667-42.667-42.667zM512 576c-47.061 0-85.333-38.272-85.333-85.333s38.272-85.333 85.333-85.333 85.333 38.272 85.333 85.333-38.272 85.333-85.333 85.333zM512 448c-23.509 0-42.667 19.115-42.667 42.667s19.157 42.667 42.667 42.667 42.667-19.115 42.667-42.667-19.157-42.667-42.667-42.667zM768 576c-47.061 0-85.333-38.272-85.333-85.333s38.272-85.333 85.333-85.333 85.333 38.272 85.333 85.333-38.272 85.333-85.333 85.333zM768 448c-23.509 0-42.667 19.115-42.667 42.667s19.157 42.667 42.667 42.667 42.667-19.115 42.667-42.667-19.157-42.667-42.667-42.667z" />
<glyph unicode="&#xe198;" glyph-name="users" d="M234.667 576h-213.333c-11.776 0-21.333-9.557-21.333-21.333v-128c0-46.208 14.336-73.813 42.667-82.432v-173.568c0-11.776 9.557-21.333 21.333-21.333h128c11.776 0 21.333 9.557 21.333 21.333v173.568c28.288 8.619 42.624 36.224 42.667 82.432v128c0 11.776-9.557 21.333-21.333 21.333zM213.333 426.667c-0.043-42.667-11.861-42.667-21.333-42.667-11.776 0-21.333-9.557-21.333-21.333v-170.667h-85.333v170.667c0 11.776-9.557 21.333-21.333 21.333-9.515 0-21.333 0-21.333 42.667v106.667h170.667v-106.667zM1002.667 576h-213.333c-11.776 0-21.333-9.557-21.333-21.333v-128c0-46.208 14.336-73.813 42.667-82.432v-173.568c0-11.776 9.557-21.333 21.333-21.333h128c11.776 0 21.333 9.557 21.333 21.333v173.568c28.288 8.619 42.624 36.224 42.667 82.432v128c0 11.776-9.557 21.333-21.333 21.333zM981.333 426.667c-0.043-42.667-11.861-42.667-21.333-42.667-11.776 0-21.333-9.557-21.333-21.333v-170.667h-85.333v170.667c0 11.776-9.557 21.333-21.333 21.333-9.515 0-21.333 0-21.333 42.667v106.667h170.667v-106.667zM661.333 576h-298.667c-11.776 0-21.333-9.557-21.333-21.333v-213.333c0-51.541 36.693-94.592 85.333-104.533v-236.8c0-11.776 9.557-21.333 21.333-21.333h128c11.776 0 21.333 9.557 21.333 21.333v236.8c48.64 9.899 85.333 52.992 85.333 104.533v213.333c0 11.776-9.557 21.333-21.333 21.333zM640 341.333c0-35.285-28.715-64-64-64-11.776 0-21.333-9.557-21.333-21.333v-234.667h-85.333v234.667c0 11.776-9.557 21.333-21.333 21.333-35.285 0-64 28.715-64 64v192h256v-192zM128 618.667c47.061 0 85.333 38.272 85.333 85.333 0 47.104-38.272 85.333-85.333 85.333s-85.333-38.229-85.333-85.333c0-47.061 38.272-85.333 85.333-85.333zM128 746.667c23.509 0 42.667-19.157 42.667-42.667s-19.157-42.667-42.667-42.667-42.667 19.157-42.667 42.667c0 23.509 19.157 42.667 42.667 42.667zM896 618.667c47.061 0 85.333 38.272 85.333 85.333 0 47.104-38.272 85.333-85.333 85.333s-85.333-38.229-85.333-85.333c0-47.061 38.272-85.333 85.333-85.333zM896 746.667c23.509 0 42.667-19.157 42.667-42.667s-19.157-42.667-42.667-42.667-42.667 19.157-42.667 42.667c0 23.509 19.157 42.667 42.667 42.667zM512 618.667c70.571 0 128 57.429 128 128s-57.429 128-128 128-128-57.429-128-128 57.429-128 128-128zM512 832c47.061 0 85.333-38.229 85.333-85.333 0-47.061-38.272-85.333-85.333-85.333s-85.333 38.272-85.333 85.333c0 47.104 38.272 85.333 85.333 85.333z" />
<glyph unicode="&#xe199;" glyph-name="user" d="M922.88 767.232c-3.157 0.853-315.648 86.059-416.811 187.349-8.021 8.064-22.912 8.064-30.933 0-100.949-101.248-413.568-186.496-416.683-187.349-9.344-2.475-15.787-10.923-15.787-20.565 0-365.611 32.427-657.28 440.576-808.448 2.389-0.896 4.907-1.323 7.424-1.323s5.035 0.427 7.424 1.323c408.149 151.168 440.576 442.837 440.576 808.448 0 9.643-6.443 18.091-15.787 20.565zM490.667-18.987c-370.432 140.416-404.395 399.531-405.333 749.483 63.915 18.261 299.691 89.984 405.333 180.395 105.643-90.368 341.419-162.133 405.333-180.395-0.939-349.952-34.901-609.067-405.333-749.483zM341.333 611.84c0-50.517 25.344-95.061 63.829-122.069-95.317-35.029-163.669-126.421-163.669-233.771 0-11.776 9.557-21.333 21.333-21.333h455.68c11.776 0 21.333 9.557 21.333 21.333 0 107.349-68.352 198.741-163.669 233.771 38.485 27.008 63.829 71.552 63.829 122.069 0 82.347-66.987 149.333-149.333 149.333s-149.333-66.987-149.333-149.333zM696.064 277.333h-410.795c10.709 103.893 98.731 185.173 205.397 185.173s194.688-81.28 205.397-185.173zM490.667 718.507c58.795 0 106.667-47.872 106.667-106.667s-47.872-106.667-106.667-106.667-106.667 47.829-106.667 106.667 47.872 106.667 106.667 106.667z" />
<glyph unicode="&#xe19c;" glyph-name="vcard" d="M1002.667 746.667h-362.667v64c0 70.571-57.429 128-128 128s-128-57.429-128-128v-64h-362.667c-11.776 0-21.333-9.557-21.333-21.333v-725.333c0-11.776 9.557-21.333 21.333-21.333h981.333c11.776 0 21.333 9.557 21.333 21.333v725.333c0 11.776-9.557 21.333-21.333 21.333zM426.667 810.667c0 47.104 38.272 85.333 85.333 85.333s85.333-38.229 85.333-85.333v-149.333h-170.667v149.333zM384 704v-64c0-11.776 9.557-21.333 21.333-21.333h213.333c11.776 0 21.333 9.557 21.333 21.333v64h341.333v-128h-938.667v128h341.333zM42.667 21.333v512h938.667v-512h-938.667zM373.12 265.173c19.797 19.371 32.213 46.293 32.213 76.16 0 58.795-47.872 106.667-106.667 106.667s-106.667-47.872-106.667-106.667c0-29.867 12.416-56.789 32.213-76.16-69.376-24.832-96.213-84.224-96.213-137.173 0-11.776 9.557-21.333 21.333-21.333h298.667c11.776 0 21.333 9.557 21.333 21.333 0 52.949-26.837 112.341-96.213 137.173zM234.667 341.333c0 35.285 28.715 64 64 64s64-28.715 64-64-28.715-64-64-64-64 28.715-64 64zM172.672 149.333c6.357 33.707 31.573 85.333 125.995 85.333s119.595-51.627 125.995-85.333h-251.989zM554.667 192h341.333v-42.667h-341.333v42.667zM554.667 277.333h341.333v-42.667h-341.333v42.667zM554.667 362.667h341.333v-42.667h-341.333v42.667zM554.667 448h170.667v-42.667h-170.667v42.667zM512 853.547c-23.509 0-42.667-19.157-42.667-42.667s19.157-42.667 42.667-42.667 42.667 19.157 42.667 42.667c0 23.509-19.157 42.667-42.667 42.667z" />
<glyph unicode="&#xe1a0;" glyph-name="quotes-right" d="M224.992 512c123.712 0 224-100.288 224-224s-100.288-224-224-224c-123.712 0-224 100.288-224 224l-0.992 32c0 247.424 200.576 448 448 448v-128c-85.472 0-165.824-33.28-226.272-93.728-11.648-11.648-22.24-24.032-31.84-37.024 11.424 1.792 23.168 2.752 35.104 2.752zM800.992 512c123.712 0 224-100.288 224-224s-100.288-224-224-224c-123.712 0-224 100.288-224 224l-0.992 32c0 247.424 200.576 448 448 448v-128c-85.472 0-165.824-33.28-226.272-93.728-11.648-11.648-22.24-24.032-31.84-37.024 11.456 1.792 23.168 2.752 35.104 2.752z" />
<glyph unicode="&#xe1dd;" glyph-name="equalizer2" d="M960 960h-938.667c-11.776 0-21.333-9.557-21.333-21.333v-981.333c0-11.776 9.557-21.333 21.333-21.333h938.667c11.776 0 21.333 9.557 21.333 21.333v981.333c0 11.776-9.557 21.333-21.333 21.333zM938.667-21.333h-896v938.667h896v-938.667zM662.656 405.333h64v-64c0-11.776 9.557-21.333 21.333-21.333s21.333 9.557 21.333 21.333v64h64c11.776 0 21.333 9.557 21.333 21.333v85.333c0 11.776-9.557 21.333-21.333 21.333h-64v277.333c0 11.776-9.557 21.333-21.333 21.333s-21.333-9.557-21.333-21.333v-277.333h-64c-11.776 0-21.333-9.557-21.333-21.333v-85.333c0-11.776 9.557-21.333 21.333-21.333zM683.989 490.667h128v-42.667h-128v42.667zM405.333 618.667h64v-277.333c0-11.776 9.557-21.333 21.333-21.333s21.333 9.557 21.333 21.333v277.333h64c11.776 0 21.333 9.557 21.333 21.333v85.333c0 11.776-9.557 21.333-21.333 21.333h-64v64c0 11.776-9.557 21.333-21.333 21.333s-21.333-9.557-21.333-21.333v-64h-64c-11.776 0-21.333-9.557-21.333-21.333v-85.333c0-11.776 9.557-21.333 21.333-21.333zM426.667 704h128v-42.667h-128v42.667zM149.333 490.667h64v-149.333c0-11.776 9.557-21.333 21.333-21.333s21.333 9.557 21.333 21.333v149.333h64c11.776 0 21.333 9.557 21.333 21.333v85.333c0 11.776-9.557 21.333-21.333 21.333h-64v192c0 11.776-9.557 21.333-21.333 21.333s-21.333-9.557-21.333-21.333v-192h-64c-11.776 0-21.333-9.557-21.333-21.333v-85.333c0-11.776 9.557-21.333 21.333-21.333zM170.667 576h128v-42.667h-128v42.667zM748.459 234.667c-47.061 0-85.333-38.272-85.333-85.333s38.272-85.333 85.333-85.333 85.333 38.272 85.333 85.333c0 47.061-38.272 85.333-85.333 85.333zM748.459 106.667c-23.509 0-42.667 19.157-42.667 42.667s19.157 42.667 42.667 42.667 42.667-19.157 42.667-42.667-19.157-42.667-42.667-42.667zM490.667 234.667c-47.061 0-85.333-38.272-85.333-85.333s38.272-85.333 85.333-85.333 85.333 38.272 85.333 85.333c0 47.061-38.272 85.333-85.333 85.333zM490.667 106.667c-23.509 0-42.667 19.157-42.667 42.667s19.157 42.667 42.667 42.667 42.667-19.157 42.667-42.667-19.157-42.667-42.667-42.667zM234.667 234.667c-47.061 0-85.333-38.272-85.333-85.333s38.272-85.333 85.333-85.333 85.333 38.272 85.333 85.333c0 47.061-38.272 85.333-85.333 85.333zM234.667 106.667c-23.509 0-42.667 19.157-42.667 42.667s19.157 42.667 42.667 42.667 42.667-19.157 42.667-42.667-19.157-42.667-42.667-42.667z" />
<glyph unicode="&#xe1ec;" glyph-name="wand" d="M21.333-64c-5.461 0-10.923 2.091-15.104 6.229-8.32 8.32-8.32 21.845 0 30.165l554.667 554.667c8.32 8.32 21.845 8.32 30.165 0s8.32-21.845 0-30.165l-554.667-554.667c-4.139-4.139-9.6-6.229-15.061-6.229zM1002.667 618.667h-128c-11.776 0-21.333 9.557-21.333 21.333s9.557 21.333 21.333 21.333h128c11.776 0 21.333-9.557 21.333-21.333s-9.557-21.333-21.333-21.333zM832 746.667c-5.461 0-10.923 2.091-15.104 6.229-8.32 8.32-8.32 21.845 0 30.165l85.333 85.333c8.32 8.32 21.845 8.32 30.165 0s8.32-21.845 0-30.165l-85.333-85.333c-4.139-4.139-9.6-6.229-15.061-6.229zM704 789.333c-11.776 0-21.333 9.557-21.333 21.333v128c0 11.776 9.557 21.333 21.333 21.333s21.333-9.557 21.333-21.333v-128c0-11.776-9.557-21.333-21.333-21.333zM576 746.667c-5.461 0-10.923 2.091-15.104 6.229l-85.333 85.333c-8.32 8.32-8.32 21.845 0 30.165s21.845 8.32 30.165 0l85.333-85.333c8.32-8.32 8.32-21.845 0-30.165-4.139-4.139-9.6-6.229-15.061-6.229zM533.333 618.667h-128c-11.776 0-21.333 9.557-21.333 21.333s9.557 21.333 21.333 21.333h128c11.776 0 21.333-9.557 21.333-21.333s-9.557-21.333-21.333-21.333zM704 362.667c-11.776 0-21.333 9.557-21.333 21.333v128c0 11.776 9.557 21.333 21.333 21.333s21.333-9.557 21.333-21.333v-128c0-11.776-9.557-21.333-21.333-21.333zM917.333 448c-5.461 0-10.923 2.091-15.104 6.229l-85.333 85.333c-8.32 8.32-8.32 21.845 0 30.165s21.845 8.32 30.165 0l85.333-85.333c8.32-8.32 8.32-21.845 0-30.165-4.139-4.139-9.6-6.229-15.061-6.229z" />
<glyph unicode="&#xe1f9;" glyph-name="pie" d="M960 789.333c11.776 0 21.333 9.557 21.333 21.333v128c0 11.776-9.557 21.333-21.333 21.333h-938.667c-11.776 0-21.333-9.557-21.333-21.333v-128c0-11.776 9.557-21.333 21.333-21.333h64v-554.667h-63.104c-11.776 0-21.333-9.557-21.333-21.333s9.557-21.333 21.333-21.333h447.104v-88.363c-36.693-9.515-64-42.667-64-82.304 0-47.061 38.272-85.333 85.333-85.333s85.333 38.272 85.333 85.333c0 39.637-27.307 72.789-64 82.304v88.363h447.104c11.776 0 21.333 9.557 21.333 21.333s-9.557 21.333-21.333 21.333h-63.104v554.667h64zM533.333 21.333c0-23.509-19.115-42.667-42.667-42.667s-42.667 19.157-42.667 42.667 19.115 42.667 42.667 42.667 42.667-19.157 42.667-42.667zM42.667 917.333h896v-85.333h-896v85.333zM853.333 234.667h-725.333v554.667h725.333v-554.667zM362.667 320c9.003 0 17.621 1.451 26.283 2.645 0.64-0.043 1.152-0.341 1.792-0.341 1.152 0 2.389 0.085 3.541 0.299 0.768 0.128 1.323 0.597 2.048 0.768 89.813 16.043 158.336 94.293 158.336 188.629 0 105.856-86.144 192-192 192-32.853 0-63.317-9.045-90.368-23.68-1.664-0.469-3.328-0.725-4.864-1.621-1.28-0.725-2.048-1.792-3.115-2.645-55.808-33.621-93.653-94.251-93.653-164.053 0-105.899 86.144-192 192-192zM407.979 370.432l-20.096 120.235h121.941c-8.235-56.875-48.384-103.040-101.845-120.235zM509.824 533.333h-134.784l-66.987 117.333c16.939 6.699 35.285 10.667 54.613 10.667 75.051 0 136.704-55.851 147.157-128zM271.147 629.12l71.083-124.459 23.68-141.696c-1.067 0-2.133-0.299-3.243-0.299-82.347 0-149.333 66.987-149.333 149.333 0 47.701 22.912 89.771 57.813 117.12zM662.229 661.333h125.355c11.776 0 21.333 9.557 21.333 21.333s-9.6 21.333-21.376 21.333h-125.355c-11.776 0-21.333-9.557-21.333-21.333s9.557-21.333 21.376-21.333zM662.229 576h125.355c11.776 0 21.333 9.557 21.333 21.333s-9.6 21.333-21.376 21.333h-125.355c-11.776 0-21.333-9.557-21.333-21.333s9.557-21.333 21.376-21.333zM662.229 490.667h125.355c11.776 0 21.333 9.557 21.333 21.333s-9.557 21.333-21.333 21.333h-125.355c-11.776 0-21.333-9.557-21.333-21.333s9.515-21.333 21.333-21.333z" />
<glyph unicode="&#xe201;" glyph-name="bars" d="M1002.667-21.333h-21.333v618.667c0 11.776-9.557 21.333-21.333 21.333h-128c-11.776 0-21.333-9.557-21.333-21.333v-618.667h-85.333v320c0 11.776-9.557 21.333-21.333 21.333h-128c-11.776 0-21.333-9.557-21.333-21.333v-320h-85.333v405.333c0 11.776-9.557 21.333-21.333 21.333h-128c-11.776 0-21.333-9.557-21.333-21.333v-405.333h-85.333v192c0 11.776-9.557 21.333-21.333 21.333h-128c-11.776 0-21.333-9.557-21.333-21.333v-192h-21.333c-11.776 0-21.333-9.557-21.333-21.333s9.557-21.333 21.333-21.333h981.333c11.776 0 21.333 9.557 21.333 21.333s-9.557 21.333-21.333 21.333zM853.333 576h85.333v-597.333h-85.333v597.333zM597.333 277.333h85.333v-298.667h-85.333v298.667zM341.333 362.667h85.333v-384h-85.333v384zM85.333 149.333h85.333v-170.667h-85.333v170.667z" />
<glyph unicode="&#xe207;" glyph-name="stats-up" d="M1002.667-21.333h-21.333v618.667c0 11.776-9.557 21.333-21.333 21.333h-128c-11.776 0-21.333-9.557-21.333-21.333v-618.667h-85.333v448c0 11.776-9.557 21.333-21.333 21.333h-128c-11.776 0-21.333-9.557-21.333-21.333v-448h-85.333v277.333c0 11.776-9.557 21.333-21.333 21.333h-128c-11.776 0-21.333-9.557-21.333-21.333v-277.333h-85.333v106.667c0 11.776-9.557 21.333-21.333 21.333h-128c-11.776 0-21.333-9.557-21.333-21.333v-106.667h-21.333c-11.776 0-21.333-9.557-21.333-21.333s9.557-21.333 21.333-21.333h981.333c11.776 0 21.333 9.557 21.333 21.333s-9.557 21.333-21.333 21.333zM853.333 576h85.333v-597.333h-85.333v597.333zM597.333 405.333h85.333v-426.667h-85.333v426.667zM341.333 234.667h85.333v-256h-85.333v256zM85.333 64h85.333v-85.333h-85.333v85.333zM128 362.667c4.096 0 8.192 1.152 11.819 3.584l729.216 486.144-15.531-124.416c-1.451-11.691 6.827-22.357 18.517-23.808 0.896-0.128 1.749-0.171 2.688-0.171 10.581 0 19.797 7.893 21.12 18.688l21.333 170.667c0.128 1.024-0.213 1.963-0.213 2.987-0.043 1.536 0 2.987-0.384 4.523-0.341 1.493-1.024 2.773-1.664 4.096-0.469 0.939-0.597 1.963-1.152 2.816-0.171 0.256-0.384 0.341-0.555 0.555-0.939 1.323-2.261 2.389-3.499 3.456-0.853 0.725-1.579 1.621-2.517 2.176-1.152 0.725-2.56 1.067-3.84 1.579-1.323 0.512-2.603 1.109-3.968 1.323-0.299 0.043-0.512 0.213-0.768 0.256l-170.667 21.333c-11.52 1.28-22.357-6.784-23.851-18.517-1.451-11.691 6.827-22.357 18.517-23.808l113.792-14.208-720.213-480.171c-9.771-6.528-12.459-19.755-5.931-29.568 4.139-6.187 10.88-9.515 17.749-9.515z" />
<glyph unicode="&#xe208;" glyph-name="stats-down" d="M1002.667-21.333h-21.333v106.667c0 11.776-9.557 21.333-21.333 21.333h-128c-11.776 0-21.333-9.557-21.333-21.333v-106.667h-85.333v277.333c0 11.776-9.557 21.333-21.333 21.333h-128c-11.776 0-21.333-9.557-21.333-21.333v-277.333h-85.333v448c0 11.776-9.557 21.333-21.333 21.333h-128c-11.776 0-21.333-9.557-21.333-21.333v-448h-85.333v618.667c0 11.776-9.557 21.333-21.333 21.333h-128c-11.776 0-21.333-9.557-21.333-21.333v-618.667h-21.333c-11.776 0-21.333-9.557-21.333-21.333s9.557-21.333 21.333-21.333h981.333c11.776 0 21.333 9.557 21.333 21.333s-9.557 21.333-21.333 21.333zM853.333 64h85.333v-85.333h-85.333v85.333zM597.333 234.667h85.333v-256h-85.333v256zM341.333 405.333h85.333v-426.667h-85.333v426.667zM85.333 576h85.333v-597.333h-85.333v597.333zM836.437 398.080l-113.792-14.208c-11.648-1.451-19.968-12.117-18.517-23.808 1.323-10.795 10.539-18.688 21.12-18.688 0.896 0 1.792 0.043 2.688 0.171l170.667 21.333c2.005 0.213 3.712 1.067 5.461 1.835 0.683 0.299 1.408 0.341 2.091 0.683 2.816 1.579 5.205 3.755 7.040 6.357 0.128 0.213 0.384 0.213 0.512 0.469 0.597 0.896 0.725 1.877 1.152 2.816 0.64 1.365 1.323 2.645 1.664 4.096 0.384 1.536 0.341 3.029 0.384 4.523 0 1.024 0.341 1.963 0.213 2.987l-21.333 170.667c-1.451 11.733-12.288 19.925-23.851 18.517-11.648-1.451-19.968-12.117-18.517-23.808l15.531-124.416-729.131 486.144c-9.728 6.485-22.997 3.925-29.568-5.931-6.528-9.813-3.883-23.040 5.931-29.568l720.256-480.171z" />
<glyph unicode="&#xe20b;" glyph-name="chart" d="M938.667 341.333c47.061 0 85.333 38.272 85.333 85.333s-38.272 85.333-85.333 85.333-85.333-38.272-85.333-85.333c0-7.979 1.451-15.488 3.499-22.827l-155.904-88.277c-15.531 15.872-37.035 25.771-60.928 25.771-39.637 0-72.747-27.307-82.304-64h-155.392c-9.557 36.693-42.667 64-82.304 64-47.061 0-85.333-38.272-85.333-85.333 0-8.533 1.664-16.64 4.011-24.448l-196.011-128.128v341.76l260.437 155.264c15.36-15.104 36.352-24.448 59.563-24.448 30.037 0 56.363 15.701 71.595 39.253l163.328-58.283c-0.043-0.811-0.256-1.536-0.256-2.304 0-47.061 38.272-85.333 85.333-85.333s85.333 38.272 85.333 85.333c0 19.627-6.912 37.504-18.133 51.925l150.485 192.213c11.605-5.845 24.491-9.472 38.315-9.472 47.061 0 85.333 38.272 85.333 85.333s-38.272 85.333-85.333 85.333-85.333-38.272-85.333-85.333c0-17.749 5.461-34.261 14.805-47.915l-151.765-193.749c-10.325 4.437-21.717 6.997-33.707 6.997-31.147 0-58.24-16.981-73.131-42.069l-162.091 57.899c0.128 1.835 0.555 3.627 0.555 5.504 0 47.061-38.272 85.333-85.333 85.333s-85.333-38.272-85.333-85.333c0-8.491 1.621-16.512 3.925-24.235l-238.592-142.208v443.776c0 11.776-9.557 21.333-21.333 21.333s-21.333-9.557-21.333-21.333v-981.333c0-11.776 9.557-21.333 21.333-21.333h981.333c11.776 0 21.333 9.557 21.333 21.333s-9.557 21.333-21.333 21.333h-960v73.771l217.899 142.464c15.403-14.933 36.352-24.235 59.435-24.235 39.637 0 72.747 27.307 82.304 64h155.435c9.557-36.693 42.667-64 82.304-64 47.061 0 85.333 38.272 85.333 85.333 0 7.808-1.408 15.232-3.371 22.443l155.989 88.405c15.445-15.744 36.907-25.515 60.672-25.515zM938.667 917.333c23.552 0 42.667-19.157 42.667-42.667s-19.115-42.667-42.667-42.667-42.667 19.157-42.667 42.667 19.115 42.667 42.667 42.667zM682.667 597.333c23.552 0 42.667-19.157 42.667-42.667s-19.115-42.667-42.667-42.667-42.667 19.157-42.667 42.667 19.115 42.667 42.667 42.667zM362.667 704c23.552 0 42.667-19.157 42.667-42.667s-19.115-42.667-42.667-42.667-42.667 19.157-42.667 42.667 19.115 42.667 42.667 42.667zM320 213.333c-23.552 0-42.667 19.157-42.667 42.667s19.115 42.667 42.667 42.667 42.667-19.157 42.667-42.667-19.115-42.667-42.667-42.667zM640 213.333c-23.552 0-42.667 19.157-42.667 42.667s19.115 42.667 42.667 42.667 42.667-19.157 42.667-42.667-19.115-42.667-42.667-42.667zM938.667 469.333c23.552 0 42.667-19.157 42.667-42.667s-19.115-42.667-42.667-42.667-42.667 19.157-42.667 42.667 19.115 42.667 42.667 42.667z" />
<glyph unicode="&#xe216;" glyph-name="podium" d="M1021.867 478.336c-0.085 0.171-0.043 0.384-0.128 0.555l-64 128c-3.627 7.211-11.008 11.776-19.072 11.776h-213.333v64c0 3.243-0.853 6.229-2.133 9.003-0.085 0.171-0.043 0.384-0.128 0.555l-64 128c-3.627 7.211-11.008 11.776-19.072 11.776h-256c-8.064 0-15.445-4.565-19.072-11.776l-64-128c-0.085-0.171-0.043-0.384-0.128-0.555-1.28-2.773-2.133-5.76-2.133-9.003v-64h-213.333c-8.064 0-15.445-4.565-19.072-11.776l-64-128c-0.085-0.171-0.043-0.384-0.128-0.555-1.28-2.773-2.133-5.76-2.133-9.003v-384c0-11.776 9.557-21.333 21.333-21.333h981.333c11.776 0 21.333 9.557 21.333 21.333v384c0 3.243-0.853 6.229-2.133 9.003zM925.483 576l42.667-85.333h-242.816v85.333h200.149zM397.184 789.333h229.675l42.667-85.333h-315.008l42.667 85.333zM98.517 576h200.149v-85.333h-242.816l42.667 85.333zM42.667 448h256v-341.333h-256v341.333zM341.333 469.333v192h341.333v-554.667h-341.333v362.667zM981.333 106.667h-256v341.333h256v-341.333zM525.867 510.635l-64-23.893c-11.051-4.096-16.683-16.384-12.544-27.435s16.469-16.64 27.477-12.544l35.2 13.184v-178.091c0-11.776 9.557-21.333 21.333-21.333s21.333 9.557 21.333 21.333v208.811c0 6.997-3.413 13.525-9.173 17.493-5.76 4.053-13.056 4.949-19.627 2.475zM234.667 319.232c0 33.707-27.477 61.184-61.269 61.184-32.896 0-59.776-25.728-61.269-58.581-0.512-11.776 8.619-21.76 20.437-22.229 10.795-0.64 21.717 8.661 22.272 20.395 0.427 9.941 8.576 17.749 18.603 17.749 10.24 0 18.603-8.277 18.603-18.517 0-5.163-1.877-8.32-3.797-11.221l-72.661-103.851c-4.565-6.485-5.12-15.019-1.451-22.059 3.669-7.083 10.965-11.52 18.901-11.52h79.872c11.776 0 21.333 9.557 21.333 21.333s-9.557 21.333-21.333 21.333h-38.955l49.323 70.485c4.907 7.253 11.392 18.688 11.392 35.499zM850.603 213.333c-6.613 0-17.707 0-18.645 19.541-0.512 11.733-8.192 20.907-22.229 20.352-11.776-0.555-20.864-10.539-20.352-22.272 1.664-36.608 25.685-60.288 61.227-60.288 42.283 0 61.269 32.171 61.269 64.043 0 15.36-4.523 30.805-13.909 42.667 9.387 11.861 13.909 27.264 13.909 42.667 0 31.829-18.944 63.957-61.269 63.957-35.541 0-59.563-23.68-61.227-60.288-0.555-11.733 8.533-21.76 20.352-22.272 0.341 0 0.683 0 0.939 0 11.349 0 20.779 8.917 21.291 20.352 0.939 19.541 11.989 19.541 18.645 19.541 6.059 0 18.603 0 18.603-21.291 0-21.333-12.544-21.333-18.603-21.333-11.776 0-21.333-9.557-21.333-21.333s9.557-21.333 21.333-21.333c6.059 0 18.603 0 18.603-21.333-0.043-21.376-12.587-21.376-18.603-21.376z" />
<glyph unicode="&#xe217;" glyph-name="medal" d="M640 8.832l-134.229 134.229c-8.32 8.32-21.845 8.32-30.165 0l-134.272-134.229v225.835h-42.667v-277.333c0-8.619 5.205-16.427 13.184-19.712 7.936-3.371 17.109-1.493 23.253 4.608l155.563 155.563 155.563-155.563c4.096-4.053 9.557-6.229 15.104-6.229 2.731 0 5.547 0.512 8.149 1.621 7.979 3.285 13.184 11.093 13.184 19.712v277.333h-42.667v-225.835zM660.267 646.699c-2.901 8.704-11.051 14.635-20.267 14.635h-86.4l-43.819 87.765c-3.627 7.211-11.008 11.776-19.072 11.776s-15.445-4.565-19.072-11.776l-43.947-87.765h-86.357c-9.216 0-17.365-5.931-20.267-14.635-2.859-8.747 0.128-18.347 7.509-23.808l70.997-52.864-28.971-97.237c-2.517-8.491 0.469-17.664 7.509-23.040 6.997-5.376 16.683-5.845 24.192-1.195l88.149 54.613 88.235-56.32c3.499-2.219 7.509-3.328 11.477-3.328 4.48 0 9.003 1.451 12.8 4.267 7.125 5.333 10.155 14.464 7.723 23.040l-29.056 99.413 71.040 52.565c7.424 5.547 10.453 15.104 7.595 23.893zM553.813 513.408l-51.712 32.939c-3.499 2.219-7.467 3.371-11.477 3.371-3.883 0-7.808-1.067-11.264-3.2l-51.883-32.128 17.195 57.771c2.56 8.576-0.555 17.835-7.723 23.168l-31.232 23.339h35.157c8.064 0 15.445 4.523 19.072 11.776l30.72 61.355 30.677-61.355c3.627-7.253 11.008-11.776 19.072-11.776h34.944l-31.061-22.997c-7.168-5.333-10.283-14.549-7.808-23.125l17.323-59.136zM490.667 960c-199.979 0-362.667-162.645-362.667-362.667 0-199.979 162.688-362.667 362.667-362.667s362.667 162.688 362.667 362.667c0 200.021-162.688 362.667-362.667 362.667zM490.667 277.333c-176.469 0-320 143.531-320 320s143.531 320 320 320 320-143.531 320-320-143.531-320-320-320zM490.667 853.333c-141.184 0-256-114.816-256-256s114.816-256 256-256 256 114.816 256 256-114.816 256-256 256zM490.667 384c-117.632 0-213.333 95.701-213.333 213.333s95.701 213.333 213.333 213.333 213.333-95.701 213.333-213.333-95.701-213.333-213.333-213.333z" />
<glyph unicode="&#xe219;" glyph-name="medal2" d="M1021.141 96.768l-153.003 264.533c31.36 57.472 49.195 123.392 49.195 193.365 0 223.488-181.845 405.333-405.333 405.333s-405.333-181.845-405.333-405.333c0-69.973 17.835-135.893 49.195-193.365l-153.003-264.533c-4.181-7.168-3.797-16.043 0.896-22.827 4.693-6.827 12.757-10.24 21.12-8.875l146.731 24.875 50.859-139.861c2.773-7.765 9.813-13.184 18.048-13.952 0.725-0.128 1.408-0.128 2.091-0.128 7.467 0 14.464 3.925 18.347 10.411l131.541 220.928c37.803-11.691 77.909-18.005 119.509-18.005s81.707 6.315 119.552 18.005l131.541-220.928c3.883-6.485 10.88-10.411 18.304-10.411 0.683 0 1.323 0 2.005 0.085 8.192 0.811 15.232 6.229 18.048 13.952l50.859 139.861 146.731-24.875c8.32-1.28 16.384 2.091 21.12 8.875 4.736 6.827 5.12 15.701 0.981 22.869zM247.253 6.869l-41.6 114.347c-3.499 9.685-13.312 15.403-23.637 13.739l-119.509-20.267 119.083 205.952c42.837-60.288 101.547-108.501 170.155-138.197l-104.491-175.573zM149.333 554.667c0 200.021 162.688 362.667 362.667 362.667s362.667-162.645 362.667-362.667c0-199.979-162.688-362.667-362.667-362.667s-362.667 162.688-362.667 362.667zM841.941 134.955c-10.283 1.621-20.139-4.096-23.637-13.739l-41.6-114.347-104.533 175.573c68.608 29.653 127.317 77.909 170.155 138.197l119.083-205.952-119.467 20.267zM526.421 702.848l-85.333-29.312c-11.179-3.797-17.067-15.957-13.269-27.093 3.84-11.179 15.829-17.024 27.093-13.269l57.088 19.627v-226.133c0-11.776 9.557-21.333 21.333-21.333s21.333 9.557 21.333 21.333v256c0 6.912-3.328 13.355-8.917 17.365-5.632 4.011-12.885 5.077-19.328 2.816z" />
<glyph unicode="&#xe21a;" glyph-name="medal3" d="M657.749 702.123l-196.48-249.685-96.597 96.597c-8.32 8.32-21.845 8.32-30.165 0s-8.32-21.845 0-30.165l113.579-113.579c4.011-4.011 9.472-6.229 15.104-6.229 0.427 0 0.853 0.043 1.237 0.043 6.101 0.341 11.733 3.328 15.488 8.107l211.328 268.587c7.296 9.259 5.717 22.656-3.541 29.952-9.216 7.168-22.613 5.675-29.952-3.627zM1021.141 96.768l-153.003 264.533c31.36 57.472 49.195 123.392 49.195 193.365 0 223.488-181.845 405.333-405.333 405.333s-405.333-181.845-405.333-405.333c0-69.973 17.835-135.893 49.195-193.365l-153.003-264.533c-4.181-7.168-3.797-16.043 0.896-22.827 4.693-6.827 12.757-10.24 21.12-8.875l146.731 24.875 50.859-139.861c2.773-7.765 9.813-13.184 18.048-13.952 0.725-0.128 1.408-0.128 2.091-0.128 7.467 0 14.464 3.925 18.347 10.411l131.541 220.928c37.803-11.691 77.909-18.005 119.509-18.005s81.707 6.315 119.552 18.005l131.541-220.928c3.883-6.485 10.88-10.411 18.304-10.411 0.683 0 1.323 0 2.005 0.085 8.192 0.811 15.232 6.229 18.048 13.952l50.859 139.861 146.731-24.875c8.277-1.28 16.384 2.091 21.12 8.875 4.736 6.827 5.12 15.701 0.981 22.869zM247.253 6.869l-41.6 114.347c-3.456 9.685-13.312 15.403-23.637 13.739l-119.509-20.267 119.083 205.952c42.837-60.288 101.547-108.501 170.155-138.197l-104.491-175.573zM149.333 554.667c0 200.021 162.688 362.667 362.667 362.667s362.667-162.645 362.667-362.667c0-199.979-162.688-362.667-362.667-362.667s-362.667 162.688-362.667 362.667zM841.941 134.955c-10.24 1.621-20.139-4.096-23.637-13.739l-41.6-114.347-104.533 175.573c68.608 29.653 127.317 77.909 170.155 138.197l119.083-205.952-119.467 20.267z" />
<glyph unicode="&#xe21b;" glyph-name="medal4" d="M1014.229 96.811l-149.803 258.389c33.536 58.965 52.907 126.933 52.907 199.467 0 223.488-181.845 405.333-405.333 405.333s-405.333-181.845-405.333-405.333c0-69.973 17.835-135.893 49.195-193.365l-153.003-264.491c-4.181-7.168-3.797-16.043 0.896-22.869 4.736-6.784 13.013-10.283 21.077-8.875l146.731 24.832 50.901-139.861c2.816-7.765 9.813-13.184 18.048-13.952 0.725-0.085 1.408-0.085 2.091-0.085 7.467 0 14.464 3.925 18.347 10.411l131.541 220.971c37.76-11.733 77.909-18.048 119.509-18.048 39.296 0 77.184 5.888 113.109 16.384l131.029-219.307c3.883-6.485 10.923-10.411 18.347-10.411 0.683 0 1.323 0.043 2.005 0.085 8.192 0.768 15.232 6.187 18.048 13.952l50.901 139.861 146.773-24.832c8.021-1.323 16.384 2.091 21.077 8.875 4.736 6.827 5.077 15.701 0.939 22.869zM247.253 6.869l-41.643 114.304c-3.499 9.685-13.568 15.275-23.595 13.739l-119.509-20.224 119.083 205.952c42.837-60.288 101.504-108.459 170.155-138.155l-104.491-175.616zM149.333 554.667c0 199.979 162.688 362.667 362.667 362.667s362.667-162.688 362.667-362.667-162.688-362.667-362.667-362.667-362.667 162.688-362.667 362.667zM835.029 134.912c-9.899 1.579-20.096-4.053-23.595-13.739l-41.685-114.389-103.509 173.227c69.077 28.501 128.299 75.776 171.989 135.168l116.267-200.491-119.467 20.224zM704 661.333h-114.816l-58.069 116.224c-7.253 14.464-30.933 14.464-38.187 0l-58.112-116.224h-114.816c-8.619 0-16.427-5.205-19.712-13.184s-1.451-17.109 4.608-23.253l97.792-97.792-39.168-137.259c-2.475-8.491 0.64-17.579 7.68-22.912 7.083-5.333 16.64-5.717 24.107-1.067l116.693 73.003 116.693-72.96c3.456-2.176 7.381-3.243 11.307-3.243 4.523 0 9.045 1.451 12.843 4.309 7.040 5.333 10.112 14.421 7.68 22.912l-39.211 137.259 97.792 97.792c6.101 6.101 7.936 15.275 4.608 23.211-3.285 7.979-11.093 13.184-19.712 13.184zM582.229 548.437c-5.504-5.461-7.552-13.483-5.419-20.949l27.435-96-80.939 50.645c-3.456 2.133-7.381 3.243-11.307 3.243s-7.851-1.109-11.307-3.243l-80.939-50.645 27.435 96c2.133 7.424 0.085 15.445-5.419 20.949l-70.272 70.229h76.501c8.064 0 15.445 4.565 19.072 11.776l44.928 89.813 44.928-89.813c3.627-7.211 11.008-11.776 19.072-11.776h76.501l-70.272-70.229z" />
<glyph unicode="&#xe21d;" glyph-name="trophy" d="M638.805 746.667h-72.192l-36.736 73.557c-7.253 14.464-30.933 14.464-38.187 0l-36.736-73.557h-72.149c-9.344 0-17.579-6.101-20.395-15.019-2.731-8.917 0.597-18.603 8.277-23.893l63.104-43.477-28.459-81.195c-3.115-8.875-0.085-18.731 7.509-24.277s17.92-5.504 25.429 0.128l72.533 54.4 72.533-54.4c3.797-2.816 8.277-4.267 12.8-4.267 4.181 0 8.363 1.237 11.989 3.669 7.552 5.12 10.965 14.464 8.576 23.253l-22.528 82.816 57.6 43.947c7.253 5.547 10.155 15.104 7.253 23.808s-11.051 14.507-20.224 14.507zM559.189 630.357l-35.627 26.709c-3.797 2.859-8.277 4.267-12.8 4.267s-9.003-1.408-12.8-4.267l-29.184-21.845 10.667 30.336c3.2 9.088-0.085 19.157-8.021 24.661l-20.011 13.781h16.725c8.064 0 15.445 4.523 19.072 11.776l23.595 47.147 23.595-47.147c3.584-7.253 10.965-11.776 19.072-11.776h22.229l-18.859-14.421c-6.869-5.291-9.899-14.208-7.637-22.571l9.984-36.651zM1024.171 842.581l-0.085 10.752c0 11.776-9.557 21.333-21.333 21.333h-86.485c0.811 20.565 1.365 41.6 1.365 64 0 11.776-9.557 21.333-21.333 21.333h-768c-11.776 0-21.333-9.557-21.333-21.333 0-22.443 0.597-43.435 1.365-64h-86.699c-11.776 0-21.333-9.557-21.333-21.333l-0.128-11.563c-0.725-58.368-2.688-213.333 79.616-296.747 32.896-33.28 75.648-50.731 126.549-53.333 45.141-64.853 98.517-97.195 144.384-124.757 57.856-34.773 96.085-57.771 96.085-131.925-2.56-142.421-66.645-171.008-169.173-171.008-11.776 0-21.333-9.557-21.333-21.333v-85.333c0-11.776 9.557-21.333 21.333-21.333h469.333c11.776 0 21.333 9.557 21.333 21.333v85.333c0 11.776-9.557 21.333-21.333 21.333-122.283 0-172.16 49.451-172.16 170.667 0 74.795 38.699 98.048 97.323 133.291 45.867 27.563 99.157 59.819 144.427 123.733 51.072 2.56 94.037 20.053 127.104 53.504 82.901 83.755 81.195 238.933 80.512 297.387zM110.165 575.061c-66.091 66.859-67.968 197.803-67.413 256.939h67.925c8.875-134.955 34.517-227.925 68.352-294.059-27.008 5.973-49.92 17.92-68.864 37.12zM650.112 404.523c-60.672-36.48-118.016-70.955-118.016-169.856 0-138.283 61.611-206.379 193.493-212.821v-43.179h-426.667v43.179c128.981 6.4 187.989 72.661 190.507 212.821 0 98.645-56.704 132.736-116.736 168.875-44.288 26.624-93.355 56.533-134.187 116.565-0.597 1.365-1.536 2.389-2.347 3.584-47.957 72.576-84.096 188.203-86.4 393.643h725.077c-0.256-20.907-0.981-40.491-1.92-59.563-0.299-1.493-0.896-2.859-0.896-4.437 0-1.109 0.469-2.133 0.64-3.2-17.237-322.133-130.261-390.144-222.549-445.611zM844.331 537.984c34.389 66.091 60.501 158.976 69.547 294.016h67.712c0.469-59.563-1.963-189.781-68.267-256.811-19.029-19.243-42.027-31.189-68.992-37.205z" />
<glyph unicode="&#xe221;" glyph-name="diamond" d="M320 618.667c-9.301 0-17.835 6.059-20.48 15.445l-85.333 298.667c-3.285 11.349 3.285 23.168 14.592 26.411 11.477 3.243 23.168-3.371 26.368-14.677l85.333-298.667c3.243-11.307-3.285-23.125-14.635-26.411-1.92-0.512-3.925-0.768-5.845-0.768zM1023.957 639.829c0 0.043 0.043 0.085 0.043 0.171v0c0 4.181-1.493 7.808-3.541 11.093-0.256 0.384-0.128 0.896-0.427 1.28l-213.333 298.667c-0.427 0.597-1.109 0.853-1.579 1.365-1.323 1.579-2.859 2.901-4.651 4.053-0.981 0.597-1.963 1.067-3.029 1.579-0.811 0.341-1.365 0.896-2.219 1.152-1.237 0.341-2.517 0.128-3.755 0.256-0.768 0.085-1.365 0.555-2.133 0.555h-554.667c-6.869 0-13.355-3.328-17.365-8.96l-213.333-298.667c-0.299-0.384-0.171-0.896-0.427-1.28-2.048-3.285-3.541-6.912-3.541-11.093v0c0-0.043 0.043-0.085 0.043-0.171 0.043-4.096 1.493-7.723 3.499-10.965 0.299-0.384 0.171-0.939 0.469-1.323l490.667-682.667c0.896-1.195 2.219-1.835 3.243-2.816 0.896-0.811 1.579-1.536 2.603-2.176 3.413-2.304 7.211-3.883 11.477-3.883s8.064 1.621 11.52 3.883c0.981 0.64 1.707 1.408 2.603 2.176 1.024 0.981 2.389 1.621 3.243 2.816l490.667 682.667c0.299 0.427 0.171 0.939 0.469 1.365 1.963 3.2 3.413 6.827 3.456 10.923zM303.829 618.667l154.88-550.613-395.776 550.613h240.896zM664.917 661.333h-305.835l152.917 237.867 152.917-237.867zM551.083 917.333h210.005l-64.64-226.133-145.365 226.133zM675.84 618.667l-163.84-582.571-163.84 582.571h327.68zM720.171 618.667h240.896l-395.776-550.613 154.88 550.613zM732.288 661.333l65.365 228.907 163.541-228.907h-228.907zM245.675 917.333h227.243l-164.565-256h-245.547l182.869 256z" />
<glyph unicode="&#xe27e;" glyph-name="shield" d="M411.605 347.563c8.107-8.107 21.205-8.363 29.653-0.512l320 298.667c8.619 8.021 9.045 21.547 1.024 30.165s-21.504 9.088-30.165 1.024l-304.896-284.587-92.117 92.075c-8.32 8.32-21.845 8.32-30.165 0s-8.32-21.845 0-30.165l106.667-106.667zM917.333 960h-810.667c-11.776 0-21.333-9.557-21.333-21.333v-309.931c0-290.517 159.701-555.008 416.725-690.261 3.115-1.664 6.528-2.475 9.941-2.475s6.827 0.811 9.941 2.475c257.024 135.296 416.725 399.787 416.725 690.261v309.931c0 11.776-9.557 21.333-21.333 21.333zM896 628.736c0-270.805-146.816-517.76-384-647.211-237.184 129.408-384 376.32-384 647.211v288.597h768v-288.597z" />
<glyph unicode="&#xe280;" glyph-name="shield2" d="M704 533.333h-42.667v21.333c0 82.347-66.987 149.333-149.333 149.333s-149.333-66.987-149.333-149.333v-21.333h-42.667c-11.776 0-21.333-9.557-21.333-21.333v-298.667c0-11.776 9.557-21.333 21.333-21.333h384c11.776 0 21.333 9.557 21.333 21.333v298.667c0 11.776-9.557 21.333-21.333 21.333zM405.333 554.667c0 58.795 47.829 106.667 106.667 106.667s106.667-47.872 106.667-106.667v-21.333h-213.333v21.333zM682.667 234.667h-341.333v256h341.333v-256zM512 448c-23.552 0-42.667-19.157-42.667-42.667 0-15.573 8.832-28.672 21.333-36.139v-70.528c0-11.776 9.557-21.333 21.333-21.333s21.333 9.557 21.333 21.333v70.528c12.501 7.467 21.333 20.565 21.333 36.139 0 23.509-19.115 42.667-42.667 42.667zM917.333 960h-810.667c-11.776 0-21.333-9.557-21.333-21.333v-310.016c0-290.517 159.659-554.965 416.768-690.219 3.072-1.579 6.485-2.432 9.899-2.432s6.827 0.853 9.899 2.475c257.109 135.253 416.768 399.701 416.768 690.176v310.016c0 11.776-9.557 21.333-21.333 21.333zM896 917.333v-85.333h-768v85.333h768zM512-18.475c-237.184 129.408-384 376.277-384 647.125v160.683h768v-160.683c0-270.848-146.816-517.717-384-647.125z" />
<glyph unicode="&#xe281;" glyph-name="shield3" d="M927.189 936.235c-7.083 3.669-15.573 3.157-22.101-1.408-75.392-52.651-137.6-76.117-201.685-76.117-76.288 0-147.669 34.347-195.84 94.208-8.064 10.027-25.856 10.027-33.963 0-48.043-59.904-119.424-94.251-195.712-94.251-64.128 0-126.336 23.467-201.685 76.117-6.485 4.565-15.019 5.12-22.101 1.408-6.997-3.627-11.435-10.923-11.435-18.859v-631.979c0-1.92 0.256-3.797 0.768-5.675 2.645-9.643 69.376-237.739 441.515-342.059 1.877-0.512 3.84-0.811 5.76-0.811s3.883 0.256 5.76 0.811c372.139 104.32 438.827 332.416 441.515 342.059 0.427 1.877 0.683 3.797 0.683 5.675v631.979c0 7.936-4.437 15.232-11.477 18.901zM896 288.597c-7.936-23.723-81.237-215.381-405.333-308.224-322.304 92.373-397.227 284.459-405.333 308.309v589.013c68.651-42.496 129.195-61.696 192.555-61.696 81.024 0 157.312 33.067 212.779 91.563 55.509-58.453 131.755-91.563 212.779-91.563 63.275 0 123.819 19.2 192.555 61.696v-589.099zM571.179 533.333l109.397 180.949c4.011 6.571 4.139 14.805 0.341 21.504s-10.88 10.88-18.603 10.88h-157.227c-7.68 0-14.805-4.139-18.56-10.837l-169.259-298.667c-3.755-6.571-3.712-14.677 0.128-21.248 3.84-6.528 10.88-10.581 18.475-10.581h97.621l-97.195-246.784c-3.755-9.515-0.213-20.395 8.405-25.813 3.541-2.261 7.509-3.328 11.435-3.328 5.717 0 11.435 2.304 15.573 6.741l338.688 361.259c5.803 6.187 7.381 15.275 4.011 23.083s-11.136 12.843-19.627 12.843h-123.605zM416.896 246.741l67.797 172.117c2.603 6.571 1.792 13.952-2.219 19.797-3.968 5.845-10.581 9.344-17.621 9.344h-92.373l145.024 256h106.965l-109.397-180.949c-4.011-6.571-4.139-14.805-0.341-21.504s10.88-10.88 18.603-10.88h112.213l-228.651-243.925z" />
<glyph unicode="&#xe28e;" glyph-name="power" d="M872.277 564.437c-3.627 7.125-10.923 11.563-18.944 11.563h-314.752l79.573 358.059c2.176 9.899-2.859 19.968-12.16 24.107-9.216 4.096-20.139 1.195-26.027-7.083l-426.667-597.333c-4.651-6.485-5.291-15.061-1.621-22.144 3.669-7.168 10.965-11.605 18.987-11.605h314.752l-79.573-358.059c-5.035-22.827 24.832-35.712 38.187-17.024l426.667 597.333c4.651 6.528 5.248 15.061 1.579 22.187zM470.229 55.040l62.592 281.685c1.408 6.315-0.128 12.928-4.181 17.963s-10.155 7.979-16.64 7.979h-299.861l341.632 478.293-62.592-281.685c-1.408-6.315 0.128-12.928 4.181-17.963s10.155-7.979 16.64-7.979h299.861l-341.632-478.293z" />
<glyph unicode="&#xe291;" glyph-name="powercord" d="M1006.805 772.736c-8.32 8.32-21.845 8.32-30.165 0l-105.6-105.643-150.869 150.869 105.6 105.6c8.32 8.32 8.32 21.845 0 30.165s-21.845 8.32-30.165 0l-105.6-105.6-75.435 75.435c-8.32 8.32-21.845 8.32-30.165 0l-165.888-165.888c-48.469-48.427-73.429-114.603-70.272-186.368 1.835-42.624 13.696-83.968 33.877-121.515l-84.352-84.395c-8.32-8.32-8.32-21.845 0-30.165l30.165-30.165-180.992-180.992c-41.6-41.6-41.6-109.269 0-150.827 40.277-40.32 110.549-40.32 150.869 0l135.765 135.765c16.683 16.683 43.733 16.683 60.373 0 16.64-16.64 16.64-43.691 0-60.331l-71.808-71.765c-8.32-8.32-8.32-21.845 0-30.165 4.181-4.181 9.643-6.229 15.104-6.229s10.923 2.091 15.104 6.229l71.808 71.765c33.195 33.28 33.195 87.381 0 120.661-33.28 33.237-87.424 33.237-120.704 0l-135.851-135.765c-24.149-24.149-66.304-24.149-90.496 0-24.96 24.96-24.96 65.536 0 90.496l180.992 180.992 30.165-30.165c4.181-4.181 9.643-6.229 15.104-6.229s10.923 2.091 15.104 6.229l84.267 84.224c42.069-22.699 88.064-34.219 133.291-34.219 64.555 0 127.403 23.381 174.677 70.656l165.973 165.973c8.32 8.32 8.32 21.845 0 30.165l-75.477 75.477 105.6 105.6c8.32 8.32 8.32 21.803 0 30.123zM403.371 290.005l-60.331 60.331 62.677 62.763c8.533-11.392 17.664-22.357 27.861-32.597 10.283-10.283 21.291-19.328 32.555-27.733l-62.763-62.763zM780.501 395.563c-83.157-83.2-225.195-76.416-316.757 15.104-44.373 44.373-70.272 102.101-72.875 162.475-2.603 59.691 17.92 114.475 57.813 154.368l150.827 150.827 331.861-331.861-150.869-150.912zM855.936 561.536l-241.323 241.365c-8.32 8.32-21.845 8.32-30.165 0s-8.32-21.845 0-30.165l241.323-241.365c4.181-4.181 9.643-6.229 15.104-6.229s10.923 2.091 15.104 6.229c8.277 8.32 8.277 21.845-0.043 30.165zM524.117 591.701c-16.128-16.085-25.003-37.504-25.003-60.288s8.875-44.203 25.003-60.373c16.64-16.64 38.485-24.96 60.331-24.96s43.691 8.32 60.331 24.96c0 0 0 0 0 0 16.085 16.171 24.96 37.589 24.96 60.373s-8.875 44.203-25.003 60.288c-33.237 33.237-87.381 33.237-120.619 0zM614.571 501.205c-16.64-16.683-43.733-16.683-60.331 0-8.064 8.064-12.501 18.773-12.501 30.208 0 11.392 4.437 22.101 12.501 30.123 8.32 8.32 19.243 12.459 30.165 12.459s21.845-4.181 30.208-12.459c8.021-8.021 12.459-18.731 12.459-30.123s-4.437-22.101-12.501-30.208z" />
<glyph unicode="&#xe2b3;" glyph-name="cloud" d="M810.667 105.429h-554.667c-141.184 0-256 115.115-256 256.64 0 134.528 103.851 245.248 235.435 255.787 10.539 143.36 130.56 256.811 276.565 256.811 112.128 0 212.949-67.968 255.744-170.667 0.299 0 0.555 0 0.853 0 54.656 0 106.411-26.837 138.411-71.808 29.099-40.832 38.528-90.411 26.923-138.368 55.936-39.765 90.069-105.216 90.069-174.464 0-117.931-95.701-213.931-213.333-213.931zM512 832c-129.408 0-234.667-105.301-234.667-234.667 0-11.776-9.557-21.333-21.333-21.333-117.632 0-213.333-96-213.333-213.973s95.701-213.973 213.333-213.973h554.667c94.123 0 170.667 76.843 170.667 171.307 0 59.904-31.915 116.267-83.243 146.987-8.661 5.163-12.501 15.701-9.216 25.259 13.696 39.595 7.637 81.792-16.597 115.84-26.581 37.333-70.485 57.643-116.779 53.248-9.984-1.024-18.987 4.821-22.229 14.165-32.939 93.995-121.856 157.141-221.269 157.141z" />
<glyph unicode="&#xe2c2;" glyph-name="download" d="M143.744-21.333h693.845c79.232 0 143.744 64.469 143.744 143.744v81.621c0 11.776-9.557 21.333-21.333 21.333s-21.333-9.557-21.333-21.333v-81.621c0-55.723-45.312-101.077-101.077-101.077h-693.845c-55.765 0-101.077 45.355-101.077 101.077v81.621c0 11.776-9.557 21.333-21.333 21.333s-21.333-9.515-21.333-21.333v-81.621c0-79.275 64.512-143.744 143.744-143.744zM490.667 960c-11.776 0-21.333-9.557-21.333-21.333v-678.443l-262.229 262.229c-8.32 8.32-21.845 8.32-30.165 0s-8.32-21.845 0-30.165l298.624-298.667c8.107-8.107 21.717-8.576 30.251 0l298.624 298.667c8.32 8.32 8.32 21.845 0 30.165s-21.845 8.32-30.165 0l-262.272-262.229v678.443c0 11.776-9.557 21.333-21.333 21.333z" />
<glyph unicode="&#xe2c3;" glyph-name="upload" d="M143.744-21.333h693.845c79.232 0 143.744 64.469 143.744 143.744v81.621c0 11.776-9.557 21.333-21.333 21.333s-21.333-9.557-21.333-21.333v-81.621c0-55.723-45.312-101.077-101.077-101.077h-693.845c-55.765 0-101.077 45.355-101.077 101.077v81.621c0 11.776-9.557 21.333-21.333 21.333s-21.333-9.515-21.333-21.333v-81.621c0-79.275 64.512-143.744 143.744-143.744zM490.667 187.392c11.776 0 21.333 9.557 21.333 21.333v678.443l262.229-262.229c8.32-8.32 21.845-8.32 30.165 0s8.32 21.845 0 30.165l-298.624 298.667c-8.448 8.448-22.101 8.192-30.251 0l-298.624-298.667c-8.32-8.32-8.32-21.845 0-30.165s21.845-8.32 30.165 0l262.272 262.229v-678.443c0-11.819 9.557-21.333 21.333-21.333z" />
<glyph unicode="&#xe2c7;" glyph-name="earth" d="M892.971 788.864c-1.707 2.944-3.883 5.589-6.784 7.467-60.8 65.237-138.069 114.859-225.536 141.483-0.555 0.085-1.067 0.299-1.664 0.427-46.592 13.995-95.872 21.76-146.987 21.76-282.325 0-512-229.675-512-512s229.675-512 512-512 512 229.675 512 512c0 130.944-49.835 250.24-131.029 340.864zM851.072 771.584c-6.827-26.411-29.824-97.877-86.187-130.389-75.605 14.763-148.309-26.539-164.011-45.696-10.112-12.331-6.613-23.296-4.651-27.435 2.816-5.973 10.197-10.965 17.28-12.715 7.125-8.021 19.627-40.021 27.136-69.888 0.939-3.712 2.859-7.168 5.589-9.899 20.693-20.693 50.219-17.024 69.504-11.349 2.731-22.827-29.653-59.008-61.483-92.075-23.68-24.661-35.584-36.992-35.584-52.139 0-17.707 12.971-28.971 22.443-37.248 3.2-2.731 8.747-7.296 9.259-6.4 0 0-0.683-1.792-4.139-5.248-27.648-27.648-55.467-37.461-55.68-37.504-8.661-2.944-14.549-11.093-14.549-20.267 0-55.808-34.859-84.48-103.637-85.333-14.379 10.667-44.843 69.632-45.696 85.333 0 5.632 4.267 14.208 8.405 22.443 6.059 12.117 12.928 25.856 12.928 41.557 0 23.979-26.496 55.637-42.88 72.875-1.323 26.368-8.875 45.696-22.912 58.965-24.064 22.699-60.032 20.651-94.805 18.688-10.24-0.597-20.821-1.195-31.403-1.195-41.771 0-42.667 61.44-42.667 64 0 1.323 1.024 132.053 89.515 149.717 61.739 12.373 79.872 0.853 81.152-0.384 0-5.675 2.261-11.093 6.229-15.104 38.144-38.144 96-24.704 142.464-13.867 16.896 3.925 32.811 7.637 43.307 7.637 10.624 0 19.627 7.808 21.12 18.304 8.064 56.619 11.904 128.299-15.872 148.309-10.325 7.467-23.467 8.064-36.139 1.792-15.445-7.765-29.909-9.045-39.509-3.669-10.752 5.973-14.123 19.2-15.061 29.269-2.56 27.435 83.115 64.811 163.712 82.517 75.861-24.235 143.147-67.371 196.821-123.605zM512-21.333c-258.773 0-469.333 210.517-469.333 469.333 0 258.773 210.56 469.333 469.333 469.333 18.133 0 35.925-1.28 53.504-3.285-58.283-21.035-122.027-55.509-117.419-105.344 2.645-28.629 15.744-50.859 36.821-62.592 20.309-11.307 46.293-11.349 72.448-0.341 3.712-15.189 3.584-50.005-0.341-86.101-10.624-1.621-22.101-4.309-33.92-7.083-35.84-8.32-76.075-17.664-98.517-1.067-2.389 6.869-7.040 14.293-14.805 20.651-21.803 17.92-59.52 21.205-115.285 10.069-122.411-24.448-123.819-184.747-123.819-191.573 0-36.907 17.835-106.667 85.333-106.667 11.392 0 22.784 0.64 33.835 1.237 26.923 1.579 52.352 3.029 63.061-7.083 6.485-6.101 9.771-18.517 9.771-36.821 0-5.632 2.261-11.093 6.229-15.104 18.091-18.091 35.499-41.6 36.437-48.896 0-5.632-4.267-14.208-8.405-22.443-6.059-12.117-12.928-25.856-12.928-41.557 0-21.632 43.733-128 85.333-128 89.173 0 142.635 41.173 148.736 113.707 13.909 6.741 36.224 19.755 58.325 41.856 11.349 11.349 16.896 23.296 16.469 35.541-0.64 18.432-13.995 30.037-23.765 38.485-1.707 1.493-3.84 3.371-5.461 4.48 4.992 6.144 14.208 15.701 21.333 23.125 40.064 41.685 107.179 111.445 55.424 163.2-6.528 6.528-16.384 8.064-24.619 4.011-8.917-4.48-26.709-9.344-35.755-6.187-10.496 39.637-21.461 62.464-31.275 75.691 23.339 13.312 68.992 29.995 114.091 18.688 4.864-1.28 10.155-0.64 14.72 1.621 60.501 30.251 91.605 92.032 106.411 133.504 60.8-79.061 97.365-177.792 97.365-285.056 0-258.816-210.56-469.333-469.333-469.333z" />
<glyph unicode="&#xe2c8;" glyph-name="network" d="M234.667 576h-173.952c-9.984 0-18.048 9.557-18.048 21.333v21.333h490.667c11.776 0 21.333 9.557 21.333 21.333v256c0 35.285-27.264 64-60.715 64h-433.237c-33.451 0-60.715-28.715-60.715-64v-298.667c0-35.285 27.264-64 60.715-64h173.952c11.776 0 21.333 9.557 21.333 21.333s-9.557 21.333-21.333 21.333zM60.715 917.333h433.237c9.984 0 18.048-9.557 18.048-21.333v-234.667h-469.333v234.667c0 11.776 8.064 21.333 18.048 21.333zM234.667 490.667h-128c-11.776 0-21.333-9.557-21.333-21.333s9.557-21.333 21.333-21.333h128c11.776 0 21.333 9.557 21.333 21.333s-9.557 21.333-21.333 21.333zM934.4 576h-546.133c-49.408 0-89.6-44.032-89.6-98.133v-358.4c0-54.144 40.192-98.133 89.643-98.133h251.691v-42.667h-149.333c-11.776 0-21.333-9.557-21.333-21.333s9.557-21.333 21.333-21.333h341.333c11.776 0 21.333 9.557 21.333 21.333s-9.557 21.333-21.333 21.333h-149.333v42.667h251.733c49.408 0 89.6 43.989 89.6 98.133v358.4c0 54.101-40.149 98.133-89.6 98.133zM341.333 477.867c0 30.592 21.077 55.467 46.976 55.467h546.133c25.856 0 46.933-24.875 46.933-55.467v-285.867h-640.043v285.867zM934.4 64h-546.133c-25.856 0-46.933 24.875-46.933 55.467v29.867h640v-29.867c0-30.592-21.035-55.467-46.933-55.467zM682.667 106.667c0-11.782-9.551-21.333-21.333-21.333s-21.333 9.551-21.333 21.333c0 11.782 9.551 21.333 21.333 21.333s21.333-9.551 21.333-21.333z" />
<glyph unicode="&#xe2d1;" glyph-name="flag" d="M106.667 960c-11.776 0-21.333-9.557-21.333-21.333v-981.333c0-11.776 9.557-21.333 21.333-21.333s21.333 9.557 21.333 21.333v981.333c0 11.776-9.557 21.333-21.333 21.333zM930.304 840.704c-5.248 4.011-12.117 5.376-18.56 3.627-98.517-26.667-273.237-54.827-323.328-16.555-8.576 6.571-12.416 14.421-12.416 25.557 0 24.277-10.027 44.245-29.056 57.685-82.688 58.539-333.696-27.563-362.027-37.547-8.533-3.072-14.251-11.093-14.251-20.139v-512c0-6.912 3.371-13.397 9.003-17.408 5.675-4.011 12.928-5.035 19.413-2.688 99.072 34.944 274.517 77.44 323.2 42.965 7.637-5.419 11.051-12.459 11.051-22.869 0-24.277 10.069-44.885 29.184-59.563 27.179-20.864 72.064-28.075 121.216-28.075 101.12 0 220.16 30.592 239.104 35.627 9.344 2.517 15.829 10.965 15.829 20.651v513.792c0 6.613-3.072 12.885-8.363 16.939zM896 326.485c-100.352-24.789-259.925-47.403-307.499-10.88-8.619 6.656-12.501 14.592-12.501 25.728 0 24.277-10.027 44.245-29.056 57.685-20.651 14.635-51.883 20.224-87.509 20.224-84.395 0-193.536-31.36-246.144-48.213v467.072c100.821 33.792 262.485 70.997 308.949 38.059 7.68-5.376 11.093-12.416 11.093-22.827 0-24.277 10.069-44.843 29.184-59.477 70.4-53.76 260.096-15.189 333.483 2.475v-469.845z" />
<glyph unicode="&#xe318;" glyph-name="man" d="M512 704c70.571 0 128 57.429 128 128s-57.429 128-128 128-128-57.429-128-128 57.429-128 128-128zM512 917.333c47.061 0 85.333-38.229 85.333-85.333 0-47.061-38.272-85.333-85.333-85.333s-85.333 38.272-85.333 85.333c0 47.104 38.272 85.333 85.333 85.333zM752.512 639.189l-149.333 42.667c-9.941 2.731-20.352-1.792-24.917-11.008l-66.261-132.48-66.261 132.48c-4.565 9.173-15.019 13.653-24.917 11.008l-149.333-42.667c-9.173-2.645-15.488-11.008-15.488-20.523v-320c0-11.776 9.557-21.333 21.333-21.333h65.237l41.6-322.688c1.365-10.667 10.453-18.645 21.163-18.645h213.333c10.709 0 19.797 7.979 21.163 18.645l41.557 322.688h65.28c11.776 0 21.333 9.557 21.333 21.333v320c0 9.515-6.315 17.877-15.488 20.523zM725.333 320h-62.72c-10.709 0-19.797-7.979-21.163-18.603l-41.557-322.731h-175.829l-41.6 322.731c-1.323 10.624-10.411 18.603-21.12 18.603h-62.677v282.581l116.821 33.365 77.397-154.837c7.253-14.464 30.933-14.464 38.187 0l77.397 154.837 116.864-33.365v-282.581z" />
<glyph unicode="&#xe35e;" glyph-name="plus-circle" d="M490.667 960c-270.549 0-490.667-220.117-490.667-490.667s220.117-490.667 490.667-490.667 490.667 220.117 490.667 490.667-220.117 490.667-490.667 490.667zM490.667 21.333c-247.040 0-448 200.96-448 448s200.96 448 448 448 448-200.96 448-448-200.96-448-448-448zM746.667 490.667h-234.667v234.667c0 11.776-9.557 21.333-21.333 21.333s-21.333-9.557-21.333-21.333v-234.667h-234.667c-11.776 0-21.333-9.557-21.333-21.333s9.557-21.333 21.333-21.333h234.667v-234.667c0-11.776 9.557-21.333 21.333-21.333s21.333 9.557 21.333 21.333v234.667h234.667c11.776 0 21.333 9.557 21.333 21.333s-9.557 21.333-21.333 21.333z" />
<glyph unicode="&#xe35f;" glyph-name="plus-circle2" d="M960 490.667h-448v448c0 11.776-9.557 21.333-21.333 21.333s-21.333-9.557-21.333-21.333v-448h-448c-11.776 0-21.333-9.557-21.333-21.333s9.557-21.333 21.333-21.333h448v-448c0-11.776 9.557-21.333 21.333-21.333s21.333 9.557 21.333 21.333v448h448c11.776 0 21.333 9.557 21.333 21.333s-9.557 21.333-21.333 21.333z" />
<glyph unicode="&#xe360;" glyph-name="minus-circle" d="M490.667-21.333c270.549 0 490.667 220.117 490.667 490.667s-220.117 490.667-490.667 490.667-490.667-220.117-490.667-490.667 220.117-490.667 490.667-490.667zM490.667 917.333c247.040 0 448-200.96 448-448s-200.96-448-448-448-448 200.96-448 448 200.96 448 448 448zM234.667 448h512c11.776 0 21.333 9.557 21.333 21.333s-9.557 21.333-21.333 21.333h-512c-11.776 0-21.333-9.557-21.333-21.333s9.557-21.333 21.333-21.333z" />
<glyph unicode="&#xe361;" glyph-name="minus-circle2" d="M1002.667 490.667h-981.333c-11.776 0-21.333-9.557-21.333-21.333s9.557-21.333 21.333-21.333h981.333c11.776 0 21.333 9.557 21.333 21.333s-9.557 21.333-21.333 21.333z" />
<glyph unicode="&#xe3a5;" glyph-name="loop" d="M874.667 234.667c-11.776 0-21.333-9.557-21.333-21.333 0-58.837-47.829-106.667-106.667-106.667h-469.333c-58.837 0-106.667 47.829-106.667 106.667v301.483l94.848-63.232c9.728-6.485 22.997-3.968 29.568 5.931 6.528 9.771 3.883 23.040-5.931 29.568l-128 85.333c-0.341 0.256-0.853 0.171-1.237 0.384-7.339 4.309-13.824 4.309-21.163 0-0.384-0.213-0.896-0.128-1.237-0.384l-128-85.333c-9.771-6.528-12.459-19.797-5.931-29.568s19.84-12.373 29.568-5.931l94.848 63.232v-301.483c0-82.347 66.987-149.333 149.333-149.333h469.333c82.347 0 149.333 66.987 149.333 149.333 0 11.776-9.557 21.333-21.333 21.333zM990.848 444.416l-94.848-63.232v301.483c0 82.347-66.987 149.333-149.333 149.333h-469.333c-82.347 0-149.333-66.987-149.333-149.333 0-11.776 9.557-21.333 21.333-21.333s21.333 9.557 21.333 21.333c0 58.837 47.829 106.667 106.667 106.667h469.333c58.837 0 106.667-47.829 106.667-106.667v-301.483l-94.848 63.232c-9.728 6.485-22.997 3.925-29.568-5.931-6.528-9.771-3.883-23.040 5.931-29.568l128-85.333c0.384-0.256 0.896-0.171 1.237-0.384 7.339-4.309 13.824-4.309 21.163 0 0.384 0.213 0.896 0.128 1.237 0.384l128 85.333c9.771 6.528 12.459 19.797 5.931 29.568-6.571 9.856-19.925 12.459-29.568 5.931z" />
<glyph unicode="&#xe491;" glyph-name="mail" d="M768 704h-512c-47.061 0-85.333-38.229-85.333-85.333v-341.333c0-47.061 38.272-85.333 85.333-85.333h512c47.061 0 85.333 38.272 85.333 85.333v341.333c0 47.104-38.272 85.333-85.333 85.333zM810.667 277.333c0-23.509-19.157-42.667-42.667-42.667h-512c-23.509 0-42.667 19.157-42.667 42.667v341.333c0 23.509 19.157 42.667 42.667 42.667h512c23.509 0 42.667-19.157 42.667-42.667v-341.333zM763.179 610.816c-7.509 9.131-20.907 10.496-30.037 3.029l-221.141-180.949-221.184 180.949c-9.088 7.467-22.528 6.101-29.995-3.029-7.467-9.045-6.101-22.528 3.029-29.995l154.368-126.293-152.149-95.104c-9.984-6.229-13.013-19.413-6.784-29.397s19.456-13.013 29.397-6.741l164.395 102.741 45.44-37.205c3.883-3.2 8.704-4.821 13.483-4.821s9.6 1.621 13.483 4.821l45.44 37.205 164.395-102.741c9.941-6.229 23.125-3.243 29.397 6.741s3.2 23.168-6.784 29.397l-152.149 95.104 154.368 126.293c9.131 7.467 10.496 20.949 3.029 29.995zM512 960c-282.325 0-512-229.675-512-512s229.675-512 512-512 512 229.675 512 512c0 282.325-229.675 512-512 512zM512-21.333c-258.773 0-469.333 210.56-469.333 469.333s210.56 469.333 469.333 469.333 469.333-210.56 469.333-469.333-210.56-469.333-469.333-469.333z" />
<glyph unicode="&#xe4bd;" glyph-name="wordpress" d="M128 448.008c0-148.026 88.322-275.968 216.43-336.578l-183.178 488.784c-21.308-46.508-33.252-97.982-33.252-152.206zM771.228 466.872c0 46.234-17.054 78.236-31.654 103.142-19.458 30.82-37.72 56.894-37.72 87.716 0 34.374 26.766 66.376 64.486 66.376 1.704 0 3.32-0.204 4.976-0.302-68.316 60.97-159.34 98.196-259.308 98.196-134.16 0-252.186-67.046-320.844-168.568 9.010-0.282 17.506-0.454 24.712-0.454 40.154 0 102.34 4.752 102.34 4.752 20.69 1.182 23.132-28.434 2.458-30.822 0 0-20.81-2.368-43.952-3.55l139.834-405.106 84.044 245.456-59.822 159.65c-20.688 1.184-40.278 3.55-40.278 3.55-20.702 1.192-18.272 32.002 2.438 30.822 0 0 63.4-4.752 101.134-4.752 40.146 0 102.35 4.752 102.35 4.752 20.702 1.182 23.14-28.434 2.446-30.822 0 0-20.834-2.372-43.948-3.55l138.78-402.018 38.312 124.632c16.58 51.75 29.216 88.9 29.216 120.9zM518.742 415.296l-115.226-326.058c34.416-9.858 70.794-15.238 108.488-15.238 44.716 0 87.604 7.518 127.518 21.2-1.018 1.602-1.974 3.304-2.75 5.154l-118.030 314.942zM848.962 627.428c1.652-11.91 2.588-24.686 2.588-38.458 0-37.93-7.292-80.596-29.202-133.95l-117.286-330.272c114.162 64.828 190.938 185.288 190.938 323.258 0 65.030-17.060 126.16-47.038 179.422zM512 960c-282.77 0-512-229.23-512-512s229.23-512 512-512 512 229.23 512 512-229.23 512-512 512zM512 0c-247.424 0-448 200.576-448 448s200.576 448 448 448 448-200.576 448-448-200.576-448-448-448z" />
<glyph unicode="&#xe4bf;" glyph-name="joomla" d="M266.004 683.322c32.832 32.844 86.002 32.844 118.804 0.032l7.826-7.868 101.104 101.156-7.874 7.88c-57.624 57.7-138.514 77.878-212.42 60.522-10.594 65.182-67.088 114.924-135.174 114.956-75.65 0-136.954-61.442-136.97-137.158 0-65.336 45.59-120 106.662-133.83-23.138-77.45-4.242-164.834 56.846-225.984l227.826-227.9 100.996 101.214-227.81 227.886c-32.682 32.722-32.742 86.126 0.184 119.094zM1022.712 822.842c0.016 75.762-61.318 137.158-136.984 137.158-69.234 0-126.478-51.444-135.682-118.238-77.074 22.664-163.784 3.496-224.64-57.408l-227.84-227.9 101.102-101.172 227.766 227.856c32.94 32.966 85.988 32.906 118.684 0.184 32.8-32.83 32.8-86.114-0.032-118.956l-7.794-7.836 101.010-101.248 7.858 7.928c60.458 60.566 79.678 146.756 57.612 223.638 67.15 8.834 118.94 66.364 118.94 135.994zM906.266 208.936c18.102 74.458-1.976 156.324-60.108 214.5l-227.49 227.992-101.102-101.122 227.52-228.012c32.94-32.996 32.864-86.096 0.184-118.848-32.802-32.814-86.004-32.814-118.836 0.030l-7.766 7.79-100.994-101.246 7.732-7.728c61.516-61.594 149.618-80.438 227.368-56.488 12.632-62.682 67.934-109.804 134.258-109.804 75.604 0 136.968 61.35 136.968 137.126 0 69.2-51.18 126.456-117.734 135.81zM612.344 431.316l-227.536-227.992c-32.71-32.768-86.034-32.828-118.944 0.124-32.818 32.904-32.832 86.098-0.044 118.97l7.808 7.774-101.086 101.124-7.734-7.712c-58.76-58.802-78.56-141.834-59.45-216.982-60.398-14.26-105.358-68.634-105.358-133.496-0.016-75.746 61.332-137.126 136.982-137.126 65.1 0.032 119.588 45.418 133.54 106.382 74.702-18.552 156.998 1.304 215.344 59.756l227.49 227.96-101.012 101.218z" />
<glyph unicode="&#xe4e2;" glyph-name="file-pdf" d="M937.003 690.859c-1.067 2.645-2.645 4.949-4.608 6.869l-255.957 256c-1.963 1.92-4.309 3.499-6.912 4.565-2.56 1.109-5.333 1.707-8.192 1.707h-554.667c-11.776 0-21.333-9.557-21.333-21.333v-981.333c0-11.776 9.557-21.333 21.333-21.333h810.667c11.776 0 21.333 9.557 21.333 21.333v725.333c0 2.816-0.597 5.632-1.664 8.192zM682.667 887.168l183.168-183.168h-183.168v183.168zM128-21.333v938.667h512v-234.667c0-11.776 9.557-21.333 21.333-21.333h234.667v-682.667h-768zM533.333 405.333h-42.667c-11.776 0-21.333-9.557-21.333-21.333v-213.333c0-11.776 9.557-21.333 21.333-21.333h42.667c60.8 0 106.667 55.040 106.667 128s-45.867 128-106.667 128zM533.333 192h-21.333v170.667h21.333c37.077 0 64-35.883 64-85.333s-26.923-85.333-64-85.333zM810.667 405.333h-106.667c-11.776 0-21.333-9.557-21.333-21.333v-213.333c0-11.776 9.557-21.333 21.333-21.333s21.333 9.557 21.333 21.333v106.667h42.667c11.776 0 21.333 9.557 21.333 21.333s-9.557 21.333-21.333 21.333h-42.667v42.667h85.333c11.776 0 21.333 9.557 21.333 21.333s-9.557 21.333-21.333 21.333zM330.667 405.333h-53.333c-11.776 0-21.333-9.557-21.333-21.333v-213.291c0-11.776 9.557-21.333 21.333-21.333s21.333 9.557 21.333 21.333v85.291h32c41.173 0 74.667 33.493 74.667 74.667s-33.493 74.667-74.667 74.667zM330.667 298.667h-32v64h32c17.664 0 32-14.379 32-32s-14.336-32-32-32z" />
<glyph unicode="&#xe4e9;" glyph-name="file-css" d="M851.669 690.859c-1.067 2.645-2.645 4.907-4.608 6.912l-255.915 255.957c-1.963 1.92-4.309 3.499-6.912 4.565-2.603 1.109-5.419 1.707-8.235 1.707h-554.667c-11.776 0-21.333-9.557-21.333-21.333v-981.333c0-11.776 9.557-21.333 21.333-21.333h810.667c11.776 0 21.333 9.557 21.333 21.333v725.333c0 2.816-0.597 5.632-1.664 8.192zM597.333 887.168l183.168-183.168h-183.168v183.168zM42.667-21.333v938.667h512v-234.667c0-11.776 9.557-21.333 21.333-21.333h234.667v-682.667h-768zM365.909 550.613c11.776 0 21.333 9.557 21.333 21.333s-9.557 21.333-21.333 21.333c-30.208 0-51.883-7.381-66.347-22.571-22.144-23.339-20.352-57.515-18.645-90.581 3.029-58.027 1.621-94.464-62.123-110.379-0.981-0.256-1.749-0.896-2.645-1.28-1.408-0.555-2.816-1.109-4.053-1.963-1.024-0.683-1.835-1.579-2.731-2.432-1.024-1.024-2.133-2.048-2.944-3.328-0.811-1.152-1.195-2.432-1.749-3.755-0.427-0.939-1.067-1.749-1.323-2.773-0.085-0.341 0.043-0.64-0.043-0.939-0.299-1.365-0.171-2.731-0.213-4.224 0.043-1.408-0.085-2.816 0.213-4.224 0.085-0.341-0.043-0.64 0.043-0.939 0.128-0.469 0.555-0.64 0.683-1.024 1.28-4.096 3.456-7.765 6.827-10.411 0.085-0.085 0.171-0.213 0.256-0.299 2.261-1.749 4.864-3.029 7.808-3.797 63.744-15.915 65.152-52.352 62.123-110.379-1.707-33.067-3.499-67.243 18.645-90.581 14.464-15.189 36.139-22.571 66.347-22.571 11.776 0 21.333 9.557 21.333 21.333s-9.557 21.333-21.333 21.333c-17.621 0-29.483 3.115-35.371 9.301-9.515 10.027-8.277 33.792-6.955 59.008 2.133 41.088 4.992 98.859-45.909 133.291 50.901 34.389 48.043 92.203 45.909 133.291-1.323 25.216-2.56 48.939 6.955 59.008 5.76 6.101 17.621 9.216 35.243 9.216zM650.069 353.237c-0.085 0.341 0.043 0.64-0.043 0.939-0.256 0.939-0.896 1.707-1.237 2.645-0.597 1.408-1.067 2.816-1.963 4.096-0.725 1.024-1.579 1.835-2.475 2.688-1.067 1.109-2.091 2.176-3.371 3.029-1.067 0.683-2.219 1.067-3.371 1.579-1.067 0.469-1.963 1.195-3.115 1.493-63.701 15.915-65.109 52.352-62.080 110.379 1.707 33.067 3.499 67.285-18.645 90.581-14.421 15.189-36.139 22.571-66.304 22.571-11.776 0-21.333-9.557-21.333-21.333s9.557-21.333 21.333-21.333c17.579 0 29.483-3.115 35.328-9.301 9.515-9.984 8.277-33.792 6.955-59.008-2.133-41.088-4.992-98.901 45.867-133.291-50.859-34.432-48-92.203-45.867-133.291 1.323-25.216 2.56-48.981-6.955-59.008-5.845-6.187-17.749-9.301-35.328-9.301-11.776 0-21.333-9.557-21.333-21.333s9.557-21.333 21.333-21.333c30.165 0 51.883 7.381 66.304 22.571 22.144 23.296 20.352 57.515 18.645 90.581-3.029 58.027-1.621 94.464 62.080 110.379 2.901 0.768 5.547 2.048 7.808 3.797 0.085 0.085 0.171 0.213 0.256 0.299 3.371 2.645 5.547 6.315 6.827 10.411 0.128 0.427 0.555 0.597 0.683 1.024 0.085 0.341-0.043 0.64 0.043 0.939 0.299 1.365 0.171 2.773 0.213 4.224-0.085 1.579 0.043 2.944-0.256 4.309z" />
<glyph unicode="&#xe601;" glyph-name="arrow-left2" d="M585.574 741.581c-21.402-20.89-230.502-240.435-230.502-240.435-11.418-11.162-17.101-25.754-17.101-40.346s5.683-29.184 17.101-40.346c0 0 209.101-219.546 230.502-240.384 21.402-20.89 59.904-22.323 82.739 0 22.784 22.272 24.576 53.35-0.051 80.64l-191.846 200.090 191.846 200.090c24.627 27.341 22.835 58.419 0.051 80.691-22.886 22.272-61.389 20.89-82.739 0z" />
<glyph unicode="&#xe602;" glyph-name="arrow-down2" d="M792.73 534.374c-20.838-21.402-240.384-230.554-240.384-230.554-11.162-11.418-25.754-17.101-40.346-17.101-14.643 0-29.235 5.683-40.346 17.101 0 0-219.546 209.152-240.435 230.554-20.838 21.402-22.272 59.853 0 82.739 22.323 22.835 53.402 24.627 80.691 0l200.090-191.898 200.038 191.846c27.341 24.627 58.47 22.835 80.691 0 22.323-22.835 20.941-61.338 0-82.688z" />
<glyph unicode="&#xe603;" glyph-name="arrow-up2" d="M792.73 387.226c-20.838 21.402-240.384 230.502-240.384 230.502-11.162 11.418-25.754 17.152-40.346 17.152-14.643 0-29.235-5.734-40.346-17.152 0 0-219.546-209.101-240.435-230.502-20.838-21.402-22.272-59.904 0-82.739 22.323-22.784 53.402-24.627 80.691 0l200.090 191.846 200.038-191.846c27.341-24.627 58.47-22.784 80.691 0 22.323 22.886 20.941 61.389 0 82.739z" />
<glyph unicode="&#xe604;" glyph-name="arrow-right2" d="M438.426 741.581c21.402-20.89 230.502-240.435 230.502-240.435 11.469-11.162 17.152-25.754 17.152-40.346s-5.683-29.184-17.152-40.346c0 0-209.101-219.546-230.502-240.384-21.402-20.89-59.853-22.323-82.739 0-22.835 22.272-24.627 53.35 0 80.64l191.898 200.090-191.846 200.090c-24.627 27.341-22.835 58.419 0 80.691s61.338 20.89 82.688 0z" />
<glyph unicode="&#xe605;" glyph-name="arrow-left22" d="M634.829 285.798c13.722-13.875 13.722-36.301 0-50.125-13.722-13.875-35.891-13.875-49.613 0l-196.096 200.038c-13.722 13.875-13.722 36.301 0 50.125l196.096 200.090c13.722 13.875 35.891 13.875 49.613 0s13.722-36.25 0-50.125l-160.768-175.002 160.768-175.002z" />
<glyph unicode="&#xe606;" glyph-name="arrow-down22" d="M687.002 583.629c13.875 13.722 36.301 13.722 50.125 0 13.875-13.722 13.875-35.891 0-49.613l-200.038-196.096c-13.875-13.722-36.301-13.722-50.125 0l-200.090 196.096c-13.824 13.722-13.824 35.891 0 49.613 13.875 13.722 36.25 13.722 50.125 0l175.002-160.768 175.002 160.768z" />
<glyph unicode="&#xe607;" glyph-name="arrow-up22" d="M336.947 337.971c-13.875-13.722-36.25-13.722-50.125 0-13.824 13.722-13.875 35.891 0 49.664l200.090 195.994c13.875 13.722 36.301 13.722 50.125 0l200.090-196.045c13.875-13.773 13.875-35.942 0-49.664s-36.25-13.722-50.125 0l-175.053 160.819-175.002-160.768z" />
<glyph unicode="&#xe608;" glyph-name="arrow-right22" d="M389.171 285.798c-13.722-13.875-13.722-36.301 0-50.125 13.67-13.875 35.891-13.875 49.613 0l196.096 200.038c13.722 13.875 13.722 36.301 0 50.125l-196.096 200.090c-13.722 13.875-35.891 13.875-49.613 0s-13.722-36.25-0.051-50.074l160.819-175.053-160.768-175.002z" />
<glyph unicode="&#xe609;" glyph-name="arrow-left3" d="M737.229 80.998c13.722-13.875 13.722-36.25 0-50.125s-35.891-13.875-49.613 0l-400.896 404.838c-13.722 13.875-13.722 36.301 0 50.125l400.896 404.89c13.722 13.875 35.891 13.875 49.613 0s13.722-36.25 0-50.125l-365.568-379.802 365.568-379.802z" />
<glyph unicode="&#xe60a;" glyph-name="arrow-down3" d="M132.198 686.029c-13.875 13.722-36.301 13.722-50.125 0-13.824-13.67-13.824-35.891 0-49.613l404.89-400.896c13.875-13.722 36.25-13.722 50.125 0l404.89 400.896c13.824 13.722 13.875 35.891 0 49.613s-36.352 13.722-50.125 0.051l-379.853-365.619-379.802 365.568z" />
<glyph unicode="&#xe60b;" glyph-name="arrow-up3" d="M891.802 235.571c13.875-13.722 36.301-13.722 50.125 0 13.875 13.722 13.875 35.891 0 49.613l-404.89 400.896c-13.824 13.722-36.25 13.722-50.074 0l-404.89-400.896c-13.824-13.722-13.875-35.891 0-49.613s36.25-13.722 50.125 0l379.802 365.619 379.802-365.619z" />
<glyph unicode="&#xe60c;" glyph-name="uniE60C" d="M286.704 80.998c-13.722-13.875-13.722-36.25 0-50.125s35.891-13.875 49.613 0l400.896 404.838c13.722 13.875 13.722 36.301 0 50.125l-400.896 404.89c-13.722 13.875-35.891 13.875-49.613 0s-13.722-36.25 0-50.125l365.568-379.802-365.568-379.802z" />
<glyph unicode="&#xe60d;" glyph-name="twitter" d="M787.029 667.477c-2.091-0.213-45.483-4.992-73.899-9.6-24.32 21.675-56.107 33.877-88.96 33.877-73.728 0-133.675-59.947-133.675-133.632 0-0.64 0-1.28 0-1.92-74.283 10.112-142.763 48.299-190.677 107.136-4.437 5.376-11.307 8.32-18.176 7.808-6.997-0.555-13.312-4.523-16.811-10.581-11.819-20.395-18.091-43.648-18.091-67.2 0-21.077 4.907-41.429 14.037-59.691-1.536-0.555-3.029-1.237-4.437-2.091-6.485-3.84-10.496-11.563-10.496-19.115 0-38.656 16.768-74.197 43.861-98.901-4.352-5.547-5.632-12.843-3.499-19.584 11.563-36.096 37.504-64.64 70.315-80.128-33.408-15.189-70.997-21.077-108.928-16.683-10.368 1.365-19.243-4.651-22.528-13.995-3.328-9.344 0.213-19.797 8.576-25.131 54.955-35.243 118.443-53.888 183.68-53.888 213.333 0 340.821 173.312 340.821 340.864 0 1.749 0 3.499-0.043 5.248 13.824 14.336 24.107 35.541 34.176 56.149 5.163 10.667 9.984 20.736 14.805 27.989 4.565 6.912 4.779 15.787 0.512 22.869s-12.288 11.051-20.565 10.197zM724.011 576.896c-5.888-4.267-9.173-11.179-8.789-18.389 0.213-4.437 0.299-8.917 0.299-13.397 0-146.603-111.531-298.197-298.155-298.197-29.739 0-59.093 4.437-87.168 13.056 34.133 8.149 66.133 23.595 94.421 45.781 7.083 5.547 9.899 14.976 7.083 23.552-2.859 8.576-10.837 14.336-19.84 14.549-27.605 0.555-52.821 13.44-69.419 34.176 6.955 0.768 13.781 2.048 20.48 3.925 9.557 2.603 16 11.477 15.659 21.333-0.384 9.856-7.467 18.219-17.152 20.139-31.403 6.229-56.405 28.587-67.2 58.027 7.637-1.579 15.317-2.56 23.125-2.773 8.32-1.024 18.091 5.675 20.992 14.763 2.901 9.045-0.512 18.987-8.405 24.277-25.387 16.896-40.533 45.184-40.533 75.648 0 5.461 0.512 11.008 1.493 16.384 59.349-58.923 138.795-94.379 222.805-98.517 6.827-0.299 13.184 2.517 17.408 7.637 4.309 5.12 5.931 12.032 4.395 18.56-1.536 6.656-2.347 13.568-2.347 20.693 0 50.176 40.832 90.965 91.008 90.965 25.429 0 48.981-10.197 66.389-28.757 5.035-5.376 12.501-7.808 19.755-6.357 10.24 2.048 26.197 4.309 41.259 6.272-8.448-17.28-18.475-36.779-27.563-43.349zM512 960c-282.325 0-512-229.675-512-512s229.675-512 512-512 512 229.675 512 512-229.675 512-512 512zM512-21.333c-258.773 0-469.333 210.517-469.333 469.333 0 258.773 210.56 469.333 469.333 469.333s469.333-210.56 469.333-469.333c0-258.816-210.56-469.333-469.333-469.333z" />
<glyph unicode="&#xe60e;" glyph-name="facebook" d="M512 960c-282.325 0-512-229.675-512-512s229.675-512 512-512 512 229.675 512 512-229.675 512-512 512zM512-21.333c-258.773 0-469.333 210.517-469.333 469.333 0 258.773 210.56 469.333 469.333 469.333s469.333-210.56 469.333-469.333c0-258.816-210.56-469.333-469.333-469.333zM675.797 576h-78.464v22.272c0 3.712 0.725 5.419 3.925 6.272h60.075c11.776 0 21.333 9.557 21.333 21.333v98.432c0 11.776-9.515 21.291-21.291 21.333l-100.352 0.299c-85.419-0.043-134.357-51.669-134.357-141.611v-28.331h-64c-11.776 0-21.333-9.557-21.333-21.333v-85.333c0-11.776 9.557-21.333 21.333-21.333h64v-277.333c0-11.776 9.557-21.333 21.333-21.333h128c11.776 0 21.333 9.557 21.333 21.333v277.333h68.053c10.795 0 19.883 8.021 21.163 18.731l10.411 85.333c0.768 6.059-1.109 12.117-5.205 16.725-4.053 4.565-9.856 7.211-15.957 7.211zM646.485 490.667h-70.485c-11.776 0-21.333-9.557-21.333-21.333v-277.333h-85.333v277.333c0 11.776-9.557 21.333-21.333 21.333h-64v42.667h64c11.776 0 21.333 9.557 21.333 21.333v49.664c0 98.944 69.035 98.944 91.648 98.944l79.019-0.256v-55.765h-38.741c-22.443 0-46.592-15.317-46.592-48.981v-43.605c0-11.776 9.557-21.333 21.333-21.333h75.691l-5.205-42.667z" />
<glyph unicode="&#xe60f;" glyph-name="googleplus" d="M512 960c-282.325 0-512-229.675-512-512s229.675-512 512-512 512 229.675 512 512-229.675 512-512 512zM512-21.333c-258.773 0-469.333 210.517-469.333 469.333 0 258.773 210.56 469.333 469.333 469.333s469.333-210.56 469.333-469.333c0-258.816-210.56-469.333-469.333-469.333zM574.848 447.957h-190.848v-42.667h165.333c-19.029-74.411-86.357-127.957-165.333-127.957-94.123 0-170.667 76.544-170.667 170.667s76.544 170.667 170.667 170.667c48.469 0 94.848-20.736 127.147-56.875l31.829 28.416c-40.448 45.227-98.389 71.125-158.976 71.125-117.632 0-213.333-95.701-213.333-213.333s95.701-213.333 213.333-213.333c108.928 0 200.064 81.493 212.053 189.611 0.683 6.059-1.237 12.032-5.333 16.597-4.053 4.48-9.813 7.083-15.872 7.083zM810.667 448v85.333h-42.667v-85.333h-85.333v-42.667h85.333v-85.333h42.667v85.333h85.333v42.667z" />
</font>
</defs>
</svg>
