<svg xmlns="http://www.w3.org/2000/svg" width="14.31" height="14.96" viewBox="0 0 14.31 14.96"><defs><style>.cls-1{fill:#1b1464;}.cls-2{fill:#3ec1d3;}</style></defs><title>Asset 9</title><g id="Layer_2" data-name="Layer 2"><g id="Layer_1-2" data-name="Layer 1"><path class="cls-1" d="M2.7,8.16a6.6,6.6,0,0,1,6-6.8A5.72,5.72,0,0,1,12,2,5.17,5.17,0,0,0,9.76.44,6.66,6.66,0,0,0,7,0,7.43,7.43,0,0,0,4.36.71,7.64,7.64,0,0,0,2.7,8.16Z"/><path class="cls-1" d="M2.43,6.59a7.47,7.47,0,0,0,8,6.92,7.32,7.32,0,0,0,2-.43A7.47,7.47,0,1,1,4.93.46,7.46,7.46,0,0,0,2.43,6.59Z"/><path class="cls-2" d="M8,7.72a3.85,3.85,0,0,1,3.49-4,3.34,3.34,0,0,1,1.91.37,3,3,0,0,0-1.28-.91A3.9,3.9,0,0,0,10.5,3,4.37,4.37,0,0,0,9,3.37,4.44,4.44,0,0,0,7.79,6.69,4.5,4.5,0,0,0,8,7.72Z"/><path class="cls-2" d="M7.82,6.8a4.36,4.36,0,0,0,4.65,4,4.46,4.46,0,0,0,1.17-.25A4.36,4.36,0,1,1,9.28,3.22,4.35,4.35,0,0,0,7.82,6.8Z"/><circle class="cls-1" cx="12.42" cy="7.37" r="1.89"/></g></g></svg>