<svg xmlns="http://www.w3.org/2000/svg" width="19.82" height="20.75" viewBox="0 0 19.82 20.75"><defs><style>.cls-1{fill:#1b1464;}.cls-2{fill:#3ec1d3;}</style></defs><title>Asset 7</title><g id="Layer_2" data-name="Layer 2"><g id="Layer_1-2" data-name="Layer 1"><path class="cls-1" d="M17.42,4.39A9,9,0,1,1,.09,9.54a9.91,9.91,0,1,0,19.73,1.3A9.86,9.86,0,0,0,17.42,4.39Z"/><path class="cls-2" d="M10.09,0A6,6,0,0,1,2.63,9.42,6.63,6.63,0,1,0,10.09,0Z"/><path class="cls-1" d="M5.2,2.18a2.63,2.63,0,0,1-1.6,4.95A3.73,3.73,0,0,0,4,7.4a3.7,3.7,0,1,0-1.71-5c0,.05,0,.11-.06.16A2.63,2.63,0,0,1,5.2,2.18Z"/></g></g></svg>