<svg xmlns="http://www.w3.org/2000/svg" width="16.19" height="14.78" viewBox="0 0 16.19 14.78"><defs><style>.cls-1{fill:#8080ff;}.cls-2{fill:#3631ff;}</style></defs><title>Asset 10</title><g id="Layer_2" data-name="Layer 2"><g id="Layer_1-2" data-name="Layer 1"><path class="cls-1" d="M15.57,10.2,10.74,1.89C9.64,0,8-.46,6.68.48a2,2,0,0,1,2.67.94,71.48,71.48,0,0,1,3.43,8.81c.83,2.59.4,4.3-2.13,4.53h2.27C15.84,14.76,17,12.71,15.57,10.2Z"/><path class="cls-2" d="M5.45,1.88.62,10.2c-1.09,1.88-.69,3.51.81,4.2a2,2,0,0,1-.52-2.77,72,72,0,0,1,6-7.36c1.84-2,3.55-2.5,5-.43l-1.14-2C9.28-.63,6.9-.63,5.45,1.88Z"/><path class="cls-2" d="M3.26,14.77h9.66c2.18,0,3.4-1.15,3.26-2.79A2,2,0,0,1,14,13.82a72.24,72.24,0,0,1-9.38-1.46C2,11.78.7,10.55,1.76,8.26l-1.14,2C-.83,12.72.35,14.77,3.26,14.77Z"/></g></g></svg>