<svg xmlns="http://www.w3.org/2000/svg" width="21.04" height="20.27" viewBox="0 0 21.04 20.27"><defs><style>.cls-1{fill:#1b1464;}.cls-2{fill:#3ec1d3;}</style></defs><title>Asset 8</title><g id="Layer_2" data-name="Layer 2"><g id="Layer_1-2" data-name="Layer 1"><path class="cls-1" d="M9.78,3.73A4.79,4.79,0,1,0,13.6,9.32,4.79,4.79,0,0,0,9.78,3.73Zm1.76,5.2A2.66,2.66,0,1,1,8.7,5.8a4.86,4.86,0,0,1,.6,0h.08A2.69,2.69,0,0,1,11.54,8.93Z"/><path class="cls-2" d="M2.11,7a6.68,6.68,0,0,1,9.53-4.75A6.67,6.67,0,1,0,3.71,12.66,6.67,6.67,0,0,1,2.11,7Z"/><path class="cls-1" d="M14.73,18a3.19,3.19,0,1,0-2.91-3.44A3.19,3.19,0,0,0,14.73,18Zm-1.52-3.33a1.78,1.78,0,1,1,2.09,1.89l-.4,0h-.06A1.79,1.79,0,0,1,13.21,14.65Z"/><path class="cls-2" d="M19.6,15.32a4.45,4.45,0,0,1-4.8,4.06,4.37,4.37,0,0,1-1.19-.27,4.45,4.45,0,1,0,4.55-7.46A4.44,4.44,0,0,1,19.6,15.32Z"/></g></g></svg>