<svg xmlns="http://www.w3.org/2000/svg" width="19.06" height="16.84" viewBox="0 0 19.06 16.84"><defs><style>.cls-1{fill:#3631ff;}.cls-2{fill:#8080ff;}</style></defs><title>Asset 12</title><g id="Layer_2" data-name="Layer 2"><g id="Layer_1-2" data-name="Layer 1"><path class="cls-1" d="M18.29,11.54,12.64,2.19a6.15,6.15,0,0,0-.45-.65,5.52,5.52,0,0,0-.46.65L6.09,11.54c-1.7,2.81-.31,5.12,3.09,5.12h6C18.6,16.65,20,14.35,18.29,11.54Z"/><path class="cls-2" d="M3.45,11.54,9.1,2.19A4.66,4.66,0,0,1,10.87.42C9.36-.36,7.65.23,6.46,2.19L.82,11.54c-1.7,2.81-.31,5.12,3.09,5.12H6.54C3.15,16.65,1.75,14.35,3.45,11.54Z"/><path class="cls-1" d="M18.31,11.54l-3.07-5L13.69,4.07l-.78-1.24a14.31,14.31,0,0,0-.82-1.2h.24C11.58,2.74,10.93,4,10.22,5.19L8.1,8.76,7,10.55c-.35.61-.74,1.17-1,1.78a3.43,3.43,0,0,0-.33,1.86,2.21,2.21,0,0,0,1,1.55,4,4,0,0,0,1.82.67c.66.08,1.36.07,2.05.09l4.16.08a7.48,7.48,0,0,0,2-.14,3.2,3.2,0,0,0,1.74-1A2.6,2.6,0,0,0,19,13.48,4.92,4.92,0,0,0,18.31,11.54Zm0,0A4.93,4.93,0,0,1,19,13.47a2.64,2.64,0,0,1-.53,2,3.32,3.32,0,0,1-1.76,1.07,7.61,7.61,0,0,1-2.07.23l-4.16.08c-.69,0-1.38.05-2.1,0a4.32,4.32,0,0,1-2.06-.68,2.72,2.72,0,0,1-1.19-1.87,4,4,0,0,1,.35-2.18,18.33,18.33,0,0,1,1-1.83L7.65,8.49,9.83,4.95c.76-1.17,1.42-2.36,2.27-3.51l.12-.17.12.17c.27.4.55.82.78,1.25L13.85,4,15.32,6.5Z"/><path class="cls-2" d="M3.45,11.54,6.9,5.76,8.62,2.87a12,12,0,0,1,.92-1.41,4.27,4.27,0,0,1,.59-.61,4.27,4.27,0,0,1,.7-.5V.49A2.88,2.88,0,0,0,9.27.2,2.93,2.93,0,0,0,7.81.82a3,3,0,0,0-.59.55,4,4,0,0,0-.5.64c-.31.45-.57.94-.86,1.41C4.72,5.33,3.59,7.23,2.42,9.12l-.87,1.42C1.27,11,1,11.46.71,12a4.38,4.38,0,0,0-.5,1.53A2.61,2.61,0,0,0,.49,15a3.44,3.44,0,0,0,2.74,1.51c1.09.08,2.21,0,3.32.06v.09a5.82,5.82,0,0,1-1.91-.32,3.07,3.07,0,0,1-.86-.46,2.13,2.13,0,0,1-.37-.32,2.42,2.42,0,0,1-.3-.38,2.49,2.49,0,0,1-.34-.91,2.93,2.93,0,0,1,0-1A3.9,3.9,0,0,1,3,12.4,6.68,6.68,0,0,1,3.45,11.54Zm0,0a6.75,6.75,0,0,0-.42.87,3.9,3.9,0,0,0-.25.93,2.93,2.93,0,0,0,0,1,2.44,2.44,0,0,0,.35.89,2.36,2.36,0,0,0,.3.37,2.07,2.07,0,0,0,.36.31,3,3,0,0,0,.85.44,5.72,5.72,0,0,0,1.89.3v.09c-1.11,0-2.21,0-3.33,0a4.84,4.84,0,0,1-1.62-.43A2.66,2.66,0,0,1,0,13.47a4.58,4.58,0,0,1,.51-1.61c.25-.49.56-1,.84-1.44L2.21,9C3.33,7.08,4.49,5.19,5.65,3.3c.3-.47.56-1,.89-1.41a4.22,4.22,0,0,1,.52-.66A3.22,3.22,0,0,1,7.69.66,3.11,3.11,0,0,1,9.25,0a3,3,0,0,1,1.66.32L11,.4l-.13.08a4.12,4.12,0,0,0-.68.47,4.13,4.13,0,0,0-.58.58c-.18.2-.33.45-.49.68l-.44.71L7,5.8Z"/></g></g></svg>