<svg xmlns="http://www.w3.org/2000/svg" xmlns:xlink="http://www.w3.org/1999/xlink" width="14.31" height="14.96" viewBox="0 0 14.31 14.96"><defs><style>.cls-1{fill:url(#radial-gradient);}.cls-2{fill:url(#radial-gradient-2);}.cls-3{fill:url(#radial-gradient-3);}.cls-4{fill:url(#radial-gradient-4);}.cls-5{fill:url(#radial-gradient-5);}</style><radialGradient id="radial-gradient" cx="726.53" cy="-109.38" r="11.85" gradientTransform="matrix(-1, 0.07, -0.07, -1, 727.3, -160.28)" gradientUnits="userSpaceOnUse"><stop offset="0.26" stop-color="#29abe2"/><stop offset="0.43" stop-color="#2077c0"/><stop offset="0.66" stop-color="#153192"/><stop offset="0.88" stop-color="#1b1464"/></radialGradient><radialGradient id="radial-gradient-2" cx="734.29" cy="-106.28" r="23.79" xlink:href="#radial-gradient"/><radialGradient id="radial-gradient-3" cx="724.64" cy="-112.3" r="6.91" xlink:href="#radial-gradient"/><radialGradient id="radial-gradient-4" cx="729.16" cy="-110.5" r="13.88" xlink:href="#radial-gradient"/><radialGradient id="radial-gradient-5" cx="12.42" cy="7.43" r="1.89" gradientUnits="userSpaceOnUse"><stop offset="0.02" stop-color="#0071bc"/><stop offset="0.19" stop-color="#0368b3"/><stop offset="0.48" stop-color="#0a4f9c"/><stop offset="0.85" stop-color="#162776"/><stop offset="1" stop-color="#1b1464"/></radialGradient></defs><title>Asset 6</title><g id="Layer_2" data-name="Layer 2"><g id="Layer_1-2" data-name="Layer 1"><path class="cls-1" d="M2.7,8.16a6.6,6.6,0,0,1,6-6.8A5.72,5.72,0,0,1,12,2,5.17,5.17,0,0,0,9.76.44,6.66,6.66,0,0,0,7,0,7.43,7.43,0,0,0,4.36.71,7.64,7.64,0,0,0,2.7,8.16Z"/><path class="cls-2" d="M2.43,6.59a7.47,7.47,0,0,0,8,6.92,7.32,7.32,0,0,0,2-.43A7.47,7.47,0,1,1,4.93.46,7.46,7.46,0,0,0,2.43,6.59Z"/><path class="cls-3" d="M8,7.72a3.85,3.85,0,0,1,3.49-4,3.34,3.34,0,0,1,1.91.37,3,3,0,0,0-1.28-.91A3.9,3.9,0,0,0,10.5,3,4.37,4.37,0,0,0,9,3.37,4.44,4.44,0,0,0,7.79,6.69,4.5,4.5,0,0,0,8,7.72Z"/><path class="cls-4" d="M7.82,6.8a4.36,4.36,0,0,0,4.65,4,4.46,4.46,0,0,0,1.17-.25A4.36,4.36,0,1,1,9.28,3.22,4.35,4.35,0,0,0,7.82,6.8Z"/><circle class="cls-5" cx="12.42" cy="7.37" r="1.89"/></g></g></svg>