<svg xmlns="http://www.w3.org/2000/svg" width="18" height="14.35" viewBox="0 0 17.29 14.35"><defs><style>.cls-1{fill:#8080ff;}.cls-2{fill:#3631ff;}</style></defs><title>Asset 11</title><g id="Layer_2" data-name="Layer 2"><g id="Layer_1-2" data-name="Layer 1"><path class="cls-1" d="M10.33.57,1.89,4.93C0,5.92-.47,7.35.51,8.52a1.67,1.67,0,0,1,.92-2.37,80.88,80.88,0,0,1,9-3.13c2.64-.77,4.4-.41,4.67,1.82l0-2C15,.28,12.87-.74,10.33.57Z"/><path class="cls-1" d="M2,9.59l8.58,4.14c1.94.94,3.6.56,4.28-.76a2.25,2.25,0,0,1-2.83.49A72.76,72.76,0,0,1,4.39,8.31C2.3,6.72,1.78,5.22,3.87,3.9l-2,1C-.66,6.25-.62,8.34,2,9.59Z"/><path class="cls-1" d="M15.18,11.35c0-2.13-.1-6.38-.13-8.5A2.57,2.57,0,0,0,12.15,0c1.3.16,1.94,1,1.9,1.87a55.37,55.37,0,0,1-1.36,8.28c-.55,2.36-1.8,3.49-4.16,2.58l2,1C13.14,15,15.22,13.91,15.18,11.35Z"/><path class="cls-2" d="M6.75.62l8.58,4.15c1.94.94,2.44,2.35,1.5,3.56a1.69,1.69,0,0,0-1-2.34A80.93,80.93,0,0,0,6.76,3.07C4.1,2.37,2.35,2.78,2.15,5l0-2C2.08.44,4.16-.63,6.75.62Z"/><path class="cls-2" d="M15.41,9.42,7,13.77c-1.91,1-3.58.65-4.31-.66a2.26,2.26,0,0,0,2.84.42A72,72,0,0,0,12.94,8.2c2-1.64,2.5-3.15.37-4.42l2,1C17.92,6,18,8.11,15.41,9.42Z"/><path class="cls-2" d="M2.25,11.51c0-2.13-.11-6.38-.15-8.5A2.55,2.55,0,0,1,4.91.11C3.61.3,3,1.12,3.07,2A55.59,55.59,0,0,0,4.7,10.27c.61,2.27,1.83,3.42,4,2.6h0L7,13.78C4.41,15.09,2.29,14.07,2.25,11.51Z"/></g></g></svg>