<svg xmlns="http://www.w3.org/2000/svg" xmlns:xlink="http://www.w3.org/1999/xlink" width="12.33" height="10.7" viewBox="0 0 12.33 10.7"><defs><style>.cls-1{isolation:isolate;}.cls-2,.cls-4{fill:#6d6e71;}.cls-2,.cls-3{mix-blend-mode:multiply;}.cls-3,.cls-5{stroke:#f89938;stroke-miterlimit:10;}.cls-3{stroke-width:0.7px;fill:url(#linear-gradient);}.cls-5{fill:#f89938;}</style><linearGradient id="linear-gradient" x1="0.35" y1="5.35" x2="10.34" y2="5.35" gradientUnits="userSpaceOnUse"><stop offset="0" stop-color="#0071bc"/><stop offset="0.22" stop-color="#075aa6"/><stop offset="0.74" stop-color="#152776"/><stop offset="1" stop-color="#1b1464"/></linearGradient></defs><title>Asset 2</title><g class="cls-1"><g id="Layer_2" data-name="Layer 2"><g id="Layer_1-2" data-name="Layer 1"><path class="cls-2" d="M5.48,8.21H5.35A2.87,2.87,0,1,1,7.51,3.47a3.54,3.54,0,0,1,1.27-.24l.3,0A4.29,4.29,0,1,0,6.41,9.5,3.56,3.56,0,0,1,5.48,8.21Z"/><path class="cls-3" d="M5.35,10A4.64,4.64,0,0,1,2.06,2.07a4.65,4.65,0,0,1,6.56,0,4.57,4.57,0,0,1,.88,1.24,3.47,3.47,0,0,1,.45.13A5,5,0,0,0,1.81,1.81,5,5,0,0,0,7.15,10a3.49,3.49,0,0,1-.4-.24A4.65,4.65,0,0,1,5.35,10Z"/><path class="cls-4" d="M9.66,6.34a.92.92,0,0,0-.16-.14l-.15-.09A.92.92,0,0,0,9,6a1,1,0,0,0-.26,0,.9.9,0,0,0-.09,1.68l.17.05.18,0H9a.89.89,0,0,0,.64-1.5Z"/><path class="cls-5" d="M10.47,4.54a2.85,2.85,0,0,0-.42-.21,2.69,2.69,0,0,0-.39-.12A2.83,2.83,0,0,0,9,4.12a2.79,2.79,0,0,0-.85.13,2.83,2.83,0,0,0-.68,5.07,2.87,2.87,0,0,0,.81.36,2.82,2.82,0,0,0,2.2-5.14ZM9,9.57a2.61,2.61,0,0,1-.5,0,2.66,2.66,0,0,1-.82-.31A2.62,2.62,0,0,1,9,4.33a2.6,2.6,0,0,1,.72.1,2.48,2.48,0,0,1,.39.15,2.89,2.89,0,0,1,.4.23A2.62,2.62,0,0,1,9,9.57Z"/></g></g></g></svg>