<svg xmlns="http://www.w3.org/2000/svg" width="16.61" height="11.1" viewBox="0 0 16.61 11.1"><defs><style>.cls-1{fill:#ffde17;}.cls-2{fill:#f7941e;}</style></defs><title>Asset 8</title><g id="Layer_2" data-name="Layer 2"><g id="Layer_1-2" data-name="Layer 1"><path class="cls-1" d="M11.12,0A5.52,5.52,0,0,0,5.64,5.55a5.49,5.49,0,1,0,11,0A5.52,5.52,0,0,0,11.12,0Zm0,9.36a3.81,3.81,0,1,1,3.76-3.81A3.78,3.78,0,0,1,11.12,9.36Z"/><path class="cls-2" d="M11.12,9.65a4.1,4.1,0,1,0-4-4.09A4.07,4.07,0,0,0,11.12,9.65Zm0-6A1.91,1.91,0,1,1,9.24,5.55,1.9,1.9,0,0,1,11.12,3.64Z"/><path class="cls-1" d="M11.12,2.9a2.66,2.66,0,1,0,2.63,2.65A2.64,2.64,0,0,0,11.12,2.9Zm0,4.28a1.62,1.62,0,1,1,1.6-1.62A1.61,1.61,0,0,1,11.12,7.17Z"/><path class="cls-1" d="M3.52,2a3.57,3.57,0,0,0,0,7.13A3.57,3.57,0,0,0,3.52,2Zm0,6A2.44,2.44,0,1,1,5.94,5.57,2.43,2.43,0,0,1,3.52,8Z"/><path class="cls-2" d="M3.52,8.2A2.63,2.63,0,1,0,.92,5.57,2.62,2.62,0,0,0,3.52,8.2Zm0-3.86A1.23,1.23,0,1,1,2.31,5.57,1.22,1.22,0,0,1,3.52,4.35Z"/></g></g></svg>