<svg xmlns="http://www.w3.org/2000/svg" xmlns:xlink="http://www.w3.org/1999/xlink" width="11.28" height="10" viewBox="0 0 11.28 10"><defs><style>.cls-1{isolation:isolate;}.cls-2,.cls-3{mix-blend-mode:multiply;}.cls-2{fill:url(#Orange_Yellow);}.cls-3{fill:url(#Orange_Yellow-2);}.cls-4{fill:url(#Orange_Yellow-3);}.cls-5{fill:url(#Orange_Yellow-4);}</style><linearGradient id="Orange_Yellow" x1="0.7" y1="5" x2="8.73" y2="5" gradientUnits="userSpaceOnUse"><stop offset="0" stop-color="#fff33b"/><stop offset="0.04" stop-color="#fee72e"/><stop offset="0.12" stop-color="#fed51b"/><stop offset="0.2" stop-color="#fdca10"/><stop offset="0.28" stop-color="#fdc70c"/><stop offset="0.67" stop-color="#f3903f"/><stop offset="0.89" stop-color="#ed683c"/><stop offset="1" stop-color="#e93e3a"/></linearGradient><linearGradient id="Orange_Yellow-2" x1="0" y1="5" x2="9.61" y2="5" xlink:href="#Orange_Yellow"/><linearGradient id="Orange_Yellow-3" x1="7.56" y1="6.49" x2="9.36" y2="6.49" xlink:href="#Orange_Yellow"/><linearGradient id="Orange_Yellow-4" x1="5.63" y1="6.49" x2="11.28" y2="6.49" xlink:href="#Orange_Yellow"/></defs><title>Asset 2</title><g class="cls-1"><g id="Layer_2" data-name="Layer 2"><g id="Layer_1-2" data-name="Layer 1"><path class="cls-2" d="M5.13,7.86H5A2.87,2.87,0,1,1,7.16,3.12a3.54,3.54,0,0,1,1.27-.24l.3,0A4.29,4.29,0,1,0,6.06,9.15,3.56,3.56,0,0,1,5.13,7.86Z"/><path class="cls-3" d="M5,9.64A4.64,4.64,0,0,1,1.71,1.72a4.65,4.65,0,0,1,6.56,0A4.57,4.57,0,0,1,9.16,3a3.47,3.47,0,0,1,.45.13A5,5,0,0,0,1.46,1.46,5,5,0,0,0,6.8,9.66a3.49,3.49,0,0,1-.4-.24A4.65,4.65,0,0,1,5,9.64Z"/><path class="cls-4" d="M9.12,5.88A.92.92,0,0,0,9,5.74l-.15-.09a.92.92,0,0,0-.35-.07,1,1,0,0,0-.26,0A.9.9,0,0,0,8.1,7.32l.17.05.18,0h0a.89.89,0,0,0,.64-1.5Z"/><path class="cls-5" d="M9.93,4.08a2.85,2.85,0,0,0-.42-.21,2.69,2.69,0,0,0-.39-.12,2.83,2.83,0,0,0-.66-.08,2.79,2.79,0,0,0-.85.13,2.83,2.83,0,0,0-.68,5.07,2.87,2.87,0,0,0,.81.36,2.82,2.82,0,0,0,2.2-5.14Zm-1.47,5a2.61,2.61,0,0,1-.5,0,2.66,2.66,0,0,1-.82-.31A2.62,2.62,0,0,1,8.46,3.87a2.6,2.6,0,0,1,.72.1,2.48,2.48,0,0,1,.39.15,2.89,2.89,0,0,1,.4.23A2.62,2.62,0,0,1,8.46,9.11Z"/></g></g></g></svg>