<svg xmlns="http://www.w3.org/2000/svg" width="12.46" height="10.75" viewBox="0 0 12.46 10.75"><defs><style>.cls-1{isolation:isolate;}.cls-2,.cls-4{fill:#3ec1d3;}.cls-2,.cls-3{mix-blend-mode:multiply;}.cls-3,.cls-5{fill:#ff9a00;stroke:#ff9a00;stroke-miterlimit:10;}.cls-3{stroke-width:0.75px;}</style></defs><title>Asset 4</title><g class="cls-1"><g id="Layer_2" data-name="Layer 2"><g id="Layer_1-2" data-name="Layer 1"><path class="cls-2" d="M5.5,8.23H5.37A2.87,2.87,0,1,1,7.53,3.5,3.54,3.54,0,0,1,8.8,3.26l.3,0A4.29,4.29,0,1,0,6.44,9.53,3.56,3.56,0,0,1,5.5,8.23Z"/><path class="cls-3" d="M5.37,10A4.64,4.64,0,0,1,2.09,2.09a4.65,4.65,0,0,1,6.56,0,4.57,4.57,0,0,1,.88,1.24,3.47,3.47,0,0,1,.45.13A5,5,0,0,0,1.84,1.84,5,5,0,0,0,7.18,10a3.49,3.49,0,0,1-.4-.24A4.65,4.65,0,0,1,5.37,10Z"/><path class="cls-4" d="M9.79,6.41a.92.92,0,0,0-.16-.14l-.15-.09a.92.92,0,0,0-.35-.07,1,1,0,0,0-.26,0,.9.9,0,0,0-.09,1.68l.17.05.18,0h0a.89.89,0,0,0,.64-1.5Z"/><path class="cls-5" d="M10.6,4.6a2.85,2.85,0,0,0-.42-.21,2.69,2.69,0,0,0-.39-.12,2.83,2.83,0,0,0-.66-.08,2.79,2.79,0,0,0-.85.13A2.83,2.83,0,0,0,7.6,9.38a2.87,2.87,0,0,0,.81.36A2.82,2.82,0,0,0,10.6,4.6Zm-1.47,5a2.61,2.61,0,0,1-.5,0,2.66,2.66,0,0,1-.82-.31A2.62,2.62,0,0,1,9.13,4.39a2.6,2.6,0,0,1,.72.1,2.48,2.48,0,0,1,.39.15,2.89,2.89,0,0,1,.4.23A2.62,2.62,0,0,1,9.13,9.63Z"/></g></g></g></svg>