<svg xmlns="http://www.w3.org/2000/svg" width="15.92" height="10.81" viewBox="0 0 15.92 10.81"><defs><style>.cls-1{fill:#ffdebd;}.cls-2{fill:#ff9a00;}</style></defs><title>Asset 11</title><g id="Layer_2" data-name="Layer 2"><g id="Layer_1-2" data-name="Layer 1"><path class="cls-1" d="M10.5,2A3.44,3.44,0,1,1,7.06,5.41,3.44,3.44,0,0,1,10.5,2m0-1a4.44,4.44,0,1,0,4.44,4.44A4.44,4.44,0,0,0,10.5,1Z"/><path class="cls-2" d="M10.54,3A2.48,2.48,0,1,1,8.06,5.44,2.48,2.48,0,0,1,10.54,3m0-1A3.48,3.48,0,1,0,14,5.44,3.48,3.48,0,0,0,10.54,2Z"/><path class="cls-2" d="M10.51,1A4.41,4.41,0,1,1,6.1,5.41,4.41,4.41,0,0,1,10.51,1m0-1a5.41,5.41,0,1,0,5.41,5.41A5.41,5.41,0,0,0,10.51,0Z"/><path class="cls-2" d="M3.06,3.38A2.06,2.06,0,1,1,1,5.44,2.06,2.06,0,0,1,3.06,3.38m0-1A3.06,3.06,0,1,0,6.12,5.44,3.06,3.06,0,0,0,3.06,2.38Z"/><path class="cls-1" d="M3.07,4.37A1.08,1.08,0,1,1,2,5.45,1.08,1.08,0,0,1,3.07,4.37m0-1A2.08,2.08,0,1,0,5.15,5.45,2.08,2.08,0,0,0,3.07,3.37Z"/></g></g></svg>