<svg xmlns="http://www.w3.org/2000/svg" xmlns:xlink="http://www.w3.org/1999/xlink" width="16.61" height="11.1" viewBox="0 0 16.61 11.1"><defs><style>.cls-1{fill:url(#Orange_Yellow);}.cls-2{fill:url(#Orange_Yellow-2);}.cls-3{fill:url(#Orange_Yellow-3);}.cls-4{fill:url(#Orange_Yellow-4);}.cls-5{fill:url(#Orange_Yellow-5);}</style><linearGradient id="Orange_Yellow" x1="5.64" y1="5.55" x2="16.61" y2="5.55" gradientUnits="userSpaceOnUse"><stop offset="0" stop-color="#fff33b"/><stop offset="0.04" stop-color="#fee72e"/><stop offset="0.12" stop-color="#fed51b"/><stop offset="0.2" stop-color="#fdca10"/><stop offset="0.28" stop-color="#fdc70c"/><stop offset="0.67" stop-color="#f3903f"/><stop offset="0.89" stop-color="#ed683c"/><stop offset="1" stop-color="#e93e3a"/></linearGradient><linearGradient id="Orange_Yellow-2" x1="7.08" y1="5.55" x2="15.17" y2="5.55" gradientTransform="translate(22.25 11.1) rotate(180)" xlink:href="#Orange_Yellow"/><linearGradient id="Orange_Yellow-3" x1="8.5" y1="5.55" x2="13.75" y2="5.55" xlink:href="#Orange_Yellow"/><linearGradient id="Orange_Yellow-4" x1="0" y1="5.57" x2="7.04" y2="5.57" xlink:href="#Orange_Yellow"/><linearGradient id="Orange_Yellow-5" x1="0.92" y1="5.57" x2="6.12" y2="5.57" gradientTransform="translate(7.04 11.15) rotate(180)" xlink:href="#Orange_Yellow"/></defs><title>Asset 1</title><g id="Layer_2" data-name="Layer 2"><g id="Layer_1-2" data-name="Layer 1"><path class="cls-1" d="M11.12,0A5.52,5.52,0,0,0,5.64,5.55a5.49,5.49,0,1,0,11,0A5.52,5.52,0,0,0,11.12,0Zm0,9.36a3.81,3.81,0,1,1,3.76-3.81A3.78,3.78,0,0,1,11.12,9.36Z"/><path class="cls-2" d="M11.12,9.65a4.1,4.1,0,1,0-4-4.09A4.07,4.07,0,0,0,11.12,9.65Zm0-6A1.91,1.91,0,1,1,9.24,5.55,1.9,1.9,0,0,1,11.12,3.64Z"/><path class="cls-3" d="M11.12,2.9a2.66,2.66,0,1,0,2.63,2.65A2.64,2.64,0,0,0,11.12,2.9Zm0,4.28a1.62,1.62,0,1,1,1.6-1.62A1.61,1.61,0,0,1,11.12,7.17Z"/><path class="cls-4" d="M3.52,2a3.57,3.57,0,0,0,0,7.13A3.57,3.57,0,0,0,3.52,2Zm0,6A2.44,2.44,0,1,1,5.94,5.57,2.43,2.43,0,0,1,3.52,8Z"/><path class="cls-5" d="M3.52,8.2A2.63,2.63,0,1,0,.92,5.57,2.62,2.62,0,0,0,3.52,8.2Zm0-3.86A1.23,1.23,0,1,1,2.31,5.57,1.22,1.22,0,0,1,3.52,4.35Z"/></g></g></svg>