<svg xmlns="http://www.w3.org/2000/svg" width="22.05" height="12.57" viewBox="0 0 22.05 12.57"><defs><style>.cls-1{fill:#fdb913;}.cls-2{fill:#6d6e71;}</style></defs><title>Asset 15</title><g id="Layer_2" data-name="Layer 2"><g id="Layer_1-2" data-name="Layer 1"><path class="cls-1" d="M20.6,8.59a4.59,4.59,0,0,1-1.48,1.57,4.68,4.68,0,0,1-6.46-1.33A4.62,4.62,0,0,1,14,2.41a4.67,4.67,0,0,1,6.45,1.33l0,.07A3.43,3.43,0,0,1,21,3.35a3.34,3.34,0,0,1,.85-.4l-.07-.12A6.34,6.34,0,0,0,13.08,1,6.26,6.26,0,0,0,11,3.24,6.33,6.33,0,0,0,.22,2.83l-.07.11a3.47,3.47,0,0,1,.85.4,3.3,3.3,0,0,1,.56.46l0-.07C2.91,2.32,5.81,1.25,8,2.66A4.08,4.08,0,0,1,9,8.66c-1.41,2.14-3.51,2.42-5.66,1a20,20,0,0,1-1.9-1.09A3.33,3.33,0,0,1,0,9.38a6.26,6.26,0,0,0,2,2.16,6.34,6.34,0,0,0,8.75-1.8c.09-.14.17-.28.25-.42.08.14.16.28.25.42A6.34,6.34,0,0,0,20,11.54a6.26,6.26,0,0,0,2-2.16A3.38,3.38,0,0,1,20.6,8.59Z"/><path class="cls-2" d="M19.42,5.34H18.12l0-.05a1.85,1.85,0,0,0-2.55-.53A1.83,1.83,0,0,0,15,7.3,1.84,1.84,0,0,0,18.2,7.1h1.26a3,3,0,0,1-1.24,1.7A3,3,0,0,1,14,7.94a3,3,0,0,1,.87-4.17,3,3,0,0,1,4.19.86A2.89,2.89,0,0,1,19.42,5.34Z"/><path class="cls-2" d="M1.56,3.81l.23.26a3.36,3.36,0,0,1,.63,1.27h.22A3,3,0,0,1,3,4.64a3,3,0,0,1,4.19-.86A3,3,0,0,1,8,7.94a3,3,0,0,1-4.18.86A3,3,0,0,1,2.59,7.1H2.38A3.34,3.34,0,0,1,2,8a3.1,3.1,0,0,1-.28.35l-.24.25a4.57,4.57,0,0,0,1.48,1.57A4.68,4.68,0,0,0,9.39,8.83,4.63,4.63,0,0,0,8.06,2.41,4.68,4.68,0,0,0,1.6,3.74Z"/></g></g></svg>