<svg xmlns="http://www.w3.org/2000/svg" width="21.46" height="15.3" viewBox="0 0 21.46 15.3"><defs><style>.cls-1{isolation:isolate;}.cls-2{fill:#ffdebd;}.cls-2,.cls-3{mix-blend-mode:multiply;}.cls-3{fill:#ffa733;}</style></defs><title>Asset 14</title><g class="cls-1"><g id="Layer_2" data-name="Layer 2"><g id="Layer_1-2" data-name="Layer 1"><path class="cls-2" d="M14,4.46H8.76A2.83,2.83,0,0,0,5.93,7.28v5.2A2.83,2.83,0,0,0,8.76,15.3H14a2.83,2.83,0,0,0,2.84-2.82V7.28A2.83,2.83,0,0,0,14,4.46Zm1.86,8A1.86,1.86,0,0,1,14,14.34H8.76A1.86,1.86,0,0,1,6.9,12.48V7.28A1.86,1.86,0,0,1,8.76,5.42H14a1.86,1.86,0,0,1,1.86,1.86Z"/><path class="cls-3" d="M14,5.9H8.76A1.38,1.38,0,0,0,7.38,7.28v5.2a1.38,1.38,0,0,0,1.38,1.38H14a1.38,1.38,0,0,0,1.38-1.37V7.28A1.38,1.38,0,0,0,14,5.9Zm.75,6.58a.75.75,0,0,1-.75.75H8.76A.75.75,0,0,1,8,12.48V7.28a.75.75,0,0,1,.75-.75H14a.75.75,0,0,1,.75.75Z"/><rect class="cls-2" x="12.65" y="2.08" width="6.73" height="6.7" rx="0.75" ry="0.75"/><rect class="cls-3" y="7.09" width="4.71" height="4.68" rx="0.52" ry="0.52"/><path class="cls-3" d="M18.63,0H13.39a2.83,2.83,0,0,0-2.84,2.82V8a2.83,2.83,0,0,0,2.84,2.82h5.23A2.83,2.83,0,0,0,21.46,8V2.82A2.83,2.83,0,0,0,18.63,0Zm1.87,8a1.86,1.86,0,0,1-1.87,1.86H13.39A1.86,1.86,0,0,1,11.53,8V2.82A1.86,1.86,0,0,1,13.39,1h5.23a1.86,1.86,0,0,1,1.87,1.86Z"/></g></g></g></svg>