<svg xmlns="http://www.w3.org/2000/svg" width="18.71" height="14.56" viewBox="0 0 18.71 14.56"><defs><style>.cls-1{isolation:isolate;}.cls-2,.cls-4{fill:#ffa733;}.cls-2,.cls-3{mix-blend-mode:multiply;}.cls-3{fill:#ffdebd;}</style></defs><title>Asset 13</title><g class="cls-1"><g id="Layer_2" data-name="Layer 2"><g id="Layer_1-2" data-name="Layer 1"><path class="cls-2" d="M13.33,10.77a2.5,2.5,0,0,1-2.5,2.49h-7a2.5,2.5,0,0,1-2.5-2.49v-7a2.5,2.5,0,0,1,2.5-2.49h7a2.5,2.5,0,0,1,2.5,2.49v0l1.24-.71A3.8,3.8,0,0,0,10.83,0h-7A3.8,3.8,0,0,0,0,3.79v7a3.8,3.8,0,0,0,3.81,3.79h7a3.8,3.8,0,0,0,3.74-3.11l-1.24-.71Z"/><path class="cls-3" d="M10.83,1.94h-7A1.85,1.85,0,0,0,2,3.79v7a1.85,1.85,0,0,0,1.85,1.84h7a1.85,1.85,0,0,0,1.85-1.84v-.41L12,10v.78a1.2,1.2,0,0,1-1.2,1.2h-7a1.2,1.2,0,0,1-1.2-1.2v-7a1.2,1.2,0,0,1,1.2-1.2h7A1.2,1.2,0,0,1,12,3.79v.79l.65-.37V3.79A1.85,1.85,0,0,0,10.83,1.94Z"/><polygon class="cls-4" points="9.56 7.29 18.71 2.04 18.71 12.55 9.56 7.29"/></g></g></g></svg>