<svg xmlns="http://www.w3.org/2000/svg" width="22.9" height="13.02" viewBox="0 0 22.9 13.02"><defs><style>.cls-1{fill:#ffa733;}.cls-2{fill:#ffdebd;}</style></defs><title>Asset 15</title><g id="Layer_2" data-name="Layer 2"><g id="Layer_1-2" data-name="Layer 1"><path class="cls-1" d="M20.42,5.6a3.12,3.12,0,0,1-3.07-3.77H13.18a2.92,2.92,0,0,0-2.93,2.91v5.37A2.92,2.92,0,0,0,13.18,13h5.4a2.92,2.92,0,0,0,2.93-2.91V5.4A3.12,3.12,0,0,1,20.42,5.6Z"/><ellipse class="cls-2" cx="20.62" cy="2.26" rx="2.27" ry="2.26"/><path class="cls-2" d="M1.79,7.19A2.25,2.25,0,0,1,4,9.92H7a2.11,2.11,0,0,0,2.12-2.1V3.93A2.11,2.11,0,0,0,7,1.82H3.12A2.11,2.11,0,0,0,1,3.93v3.4A2.27,2.27,0,0,1,1.79,7.19Z"/><ellipse class="cls-1" cx="1.64" cy="9.6" rx="1.64" ry="1.63"/></g></g></svg>