<svg id="Layer_1" data-name="Layer 1" xmlns="http://www.w3.org/2000/svg" xmlns:xlink="http://www.w3.org/1999/xlink" viewBox="0 0 714.61 219.5"><defs><style>.cls-1,.cls-6{fill:none;}.cls-2{fill:#282828;}.cls-3{clip-path:url(#clip-path);}.cls-4{fill:#1eb6db;}.cls-5{fill:#2e435e;}.cls-6{stroke:#fff;stroke-linecap:round;stroke-miterlimit:10;stroke-width:12.54px;}</style><clipPath id="clip-path" transform="translate(-0.24 -0.25)"><path class="cls-1" d="M.24,110A109.75,109.75,0,1,0,110,.25,109.75,109.75,0,0,0,.24,110"/></clipPath></defs><title>dnhost-logo</title><path class="cls-2" d="M673.69,169.35q1.12.25,2.57.63a11.52,11.52,0,0,1,2.75,1.11,7.1,7.1,0,0,1,2.21,2,5.06,5.06,0,0,1,.91,3.11,5.34,5.34,0,0,1-2.34,4.61,11,11,0,0,1-6.48,1.66,12.08,12.08,0,0,1-2.81-.32,9.6,9.6,0,0,1-2.4-.9,9.19,9.19,0,0,1-1.9-1.37A5.15,5.15,0,0,1,665,178.1L668.1,177a4.56,4.56,0,0,0,2,1.39,8.28,8.28,0,0,0,3.23.59q.62,0,1.49-.08a6.76,6.76,0,0,0,1.68-.38,4,4,0,0,0,1.39-.84,1.93,1.93,0,0,0,.58-1.47,3,3,0,0,0-.12-.84,1.81,1.81,0,0,0-.64-.84,6.15,6.15,0,0,0-1.61-.84,21.59,21.59,0,0,0-3.08-.84q-1.37-.29-2.75-.65a9,9,0,0,1-2.48-1,5.86,5.86,0,0,1-1.8-1.7,4.57,4.57,0,0,1-.7-2.63,5.37,5.37,0,0,1,2.07-4.37,8.81,8.81,0,0,1,5.71-1.68,12.33,12.33,0,0,1,2.71.29,9.66,9.66,0,0,1,2.38.86,8.19,8.19,0,0,1,1.88,1.35,4.81,4.81,0,0,1,1.18,1.75L678,166.11a3.52,3.52,0,0,0-1.76-1.37,7.44,7.44,0,0,0-2.88-.53,6.36,6.36,0,0,0-3.29.71,2.12,2.12,0,0,0-1.18,1.85,2.21,2.21,0,0,0,.1.69,1.25,1.25,0,0,0,.56.61,6.35,6.35,0,0,0,1.43.61A24.34,24.34,0,0,0,673.69,169.35Z" transform="translate(-0.24 -0.25)"/><path class="cls-2" d="M695.55,169.35q1.12.25,2.57.63a11.52,11.52,0,0,1,2.75,1.11,7.11,7.11,0,0,1,2.21,2,5.07,5.07,0,0,1,.91,3.11,5.34,5.34,0,0,1-2.34,4.61,11,11,0,0,1-6.48,1.66,12.08,12.08,0,0,1-2.81-.32,9.58,9.58,0,0,1-2.4-.9,9.2,9.2,0,0,1-1.9-1.37,5.15,5.15,0,0,1-1.24-1.75L690,177a4.55,4.55,0,0,0,2,1.39,8.28,8.28,0,0,0,3.23.59q.62,0,1.49-.08a6.76,6.76,0,0,0,1.68-.38,4,4,0,0,0,1.39-.84,1.93,1.93,0,0,0,.58-1.47,3,3,0,0,0-.12-.84,1.82,1.82,0,0,0-.64-.84,6.18,6.18,0,0,0-1.61-.84,21.61,21.61,0,0,0-3.08-.84q-1.37-.29-2.75-.65a9,9,0,0,1-2.48-1,5.87,5.87,0,0,1-1.8-1.7,4.57,4.57,0,0,1-.7-2.63,5.37,5.37,0,0,1,2.07-4.37,8.8,8.8,0,0,1,5.71-1.68,12.34,12.34,0,0,1,2.71.29,9.64,9.64,0,0,1,2.38.86,8.19,8.19,0,0,1,1.88,1.35A4.81,4.81,0,0,1,703,165l-3.15,1.14a3.52,3.52,0,0,0-1.76-1.37,7.45,7.45,0,0,0-2.88-.53,6.36,6.36,0,0,0-3.29.71,2.12,2.12,0,0,0-1.18,1.85,2.21,2.21,0,0,0,.1.69,1.25,1.25,0,0,0,.56.61,6.34,6.34,0,0,0,1.43.61A24.37,24.37,0,0,0,695.55,169.35Z" transform="translate(-0.24 -0.25)"/><path class="cls-2" d="M710.2,181.67V152.14h3.52v29.53Z" transform="translate(-0.24 -0.25)"/><ellipse id="dot" class="cls-2" cx="649.84" cy="171.63" rx="5.6" ry="5.69"/><path class="cls-2" d="M494.34,167.52q.08.46.12.82a5.78,5.78,0,0,1,0,.65v12.68H491V169.75a11.34,11.34,0,0,0-.14-1.64,5.36,5.36,0,0,0-.64-1.85,4.35,4.35,0,0,0-1.47-1.51,4.77,4.77,0,0,0-2.62-.63,7.07,7.07,0,0,0-3.18.61,4.8,4.8,0,0,0-2.64,3.21,10,10,0,0,0-.25,1.39v12.35h-3.55V152.19H480v11.13a2.55,2.55,0,0,1,.39-.44,6.58,6.58,0,0,1,1.16-.88,9.41,9.41,0,0,1,1.9-.88,8.05,8.05,0,0,1,2.67-.4,8.93,8.93,0,0,1,3.76.69,7.46,7.46,0,0,1,2.42,1.72,7,7,0,0,1,1.38,2.23A11.79,11.79,0,0,1,494.34,167.52Z" transform="translate(-0.24 -0.25)"/><path class="cls-2" d="M513.22,182.43a10.41,10.41,0,0,1-4.17-.84,10.6,10.6,0,0,1-3.39-2.31,11.07,11.07,0,0,1-2.29-3.44,10.65,10.65,0,0,1-.85-4.24,10.54,10.54,0,0,1,.85-4.2,11.09,11.09,0,0,1,2.29-3.45,10.92,10.92,0,0,1,3.39-2.33,10.44,10.44,0,0,1,8.31,0,10.93,10.93,0,0,1,3.39,2.33,11.12,11.12,0,0,1,2.29,3.45,10.54,10.54,0,0,1,.85,4.2,10.65,10.65,0,0,1-.85,4.24,11.1,11.1,0,0,1-2.29,3.44,10.61,10.61,0,0,1-3.39,2.31A10.31,10.31,0,0,1,513.22,182.43Zm0-18.19a7.05,7.05,0,0,0-2.81.57,6.74,6.74,0,0,0-2.27,1.58,7.69,7.69,0,0,0-1.51,2.35,7.53,7.53,0,0,0,1.51,8,6.86,6.86,0,0,0,2.27,1.55,7.05,7.05,0,0,0,2.81.57,6.91,6.91,0,0,0,2.79-.57,7.17,7.17,0,0,0,2.27-1.55,7.25,7.25,0,0,0,1.53-2.33,7.59,7.59,0,0,0,0-5.71,7.49,7.49,0,0,0-1.53-2.35,7,7,0,0,0-2.27-1.58A6.91,6.91,0,0,0,513.22,164.24Z" transform="translate(-0.24 -0.25)"/><path class="cls-2" d="M539.92,169.37q1.12.25,2.56.63a11.46,11.46,0,0,1,2.75,1.11,7.07,7.07,0,0,1,2.21,2,5.06,5.06,0,0,1,.91,3.11,5.33,5.33,0,0,1-2.33,4.6,11,11,0,0,1-6.47,1.66,12.15,12.15,0,0,1-2.81-.31,9.6,9.6,0,0,1-2.4-.9,9.17,9.17,0,0,1-1.9-1.37,5.17,5.17,0,0,1-1.24-1.74l3.14-1.13a4.55,4.55,0,0,0,2,1.39,8.28,8.28,0,0,0,3.22.59q.62,0,1.49-.08a6.75,6.75,0,0,0,1.67-.38,4,4,0,0,0,1.38-.84,1.92,1.92,0,0,0,.58-1.47,3,3,0,0,0-.12-.84,1.81,1.81,0,0,0-.64-.84,6.09,6.09,0,0,0-1.61-.84,21.26,21.26,0,0,0-3.08-.84q-1.36-.29-2.75-.65a9,9,0,0,1-2.48-1,5.85,5.85,0,0,1-1.8-1.7,4.55,4.55,0,0,1-.7-2.62,5.37,5.37,0,0,1,2.07-4.37,8.8,8.8,0,0,1,5.7-1.68,12.3,12.3,0,0,1,2.71.29,9.65,9.65,0,0,1,2.38.86,8.26,8.26,0,0,1,1.88,1.34A4.81,4.81,0,0,1,547.4,165l-3.14,1.13a3.51,3.51,0,0,0-1.76-1.36,7.4,7.4,0,0,0-2.87-.53,6.35,6.35,0,0,0-3.29.71,2.11,2.11,0,0,0-1.18,1.85,2.23,2.23,0,0,0,.1.69,1.25,1.25,0,0,0,.56.61,6.32,6.32,0,0,0,1.43.61A24.14,24.14,0,0,0,539.92,169.37Z" transform="translate(-0.24 -0.25)"/><path class="cls-2" d="M566.91,182l-.66.21a6.18,6.18,0,0,1-1.34.23,7.12,7.12,0,0,1-1.78-.1,4.69,4.69,0,0,1-1.88-.8q-2.77-1.89-2.77-7.1V165H556v-3.49h2.52v-9.32h3.43v9.32H566V165h-4.13v9.41q0,3.32,1.24,4.2a1.72,1.72,0,0,0,.81.29,5.3,5.3,0,0,0,.81,0,3.9,3.9,0,0,0,.91-.19Z" transform="translate(-0.24 -0.25)"/><path class="cls-2" d="M578.52,155.76a2.32,2.32,0,0,1-.66,1.66,2.15,2.15,0,0,1-1.61.69,2.21,2.21,0,0,1-1.63-.69,2.28,2.28,0,0,1-.68-1.66,2.21,2.21,0,0,1,.68-1.64,2.24,2.24,0,0,1,1.63-.67,2.18,2.18,0,0,1,1.61.67A2.25,2.25,0,0,1,578.52,155.76ZM578,181.67h-3.51V161.51H578Z" transform="translate(-0.24 -0.25)"/><path class="cls-2" d="M605.92,167.56c.05.31.1.58.12.82a5.75,5.75,0,0,1,0,.65v12.64h-3.51V169.79a11.31,11.31,0,0,0-.14-1.64,5.36,5.36,0,0,0-.64-1.85,4.3,4.3,0,0,0-1.49-1.51,4.88,4.88,0,0,0-2.65-.63,6.92,6.92,0,0,0-3.16.61,5.17,5.17,0,0,0-1.82,1.47,4.76,4.76,0,0,0-.85,1.72,9.39,9.39,0,0,0-.25,1.37v12.35h-3.51V161.51h3.51v1.81a2.68,2.68,0,0,0,.43-.42,5.45,5.45,0,0,1,1.16-.88,10.42,10.42,0,0,1,1.9-.86,7.92,7.92,0,0,1,2.63-.4,9,9,0,0,1,3.78.69,7.37,7.37,0,0,1,2.44,1.72,7,7,0,0,1,1.38,2.23A11.83,11.83,0,0,1,605.92,167.56Z" transform="translate(-0.24 -0.25)"/><path class="cls-2" d="M634.51,161.51v19.11a14.78,14.78,0,0,1-.72,4.75,10.66,10.66,0,0,1-2,3.65,9.34,9.34,0,0,1-3.14,2.35,9.55,9.55,0,0,1-4.05.84,8.2,8.2,0,0,1-4-.94,11.59,11.59,0,0,1-2.79-2.1,10.25,10.25,0,0,1-1.63-2.16l-.58-1.09,3.14-1.43.39.73a7.63,7.63,0,0,0,1.07,1.45A7.3,7.3,0,0,0,622,188.1a5.21,5.21,0,0,0,2.6.63,5.7,5.7,0,0,0,5-2.58,7.82,7.82,0,0,0,1.09-2.6,13.07,13.07,0,0,0,.33-2.92v-1.3a9.92,9.92,0,0,1-3.14,2.29,9.37,9.37,0,0,1-7.71,0,9.87,9.87,0,0,1-3.14-2.31,11.14,11.14,0,0,1-2.13-3.44,11.85,11.85,0,0,1,0-8.48,11.16,11.16,0,0,1,2.13-3.44,9.89,9.89,0,0,1,3.14-2.31,9.37,9.37,0,0,1,7.71,0,10,10,0,0,1,3.14,2.29v-2.35Zm-10.21,17.43a6.05,6.05,0,0,0,2.58-.57A6.58,6.58,0,0,0,629,176.8a7.81,7.81,0,0,0,1.45-2.35,7.86,7.86,0,0,0,0-5.71,7.81,7.81,0,0,0-1.45-2.35,6.6,6.6,0,0,0-2.13-1.58,6.17,6.17,0,0,0-5.17,0,6.58,6.58,0,0,0-2.13,1.58,7.48,7.48,0,0,0-1.43,2.35,8.15,8.15,0,0,0,0,5.71,7.48,7.48,0,0,0,1.43,2.35,6.56,6.56,0,0,0,2.13,1.58A6,6,0,0,0,624.31,178.94Z" transform="translate(-0.24 -0.25)"/><ellipse id="dot-2" data-name="dot" class="cls-2" cx="459.5" cy="171.63" rx="5.6" ry="5.69"/><path class="cls-2" d="M282.2,152.19v29.49h-3.52v-2.31a9.66,9.66,0,0,1-3.15,2.27,9.3,9.3,0,0,1-3.85.8,9,9,0,0,1-3.87-.84,9.89,9.89,0,0,1-3.15-2.31,11.36,11.36,0,0,1-2.92-7.66,11.39,11.39,0,0,1,.79-4.25,11.2,11.2,0,0,1,2.13-3.45,10.16,10.16,0,0,1,3.15-2.33,9.16,9.16,0,0,1,7.72,0,10.24,10.24,0,0,1,3.15,2.31V152.19ZM272,178.94a6.08,6.08,0,0,0,2.59-.57,6.74,6.74,0,0,0,2.13-1.56,7.53,7.53,0,0,0,1.45-2.33,7.87,7.87,0,0,0,0-5.72,7.81,7.81,0,0,0-1.45-2.36,6.85,6.85,0,0,0-2.13-1.6,6,6,0,0,0-5.17,0,6.84,6.84,0,0,0-2.13,1.6,7.48,7.48,0,0,0-1.43,2.36,8.16,8.16,0,0,0,0,5.72,7.22,7.22,0,0,0,1.43,2.33,6.73,6.73,0,0,0,2.13,1.56A6.07,6.07,0,0,0,272,178.94Z" transform="translate(-0.24 -0.25)"/><path class="cls-2" d="M301.32,182.43a10.42,10.42,0,0,1-4.18-.84,10.61,10.61,0,0,1-3.39-2.31,11.09,11.09,0,0,1-2.3-3.45,11,11,0,0,1,0-8.46,11.11,11.11,0,0,1,2.3-3.45,10.9,10.9,0,0,1,3.39-2.33,10.46,10.46,0,0,1,8.32,0,10.92,10.92,0,0,1,3.39,2.33,11.13,11.13,0,0,1,2.3,3.45,11,11,0,0,1,0,8.46,11.1,11.1,0,0,1-2.3,3.45,10.64,10.64,0,0,1-3.39,2.31A10.33,10.33,0,0,1,301.32,182.43Zm0-18.21a7.08,7.08,0,0,0-2.81.57,6.72,6.72,0,0,0-2.28,1.58,7.67,7.67,0,0,0-1.51,2.36,7.54,7.54,0,0,0,1.51,8.06,6.87,6.87,0,0,0,2.28,1.56,7.08,7.08,0,0,0,2.81.57,6.93,6.93,0,0,0,2.79-.57,7.15,7.15,0,0,0,3.81-3.89,7.59,7.59,0,0,0,0-5.72,7.5,7.5,0,0,0-1.53-2.36,7,7,0,0,0-2.28-1.58A6.93,6.93,0,0,0,301.32,164.22Z" transform="translate(-0.24 -0.25)"/><path class="cls-2" d="M339.36,160.72a7.39,7.39,0,0,1,3.73.59,7.83,7.83,0,0,1,1.39.86,5,5,0,0,1,1.2,1.37,8,8,0,0,1,.85,2,10.37,10.37,0,0,1,.33,2.78v13.33h-3.52V168.25a5.19,5.19,0,0,0-.41-2.29,2.93,2.93,0,0,0-1-1.2,3.11,3.11,0,0,0-1.3-.46,10.72,10.72,0,0,0-1.24-.08,3.8,3.8,0,0,0-2.81,1.18,3.92,3.92,0,0,0-1.16,2.86v13.42h-3.52V168.25a5.19,5.19,0,0,0-.41-2.29,2.93,2.93,0,0,0-1-1.2,3.11,3.11,0,0,0-1.3-.46,10.72,10.72,0,0,0-1.24-.08,3.73,3.73,0,0,0-2.79,1.18,4,4,0,0,0-1.14,2.86v13.42H320.4V161.52H324v1.6a4.92,4.92,0,0,1,1.41-1.43,7.81,7.81,0,0,1,.85-.53,3.09,3.09,0,0,1,.89-.32,2.44,2.44,0,0,1,.79-.13,9.06,9.06,0,0,1,2.32.13,8.66,8.66,0,0,1,2,.76,5.19,5.19,0,0,1,1.9,1.77.54.54,0,0,1,.12.21.52.52,0,0,0,.12.21,7.2,7.2,0,0,1,1-1.2,6.76,6.76,0,0,1,1.24-1A7.56,7.56,0,0,1,338,161,4,4,0,0,1,339.36,160.72Z" transform="translate(-0.24 -0.25)"/><path class="cls-2" d="M375.29,161.48v20.19h-3.56v-2.36a9.47,9.47,0,0,1-3.1,2.29,9.38,9.38,0,0,1-7.72,0,9.88,9.88,0,0,1-3.15-2.31,11.16,11.16,0,0,1-2.13-3.45,11.75,11.75,0,0,1,0-8.46,11.18,11.18,0,0,1,2.13-3.45,10.15,10.15,0,0,1,3.15-2.33,8.84,8.84,0,0,1,3.87-.86,9.09,9.09,0,0,1,3.85.82,9.47,9.47,0,0,1,3.1,2.29v-2.36Zm-10.22,17.46a5.87,5.87,0,0,0,2.59-.59,7,7,0,0,0,2.13-1.58,7.25,7.25,0,0,0,1.43-2.33,8.18,8.18,0,0,0,0-5.72,7.25,7.25,0,0,0-1.43-2.33,7,7,0,0,0-2.13-1.58,6,6,0,0,0-5.17,0,7,7,0,0,0-2.13,1.58,7.53,7.53,0,0,0-1.45,2.33,7.87,7.87,0,0,0,0,5.72,7.53,7.53,0,0,0,1.45,2.33,7,7,0,0,0,2.13,1.58A5.87,5.87,0,0,0,365.06,178.94Z" transform="translate(-0.24 -0.25)"/><path class="cls-2" d="M389.4,155.72a2.32,2.32,0,0,1-.66,1.66,2.15,2.15,0,0,1-1.61.69,2.21,2.21,0,0,1-1.63-.69,2.29,2.29,0,0,1-.68-1.66,2.21,2.21,0,0,1,.68-1.64,2.25,2.25,0,0,1,1.63-.67,2.18,2.18,0,0,1,1.61.67A2.25,2.25,0,0,1,389.4,155.72Zm-.54,26h-3.52V161.48h3.52Z" transform="translate(-0.24 -0.25)"/><path class="cls-2" d="M416.8,167.54c.05.31.1.58.12.82a5.78,5.78,0,0,1,0,.65v12.66h-3.52v-11.9a11.5,11.5,0,0,0-.14-1.64,5.4,5.4,0,0,0-.64-1.85,4.31,4.31,0,0,0-1.49-1.51,4.89,4.89,0,0,0-2.65-.63,6.94,6.94,0,0,0-3.17.61,5.18,5.18,0,0,0-1.82,1.47,4.76,4.76,0,0,0-.85,1.72,9.3,9.3,0,0,0-.25,1.37v12.37h-3.52V161.48h3.52v1.81a2.59,2.59,0,0,0,.43-.42A5.49,5.49,0,0,1,404,162a10.33,10.33,0,0,1,1.9-.86,7.91,7.91,0,0,1,2.63-.4,9.08,9.08,0,0,1,3.79.69,7.4,7.4,0,0,1,2.44,1.72,7.06,7.06,0,0,1,1.39,2.23A11.79,11.79,0,0,1,416.8,167.54Z" transform="translate(-0.24 -0.25)"/><path class="cls-2" d="M434.23,169.35q1.12.25,2.57.63a11.44,11.44,0,0,1,2.75,1.12,7.08,7.08,0,0,1,2.21,2,5.07,5.07,0,0,1,.91,3.11,5.34,5.34,0,0,1-2.34,4.61,11,11,0,0,1-6.48,1.66,12.08,12.08,0,0,1-2.81-.32,9.54,9.54,0,0,1-2.4-.9,9.2,9.2,0,0,1-1.9-1.37,5.17,5.17,0,0,1-1.24-1.75l3.15-1.14a4.56,4.56,0,0,0,2,1.39,8.28,8.28,0,0,0,3.23.59q.62,0,1.49-.08a6.72,6.72,0,0,0,1.68-.38,4,4,0,0,0,1.39-.84,1.93,1.93,0,0,0,.58-1.47,3,3,0,0,0-.12-.84,1.82,1.82,0,0,0-.64-.84,6.12,6.12,0,0,0-1.61-.84,21.46,21.46,0,0,0-3.08-.84q-1.37-.29-2.75-.65a9,9,0,0,1-2.48-1,5.84,5.84,0,0,1-1.8-1.7,4.56,4.56,0,0,1-.7-2.63,5.38,5.38,0,0,1,2.07-4.37,8.81,8.81,0,0,1,5.71-1.68,12.28,12.28,0,0,1,2.71.29,9.6,9.6,0,0,1,2.38.86,8.24,8.24,0,0,1,1.88,1.35,4.83,4.83,0,0,1,1.18,1.75l-3.15,1.14a3.52,3.52,0,0,0-1.76-1.37,7.43,7.43,0,0,0-2.88-.53,6.36,6.36,0,0,0-3.29.71,2.12,2.12,0,0,0-1.18,1.85,2.2,2.2,0,0,0,.1.69,1.26,1.26,0,0,0,.56.61,6.39,6.39,0,0,0,1.43.61A24.37,24.37,0,0,0,434.23,169.35Z" transform="translate(-0.24 -0.25)"/><path class="cls-2" d="M284.38,55.5a38.46,38.46,0,0,1,15.45,3.13A40,40,0,0,1,321,79.9a39.9,39.9,0,0,1,0,31,40,40,0,0,1-21.2,21.26,38.44,38.44,0,0,1-15.45,3.13h-22.8V55.5Zm0,69.31a27.8,27.8,0,0,0,11.34-2.34,29.41,29.41,0,0,0,15.45-15.67,29.65,29.65,0,0,0,0-22.8,29.4,29.4,0,0,0-15.45-15.67A27.81,27.81,0,0,0,284.38,66H272.3v58.82Z" transform="translate(-0.24 -0.25)"/><path class="cls-2" d="M401.34,55.5v79.8h-10.6l-39.9-60.53V135.3H340.13V55.5h10.6l39.79,60.42V55.5Z" transform="translate(-0.24 -0.25)"/><path class="cls-2" d="M483.88,55.5v79.8H473.16V100.65H433.72V135.3H423V55.5h10.72V90.16h39.44V55.5Z" transform="translate(-0.24 -0.25)"/><path class="cls-2" d="M542.93,53.45a40.62,40.62,0,0,1,16.3,3.31A42.28,42.28,0,0,1,581.58,79.1a41.85,41.85,0,0,1,0,32.6A42.28,42.28,0,0,1,559.23,134a42.13,42.13,0,0,1-32.72,0,41.86,41.86,0,0,1-13.28-9,43.07,43.07,0,0,1-8.95-13.34,41.85,41.85,0,0,1,0-32.6,43.09,43.09,0,0,1,8.95-13.34,41.91,41.91,0,0,1,13.28-9A40.88,40.88,0,0,1,542.93,53.45Zm0,73.42a30.13,30.13,0,0,0,12.14-2.45,31.13,31.13,0,0,0,9.86-6.73,32,32,0,0,0,6.67-10,31,31,0,0,0,2.45-12.26,30.57,30.57,0,0,0-2.45-12.2,31.81,31.81,0,0,0-16.53-16.76,29.58,29.58,0,0,0-12.14-2.51,30,30,0,0,0-12.2,2.51,31.72,31.72,0,0,0-9.92,6.78,32.1,32.1,0,0,0-6.67,10,30.52,30.52,0,0,0-2.45,12.2,30.93,30.93,0,0,0,2.45,12.26,31.91,31.91,0,0,0,6.67,10,30.91,30.91,0,0,0,9.92,6.73A30.53,30.53,0,0,0,542.93,126.87Z" transform="translate(-0.24 -0.25)"/><path class="cls-2" d="M624.21,88.22a56.57,56.57,0,0,1,14.08,5.24,33.07,33.07,0,0,1,8.49,6.55,19.25,19.25,0,0,1,4.16,7,23,23,0,0,1,1.08,6.73,19.21,19.21,0,0,1-2.28,9.18,24.27,24.27,0,0,1-6.21,7.47,30.89,30.89,0,0,1-9.23,5.07A33.68,33.68,0,0,1,623,137.35a34.76,34.76,0,0,1-10.6-1.6,29.63,29.63,0,0,1-8.83-4.45,26.21,26.21,0,0,1-6.33-6.67,19.33,19.33,0,0,1-3.08-8.26l9.46-1.94a16.53,16.53,0,0,0,6.78,8.83,21.57,21.57,0,0,0,12.6,3.59,24.3,24.3,0,0,0,7.13-1A19.67,19.67,0,0,0,636,123a14.52,14.52,0,0,0,3.93-4.16,9.56,9.56,0,0,0,1.43-5.07q0-10.49-19.61-15.39-4.68-1.14-9.46-2.62a34.91,34.91,0,0,1-8.61-3.93,20.77,20.77,0,0,1-6.27-6.21A17.21,17.21,0,0,1,594.91,76,21.19,21.19,0,0,1,596.85,67a20.49,20.49,0,0,1,5.47-7.13,26.38,26.38,0,0,1,8.55-4.67,34.07,34.07,0,0,1,11.06-1.71A30.86,30.86,0,0,1,632,55a27.44,27.44,0,0,1,8.21,4.39A23.36,23.36,0,0,1,645.93,66a21.88,21.88,0,0,1,2.79,8.38l-9.46,2.05a15.68,15.68,0,0,0-5.7-9q-4.45-3.53-11.63-3.53-7.64,0-11.91,3.42A10.64,10.64,0,0,0,605.74,76a8.94,8.94,0,0,0,.74,3.71,7.5,7.5,0,0,0,2.74,3,25.58,25.58,0,0,0,5.59,2.68Q618.4,86.74,624.21,88.22Z" transform="translate(-0.24 -0.25)"/><path class="cls-2" d="M714.84,55.5V65.65H691.13V135.3H680.41V65.65H656.7V55.5Z" transform="translate(-0.24 -0.25)"/><g id="Round_shape" data-name="Round shape"><g class="cls-3"><path id="light_blue_shape" data-name="light blue shape" class="cls-4" d="M219.74,110A109.75,109.75,0,1,1,110,.25,109.75,109.75,0,0,1,219.74,110" transform="translate(-0.24 -0.25)"/><path id="dark_blue_shape" data-name="dark blue shape" class="cls-5" d="M204.06,110A94.07,94.07,0,1,1,110,15.93,94.07,94.07,0,0,1,204.06,110" transform="translate(-0.24 -0.25)"/><line id="line_3" data-name="line 3" class="cls-6" x1="203.39" y1="24.3" x2="125.7" y2="157.75"/><line id="line_2" data-name="line 2" class="cls-6" x1="137.69" y1="61.75" x2="81.8" y2="157.75"/><line id="line_1" data-name="line 1" class="cls-6" x1="93.79" y1="61.75" x2="16.79" y2="194.02"/></g></g></svg>