<?xml version="1.0" encoding="utf-8"?>
<!-- Generator: Adobe Illustrator 15.1.0, SVG Export Plug-In . SVG Version: 6.00 Build 0)  -->
<!DOCTYPE svg PUBLIC "-//W3C//DTD SVG 1.1//EN" "http://www.w3.org/Graphics/SVG/1.1/DTD/svg11.dtd">
<svg version="1.1" id="Magento" xmlns="http://www.w3.org/2000/svg" xmlns:xlink="http://www.w3.org/1999/xlink" x="0px" y="0px"
	 width="680px" height="800px" viewBox="0 0 680 800" enable-background="new 0 0 680 800" xml:space="preserve">
<g id="Logo" display="none">
	<path id="Shape" display="inline" fill-rule="evenodd" clip-rule="evenodd" fill="#ED4A19" d="M589.998,645.59V260L340,105.589
		L90,260v385.59L0,589.999v-380L340,0l340,209.999v380L589.998,645.59z M290,689.12l50,30.879l49.999-30.879V242.06L500,310v311.176
		v68.823v11.178L340,800l-160-98.823v-11.178v-68.823V310l110-67.94V689.12z"/>
	<path id="Highlight" display="inline" fill-rule="evenodd" clip-rule="evenodd" fill="#EF5A27" d="M589.998,260.002L340,105.589
		L90,260.002v0.293L0,210.002L340,0l340,210.002l-90.002,50.293V260.002z M500,310.588l-110.001,61.47V242.057L500,310.002V310.588z
		 M290,372.058l-110-61.47v-0.586l110-67.945V372.058z"/>
</g>
<path display="none" fill-rule="evenodd" clip-rule="evenodd" fill="#FA9405" d="M141.94,595.533V382.157
	c0.124-29.862,6.856-55.531,20.171-77.034c4.833-7.768,10.431-14.894,16.793-21.379c14.351,13.538,33.685,21.823,54.94,21.823
	c39.775,0,72.792-29.023,79.034-67.048c27.79,1.727,52.079,7.397,72.866,16.99c9.199,4.266,17.607,9.173,25.228,14.771
	c7.619-5.598,16.028-10.505,25.228-14.771c22.882-10.579,50.03-16.374,81.423-17.384h3.202c31.393,1.01,58.541,6.806,81.428,17.384
	c25.054,11.59,44.237,28.136,57.577,49.614c13.316,21.503,20.046,47.172,20.171,77.034v213.376H570.244l0.197-204.991
	c0.346-24.267-5.375-43.376-18.322-56.199c-25.376-17.286-47.347-15.684-67.248,0.518c-12.97,12.798-19.255,31.341-18.913,55.63
	v205.042H353.735l0.197-204.991c0.371-24.267-5.375-43.376-18.322-56.199c-25.372-17.286-47.32-15.684-67.244,0.518
	c-12.946,12.798-19.258,31.341-18.914,55.63v205.042H141.94z"/>
<path display="none" fill-rule="evenodd" clip-rule="evenodd" d="M60.295,420.453c-0.099-43.228,3.748-86.479-3.107-126.723
	c-1.479-8.705,15.486-5.474,4.192-25.151l-59.872,1.503l59.798-1.602c-0.026-0.075,5.918-0.248,5.943-0.174l187.285-5.03
	l190.464-132.197l-106.574,74.396c17.214,15.634,31.046,31.663,37.582,48.48c-29.813,29.518-58.297,60.389-81.426,96.589
	c-6.239,8.384-15.362,11.565-26.952,10.283c-33.487-12.576-71.462-22.933-117.944-29.023c-6.238-22.464-9.346-42.487-0.197-65.42
	l-82.188,2.047c1.332,3.649,8.606,15.189,7.694,18.789c-1.455,5.599-11.836,11.171-9.864,15.19
	c1.677,3.428,10.233,11.739,9.395,16.005c-2.835,14.572-7.989,51.242-6.189,67.564c3.304,29.985,19.899,82.164,10.406,108.896
	c-3.156,8.853-9.814,51.563-10.258,60.193C40.222,514.158,60.369,456.505,60.295,420.453z"/>
<polygon display="none" fill-rule="evenodd" clip-rule="evenodd" fill="#666666" points="252.709,258.764 -0.292,265.569 
	206.769,148.044 443.201,126.566 "/>
<path fill-rule="evenodd" clip-rule="evenodd" fill="#71BF45" d="M111.298,193.817l82.186-8.177c0,0,1.212-102.878,96.193-115.184
	c115.003-14.898,124.069,92.268,124.069,92.268l99.305-10.208l45.66,422.612L154.315,616.76L111.298,193.817z"/>
<path fill-rule="evenodd" clip-rule="evenodd" fill="#FFFFFF" d="M305.384,405.354c0,0,29.579-4.272,33.805,24.915l10.917,65.127
	c0,0,23.24-21.352,46.48,2.494c0,0,25.705-24.559,50.354,4.982c0,0,31.338-25.982,53.523,19.572
	c22.186,45.557,7.395,119.939,7.395,119.939s-6.689,37.369-5.986,61.217c0.703,23.846-19.719,24.203-19.719,24.203l-109.861,16.369
	c0,0-12.68,5.338-23.594-11.033c0,0-71.13-103.568-128.175-150.191c0,0-13.029-14.947,8.803-33.453s44.016-2.848,44.016-2.848
	l20.776,17.438l-15.677-110.91C278.44,453.176,269.226,412.93,305.384,405.354z"/>
<path fill-rule="evenodd" clip-rule="evenodd" fill="#C8588A" d="M299.956,590.551l-35.722-30.639c0,0-16.779-10.393-29.77,7.662
	l-1.624,3.828c0,0,42.338,41.514,77.573,83.549c30.446,36.322,54.494,74.002,54.494,74.002l120.695-17.506
	c0,0-1.08-37.746,8.117-80.418c3.564-16.514,4.289-36.063,2.863-54.17c-2.256-28.674-10.979-57.02-21.264-60.707
	c-16.775-6.018-21.648,1.092-18.941,14.77l1.08,16.41h-15.154c0,0-1.082-43.217-22.734-42.67
	c-21.648,0.545-14.07,38.295-14.07,38.295h-13.531c0,0,2.166-40.482-20.023-40.482c-22.193,0-17.322,46.498-17.322,46.498h-12.99
	l-18.201-115.568c0,0-1.074-13.016-16.101-11.391c-15.028,1.627-13.417,24.953-13.417,24.953l25.225,170.871l-17.711-0.543
	L299.956,590.551z"/>
<path fill-rule="evenodd" clip-rule="evenodd" fill="#FFFFFF" d="M389.904,162.416l16.518-1.615c0,0-16.518-86.72-88.994-87.257
	C317.428,73.543,368.59,85.931,389.904,162.416z"/>
<path fill-rule="evenodd" clip-rule="evenodd" fill="#FFFFFF" d="M200.186,182.884c0,0,6.928-79.718,60.22-99.108
	c0,0-44.233,40.396-41.036,96.953L200.186,182.884z"/>
<path fill-rule="evenodd" clip-rule="evenodd" fill="#FFFFFF" d="M225.233,179.652c0,0,4.82-93.472,66.082-100.724
	c59.154-7.002,89.531,74.331,89.531,86.182L225.233,179.652z"/>
</svg>
