<svg id="Layer_1" data-name="Layer 1" xmlns="http://www.w3.org/2000/svg" xmlns:xlink="http://www.w3.org/1999/xlink" width="717" height="220" viewBox="0 0 717 220"><defs><style>.cls-1,.cls-6{fill:none;}.cls-2{fill:#282828;}.cls-3{clip-path:url(#clip-path);}.cls-4{fill:#1eb6db;}.cls-5{fill:#2e435e;}.cls-6{stroke:#fff;stroke-linecap:round;stroke-miterlimit:10;stroke-width:12.54px;}</style><clipPath id="clip-path"><path class="cls-1" d="M.24,110A109.75,109.75,0,1,0,110,.25,109.75,109.75,0,0,0,.24,110"/></clipPath></defs><title>dnhost-mobile</title><path class="cls-2" d="M284.38,74.5a38.46,38.46,0,0,1,15.45,3.13A40,40,0,0,1,321,98.9a39.9,39.9,0,0,1,0,31,40,40,0,0,1-21.2,21.26,38.44,38.44,0,0,1-15.45,3.13h-22.8V74.5Zm0,69.31a27.8,27.8,0,0,0,11.34-2.34,29.41,29.41,0,0,0,15.45-15.67,29.65,29.65,0,0,0,0-22.8,29.4,29.4,0,0,0-15.45-15.67A27.81,27.81,0,0,0,284.38,85H272.3v58.82Z"/><path class="cls-2" d="M401.34,74.5v79.8h-10.6l-39.9-60.53V154.3H340.13V74.5h10.6l39.79,60.42V74.5Z"/><path class="cls-2" d="M483.88,74.5v79.8H473.16V119.65H433.72V154.3H423V74.5h10.72v34.66h39.44V74.5Z"/><path class="cls-2" d="M542.93,72.45a40.62,40.62,0,0,1,16.3,3.31A42.28,42.28,0,0,1,581.58,98.1a41.85,41.85,0,0,1,0,32.6A42.28,42.28,0,0,1,559.23,153a42.13,42.13,0,0,1-32.72,0,41.86,41.86,0,0,1-13.28-9,43.07,43.07,0,0,1-8.95-13.34,41.85,41.85,0,0,1,0-32.6,43.09,43.09,0,0,1,8.95-13.34,41.91,41.91,0,0,1,13.28-9A40.88,40.88,0,0,1,542.93,72.45Zm0,73.42a30.13,30.13,0,0,0,12.14-2.45,31.13,31.13,0,0,0,9.86-6.73,32,32,0,0,0,6.67-10,31,31,0,0,0,2.45-12.26,30.57,30.57,0,0,0-2.45-12.2,31.81,31.81,0,0,0-16.53-16.76,29.58,29.58,0,0,0-12.14-2.51,30,30,0,0,0-12.2,2.51,31.72,31.72,0,0,0-9.92,6.78,32.1,32.1,0,0,0-6.67,10,30.52,30.52,0,0,0-2.45,12.2,30.93,30.93,0,0,0,2.45,12.26,31.91,31.91,0,0,0,6.67,10,30.91,30.91,0,0,0,9.92,6.73A30.53,30.53,0,0,0,542.93,145.87Z"/><path class="cls-2" d="M624.21,107.22a56.57,56.57,0,0,1,14.08,5.24,33.07,33.07,0,0,1,8.49,6.55,19.25,19.25,0,0,1,4.16,7,23,23,0,0,1,1.08,6.73,19.21,19.21,0,0,1-2.28,9.18,24.27,24.27,0,0,1-6.21,7.47,30.89,30.89,0,0,1-9.23,5.07A33.68,33.68,0,0,1,623,156.35a34.76,34.76,0,0,1-10.6-1.6,29.63,29.63,0,0,1-8.83-4.45,26.21,26.21,0,0,1-6.33-6.67,19.33,19.33,0,0,1-3.08-8.26l9.46-1.94a16.53,16.53,0,0,0,6.78,8.83,21.57,21.57,0,0,0,12.6,3.59,24.3,24.3,0,0,0,7.13-1A19.67,19.67,0,0,0,636,142a14.52,14.52,0,0,0,3.93-4.16,9.56,9.56,0,0,0,1.43-5.07q0-10.49-19.61-15.39-4.68-1.14-9.46-2.62a34.91,34.91,0,0,1-8.61-3.93,20.77,20.77,0,0,1-6.27-6.21A17.21,17.21,0,0,1,594.91,95,21.19,21.19,0,0,1,596.85,86a20.49,20.49,0,0,1,5.47-7.12,26.38,26.38,0,0,1,8.55-4.67,34.07,34.07,0,0,1,11.06-1.71A30.86,30.86,0,0,1,632,74a27.44,27.44,0,0,1,8.21,4.39A23.36,23.36,0,0,1,645.93,85a21.88,21.88,0,0,1,2.79,8.38l-9.46,2.05a15.68,15.68,0,0,0-5.7-9q-4.45-3.53-11.63-3.53-7.64,0-11.91,3.42A10.64,10.64,0,0,0,605.74,95a8.94,8.94,0,0,0,.74,3.71,7.5,7.5,0,0,0,2.74,3,25.58,25.58,0,0,0,5.59,2.68Q618.4,105.74,624.21,107.22Z"/><path class="cls-2" d="M714.84,74.5V84.65H691.13V154.3H680.41V84.65H656.7V74.5Z"/><g id="Round_shape" data-name="Round shape"><g class="cls-3"><path id="light_blue_shape" data-name="light blue shape" class="cls-4" d="M219.74,110A109.75,109.75,0,1,1,110,.25,109.75,109.75,0,0,1,219.74,110"/><path id="dark_blue_shape" data-name="dark blue shape" class="cls-5" d="M204.06,110A94.07,94.07,0,1,1,110,15.93,94.07,94.07,0,0,1,204.06,110"/><line id="line_3" data-name="line 3" class="cls-6" x1="203.63" y1="24.55" x2="125.94" y2="158"/><line id="line_2" data-name="line 2" class="cls-6" x1="137.93" y1="62" x2="82.04" y2="158"/><line id="line_1" data-name="line 1" class="cls-6" x1="94.03" y1="62" x2="17.02" y2="194.27"/></g></g></svg>