<?xml version="1.0" encoding="utf-8"?>
<!-- Generator: Adobe Illustrator 15.1.0, SVG Export Plug-In . SVG Version: 6.00 Build 0)  -->
<!DOCTYPE svg PUBLIC "-//W3C//DTD SVG 1.1//EN" "http://www.w3.org/Graphics/SVG/1.1/DTD/svg11.dtd">
<svg version="1.1" id="Magento" xmlns="http://www.w3.org/2000/svg" xmlns:xlink="http://www.w3.org/1999/xlink" x="0px" y="0px"
	 width="680px" height="800px" viewBox="0 0 680 800" enable-background="new 0 0 680 800" xml:space="preserve">
<g id="Logo" display="none">
	<path id="Shape" display="inline" fill-rule="evenodd" clip-rule="evenodd" fill="#ED4A19" d="M589.998,645.59V260L340,105.589
		L90,260v385.59L0,589.999v-380L340,0l340,209.999v380L589.998,645.59z M290,689.12l50,30.879l49.999-30.879V242.06L500,310v311.176
		v68.823v11.178L340,800l-160-98.823v-11.178v-68.823V310l110-67.94V689.12z"/>
	<path id="Highlight" display="inline" fill-rule="evenodd" clip-rule="evenodd" fill="#EF5A27" d="M589.998,260.002L340,105.589
		L90,260.002v0.293L0,210.002L340,0l340,210.002l-90.002,50.293V260.002z M500,310.588l-110.001,61.47V242.057L500,310.002V310.588z
		 M290,372.058l-110-61.47v-0.586l110-67.945V372.058z"/>
</g>
<path fill-rule="evenodd" clip-rule="evenodd" fill="#FA9405" d="M141.94,595.533V382.157c0.124-29.862,6.856-55.531,20.171-77.034
	c4.833-7.768,10.431-14.894,16.793-21.379c14.351,13.538,33.685,21.823,54.94,21.823c39.775,0,72.792-29.023,79.034-67.048
	c27.79,1.727,52.079,7.397,72.866,16.99c9.199,4.266,17.607,9.173,25.228,14.771c7.619-5.598,16.028-10.505,25.228-14.771
	c22.882-10.579,50.03-16.374,81.423-17.384h3.202c31.393,1.01,58.541,6.806,81.428,17.384c25.054,11.59,44.237,28.136,57.577,49.614
	c13.316,21.503,20.046,47.172,20.171,77.034v213.376H570.244l0.197-204.991c0.346-24.267-5.375-43.376-18.322-56.199
	c-25.376-17.286-47.347-15.684-67.248,0.518c-12.97,12.798-19.255,31.341-18.913,55.63v205.042H353.735l0.197-204.991
	c0.371-24.267-5.375-43.376-18.322-56.199c-25.372-17.286-47.32-15.684-67.244,0.518c-12.946,12.798-19.258,31.341-18.914,55.63
	v205.042H141.94z"/>
<path fill-rule="evenodd" clip-rule="evenodd" d="M60.295,420.453c-0.099-43.228,3.748-86.479-3.107-126.723
	c-1.479-8.705,15.486-5.474,4.192-25.151l-59.872,1.503l59.798-1.602c-0.026-0.075,5.918-0.248,5.943-0.174l187.285-5.03
	l190.464-132.197l-106.574,74.396c17.214,15.634,31.046,31.663,37.582,48.48c-29.813,29.518-58.297,60.389-81.426,96.589
	c-6.239,8.384-15.362,11.565-26.952,10.283c-33.487-12.576-71.462-22.933-117.944-29.023c-6.238-22.464-9.346-42.487-0.197-65.42
	l-82.188,2.047c1.332,3.649,8.606,15.189,7.694,18.789c-1.455,5.599-11.836,11.171-9.864,15.19
	c1.677,3.428,10.233,11.739,9.395,16.005c-2.835,14.572-7.989,51.242-6.189,67.564c3.304,29.985,19.899,82.164,10.406,108.896
	c-3.156,8.853-9.814,51.563-10.258,60.193C40.222,514.158,60.369,456.505,60.295,420.453z"/>
<polygon fill-rule="evenodd" clip-rule="evenodd" fill="#666666" points="252.709,258.764 -0.292,265.569 206.769,148.044 
	443.201,126.566 "/>
</svg>
