<?xml version="1.0" encoding="utf-8"?>
<!-- Generator: Adobe Illustrator 15.1.0, SVG Export Plug-In . SVG Version: 6.00 Build 0)  -->
<!DOCTYPE svg PUBLIC "-//W3C//DTD SVG 1.1//EN" "http://www.w3.org/Graphics/SVG/1.1/DTD/svg11.dtd">
<svg version="1.1" id="Layer_1" xmlns="http://www.w3.org/2000/svg" xmlns:xlink="http://www.w3.org/1999/xlink" x="0px" y="0px"
	 width="650px" height="596px" viewBox="0 0 650 596" enable-background="new 0 0 650 596" xml:space="preserve">
<linearGradient id="SVGID_1_" gradientUnits="userSpaceOnUse" x1="63.9785" y1="165.5742" x2="604" y2="165.5742">
	<stop  offset="0" style="stop-color:#23BAED"/>
	<stop  offset="1" style="stop-color:#3CC6EE"/>
</linearGradient>
<path fill="url(#SVGID_1_)" d="M63.979,25c69.267,72.879,133.987,83.777,389.106,83.777c255.024,0,142.913,56.765-14.617,197.371
	c49.941-86.852,221.567-163.724-59.768-159.391C109.059,150.841,93.12,68.759,63.979,25z"/>
<linearGradient id="SVGID_2_" gradientUnits="userSpaceOnUse" x1="168.3989" y1="375.1812" x2="245.5171" y2="375.1812">
	<stop  offset="0" style="stop-color:#23BAED"/>
	<stop  offset="1" style="stop-color:#3CC6EE"/>
</linearGradient>
<path fill="url(#SVGID_2_)" d="M245.517,375.228c0,21.257-17.254,38.512-38.522,38.512c-21.348,0-38.596-17.255-38.596-38.512
	c0-21.344,17.248-38.606,38.596-38.606C228.263,336.622,245.517,353.884,245.517,375.228z"/>
<linearGradient id="SVGID_3_" gradientUnits="userSpaceOnUse" x1="344.0781" y1="375.1812" x2="421.1992" y2="375.1812">
	<stop  offset="0" style="stop-color:#23BAED"/>
	<stop  offset="1" style="stop-color:#3CC6EE"/>
</linearGradient>
<path fill="url(#SVGID_3_)" d="M421.199,375.228c0,21.257-17.255,38.512-38.52,38.512c-21.327,0-38.602-17.255-38.602-38.512
	c0-21.344,17.274-38.606,38.602-38.606C403.944,336.622,421.199,353.884,421.199,375.228z"/>
<g>
	<linearGradient id="SVGID_4_" gradientUnits="userSpaceOnUse" x1="31.4131" y1="518.9824" x2="107.0273" y2="518.9824">
		<stop  offset="0" style="stop-color:#23BAED"/>
		<stop  offset="1" style="stop-color:#3CC6EE"/>
	</linearGradient>
	<path fill-rule="evenodd" clip-rule="evenodd" fill="url(#SVGID_4_)" d="M84.555,518.916c0-5.16-1.237-9.518-3.71-13.039
		c-2.766-4.005-6.638-5.993-11.611-5.993c-4.972,0-8.844,1.988-11.612,5.993c-2.5,3.521-3.736,7.879-3.736,13.039
		c0,5.133,1.237,9.54,3.736,13.17c2.769,4.004,6.641,5.994,11.612,5.994c4.973,0,8.845-1.99,11.611-5.994
		C83.318,528.456,84.555,524.049,84.555,518.916z M107.027,518.916c0,11.396-3.388,20.993-10.188,28.763
		c-7.096,8.141-16.316,12.227-27.606,12.227c-11.316,0-20.508-4.086-27.604-12.227c-6.802-7.77-10.216-17.367-10.216-28.763
		c0-11.427,3.414-21.021,10.216-28.764c7.177-8.064,16.396-12.094,27.604-12.094c11.29,0,20.51,4.029,27.606,12.094
		C103.639,497.896,107.027,507.489,107.027,518.916z"/>
	<linearGradient id="SVGID_5_" gradientUnits="userSpaceOnUse" x1="112.6709" y1="533.9824" x2="188.2852" y2="533.9824">
		<stop  offset="0" style="stop-color:#23BAED"/>
		<stop  offset="1" style="stop-color:#3CC6EE"/>
	</linearGradient>
	<path fill-rule="evenodd" clip-rule="evenodd" fill="url(#SVGID_5_)" d="M165.813,518.916c0-5.16-1.262-9.518-3.735-13.039
		c-2.771-4.005-6.64-5.993-11.612-5.993c-4.973,0-8.844,1.988-11.613,5.993c-2.473,3.521-3.708,7.879-3.708,13.039
		c0,5.133,1.235,9.54,3.708,13.17c2.77,4.004,6.64,5.994,11.613,5.994c4.972,0,8.842-1.99,11.612-5.994
		C164.551,528.456,165.813,524.049,165.813,518.916z M188.285,518.916c0,10.644-3.064,19.943-9.222,27.9
		c-6.584,8.709-15.077,13.089-25.401,13.089c-7.285,0-13.465-2.12-18.519-6.315c0,0.967,0.107,3.306,0.323,7.045
		c0.213,3.76,0.321,6.824,0.321,9.244c0,13.363-3.978,20.026-11.934,20.026c-3.252,0-5.913-1.156-8.037-3.442
		c-2.096-2.309-3.146-5.082-3.146-8.357v-86.903c0-3.172,1.076-5.915,3.226-8.226c2.15-2.285,4.812-3.438,7.983-3.438
		c4.784,0,8.278,2.388,10.483,7.148c4.704-5.751,11.128-8.628,19.272-8.628c10.35,0,18.815,4.298,25.427,12.93
		C185.194,498.972,188.285,508.271,188.285,518.916z"/>
	<linearGradient id="SVGID_6_" gradientUnits="userSpaceOnUse" x1="194.4414" y1="518.9824" x2="270.0537" y2="518.9824">
		<stop  offset="0" style="stop-color:#23BAED"/>
		<stop  offset="1" style="stop-color:#3CC6EE"/>
	</linearGradient>
	<path fill-rule="evenodd" clip-rule="evenodd" fill="url(#SVGID_6_)" d="M247.583,510.853c-0.11-3.442-1.695-6.562-4.759-9.383
		c-3.064-2.822-6.316-4.219-9.758-4.219c-3.548,0-6.854,1.396-9.919,4.219c-3.063,2.821-4.597,5.94-4.597,9.383H247.583z
		 M270.054,516.499c0,3.761-0.889,6.341-2.663,7.795c-1.772,1.423-4.541,2.147-8.277,2.147H218.55c0,4.301,2.017,7.607,6.048,9.916
		c3.252,1.805,7.231,2.719,11.934,2.719c3.658,0,8.039-1.212,13.173-3.603c5.133-2.419,8.438-3.605,9.864-3.605
		c2.606,0,4.812,0.942,6.639,2.878c1.801,1.909,2.716,4.221,2.716,6.884c0,6.151-4.597,10.941-13.792,14.381
		c-7.014,2.579-14.137,3.895-21.42,3.895c-11.72,0-21.182-3.895-28.412-11.662c-7.231-7.77-10.859-17.527-10.859-29.327
		c0-11.239,3.763-20.833,11.288-28.84c7.499-8.014,16.828-12.018,27.954-12.018c10.35,0,19.006,3.789,25.941,11.369
		C266.559,497.01,270.054,506.039,270.054,516.499z"/>
	<linearGradient id="SVGID_7_" gradientUnits="userSpaceOnUse" x1="276.0205" y1="518.2441" x2="345.5596" y2="518.2441">
		<stop  offset="0" style="stop-color:#23BAED"/>
		<stop  offset="1" style="stop-color:#3CC6EE"/>
	</linearGradient>
	<path fill-rule="evenodd" clip-rule="evenodd" fill="url(#SVGID_7_)" d="M345.56,546.625c0,3.283-1.05,6.049-3.145,8.362
		c-2.125,2.285-4.787,3.441-8.038,3.441c-7.849,0-11.774-6.236-11.774-18.681c0-2.393,0.162-6.155,0.484-11.342
		c0.35-5.162,0.512-8.953,0.512-11.344c0-13.201-4.274-19.812-12.795-19.812c-8.521,0-12.768,6.61-12.768,19.812
		c0,2.391,0.133,6.182,0.375,11.344c0.269,5.187,0.404,8.949,0.404,11.342c0,12.444-3.872,18.681-11.613,18.681
		c-3.253,0-5.912-1.156-8.009-3.441c-2.124-2.313-3.173-5.079-3.173-8.362V491.18c0-3.259,1.049-6.022,3.173-8.255
		c2.097-2.26,4.784-3.387,8.035-3.387c5.378,0,9.112,2.388,11.209,7.148c3.63-5.751,10.052-8.628,19.246-8.628
		c8.521,0,15.295,2.255,20.268,6.744c5.079,4.814,7.608,11.426,7.608,19.839V546.625z"/>
</g>
<g>
	<linearGradient id="SVGID_8_" gradientUnits="userSpaceOnUse" x1="351.6338" y1="518.9824" x2="416.0615" y2="518.9824">
		<stop  offset="0" style="stop-color:#23BAED"/>
		<stop  offset="1" style="stop-color:#3CC6EE"/>
	</linearGradient>
	<path fill-rule="evenodd" clip-rule="evenodd" fill="url(#SVGID_8_)" d="M416.062,544.236c0,5.08-3.299,9.11-9.916,12.071
		c-5.266,2.388-10.831,3.598-16.692,3.598c-11.318,0-20.508-4.086-27.606-12.227c-6.798-7.77-10.213-17.367-10.213-28.763
		c0-11.427,3.468-21.073,10.429-28.977c6.963-7.927,16.072-11.881,27.391-11.881c6.534,0,12.151,0.966,16.829,2.877
		c6.527,2.58,9.779,6.609,9.779,12.094c0,2.769-0.856,5.214-2.579,7.34c-1.72,2.096-3.925,3.171-6.612,3.171
		c-1.83,0-4.463-0.618-7.902-1.825c-3.438-1.239-6.181-1.831-8.195-1.831c-5.35,0-9.516,1.909-12.501,5.725
		c-2.77,3.442-4.167,7.85-4.167,13.308c0,5.133,1.236,9.49,3.74,13.01c2.763,4.113,6.663,6.154,11.636,6.154
		c2.206,0,5.213-0.646,9.057-1.963c3.847-1.288,6.616-1.959,8.333-1.959c2.504,0,4.65,1.073,6.48,3.171
		C415.151,539.451,416.062,541.732,416.062,544.236z"/>
	<linearGradient id="SVGID_9_" gradientUnits="userSpaceOnUse" x1="422.1416" y1="518.9824" x2="497.752" y2="518.9824">
		<stop  offset="0" style="stop-color:#23BAED"/>
		<stop  offset="1" style="stop-color:#3CC6EE"/>
	</linearGradient>
	<path fill-rule="evenodd" clip-rule="evenodd" fill="url(#SVGID_9_)" d="M475.281,518.916c0-5.16-1.237-9.518-3.709-13.039
		c-2.877-4.005-6.749-5.993-11.611-5.993c-4.976,0-8.844,1.988-11.615,5.993c-2.497,3.521-3.733,7.879-3.733,13.039
		c0,5.133,1.209,9.54,3.598,13.17c2.854,4.004,6.775,5.994,11.751,5.994c4.971,0,8.84-1.99,11.611-5.994
		C474.044,528.456,475.281,524.049,475.281,518.916z M497.752,546.625c0,3.283-1.046,6.049-3.145,8.362
		c-2.123,2.285-4.811,3.441-8.067,3.441c-4.893,0-8.382-2.392-10.479-7.151c-4.703,5.755-11.129,8.628-19.272,8.628
		c-10.428,0-18.975-4.38-25.592-13.089c-6.022-7.957-9.055-17.257-9.055-27.9c0-10.645,3.032-19.944,9.055-27.928
		c6.724-8.632,15.242-12.93,25.592-12.93c8.144,0,14.569,2.877,19.272,8.628c2.098-4.761,5.587-7.148,10.479-7.148
		c3.175,0,5.838,1.153,7.989,3.438c2.146,2.311,3.223,5.027,3.223,8.203V546.625z"/>
	<linearGradient id="SVGID_10_" gradientUnits="userSpaceOnUse" x1="508.6279" y1="518.2441" x2="558.0869" y2="518.2441">
		<stop  offset="0" style="stop-color:#23BAED"/>
		<stop  offset="1" style="stop-color:#3CC6EE"/>
	</linearGradient>
	<path fill-rule="evenodd" clip-rule="evenodd" fill="url(#SVGID_10_)" d="M558.087,489.695c0,4.811-2.337,8.117-7.015,9.918
		c-4.328,1.454-8.63,2.935-12.931,4.462c-4.708,2.689-7.044,7.688-7.044,14.946v27.604c0,3.283-1.076,6.049-3.168,8.362
		c-2.128,2.285-4.815,3.441-8.066,3.441c-3.276,0-5.969-1.156-8.062-3.441c-2.128-2.313-3.174-5.079-3.174-8.362V491.18
		c0-3.259,1.046-6.022,3.145-8.255c2.122-2.26,4.814-3.387,8.067-3.387c5.374,0,9.107,2.388,11.206,7.148
		c4.813-5.751,9.973-8.628,15.539-8.628c3.168,0,5.884,1.152,8.144,3.438C556.958,483.81,558.087,486.55,558.087,489.695z"/>
	<linearGradient id="SVGID_11_" gradientUnits="userSpaceOnUse" x1="563.9258" y1="506.1074" x2="618.7119" y2="506.1074">
		<stop  offset="0" style="stop-color:#23BAED"/>
		<stop  offset="1" style="stop-color:#3CC6EE"/>
	</linearGradient>
	<path fill-rule="evenodd" clip-rule="evenodd" fill="url(#SVGID_11_)" d="M618.712,490.717c0,5-1.962,8.146-5.856,9.492
		c-1.913,0.67-5.92,1.02-12.019,1.02v45.396c0,3.283-1.077,6.049-3.169,8.362c-2.128,2.285-4.815,3.441-8.066,3.441
		c-3.169,0-5.861-1.156-8.014-3.441c-2.146-2.313-3.222-5.079-3.222-8.362v-45.396c-4.625,0-7.984-0.592-10.104-1.747
		c-2.901-1.612-4.336-4.544-4.336-8.765c0-4.218,1.48-7.094,4.466-8.629c2.016-1.129,5.35-1.717,9.975-1.717v-4.518v-5.106
		c0-11.315,3.732-16.96,11.235-16.96c7.473,0,11.235,5.645,11.235,16.96v5.106v4.518c6.099,0,10.105,0.349,12.019,1.02
		C616.75,482.734,618.712,485.855,618.712,490.717z"/>
</g>
</svg>
