<?xml version="1.0" encoding="utf-8"?>
<!-- Generator: Adobe Illustrator 23.0.6, SVG Export Plug-In . SVG Version: 6.00 Build 0)  -->
<svg version="1.1" id="Layer_1" xmlns="http://www.w3.org/2000/svg" xmlns:xlink="http://www.w3.org/1999/xlink" x="0px" y="0px"
	 viewBox="0 0 123 107" style="enable-background:new 0 0 123 107;" xml:space="preserve">
<style type="text/css">
	.st0{fill:#FFB715;}
	.st1{fill:#D63838;}
	.st2{opacity:0.2;enable-background:new    ;}
	.st3{opacity:0.15;fill:#FFFFFF;enable-background:new    ;}
	.st4{fill:#724330;}
	.st5{fill:#688E00;}
	.st6{fill:#7FA005;}
	.st7{fill:#9FBA00;}
	.st8{opacity:6.000000e-02;enable-background:new    ;}
	.st9{opacity:0.13;enable-background:new    ;}
	.st10{fill:#FFFFFF;}
	.st11{fill:#6DBEC5;}
</style>
<title>Asset 3</title>
<g>
	<g id="Ñëîé_1">
		<g id="_1">
			<path class="st0" d="M51.2,15.9c-2.2-1.2-5.9-0.1-9.3,2.2c-5.3,3.5-9.9,11.1-8,14.8c-0.6-1.3-1.3-2.5-2.1-3.7
				c-2.3-3.5-7.2-5.8-10.5-5.2c-2,0.3-3.8,1.4-5.1,2.9c-1.4,1.8-2,4.1-1.5,6.3c0.8,4.9,6.7,11.5,17.6,17.6c0.6,0.3,1.3,0.5,2,0.4
				c1.3-0.3,2.2-1.4,2.5-2.7c0.8,1.2,2.1,1.8,3.5,1.7l0,0c0.7-0.1,1.3-0.5,1.7-1c8.5-9.4,13.1-22.7,12.4-27.5
				C53.9,18.5,52.7,16.7,51.2,15.9z M34.1,47c0,0.4-0.1,0.8-0.1,1.2c-3.8-1.4-9.3-4.9-11.8-8.3s-2.5-7.8,0.9-9.3
				C31.4,26.8,34.4,40.7,34.1,47z M48.9,33.3c-2.2,5.6-7.1,11.5-9.2,13.8l0,0c-0.7-0.4-1.2-0.9-1.5-1.6c-0.8-1.5-1.3-3-1.5-4.7
				c-0.4-2.2-0.4-4.4,0-6.6C38.1,25.1,54.8,18.8,48.9,33.3L48.9,33.3z"/>
			
				<rect x="13.4" y="60.1" transform="matrix(0.9864 -0.1644 0.1644 0.9864 -12.8104 7.9501)" class="st1" width="56.5" height="42.5"/>
			<polygon class="st1" points="0.3,54.4 2.3,66.4 42.1,59.8 73.9,54.4 72,42.5 			"/>
			
				<rect x="35.2" y="48.1" transform="matrix(0.9864 -0.1644 0.1644 0.9864 -11.8441 7.7057)" class="st0" width="10.9" height="54.6"/>
			<path class="st0" d="M41.8,47.6l-11.3,1.9c-0.3-1.8,2-3.7,5.1-4.2S41.4,45.7,41.8,47.6z"/>
			<rect x="10.5" y="60.4" transform="matrix(0.9864 -0.1644 0.1644 0.9864 -9.715 7.1673)" class="st2" width="56" height="3.8"/>
			
				<rect x="1.7" y="58.9" transform="matrix(0.9864 -0.1644 0.1644 0.9864 -9.2879 7.0593)" class="st3" width="72.6" height="1.6"/>
		</g>
		<g id="_2">
			<rect x="82.8" y="91.3" class="st4" width="10.7" height="9.7"/>
			<polygon class="st5" points="122.7,93.4 53.6,93.4 64.9,74.4 66.4,71.9 68.8,67.8 107.5,67.8 109.9,71.9 111.4,74.4 			"/>
			<polygon class="st6" points="116.3,71.9 60,71.9 70.4,54 71.9,51.4 74.8,46.3 101.5,46.3 104.4,51.4 105.9,54 			"/>
			<polygon class="st7" points="110.3,51.4 66,51.4 80.8,25.8 88.2,13 95.5,25.8 			"/>
			<polygon class="st2" points="111.4,74.4 64.9,74.4 66.4,71.9 109.9,71.9 			"/>
			<polygon class="st2" points="105.9,54 70.4,54 71.9,51.4 104.4,51.4 			"/>
			<polygon class="st0" points="91.2,8.4 92,13.1 88.2,10.9 84.3,13.1 85.1,8.4 82,5 86.2,4.3 88.2,0 90.1,4.3 94.3,5 			"/>
			<polygon class="st8" points="92,13.1 88.2,10.9 88.2,0 90.1,4.3 94.3,5 91.2,8.4 			"/>
			<polygon class="st9" points="122.7,93.4 93.5,93.4 93.5,101 88.2,101 88.2,13 95.5,25.8 110.3,51.4 104.4,51.4 105.9,54 
				116.3,71.9 109.9,71.9 111.4,74.4 			"/>
			<path class="st10" d="M63.5,88.1c0,1-0.8,1.8-1.8,1.8s-1.8-0.8-1.8-1.8c0-1,0.8-1.8,1.8-1.8c0,0,0,0,0,0
				C62.7,86.3,63.5,87.1,63.5,88.1z"/>
			<path class="st10" d="M71.3,86.3c0,1-0.8,1.8-1.8,1.8c-1,0-1.8-0.8-1.8-1.8c0-1,0.8-1.8,1.8-1.8c0,0,0,0,0,0
				C70.5,84.5,71.3,85.3,71.3,86.3z"/>
			<path class="st10" d="M79,84.5c0,1-0.8,1.8-1.8,1.8c-1,0-1.8-0.8-1.8-1.8c0-1,0.8-1.8,1.8-1.8C78.2,82.7,79,83.5,79,84.5
				C79,84.5,79,84.5,79,84.5z"/>
			<path class="st10" d="M86.8,82.7c0,1-0.8,1.8-1.8,1.8c-1,0-1.8-0.8-1.8-1.8c0-1,0.8-1.8,1.8-1.8c0,0,0,0,0.1,0
				C86.1,81,86.8,81.7,86.8,82.7z"/>
			<path class="st10" d="M94.6,80.9c0,1-0.8,1.8-1.8,1.8s-1.8-0.8-1.8-1.8c0-1,0.8-1.8,1.8-1.8S94.6,79.9,94.6,80.9L94.6,80.9z"/>
			<path class="st10" d="M102.4,79.2c0,1-0.8,1.8-1.8,1.8c-1,0-1.8-0.8-1.8-1.8c0-1,0.8-1.8,1.8-1.8
				C101.6,77.3,102.4,78.1,102.4,79.2C102.4,79.1,102.4,79.1,102.4,79.2z"/>
			<path class="st10" d="M110.2,77.4c0,1-0.8,1.8-1.8,1.8c-1,0-1.8-0.8-1.8-1.8c0-1,0.8-1.8,1.8-1.8
				C109.4,75.6,110.2,76.4,110.2,77.4C110.2,77.4,110.2,77.4,110.2,77.4z"/>
			<path class="st10" d="M71.3,63.4c0,1-0.8,1.8-1.8,1.8c-1,0-1.8-0.8-1.8-1.8c0-1,0.8-1.8,1.8-1.8c0,0,0,0,0,0
				C70.5,61.6,71.3,62.4,71.3,63.4z"/>
			<path class="st10" d="M79,61.6c0,1-0.8,1.8-1.8,1.8s-1.8-0.8-1.8-1.8c0-1,0.8-1.8,1.8-1.8S79,60.6,79,61.6L79,61.6z"/>
			<path class="st10" d="M86.8,59.8c0,1-0.8,1.8-1.8,1.8c-1,0-1.8-0.8-1.8-1.8c0-1,0.8-1.8,1.8-1.8c0,0,0,0,0.1,0
				C86.1,58.1,86.8,58.9,86.8,59.8z"/>
			<path class="st10" d="M94.6,58c0,1-0.8,1.8-1.8,1.8c-1,0-1.8-0.8-1.8-1.8s0.8-1.8,1.8-1.8l0,0C93.8,56.3,94.6,57.1,94.6,58z"/>
			<path class="st10" d="M102.4,56.3c0,1-0.8,1.8-1.8,1.8c-1,0-1.8-0.8-1.8-1.8c0-1,0.8-1.8,1.8-1.8
				C101.6,54.5,102.4,55.2,102.4,56.3C102.4,56.2,102.4,56.3,102.4,56.3z"/>
			<path class="st10" d="M79,38.8c0,1-0.8,1.8-1.8,1.8s-1.8-0.8-1.8-1.8s0.8-1.8,1.8-1.8S79,37.8,79,38.8L79,38.8z"/>
			<path class="st10" d="M86.8,36.9c0,1-0.8,1.8-1.8,1.8c-1,0-1.8-0.8-1.8-1.8c0-1,0.8-1.8,1.8-1.8c0,0,0,0,0.1,0
				C86.1,35.2,86.8,36,86.8,36.9z"/>
			<path class="st10" d="M94.6,35.2c0,1-0.8,1.8-1.8,1.8c-1,0-1.8-0.8-1.8-1.8c0-1,0.8-1.8,1.8-1.8C93.8,33.4,94.6,34.2,94.6,35.2
				C94.6,35.2,94.6,35.2,94.6,35.2z"/>
			<path class="st1" d="M73.9,79.2c0,2-1.6,3.5-3.5,3.6c-2,0-3.5-1.6-3.6-3.5c0-2,1.6-3.5,3.5-3.6c0,0,0,0,0,0
				C72.4,75.6,73.9,77.2,73.9,79.2z"/>
			<path class="st11" d="M90.4,44.6c0,2-1.6,3.5-3.6,3.5s-3.5-1.6-3.5-3.6c0-1.9,1.6-3.5,3.5-3.5C88.8,41,90.4,42.6,90.4,44.6
				C90.4,44.6,90.4,44.6,90.4,44.6z"/>
			<path class="st0" d="M96.4,64.9c0,2-1.6,3.5-3.6,3.5c-2,0-3.5-1.6-3.5-3.6c0-1.9,1.6-3.5,3.5-3.5C94.8,61.3,96.4,62.9,96.4,64.9
				C96.4,64.9,96.4,64.9,96.4,64.9z"/>
		</g>
	</g>
</g>
</svg>
