<?xml version="1.0" encoding="utf-8"?>
<!-- Generator: Adobe Illustrator 23.0.6, SVG Export Plug-In . SVG Version: 6.00 Build 0)  -->
<svg version="1.1" id="Layer_1" xmlns="http://www.w3.org/2000/svg" xmlns:xlink="http://www.w3.org/1999/xlink" x="0px" y="0px"
	 viewBox="0 0 204 145" style="enable-background:new 0 0 204 145;" xml:space="preserve">
<style type="text/css">
	.st0{fill:#7FA005;}
	.st1{opacity:0.2;fill:#FFFFFF;enable-background:new    ;}
	.st2{opacity:0.1;enable-background:new    ;}
	.st3{fill:#9FBA00;}
	.st4{fill:#D63838;}
	.st5{fill:#724330;}
	.st6{fill:#F4E6B8;}
	.st7{fill:#FFB715;}
	.st8{fill:#FF9803;}
	.st9{opacity:0.15;enable-background:new    ;}
</style>
<title>Asset 6</title>
<g>
	<g id="Ñëîé_1">
		<g id="_18">
			<path class="st0" d="M108.2,94.8l-2.6,7.2l-23.8,18.5c0,0-2.4-10.1-8.8-12.5s-15.8,3.4-15.8,3.4S58,96,46.9,92
				c-4.8-1.8-10.1-1.8-14.9,0c0,0,5.5-17.8-13.2-25.8c-0.6-0.2-1.1-0.4-1.7-0.6C37.8,73.1,45.6,55,45.6,55c2.5,4.5,6.5,7.9,11.4,9.7
				c11.1,4.1,20.3-8.4,20.3-8.4s3.5,10.5,9.9,12.9c0.8,0.3,1.7,0.5,2.5,0.5c5.8,0.3,12.2-4.3,12.2-4.3l5.7,26.9L108.2,94.8z"/>
			<path class="st0" d="M204,134.1c-0.6-0.2-1.2-0.4-1.7-0.6c-19.4-6-26.8,11.2-26.8,11.2c-2.5-4.5-6.5-7.9-11.4-9.6
				c-11.1-4.1-20.3,8.4-20.3,8.4s-3.5-10.5-9.9-12.9c-6.4-2.3-14.7,3.8-14.7,3.8l-6.2-29.6l2.6-7.2l3.8-3L139.5,79
				c0,0,1.5,6.4,5.3,10.2c1,1,2.1,1.8,3.4,2.3c6.4,2.3,15.8-3.4,15.8-3.4s-1,15.5,10.1,19.5c4.8,1.8,10.1,1.8,14.9,0
				C189.1,107.6,183.2,126.4,204,134.1z"/>
			<path class="st1" d="M131.1,107.4c4.5,1.3,9,2.8,13.5,4.3c4.5,1.5,8.9,3.1,13.3,4.7c4.4,1.6,8.8,3.3,13.2,5s8.7,3.5,13.1,5.4
				c-4.5-1.4-9-2.8-13.5-4.3c-4.5-1.5-8.9-3.1-13.3-4.7s-8.8-3.2-13.2-5C139.8,111,135.4,109.2,131.1,107.4z"/>
			<path class="st1" d="M141.1,114.9c1.2,1.3,2.2,2.8,3,4.4c0.8,1.6,1.4,3.3,1.8,5c0.4,1.8,0.5,3.6,0.4,5.3
				c-0.1,1.8-0.6,3.5-1.4,5.1c0.2-1.7,0.3-3.4,0.2-5.2c-0.1-1.7-0.3-3.4-0.7-5.1c-0.4-1.7-0.8-3.3-1.4-4.9
				C142.5,118.1,141.8,116.5,141.1,114.9z"/>
			<path class="st1" d="M143.1,109.5c1.6-0.8,3.1-1.6,4.6-2.4c1.5-0.8,2.9-1.8,4.2-2.8c1.3-1,2.6-2.2,3.8-3.4
				c1.2-1.3,2.3-2.6,3.2-4.1c-0.4,1.7-1.2,3.4-2.3,4.8c-1.1,1.5-2.3,2.8-3.8,3.8c-1.4,1.1-3,2-4.6,2.7
				C146.6,108.8,144.9,109.3,143.1,109.5z"/>
			<path class="st1" d="M126.4,110.6c0.5,1.7,0.8,3.5,0.8,5.2c0,1.8-0.2,3.6-0.6,5.3c-0.4,1.7-1.1,3.4-2,5c-0.9,1.6-2.1,2.9-3.5,4
				c0.9-1.4,1.8-2.9,2.5-4.5c0.7-1.6,1.2-3.2,1.6-4.8c0.4-1.6,0.7-3.3,0.9-5C126.2,114.1,126.3,112.4,126.4,110.6z"/>
			<path class="st1" d="M129.1,103.2c1.1-1.4,2.1-2.8,3.1-4.2c0.9-1.4,1.8-2.9,2.6-4.4c0.8-1.5,1.4-3.1,1.9-4.7
				c0.5-1.7,0.8-3.3,1-5.1c0.4,1.8,0.4,3.6,0.1,5.4c-0.3,1.8-0.9,3.5-1.7,5.1c-0.8,1.6-1.8,3.1-3,4.4
				C132,101.1,130.6,102.2,129.1,103.2z"/>
			<path class="st1" d="M166.5,126c1.3,0.5,2.5,1.2,3.5,2.1c1.1,0.9,2,2,2.7,3.1c1.6,2.3,2.3,5.1,2.1,7.9c-0.4-1.3-0.9-2.5-1.5-3.7
				c-0.5-1.2-1.2-2.3-1.9-3.4C170.1,129.9,168.4,127.9,166.5,126z"/>
			<path class="st1" d="M169.6,117.4c2.6-0.2,5.2-0.6,7.8-1.3c1.3-0.4,2.5-0.8,3.7-1.4c1.2-0.6,2.4-1.2,3.5-1.9
				c-1.7,2.3-4,3.9-6.7,4.7c-1.3,0.4-2.7,0.6-4.1,0.6C172.4,118.1,171,117.9,169.6,117.4z"/>
			<path class="st1" d="M90,92.3c-4.5-1.4-9-2.8-13.5-4.3c-4.5-1.5-8.9-3.1-13.3-4.7c-4.4-1.6-8.8-3.2-13.2-5
				c-4.4-1.8-8.7-3.5-13.1-5.4c4.5,1.3,9,2.8,13.5,4.3c4.5,1.5,8.9,3.1,13.3,4.7s8.8,3.3,13.2,5S85.6,90.4,90,92.3z"/>
			<path class="st1" d="M77.5,91.5c-1.6,0.7-3.1,1.5-4.6,2.4c-1.5,0.8-2.9,1.8-4.2,2.8c-1.3,1-2.6,2.2-3.8,3.4
				c-1.2,1.3-2.2,2.6-3.2,4.1c0.4-1.7,1.2-3.4,2.3-4.8c1.1-1.5,2.3-2.7,3.8-3.8c1.4-1.1,3-2,4.6-2.7C74,92.2,75.7,91.7,77.5,91.5z"
				/>
			<path class="st1" d="M79.5,86.1c-1.2-1.3-2.2-2.8-3-4.4c-0.8-1.6-1.4-3.3-1.8-5c-0.4-1.8-0.5-3.6-0.4-5.4
				c0.1-1.8,0.6-3.5,1.4-5.1c-0.2,1.7-0.3,3.4-0.2,5.2c0.1,1.7,0.3,3.4,0.7,5c0.4,1.7,0.8,3.3,1.4,4.9
				C78.1,82.9,78.7,84.5,79.5,86.1z"/>
			<path class="st1" d="M91.4,97.8c-1.1,1.4-2.1,2.8-3.1,4.2c-0.9,1.4-1.8,2.9-2.6,4.4c-0.8,1.5-1.4,3.1-1.9,4.7
				c-0.5,1.7-0.8,3.3-1,5.1c-0.4-1.8-0.4-3.6-0.1-5.4c0.3-1.8,0.9-3.5,1.7-5.1c0.8-1.6,1.8-3.1,3-4.4C88.6,99.9,90,98.7,91.4,97.8z"
				/>
			<path class="st1" d="M94.2,90.4c-0.5-1.7-0.8-3.5-0.8-5.2c0-1.8,0.2-3.6,0.6-5.3c0.4-1.7,1.1-3.4,2-5c0.9-1.6,2.1-2.9,3.5-4
				c-0.9,1.4-1.8,2.9-2.5,4.5c-0.7,1.6-1.2,3.2-1.6,4.8c-0.4,1.6-0.7,3.3-0.9,5C94.4,86.9,94.2,88.6,94.2,90.4z"/>
			<path class="st1" d="M50.9,83.6c-2.6,0.2-5.2,0.6-7.8,1.3c-1.2,0.4-2.5,0.8-3.6,1.4c-1.2,0.6-2.4,1.2-3.5,1.9
				c1.7-2.3,4-3.9,6.7-4.7c1.3-0.4,2.7-0.6,4.1-0.6C48.3,82.9,49.6,83.1,50.9,83.6z"/>
			<path class="st1" d="M54.1,75c-1.3-0.5-2.5-1.2-3.5-2.1c-1.1-0.9-2-2-2.8-3.1c-1.6-2.3-2.3-5.1-2.1-7.9c0.4,1.3,0.9,2.5,1.5,3.7
				c0.5,1.2,1.2,2.3,1.9,3.4C50.5,71.1,52.2,73.1,54.1,75z"/>
			<path class="st2" d="M101.9,65.2l5.7,26.9l-0.6-0.2L89.7,69.6C95.6,69.9,101.9,65.2,101.9,65.2z"/>
			<path class="st2" d="M144.8,89.2l-25.4,5.4L139.5,79C139.5,79,141,85.4,144.8,89.2z"/>
			<path class="st2" d="M108.2,94.8l-1.3,3.6L18.9,66.2c-0.6-0.2-1.1-0.4-1.7-0.6C37.9,73.1,45.7,55,45.7,55
				c2.5,4.5,6.5,7.9,11.4,9.7c11.1,4.1,20.3-8.4,20.3-8.4s3.5,10.5,9.9,12.9c0.8,0.3,1.7,0.5,2.5,0.5c5.8,0.3,12.2-4.3,12.2-4.3
				l5.7,26.9L108.2,94.8z"/>
			<path class="st2" d="M204,134.1c-0.6-0.2-1.2-0.4-1.7-0.6L116.7,102l2.8-7.5l20.1-15.6c0,0,1.5,6.4,5.3,10.2c1,1,2.1,1.8,3.4,2.3
				c6.4,2.3,15.8-3.4,15.8-3.4s-1,15.5,10.1,19.5c4.8,1.8,10.1,1.8,14.9,0C189.1,107.5,183.2,126.4,204,134.1z"/>
			<path class="st3" d="M146,85.2l-29.6,6.2l-7.2-2.6L90.7,64.9c0,0,10.2-2.4,12.5-8.7c2.3-6.4-3.5-15.9-3.5-15.9s15.5,1,19.6-10.1
				c1.8-4.8,1.8-10.1,0-14.9c0,0,18.9,5.9,26.5-14.9c-7.6,20.7,10.6,28.5,10.6,28.5c-4.5,2.5-8,6.5-9.7,11.4
				c-4.1,11,8.4,20.3,8.4,20.3s-10.5,3.5-12.9,9.9C139.9,76.8,146,85.2,146,85.2z"/>
			<path class="st1" d="M119,73.5c1.4-4.5,2.8-9,4.3-13.5c1.5-4.5,3.1-8.9,4.7-13.3s3.2-8.8,5-13.2s3.5-8.7,5.4-13.1
				c-1.3,4.5-2.8,9-4.3,13.5c-1.5,4.5-3.1,8.9-4.7,13.3s-3.2,8.8-5,13.2S120.9,69.2,119,73.5z"/>
			<path class="st1" d="M126.6,63.3c1.3-1.2,2.8-2.2,4.4-3c1.6-0.8,3.3-1.4,5-1.8c1.8-0.4,3.6-0.5,5.3-0.4c1.8,0.1,3.5,0.6,5.1,1.4
				c-1.7-0.2-3.4-0.3-5.2-0.2c-1.7,0.1-3.4,0.3-5,0.7c-1.7,0.4-3.3,0.8-4.9,1.4C129.8,61.9,128.3,62.6,126.6,63.3z"/>
			<path class="st1" d="M121.2,61.3c-0.8-1.6-1.6-3.1-2.4-4.6c-0.8-1.5-1.8-2.9-2.8-4.2c-1-1.3-2.2-2.6-3.4-3.8
				c-1.3-1.2-2.6-2.2-4.1-3.2c1.7,0.4,3.4,1.2,4.8,2.3c1.5,1.1,2.8,2.3,3.8,3.8c1.1,1.4,2,3,2.7,4.6C120.5,57.8,121,59.5,121.2,61.3
				z"/>
			<path class="st1" d="M122.4,78c1.7-0.5,3.5-0.8,5.2-0.8c1.8,0,3.6,0.2,5.3,0.6c1.7,0.4,3.4,1.1,5,2c1.6,0.9,2.9,2.1,4,3.5
				c-1.4-1-3-1.8-4.5-2.5c-1.6-0.7-3.2-1.2-4.8-1.6c-1.6-0.4-3.3-0.7-5-0.9C125.9,78.2,124.1,78.1,122.4,78z"/>
			<path class="st1" d="M114.9,75.3c-1.4-1.1-2.8-2.1-4.2-3.1c-1.4-0.9-2.9-1.8-4.4-2.6c-1.5-0.8-3.1-1.4-4.7-1.9
				c-1.7-0.5-3.3-0.8-5.1-1c1.8-0.4,3.6-0.4,5.4-0.1c1.8,0.3,3.5,0.9,5.1,1.7c1.6,0.8,3.1,1.8,4.4,3C112.8,72.5,114,73.8,114.9,75.3
				z"/>
			<path class="st1" d="M137.8,38c0.5-1.3,1.2-2.5,2.1-3.5c0.9-1.1,2-2,3.1-2.8c2.3-1.6,5.1-2.3,7.9-2.1c-1.3,0.5-2.5,0.9-3.7,1.5
				c-1.2,0.5-2.3,1.2-3.4,1.9C141.6,34.4,139.6,36.1,137.8,38z"/>
			<path class="st1" d="M129.1,34.8c-0.2-2.6-0.6-5.2-1.3-7.8c-0.4-1.2-0.8-2.5-1.4-3.6c-0.6-1.2-1.2-2.3-1.9-3.5
				c2.3,1.7,3.9,4,4.7,6.7c0.4,1.3,0.6,2.7,0.6,4.1C129.8,32.1,129.6,33.5,129.1,34.8z"/>
			<path class="st2" d="M146,85.2l-29.6,6.2l-3.6-1.3l32.9-89.7c-7.6,20.7,10.6,28.5,10.6,28.5c-4.5,2.5-8,6.5-9.7,11.4
				c-4.1,11,8.4,20.3,8.4,20.3s-10.5,3.5-12.9,9.9C139.9,76.8,146,85.2,146,85.2z"/>
			<path class="st4" d="M127.4,91.8c-2.2,5.9-8.4,9.3-14.6,7.8c-0.5-0.1-0.9-0.2-1.3-0.4c-1.2-0.4-2.3-1-3.3-1.8
				c-3.9-3-5.6-7.9-4.6-12.6c0.1-0.5,0.3-1,0.4-1.5c2.4-6.4,9.5-9.7,15.9-7.4C126.5,78.3,129.8,85.4,127.4,91.8L127.4,91.8z"/>
			<path class="st2" d="M112.9,99.6c-0.5-0.1-0.9-0.3-1.4-0.4l-0.5-0.2c0.1-0.6,0.1-1.3,0-1.9c0-0.2,0-0.3,0-0.5
				c0-0.3-0.1-0.7-0.2-1l0,0c-0.8-4.1-3.6-7.4-7.4-9c0-0.6,0.1-1.2,0.3-1.9C109.8,87.1,113.5,93.2,112.9,99.6L112.9,99.6z"/>
			<path class="st4" d="M110.3,102.4c-1.1,3.1-3.4,5.6-6.4,7c-0.2,0.1-0.4,0.2-0.6,0.3l0,0c-6.4,2.5-13.6-0.5-16.1-6.9
				c-2.4-6.1,0.3-13,6.2-15.8l0.1,0c3-1.4,6.4-1.5,9.5-0.4l0.5,0.2c3.8,1.6,6.6,5,7.4,9c0.2,1.1,0.3,2.2,0.2,3.4
				C111,100.2,110.7,101.3,110.3,102.4z"/>
			<path class="st2" d="M109.9,98.4c-3.2,2.4-5,6.3-4.8,10.3c-0.4,0.2-0.8,0.4-1.2,0.6l0,0c-0.2,0.1-0.4,0.2-0.6,0.3
				c-0.1-0.6-0.1-1.1-0.1-1.7c0.1-4.1,1.9-7.9,5.1-10.5c0.3-0.3,0.6-0.5,1-0.7c0.2-0.1,0.4-0.3,0.5-0.4c0.3-0.2,0.7-0.4,1.1-0.7
				c0.1,0.6,0.2,1.3,0.2,2C110.7,97.9,110.2,98.2,109.9,98.4z"/>
			<path class="st2" d="M124.8,96c-0.2,0.2-0.3,0.3-0.5,0.5c-0.2,0.2-0.1,0.1-0.2,0.2c-0.2,0.2-0.5,0.4-0.7,0.6
				c-0.5-0.3-1.1-0.5-1.7-0.7c-2.9-1.1-6-1-8.9,0.1c0-0.3-0.1-0.6-0.1-0.9s-0.1-0.6-0.2-0.9l0.6-0.2C117,93.4,121.3,94,124.8,96
				L124.8,96z"/>
			<path class="st4" d="M129.1,112.5c-2.4,6.4-9.5,9.7-15.9,7.4c-4.7-1.7-7.9-6.1-8.1-11.2c-0.2-4.5,2.1-8.8,6-11.1
				c3.2-1.9,7.1-2.3,10.6-1c0.6,0.2,1.1,0.5,1.6,0.7C128.8,100.3,131.2,106.7,129.1,112.5z"/>
			<path class="st2" d="M129.1,112.5c-2.4,6.4-9.5,9.7-15.9,7.4c-3.1-1.1-5.6-3.4-7-6.4l22.5-10.4
				C130.1,106,130.2,109.4,129.1,112.5z"/>
			<path class="st2" d="M103.3,109.6L103.3,109.6c-6.4,2.5-13.6-0.5-16.1-6.9c-2.4-6.1,0.3-13,6.2-15.8l0.1,0l9.7,21
				C103.2,108.5,103.2,109,103.3,109.6z"/>
			<path class="st2" d="M127.4,91.8c-0.6,1.6-1.5,3-2.6,4.2c-3.5-2.1-7.7-2.6-11.6-1.4l6.9-18.8C126.5,78.3,129.8,85.4,127.4,91.8
				C127.4,91.8,127.4,91.8,127.4,91.8z"/>
		</g>
		<g id="_17">
			<rect x="21.7" y="45.9" class="st5" width="3.1" height="9.5"/>
			<path class="st6" d="M3.9,55.5h38.6c2.2,0,3.9,1.7,3.9,3.9v70.4c0,2.2-1.7,3.9-3.9,3.9H3.9c-2.2,0-3.9-1.7-3.9-3.9V59.4
				C0,57.2,1.8,55.5,3.9,55.5z"/>
			<polygon class="st4" points="46.4,77.7 46.4,86.2 23.2,98.9 0,111.6 0,103 23.2,90.3 39.8,81.3 			"/>
			<path class="st4" d="M46.4,102.9v8.6l-23.2,12.7l-17.6,9.6H3.9c-2.2,0-3.9-1.7-3.9-3.9v-1.6l23.2-12.7L46.4,102.9z"/>
			<path class="st4" d="M46.4,59.4V61l-13.8,7.5l-9.4,5.1L0,86.4v-8.6l14.6-8l7.1-3.9l0.2-0.1l1.3-0.7l1.5-0.8l16.1-8.8h1.7
				C44.7,55.5,46.4,57.2,46.4,59.4C46.4,59.4,46.4,59.4,46.4,59.4z"/>
			<path class="st7" d="M25,49.1h-0.2c-0.5,0-1,0-1.5,0s-1,0-1.5-0.1c-10.9-0.6-15-4.6-9.5-16.1c3.4-7.3,8-8.8,11-14.7
				c0.8-1.5,1.4-3.1,1.8-4.7C25,13.5,51.2,49.1,25,49.1z"/>
			<path class="st8" d="M24.1,47.2c-5.8,0.1-10.8-4.6-8.1-10.3s6.5-5.8,8.1-12.4C24.1,24.5,40.8,47,24.1,47.2z"/>
			<path class="st9" d="M46.4,59.4v70.4c0,2.2-1.7,3.9-3.9,3.9H23.2V18.2c0.8-1.5,1.4-3.1,1.8-4.7c0,0,26.2,35.6,0,35.6h-0.2v6.4
				h17.7C44.7,55.5,46.4,57.2,46.4,59.4z"/>
			<rect x="78.7" y="62.7" class="st5" width="2.5" height="8.3"/>
			<path class="st4" d="M64.3,70.4h31.3c1.7,0,3.2,1.4,3.2,3.2v57c0,1.7-1.4,3.2-3.2,3.2H64.3c-1.7,0-3.2-1.4-3.2-3.2v-57
				C61.1,71.8,62.5,70.4,64.3,70.4z"/>
			<polygon class="st6" points="98.7,88.3 98.7,95.3 79.9,105.5 79.8,105.6 61.1,115.8 61.1,108.9 79.8,98.7 			"/>
			<path class="st6" d="M98.7,108.8v6.9l-18.8,10.3l-0.2,0.1l-14.1,7.7h-1.4c-1.7,0-3.2-1.4-3.2-3.2v-1.3l18.6-10.2L98.7,108.8z"/>
			<path class="st6" d="M98.7,73.6v1.3L79.8,85.2L61.1,95.4v-6.9l17.6-9.6l0.2-0.1l0.9-0.5l0.2-0.1l1.2-0.7l13-7.1h1.4
				C97.3,70.4,98.7,71.8,98.7,73.6C98.7,73.5,98.7,73.5,98.7,73.6z"/>
			<path class="st7" d="M81.1,65.1h-1.4h-1.1h-0.2c-21.2,0,0-28.8,0-28.8c0.3,1.2,0.7,2.5,1.3,3.6c2.4,4.9,6.2,6.1,9,12.1
				C93.2,61.4,89.9,64.7,81.1,65.1z"/>
			<path class="st8" d="M79.2,63.7c4.7,0.1,8.7-3.7,6.6-8.4s-5.2-4.7-6.6-10C79.2,45.3,65.6,63.5,79.2,63.7z"/>
			<path class="st9" d="M98.7,73.6v57c0,1.7-1.4,3.2-3.2,3.2h0H79.8V40c2.4,4.9,6.2,6.1,9,12.1c4.4,9.3,1.1,12.6-7.7,13v5.3h14.4
				C97.3,70.4,98.7,71.8,98.7,73.6C98.7,73.5,98.7,73.5,98.7,73.6z"/>
		</g>
	</g>
</g>
</svg>
