<svg xmlns="http://www.w3.org/2000/svg" width="317.79" height="53.11" viewBox="0 0 317.79 53.11"><defs><style>.cls-1{fill:#b82b31;}</style></defs><title>Asset 1</title><g id="Layer_2" data-name="Layer 2"><g id="Layer_1-2" data-name="Layer 1"><path class="cls-1" d="M45.75,36.5a6.18,6.18,0,0,0-3.57-3.76c-.66-.61-2.79-4.43-5.67-4.29,0,0-1.88.29-3.84-4-2.93-6.43-5.52-12.49-13.08-12l-.19-.69a4.07,4.07,0,1,0-5.2,1.4l.13.48c-2.8,1.28-6.72,4.56-5.7,12.73,0,0,1.1,8.68,0,9.32,0,0-2.65,1.46-3.1,5.67,0,0-.09.82-.19,1.69a6,6,0,0,0-.94,4.68c1.41,5.23,11.82,7,23.24,3.86S47.17,41.73,45.75,36.5Zm-19,11.11c-8.18,2.22-15.45,1.67-16.23-1.23-.74-2.7,4.43-6.49,11.77-8.78l.47,1.79A4.31,4.31,0,0,0,20.94,44a4.46,4.46,0,0,0,5.56,2.95,4.46,4.46,0,0,0,3.38-5.31A4.32,4.32,0,0,0,26,38.53l-.48-1.82C33,35,39.41,35.65,40.15,38.35,40.93,41.25,34.94,45.4,26.75,47.61Z"/><path class="cls-1" d="M12.39,13.94a5.73,5.73,0,0,1-1.26-7.45C6.88,5.51-.36,4.36,0,8l1.58,8.11s.1,3.27,4.57,1.25A71,71,0,0,0,12.39,13.94Z"/><path class="cls-1" d="M21.6,8.24A5.62,5.62,0,0,1,21.18,12a69.1,69.1,0,0,0,7.11.46c4.91-.09,3.6-3.08,3.6-3.08l-2.05-8C28.61-2.15,22.55,2,19.13,4.7A5.67,5.67,0,0,1,21.6,8.24Z"/><path class="cls-1" d="M308.65,8.26a8.72,8.72,0,0,0-4.14,1.31c-9-12.5-18.8-9.17-18.8-9.17C269.18,6.1,261.51,22.16,258.29,32l-1.72-.1c-3.83-.19-6.24,4.73-5.59,11.22s-.34,10.39,8.82,9.9,11.38-3.28,25.13-1,19.66,1.91,19.51-6.38c-.11-6.7.48-12.25-7.9-13.41-5.41-13.37-4.77-18-4.77-18,.58-2.09,4.86.06,8.71,1.92a8.89,8.89,0,0,0,0,1.37,8.68,8.68,0,1,0,8.21-9.14Zm-9.5,28.58c1.25,1.18,1.34,3.53,1.38,7.26,0,.46,0,.93,0,1.41,0,1.6-.23,2.69-.75,3.21a5.52,5.52,0,0,1-3.41,1c-2.4.13-5.75-.2-11.2-1.08a53.24,53.24,0,0,0-11.46-.81,51,51,0,0,0-6.62.88,50.07,50.07,0,0,1-6.91.91c-3.61.19-4.35-.46-4.46-.6-.45-.53-.58-2.29-.7-4,0-.71-.1-1.44-.18-2.24-.36-3.63.47-6,1.3-7,.41-.48.7-.49.81-.5h.11l1,.06a253.22,253.22,0,0,0,27.42.4c1.17-.06,2.32-.14,3.4-.23.52,0,1-.08,1.5-.1C294.83,35.13,297.86,35.64,299.15,36.84Zm10.26-14.39a5.52,5.52,0,1,1,5.22-5.81A5.54,5.54,0,0,1,309.41,22.45Z"/><path class="cls-1" d="M96.48,52.26,89.73,40.7c-2.71-4.41-4.34-7.28-6-10.31h-.15c-1.48,3-3,5.82-5.66,10.39L71.67,52.26H63.92l16-26.44L64.54,0h7.83l6.9,12.25c1.93,3.41,3.41,6.05,4.8,8.84h.24C85.78,18,87.1,15.58,89,12.25L96.09,0h7.83L88,25.43l16.28,26.83Z"/><path class="cls-1" d="M111.91,24.89c0-4-.16-7.06-.31-10.16h6l.31,6.13h.23A13,13,0,0,1,130,14a11.05,11.05,0,0,1,10.54,7.52h.16a14.77,14.77,0,0,1,4.26-4.89A12.63,12.63,0,0,1,153.15,14c5,0,12.41,3.25,12.41,16.28v22h-6.67V31.09c0-7.29-2.71-11.55-8.14-11.55-4,0-6.9,2.87-8.14,6.12a11.66,11.66,0,0,0-.54,3.41V52.26H135.4V29.77c0-6-2.64-10.23-7.83-10.23-4.19,0-7.37,3.41-8.45,6.82a9.06,9.06,0,0,0-.55,3.33V52.26h-6.66Z"/><path class="cls-1" d="M202.93,43.26a62.72,62.72,0,0,0,.54,9h-6.13l-.54-4.73h-.23a14,14,0,0,1-11.48,5.58c-7.59,0-11.47-5.35-11.47-10.78,0-9.07,8.06-14,22.56-13.95V27.6c0-3-.85-8.68-8.53-8.6a18,18,0,0,0-9.84,2.79l-1.55-4.58A24.26,24.26,0,0,1,188.66,14c11.47,0,14.27,7.83,14.27,15.27Zm-6.59-10.15c-7.45-.16-15.9,1.16-15.9,8.45,0,4.49,2.95,6.51,6.36,6.51A9.48,9.48,0,0,0,196,41.79a7.82,7.82,0,0,0,.31-2.17Z"/><path class="cls-1" d="M213,45.36A19.3,19.3,0,0,0,222.07,48c4.89,0,7.22-2.4,7.22-5.58s-1.94-5-6.91-6.82c-6.82-2.48-10-6.13-10-10.63,0-6,5-11,13-11a17.41,17.41,0,0,1,9.15,2.32l-1.63,5A14.54,14.54,0,0,0,225.18,19c-4,0-6.21,2.32-6.21,5.11,0,3.1,2.17,4.5,7.06,6.44,6.43,2.4,9.85,5.66,9.85,11.24,0,6.67-5.2,11.32-14,11.32a21.36,21.36,0,0,1-10.54-2.64Z"/></g></g></svg>