<svg xmlns="http://www.w3.org/2000/svg" width="23.5" height="10.82" viewBox="0 0 23.5 10.82"><defs><style>.cls-1,.cls-4{fill:#fff;}.cls-2{fill:#ffdebd;}.cls-3{fill:#ffa733;}.cls-4{stroke:#fff;stroke-linecap:round;stroke-miterlimit:10;}</style></defs><title>Asset 13</title><g id="Layer_2" data-name="Layer 2"><g id="Layer_1-2" data-name="Layer 1"><path class="cls-1" d="M16.43,2A3.44,3.44,0,1,1,13,5.41,3.44,3.44,0,0,1,16.43,2m0-1a4.44,4.44,0,1,0,4.44,4.44A4.44,4.44,0,0,0,16.43,1Z"/><path class="cls-2" d="M16.47,3A2.48,2.48,0,1,1,14,5.44,2.48,2.48,0,0,1,16.47,3m0-1a3.48,3.48,0,1,0,3.48,3.48A3.48,3.48,0,0,0,16.47,2Z"/><path class="cls-3" d="M16.44,1A4.41,4.41,0,1,1,12,5.41,4.41,4.41,0,0,1,16.44,1m0-1a5.41,5.41,0,1,0,5.41,5.41A5.41,5.41,0,0,0,16.44,0Z"/><path class="cls-2" d="M6.62,2A3.44,3.44,0,1,1,3.18,5.42,3.44,3.44,0,0,1,6.62,2m0-1a4.44,4.44,0,1,0,4.44,4.44A4.44,4.44,0,0,0,6.62,1Z"/><path class="cls-1" d="M6.65,3A2.48,2.48,0,1,1,4.18,5.45,2.48,2.48,0,0,1,6.65,3m0-1a3.48,3.48,0,1,0,3.48,3.48A3.48,3.48,0,0,0,6.65,2Z"/><path class="cls-3" d="M6.63,1A4.41,4.41,0,1,1,2.22,5.42,4.41,4.41,0,0,1,6.63,1m0-1A5.41,5.41,0,1,0,12,5.42,5.41,5.41,0,0,0,6.63,0Z"/><circle class="cls-4" cx="2.29" cy="5.43" r="1.79"/><circle class="cls-4" cx="21.21" cy="5.3" r="1.79"/></g></g></svg>