<svg xmlns="http://www.w3.org/2000/svg" width="13" height="11.22" viewBox="0 0 12.42 11.22"><defs><style>.cls-1{fill:#ffdebd;}.cls-2{fill:#ffa733;}.cls-3{fill:#fff;}</style></defs><title>Asset 11</title><g id="Layer_2" data-name="Layer 2"><g id="Layer_1-2" data-name="Layer 1"><path class="cls-1" d="M5.39,2A3.44,3.44,0,1,1,2,5.41,3.44,3.44,0,0,1,5.39,2m0-1A4.44,4.44,0,1,0,9.83,5.41,4.44,4.44,0,0,0,5.39,1Z"/><path class="cls-2" d="M5.41,1A4.41,4.41,0,1,1,1,5.41,4.41,4.41,0,0,1,5.41,1m0-1a5.41,5.41,0,1,0,5.41,5.41A5.41,5.41,0,0,0,5.41,0Z"/><circle class="cls-3" cx="8.92" cy="7.71" r="3.5"/><circle class="cls-3" cx="8.92" cy="7.71" r="3"/><path class="cls-2" d="M8.92,5.21a2.5,2.5,0,1,1-2.5,2.5,2.51,2.51,0,0,1,2.5-2.5m0-1a3.5,3.5,0,1,0,3.5,3.5,3.5,3.5,0,0,0-3.5-3.5Z"/><circle class="cls-1" cx="8.9" cy="7.68" r="2.06"/><path class="cls-3" d="M8.9,6.11A1.56,1.56,0,1,1,7.34,7.68,1.56,1.56,0,0,1,8.9,6.11m0-1a2.56,2.56,0,1,0,2.56,2.56A2.56,2.56,0,0,0,8.9,5.11Z"/></g></g></svg>