<svg xmlns="http://www.w3.org/2000/svg" xmlns:xlink="http://www.w3.org/1999/xlink" width="117.88" height="159.25" viewBox="0 0 117.88 159.25"><defs><style>.cls-1{isolation:isolate;}.cls-2,.cls-8{fill:#fff;}.cls-3{fill:url(#linear-gradient);}.cls-4{fill:#f75c95;}.cls-5{fill:#f2f2f2;}.cls-10,.cls-11,.cls-5,.cls-6,.cls-7{mix-blend-mode:multiply;}.cls-6{fill:#ccc;}.cls-7{fill:#b3b3b3;}.cls-8,.cls-9{opacity:0.2;}.cls-10{fill:url(#radial-gradient);}.cls-11{fill:url(#radial-gradient-2);}</style><linearGradient id="linear-gradient" x1="-47.17" y1="549.11" x2="28.68" y2="624.96" gradientTransform="translate(648.82 62.15) rotate(90)" gradientUnits="userSpaceOnUse"><stop offset="0" stop-color="#fdd94f"/><stop offset="0.85" stop-color="#feba25"/><stop offset="1" stop-color="#feb41d"/></linearGradient><radialGradient id="radial-gradient" cx="94.54" cy="184.79" r="3.81" gradientTransform="translate(251.31 6.71) rotate(90) scale(1.07)" gradientUnits="userSpaceOnUse"><stop offset="0" stop-color="#b3b3b3"/><stop offset="0.14" stop-color="#c2c2c2"/><stop offset="0.5" stop-color="#e3e3e3"/><stop offset="0.8" stop-color="#f8f8f8"/><stop offset="1" stop-color="#fff"/></radialGradient><radialGradient id="radial-gradient-2" cx="67.7" cy="188.76" r="2.5" gradientTransform="translate(241.47 38.85) rotate(90)" gradientUnits="userSpaceOnUse"><stop offset="0" stop-color="#f2f2f2"/><stop offset="0.32" stop-color="#ebebeb"/><stop offset="0.79" stop-color="#d6d6d6"/><stop offset="0.98" stop-color="#ccc"/></radialGradient></defs><title>Asset 2</title><g class="cls-1"><g id="Layer_2" data-name="Layer 2"><g id="Layer_1-2" data-name="Layer 1"><rect class="cls-2" x="10.21" y="27.12" width="103.16" height="51.58" transform="translate(-19.55 52.09) rotate(-40)"/><path class="cls-3" d="M9.16,70.43,5.7,66.31,84.72,0l3.46,4.12ZM95.61,13,92.15,8.85l-79,66.31,3.46,4.12ZM103,21.82l-3.46-4.12L20.55,84,24,88.13Zm7.42,8.85L107,26.54,28,92.85,31.43,97Zm7.42,8.85-3.46-4.12-79,66.31,3.46,4.12Z"/><path class="cls-4" d="M90.11,69.15S73.89,67,63.54,64.25c-10.1-2.71-25.46-9-25.46-9l13.94,52Z"/><path class="cls-4" d="M38.08,55.21s-10,13-17.53,20.56C13.17,83.16,0,93.29,0,93.29l52,13.94Z"/><path class="cls-4" d="M0,93.29s6.27,15.11,9,25.46c2.71,10.1,4.9,26.57,4.9,26.57L52,107.23Z"/><path class="cls-4" d="M13.94,145.32s16.22,2.13,26.57,4.9c10.1,2.71,25.46,9,25.46,9L52,107.23Z"/><path class="cls-4" d="M66,159.25s10-13,17.53-20.56c7.39-7.39,20.56-17.53,20.56-17.53L52,107.23Z"/><path class="cls-4" d="M104,121.17s-6.27-15.11-9-25.46c-2.71-10.1-4.9-26.57-4.9-26.57L52,107.23Z"/><path class="cls-5" d="M90.11,69.15S73.89,67,63.54,64.25c-10.1-2.71-25.46-9-25.46-9l13.94,52Z"/><path class="cls-6" d="M38.08,55.21s-10,13-17.53,20.56C13.17,83.16,0,93.29,0,93.29l52,13.94Z"/><path class="cls-7" d="M0,93.29s6.27,15.11,9,25.46c2.71,10.1,4.9,26.57,4.9,26.57L52,107.23Z"/><path class="cls-6" d="M13.94,145.32s16.22,2.13,26.57,4.9c10.1,2.71,25.46,9,25.46,9L52,107.23Z"/><path class="cls-5" d="M66,159.25s10-13,17.53-20.56c7.39-7.39,20.56-17.53,20.56-17.53L52,107.23Z"/><path class="cls-8" d="M104,121.17s-6.27-15.11-9-25.46c-2.71-10.1-4.9-26.57-4.9-26.57L52,107.23Z"/><g class="cls-9"><polygon class="cls-2" points="38.08 55.21 41.69 68.18 45.21 81.18 52.27 107.17 59.15 133.2 62.6 146.22 65.96 159.25 62.36 146.28 58.83 133.29 51.78 107.3 44.89 81.26 41.45 68.25 38.08 55.21"/><polygon class="cls-2" points="0 93.29 13.04 96.66 26.05 100.1 52.09 106.99 78.08 114.04 91.07 117.57 104.05 121.17 91.01 117.8 77.99 114.36 51.96 107.47 25.97 100.42 12.97 96.89 0 93.29"/><polygon class="cls-2" points="13.94 145.31 23.38 135.71 32.86 126.16 51.85 107.06 70.95 88.07 80.5 78.58 90.11 69.15 80.67 78.75 71.18 88.31 52.2 107.41 33.1 126.39 23.55 135.88 13.94 145.31"/></g><circle class="cls-10" cx="52.77" cy="108.08" r="4.09" transform="translate(-65.28 131.08) rotate(-75)"/><circle class="cls-4" cx="52.02" cy="107.23" r="2.5" transform="translate(-65.02 129.73) rotate(-75)"/><circle class="cls-11" cx="52.02" cy="107.23" r="2.5" transform="translate(-65.02 129.73) rotate(-75)"/></g></g></g></svg>