<svg xmlns="http://www.w3.org/2000/svg" width="600" height="420" viewBox="0 0 600 420"><defs><style>.cls-1{isolation:isolate;}.cls-2{fill:#fec5ce;}.cls-3{mix-blend-mode:multiply;}.cls-28,.cls-4{fill:#fff;}.cls-4{opacity:0;}.cls-5{fill:#fafafa;opacity:0.05;}.cls-6{fill:#f5f5f5;opacity:0.1;}.cls-7{fill:#f0f0f0;opacity:0.14;}.cls-8{fill:#ececec;opacity:0.19;}.cls-9{fill:#e7e7e7;opacity:0.24;}.cls-10{fill:#e2e2e2;opacity:0.29;}.cls-11{fill:#ddd;opacity:0.33;}.cls-12{fill:#d8d8d8;opacity:0.38;}.cls-13{fill:#d3d3d3;opacity:0.43;}.cls-14{fill:#cecece;opacity:0.48;}.cls-15{fill:#cacaca;opacity:0.52;}.cls-16{fill:#c5c5c5;opacity:0.57;}.cls-17{fill:silver;opacity:0.62;}.cls-18{fill:#bbb;opacity:0.67;}.cls-19{fill:#b6b6b6;opacity:0.71;}.cls-20{fill:#b1b1b1;opacity:0.76;}.cls-21{fill:#acacac;opacity:0.81;}.cls-22{fill:#a8a8a8;opacity:0.86;}.cls-23{fill:#a3a3a3;opacity:0.9;}.cls-24{fill:#9e9e9e;opacity:0.95;}.cls-25{fill:#999;}.cls-26{fill:#1ab7bd;}.cls-27{fill:#2ccad0;}.cls-28{opacity:0.6;}</style></defs><title>Asset 3</title><g class="cls-1"><g id="Layer_2" data-name="Layer 2"><g id="Layer_1-2" data-name="Layer 1"><rect class="cls-2" width="600" height="420"/><g class="cls-3"><path class="cls-4" d="M0,238.11c63.67,12.19,147.58,3.85,221.67-.63C265.79,234.81,312,222.77,356,227.16c43.47,4.34,79,30.64,122.31,36.47,38.26,5.15,83.38-5.59,121.67-10v-86H0Z"/><path class="cls-5" d="M0,237.39c64.16,11.88,147.62,3.52,221.71-1,44.12-2.67,90.22-14.19,134.27-9.79,43.47,4.34,79.39,29.81,122.66,35.63,38.26,5.15,83.08-4.95,121.36-9.4v-86H0Z"/><path class="cls-6" d="M0,236.68c64.66,11.57,147.67,3.19,221.76-1.29,44.12-2.67,90.13-13.66,134.18-9.26,43.47,4.34,79.74,29,123,34.79,38.26,5.15,82.78-4.3,121.06-8.76v-86H0Z"/><path class="cls-7" d="M0,236c65.16,11.25,147.71,2.86,221.8-1.62,44.12-2.67,90-13.14,134.09-8.74,43.47,4.34,80.09,28.13,123.35,34,38.26,5.15,82.47-3.66,120.76-8.11v-86H0Z"/><path class="cls-8" d="M0,235.25c65.65,10.94,147.76,2.53,221.85-2,44.12-2.67,90-12.61,134-8.21,43.47,4.34,80.43,27.29,123.7,33.12,38.26,5.15,82.17-3,120.46-7.47v-86H0Z"/><path class="cls-9" d="M0,234.54c66.15,10.63,147.8,2.2,221.89-2.28,44.12-2.67,89.86-12.09,133.91-7.69,43.47,4.34,80.78,26.46,124,32.28C518.11,262,561.72,254.47,600,250v-86H0Z"/><path class="cls-10" d="M0,233.82c66.64,10.32,147.85,1.87,221.94-2.61,44.12-2.67,89.77-11.56,133.82-7.16,43.47,4.34,81.13,25.62,124.4,31.44,38.26,5.15,81.57-1.73,119.85-6.18v-86H0Z"/><path class="cls-11" d="M0,233.11c67.14,10,147.89,1.54,222-2.94,44.12-2.67,89.68-11,133.73-6.64,43.47,4.34,81.48,24.78,124.74,30.6,38.26,5.15,81.26-1.09,119.55-5.54v-86H0Z"/><path class="cls-12" d="M0,232.39c67.64,9.69,147.94,1.21,222-3.27,44.12-2.67,89.59-10.51,133.64-6.12,43.47,4.34,81.82,23.94,125.09,29.77,38.26,5.15,81-.44,119.25-4.9v-86H0Z"/><path class="cls-13" d="M0,231.68c68.13,9.38,148,.88,222.07-3.61,44.12-2.67,89.5-10,133.55-5.59,43.47,4.34,82.17,23.1,125.44,28.93,38.26,5.15,80.66.2,118.94-4.25v-86H0Z"/><path class="cls-14" d="M0,231c68.63,9.07,148,.55,222.12-3.94,44.12-2.67,89.41-9.47,133.46-5.07,43.47,4.34,82.52,22.27,125.79,28.09,38.26,5.15,80.36.84,118.64-3.61v-86H0Z"/><path class="cls-15" d="M0,230.25c69.12,8.76,148.07.22,222.16-4.27,44.12-2.67,89.32-8.94,133.37-4.54,43.47,4.34,82.87,21.43,126.13,27.25,38.26,5.15,80.05,1.49,118.34-3v-86H0Z"/><path class="cls-16" d="M0,229.54c69.62,8.45,148.12-.11,222.21-4.6,44.12-2.67,89.23-8.42,133.28-4C399,225.26,438.7,241.52,482,247.34c38.26,5.15,79.75,2.13,118-2.32v-86H0Z"/><path class="cls-17" d="M0,228.82c70.12,8.13,148.16-.44,222.25-4.93,44.12-2.67,89.14-7.89,133.19-3.49C398.91,224.74,439,240.16,482.27,246c38.26,5.15,79.45,2.78,117.73-1.68v-86H0Z"/><path class="cls-18" d="M0,228.11c70.61,7.82,148.21-.77,222.3-5.26,44.12-2.67,89.05-7.37,133.1-3,43.47,4.34,83.91,18.92,127.18,24.74,38.26,5.15,79.15,3.42,117.43-1v-86H0Z"/><path class="cls-19" d="M0,227.39c71.11,7.51,148.25-1.1,222.34-5.59,44.12-2.67,89-6.84,133-2.44,43.47,4.34,84.26,18.08,127.52,23.9,38.26,5.15,78.84,4.06,117.13-.39v-86H0Z"/><path class="cls-20" d="M0,226.68c71.61,7.2,148.3-1.43,222.39-5.92,44.12-2.67,88.87-6.32,132.92-1.92,43.47,4.34,84.6,17.24,127.87,23.07,38.26,5.15,78.54,4.71,116.82.25v-86H0Z"/><path class="cls-21" d="M0,226c72.1,6.89,148.34-1.76,222.43-6.25,44.12-2.67,88.78-5.79,132.83-1.39,43.47,4.34,85,16.4,128.22,22.23a473,473,0,0,0,116.52.89v-86H0Z"/><path class="cls-22" d="M0,225.25c72.6,6.57,148.39-2.09,222.48-6.58,44.12-2.67,88.69-5.27,132.74-.87,43.47,4.34,85.3,15.57,128.57,21.39,38.26,5.15,77.93,6,116.22,1.54v-86H0Z"/><path class="cls-23" d="M0,224.54c73.09,6.26,148.43-2.42,222.52-6.91,44.12-2.67,88.6-4.74,132.65-.35,43.47,4.34,85.65,14.73,128.91,20.55C522.35,243,561.72,244.47,600,240v-86H0Z"/><path class="cls-24" d="M0,223.82c73.59,6,148.48-2.75,222.57-7.24,44.12-2.67,88.51-4.22,132.56.18,43.47,4.34,86,13.89,129.26,19.72,38.26,5.15,77.33,7.28,115.61,2.82v-86H0Z"/><path class="cls-25" d="M0,223.11c74.09,5.64,148.52-3.08,222.61-7.57,44.12-2.67,88.42-3.7,132.47.7,43.47,4.34,86.34,13.05,129.61,18.88,38.26,5.15,77,7.92,115.31,3.47v-86H0Z"/></g><path class="cls-26" d="M0,223.11c74.09,5.64,148.52-3.08,222.61-7.57,44.12-2.67,88.42-3.7,132.47.7,43.47,4.34,86.34,13.05,129.61,18.88,38.26,5.15,77,7.92,115.31,3.47v-86H0Z"/><path class="cls-27" d="M222.61,215.54c44.12-2.67,88.42-3.7,132.47.7,43.47,4.34,86.34,13.05,129.61,18.88,38.26,5.15,77,7.92,115.31,3.47v-1c-38.28,4.46-77,1.68-115.31-3.47-43.27-5.82-86.14-14.54-129.61-18.88-44-4.4-88.35-3.37-132.47-.7C148.52,219,74.09,227.75,0,222.11v1C74.09,228.75,148.52,220,222.61,215.54Z"/><g class="cls-3"><path class="cls-4" d="M0,213.72c66.33-12.51,147.24-20.43,222.33-16.27,42.22,2.34,87.41,11.07,129.31,16.83S435.19,232.39,477,238.55c40.75,6,81.83,5.83,123,3.39V168.12H0Z"/><path class="cls-5" d="M0,212.63C66.74,200.41,147.39,192.81,222.48,197c42.22,2.34,87.27,10.84,129.16,16.6S435.19,231.48,477,237.63c40.75,6,81.83,6,123,3.59V167.41H0Z"/><path class="cls-6" d="M0,211.53c67.15-11.93,147.53-19.21,222.62-15.05,42.22,2.34,87.12,10.62,129,16.38s83.54,17.7,125.38,23.86c40.75,6,81.84,6.24,123,3.79V166.69H0Z"/><path class="cls-7" d="M0,210.44c67.56-11.64,147.67-18.6,222.77-14.44,42.22,2.34,87,10.39,128.87,16.15S435.17,229.64,477,235.8c40.75,6,81.85,6.44,123,4V166H0Z"/><path class="cls-8" d="M0,209.34c68-11.36,147.82-18,222.91-13.84,42.22,2.34,86.83,10.16,128.73,15.92s83.53,17.3,125.37,23.45c40.75,6,81.85,6.64,123,4.2V165.26H0Z"/><path class="cls-9" d="M0,208.25C68.38,197.18,148,190.86,223.06,195c42.22,2.34,86.69,9.94,128.58,15.7S435.16,227.81,477,234c40.75,6,81.86,6.84,123,4.4V164.55H0Z"/><path class="cls-10" d="M0,207.15c68.79-10.78,148.11-16.78,223.2-12.62,42.22,2.34,86.55,9.71,128.44,15.47S435.16,226.89,477,233c40.75,6,81.86,7,123,4.61V163.83H0Z"/><path class="cls-11" d="M0,206.06c69.2-10.49,148.25-16.17,223.34-12,42.22,2.34,86.4,9.48,128.29,15.24S435.15,226,477,232.13c40.75,6,81.87,7.25,123,4.81V163.12H0Z"/><path class="cls-12" d="M0,205c69.61-10.2,148.4-15.56,223.49-11.4,42.22,2.34,86.26,9.25,128.15,15S435.15,225.06,477,231.21a599.93,599.93,0,0,0,123,5V162.41H0Z"/><path class="cls-13" d="M0,203.87c70-9.92,148.54-15,223.63-10.8,42.22,2.34,86.11,9,128,14.79s83.5,16.28,125.34,22.44a600.07,600.07,0,0,0,123,5.21V161.69H0Z"/><path class="cls-14" d="M0,202.77c70.42-9.63,148.69-14.35,223.78-10.19,42.22,2.34,86,8.8,127.86,14.56s83.5,16.08,125.34,22.23a600.21,600.21,0,0,0,123,5.42V161H0Z"/><path class="cls-15" d="M0,201.67c70.83-9.34,148.83-13.74,223.92-9.58,42.22,2.34,85.82,8.57,127.72,14.33s83.49,15.88,125.33,22a600.35,600.35,0,0,0,123,5.62V160.26H0Z"/><path class="cls-16" d="M0,200.58c71.24-9.05,149-13.13,224.07-9,42.22,2.34,85.68,8.35,127.57,14.11S435.12,221.39,477,227.54a600.5,600.5,0,0,0,123,5.82V159.55H0Z"/><path class="cls-17" d="M0,199.48c71.65-8.76,149.12-12.52,224.21-8.36,42.22,2.34,85.53,8.12,127.43,13.88S435.12,220.47,477,226.62c40.75,6,81.9,8.47,123,6V158.83H0Z"/><path class="cls-18" d="M0,198.39c72.06-8.47,149.26-11.92,224.36-7.76,42.22,2.34,85.39,7.89,127.28,13.65S435.11,219.55,477,225.71c40.75,6,81.91,8.67,123,6.23V158.12H0Z"/><path class="cls-19" d="M0,197.29c72.47-8.19,149.41-11.31,224.5-7.15,42.22,2.34,85.24,7.66,127.14,13.42s83.47,15.06,125.31,21.22c40.75,6,81.92,8.87,123.05,6.43V157.41H0Z"/><path class="cls-20" d="M0,196.2c72.88-7.9,149.55-10.7,224.65-6.54,42.22,2.34,85.1,7.44,127,13.2s83.46,14.86,125.3,21c40.75,6,81.92,9.08,123.06,6.64V156.69H0Z"/><path class="cls-21" d="M0,195.1c73.29-7.61,149.7-10.09,224.79-5.93,42.22,2.34,85,7.21,126.85,13S435.09,216.8,476.94,223c40.75,6,81.93,9.28,123.06,6.84V156H0Z"/><path class="cls-22" d="M0,194a1468.09,1468.09,0,0,1,224.93-5.32c42.22,2.34,84.81,7,126.7,12.74S435.09,215.88,476.93,222c40.75,6,81.93,9.48,123.07,7V155.26H0Z"/><path class="cls-23" d="M0,192.91a1509,1509,0,0,1,225.08-4.72c42.22,2.34,84.67,6.76,126.56,12.52S435.08,215,476.92,221.12c40.75,6,81.94,9.69,123.08,7.24V154.55H0Z"/><path class="cls-24" d="M0,191.82a1551.9,1551.9,0,0,1,225.22-4.11c42.22,2.34,84.52,6.53,126.42,12.29s83.44,14,125.28,20.2c40.75,6,81.94,9.89,123.08,7.45V153.83H0Z"/><path class="cls-25" d="M0,190.72a1596.9,1596.9,0,0,1,225.37-3.5q63.33,3.51,126.27,12.06c41.9,5.76,83.43,13.85,125.27,20,40.75,6,82,10.09,123.09,7.65V153.12H0Z"/></g><path class="cls-27" d="M0,0V190.72a1596.93,1596.93,0,0,1,225.37-3.5q63.33,3.51,126.27,12.06c41.9,5.76,83.43,13.85,125.27,20,40.75,6,82,10.09,123.09,7.65V0Z"/><path class="cls-28" d="M225.37,187.22q63.33,3.51,126.27,12.06c41.9,5.76,83.43,13.85,125.27,20,40.75,6,82,10.09,123.09,7.65v-1c-41.14,2.44-82.34-1.66-123.09-7.65-41.84-6.15-83.37-14.24-125.27-20s-84.05-9.72-126.27-12.06A1596.9,1596.9,0,0,0,0,189.72v1A1596.9,1596.9,0,0,1,225.37,187.22Z"/></g></g></g></svg>