<?xml version="1.0" encoding="utf-8"?>
<!-- Generator: Adobe Illustrator 15.1.0, SVG Export Plug-In . SVG Version: 6.00 Build 0)  -->
<!DOCTYPE svg PUBLIC "-//W3C//DTD SVG 1.1//EN" "http://www.w3.org/Graphics/SVG/1.1/DTD/svg11.dtd">
<svg version="1.1" id="Layer_1" xmlns="http://www.w3.org/2000/svg" xmlns:xlink="http://www.w3.org/1999/xlink" x="0px" y="0px"
	 width="32px" height="32px" viewBox="0 0 32 32" enable-background="new 0 0 32 32" xml:space="preserve">
<g>
	<path fill="#2db7da" d="M15.701,3.764c6.617,0,12,5.383,12,12c0,6.617-5.383,12-12,12c-6.617,0-12-5.383-12-12
		C3.701,9.147,9.084,3.764,15.701,3.764 M15.701,0.764c-8.284,0-15,6.716-15,15c0,8.283,6.716,15,15,15c8.285,0,15-6.717,15-15
		C30.701,7.479,23.986,0.764,15.701,0.764L15.701,0.764z"/>
</g>
<text transform="matrix(1 0 0 1 8.6025 23.1328)" fill="#2db7da" font-family="'ArialMT'" font-size="21">€</text>
</svg>
