<?xml version="1.0" encoding="utf-8"?>
<!-- Generator: Adobe Illustrator 15.1.0, SVG Export Plug-In . SVG Version: 6.00 Build 0)  -->
<!DOCTYPE svg PUBLIC "-//W3C//DTD SVG 1.1//EN" "http://www.w3.org/Graphics/SVG/1.1/DTD/svg11.dtd">
<svg version="1.1" id="Layer_1" xmlns="http://www.w3.org/2000/svg" xmlns:xlink="http://www.w3.org/1999/xlink" x="0px" y="0px"
	 width="176px" height="11.833px" viewBox="0 0 176 11.833" enable-background="new 0 0 176 11.833" xml:space="preserve">
<g>
	<path fill="#ff585d" d="M154.394,7.197c-0.813-0.535-1.246,0.103-1.807,0.126c-1.807,0.074-3.621,0.064-5.43,0.133
		c-1.447,0.055-2.895-0.115-4.32,0.45c-0.773,0.306-1.92,0.166-2.896,0.173c-5.934,0.043-11.865,0.043-17.797,0.121
		c-2.092,0.029-4.236-0.318-6.266,0.508c-0.627,0.256-1.617,0.057-2.441,0.063c-6.098,0.041-12.194,0.053-18.291,0.139
		c-2.421,0.033-4.88-0.309-7.253,0.502c-0.815,0.279-1.949,0.092-2.938,0.1c-4.942,0.033-9.887,0.027-14.829,0.105
		c-2.256,0.035-4.605-0.373-6.731,0.549c-0.122,0.055-0.324,0.014-0.489,0.018c-0.329,0.006-0.659,0.016-0.988,0.02
		c-1.812,0.02-3.625,0.041-5.438,0.055c-1.977,0.016-3.973,0.156-5.923,0.004c-1.884-0.148-3.427,0.639-5.245,0.633
		c-10.051-0.025-20.104,0.068-30.154-0.021c-2.375-0.02-4.766-0.518-7.096-0.945C7.288,9.785,6.547,9.561,5.721,9.512
		c-2.246-0.135-4-0.95-5.377-2.173C0.08,7.103-0.093,6.635,0.054,6.382c0.37-0.636,0.781-1.345,1.476-1.781
		c1.432-0.899,2.879-1.957,5.127-0.834c0.718,0.359,2.029,0.077,2.826,0.397c2.217,0.892,4.568,1.159,7.039,1.174
		c2.113,0.013,4.043,0.79,6.238,0.647c2.121-0.137,4.279,0.022,6.421,0.035c2.142,0.011,4.285,0.01,6.427,0
		c2.142-0.012,4.284-0.052,6.426-0.065c2.142-0.013,4.285-0.025,6.427-0.007c1.801,0.014,3.314-0.886,5.24-0.673
		c1.77,0.195,3.617,0.04,5.429,0.027c1.813-0.014,3.625-0.052,5.438-0.063c1.812-0.011,3.627-0.04,5.438,0.008
		c1.972,0.052,3.662-0.864,5.731-0.661c1.938,0.191,3.947,0.021,5.923,0.018c2.143-0.004,4.286,0.011,6.428,0
		c1.979-0.011,3.955-0.056,5.932-0.071c1.977-0.014,3.955-0.003,5.933-0.017c1.136-0.007,2.219,0.002,3.337-0.396
		c0.807-0.288,1.919-0.168,2.896-0.177c5.437-0.051,10.876-0.064,16.312-0.137c1.93-0.026,3.902,0.281,5.762-0.524
		c0.611-0.264,1.613-0.068,2.438-0.075c3.625-0.031,7.25-0.019,10.873-0.099c2.584-0.057,5.131,0.104,7.752-0.483
		c2.115-0.474,4.576-0.212,6.879-0.184c1.814,0.023,3.504-0.307,5.252-0.562c1.748-0.255,3.615-0.073,5.418-0.178
		c0.605-0.035,1.152-0.412,1.766-0.544c2.578-0.562,5.215,0.42,6.4,2.67c0.23,0.438-0.004,0.934-0.486,1.303
		c-1.285,0.98-2.83,1.543-4.748,1.553c-3.295,0.016-6.592,0.039-9.887,0.089c-1.445,0.023-2.951-0.211-4.271,0.526
		C155.384,7.442,154.735,7.231,154.394,7.197z"/>
</g>
</svg>
