<?xml version="1.0" encoding="utf-8"?>
<!-- Generator: Adobe Illustrator 15.1.0, SVG Export Plug-In . SVG Version: 6.00 Build 0)  -->
<!DOCTYPE svg PUBLIC "-//W3C//DTD SVG 1.1//EN" "http://www.w3.org/Graphics/SVG/1.1/DTD/svg11.dtd">
<svg version="1.1" id="Layer_1" xmlns="http://www.w3.org/2000/svg" xmlns:xlink="http://www.w3.org/1999/xlink" x="0px" y="0px"
	 width="260px" height="14px" viewBox="0 0 260 14" enable-background="new 0 0 260 14" xml:space="preserve">
<g>
	<path fill="#ff585d" d="M234.2,11.49c-4.352,0-8.706-0.047-13.055,0.016c-4.022,0.057-7.632-0.926-11.766-0.727
		c-3.684,0.176-7.451,0.012-11.182-0.01c-4.041-0.023-8.088-0.117-12.123-0.055c-1.99,0.031-3.776-1.02-5.845-0.186
		c-1.51-0.627-3.398-0.58-5.259-0.592c-2.178-0.014-4.354-0.039-6.529-0.061c-1.866-0.016-3.973,0.215-5.55-0.094
		c-5.383-1.049-10.983-0.508-16.475-0.691c-4.563-0.152-9.182,0.223-13.666-0.687c-1.827-0.371-4.296-0.129-6.47-0.129
		C100.785,8.287,75.284,8.359,49.79,8.266c-3.829-0.014-7.107,0.791-10.828,0.766c-4.349-0.029-8.705,0.039-13.053,0.117
		c-4.268,0.076-8.559-0.217-12.759,0.615c-1.841,0.363-4.295,0.131-6.472,0.135C4.436,9.904,2.351,9.143,2.219,8.217
		c-0.117-0.825-0.042-1.659,0.04-2.488c0.044-0.447,0.748-0.645,1.649-0.852c2.23-0.514,4.485-0.769,7.026-0.848
		c3.349-0.104,6.789,0.358,10.071-0.381c3.196-0.72,6.722-0.209,10.088-0.335c3.09-0.115,6.215-0.037,9.324-0.053
		c3.42-0.017,6.972,0.214,10.234-0.117C60.748,2.12,70.939,2.541,81.089,2.47c10.259-0.071,20.524-0.035,30.784-0.008
		c3.044,0.008,6.168-0.279,9.02,0.617c0.851,0.268,2.407,0.103,3.64,0.112c4.973,0.037,9.955,0.009,14.921,0.111
		c4.566,0.093,9.309-0.394,13.614,0.711c5.904,0.054,11.815,0.068,17.717,0.177c3.326,0.062,6.743-0.333,9.957,0.579
		c1.131,0.321,3.032,0.102,4.582,0.133c7.035,0.144,14.179-0.406,21.064,0.758c1.367,0.23,3.081,0.052,4.638,0.055
		c4.352,0.008,8.715-0.074,13.055,0.04c4.258,0.111,8.746-0.437,12.703,0.731c4.044,0.016,8.11,0.161,12.12,0.012
		c4.034-0.149,6.364,0.756,8.37,2.068c1.28,0.836,0.299,1.76-2.01,2.182c-3.487,0.637-7.063,0.871-10.806,0.82
		c-3.416-0.045-6.839-0.01-10.259-0.01C234.2,11.537,234.2,11.514,234.2,11.49z"/>
</g>
</svg>
