<?xml version="1.0" encoding="utf-8"?>
<!-- Generator: Adobe Illustrator 15.1.0, SVG Export Plug-In . SVG Version: 6.00 Build 0)  -->
<!DOCTYPE svg PUBLIC "-//W3C//DTD SVG 1.1//EN" "http://www.w3.org/Graphics/SVG/1.1/DTD/svg11.dtd">
<svg version="1.1" id="Capa_1" xmlns="http://www.w3.org/2000/svg" xmlns:xlink="http://www.w3.org/1999/xlink" x="0px" y="0px"
	 width="841.889px" height="595.281px" viewBox="0 0 841.889 595.281" enable-background="new 0 0 841.889 595.281"
	 xml:space="preserve">
<path fill="#575756" d="M252.252,285.254c-4.762,2.381-4.762,10.119,0,12.501c36.907,20.239,74.41,38.692,114.89,49.407
	c5.952,1.191,11.905-5.357,8.334-10.715c-8.334-11.905-18.454-22.025-30.359-30.954c83.338,2.381,169.655,13.691,251.803-5.953
	c5.953-1.19,4.762-11.311-1.19-10.715c-85.125,10.715-169.655,2.381-254.78,1.19c8.929-10.119,17.858-20.239,26.787-29.764
	c4.167-4.167,1.786-13.097-5.357-12.501C323.091,252.512,286.183,265.609,252.252,285.254z M323.091,291.802
	c-5.357,3.571-4.167,13.691,4.167,13.691c0.595,0,1.19,0,1.19,0c7.144,7.144,14.287,13.691,21.43,21.43
	c-27.383-9.524-52.979-21.43-78.577-35.121c23.217-11.905,47.027-20.835,72.625-25.597c-5.953,6.548-11.906,13.691-18.454,20.239
	C323.091,287.635,322.495,290.015,323.091,291.802z"/>
</svg>
